<svg width="251" height="192" viewBox="0 0 251 192" fill="none" xmlns="http://www.w3.org/2000/svg">
<g clip-path="url(#clip0_230_19950)">
<mask id="mask0_230_19950" style="mask-type:luminance" maskUnits="userSpaceOnUse" x="-20" y="-186" width="278" height="640">
<path d="M-19.1489 453.58H257.635V-185.524H-19.1489V453.58Z" fill="white"/>
</mask>
<g mask="url(#mask0_230_19950)">
<path d="M239.512 15.9656C238.425 15.9386 237.17 15.9192 236.014 15.8785C235.292 12.9819 234.531 10.0934 233.787 7.21613C233.766 6.94294 233.633 6.81324 233.486 6.75435C233.409 6.58642 233.299 6.43605 233.132 6.3665C232.07 6.1096 232.161 8.01438 231.884 8.76752C231.408 11.0363 231.011 13.3221 230.547 15.5947C228.412 15.3146 226.296 14.8703 224.198 14.3327C223.182 14.2124 223.022 15.5608 223.864 16.0608C225.734 17.5232 227.514 19.1317 229.405 20.5653C229.42 20.6091 229.433 20.6542 229.447 20.6987C228.87 23.4487 228.196 26.1712 227.587 28.9125C227.462 29.7878 226.73 31.3924 227.953 31.603C228.366 31.6424 228.661 31.2627 228.913 30.9426C230.613 28.7301 232.321 26.5221 234.012 24.2996C235.678 25.7915 237.194 27.4801 238.722 29.1474C238.924 29.3636 239.129 29.5685 239.42 29.5948C240.954 29.4369 239.944 27.341 239.615 26.403C238.831 24.4719 238.137 22.492 237.373 20.4694C238.494 19.2683 239.901 18.4493 241.05 17.3152C241.576 16.0364 240.326 15.8967 239.512 15.9656Z" fill="#FFC04F"/>
<path d="M247.812 9.86921C247.629 9.7652 247.438 9.76332 247.245 9.8216C246.622 10.039 245.996 10.2433 245.365 10.435C244.919 10.5898 244.332 10.6487 243.921 10.9682C243.578 11.2865 243.61 11.9375 243.981 12.217C244.166 12.3611 244.409 12.393 244.618 12.3072C245.46 12.0798 246.308 11.8592 247.138 11.5841C247.495 11.4319 247.93 11.4237 248.129 10.9833C248.315 10.5917 248.162 10.0666 247.812 9.86921Z" fill="#FFC04F"/>
<path d="M246.902 19.6252C246.077 19.7317 245.236 19.4529 244.427 19.5588C243.74 19.7831 243.861 20.9774 244.571 21.0331C244.511 21.0262 244.459 21.0162 244.401 20.9924C245.353 21.3226 246.286 21.2017 247.275 21.3138C247.663 21.3777 248.032 20.9868 248.059 20.5582C248.114 19.8295 247.434 19.572 246.902 19.6252Z" fill="#FFC04F"/>
<path d="M221.086 10.9638C221.367 10.9657 221.63 10.7157 221.722 10.4281C221.893 9.90989 221.534 9.46377 221.14 9.25888C220.533 8.85224 219.883 8.47254 219.287 8.03769C218.514 7.39984 217.558 8.68494 218.493 9.23445C218.916 9.66992 219.408 10.0195 219.915 10.3328C220.265 10.5252 220.65 10.9757 221.086 10.9638Z" fill="#FFC04F"/>
<path d="M221.164 16.7792C220.402 17.313 219.625 17.8513 218.986 18.5718C218.589 18.7974 218.519 19.4472 218.854 19.7749C219.134 20.0656 219.61 20.0092 219.822 19.6489C220.402 19.1032 221.089 18.7203 221.715 18.2542C222.606 17.8287 222.051 16.3362 221.164 16.7792Z" fill="#FFC04F"/>
<path d="M85.8066 2.44389C85.2896 2.45141 84.8711 1.94701 84.4249 1.69827C82.9181 0.625573 81.4467 -0.546744 79.9405 -1.60941C75.9874 -4.60944 71.2101 -5.57436 66.6653 -6.83127C62.6453 -7.77614 58.4969 -8.39206 54.7592 -10.4247C51.9869 -11.9804 49.5125 -14.1077 47.2389 -16.4611C45.1752 -18.4974 43.0351 -20.5513 41.4043 -23.0432C40.6985 -24.2957 40.1765 -25.6798 39.6456 -27.0382C38.7649 -29.6385 37.6052 -32.1298 37.2055 -34.9055C36.9431 -36.2457 36.5673 -37.8209 37.2725 -39.0559C37.8576 -39.6374 38.6044 -39.8892 39.3229 -40.1724C41.3362 -41.0039 43.54 -41.4099 45.6358 -41.6098C51.5496 -42.4149 58.0197 -40.2602 61.8714 -34.9343C63.5969 -32.3804 65.1856 -29.6655 66.7799 -27.0464C68.8851 -23.8659 70.8974 -20.6121 72.986 -17.4203C75.0104 -14.2142 77.4206 -11.325 79.4815 -8.1596C81.5082 -4.71471 84.0435 -1.70716 86.1952 1.62057C86.3336 1.96017 86.1388 2.38937 85.8066 2.44389Z" fill="#ABDDDD"/>
<path d="M217.839 186.985C217.87 186.981 217.9 186.977 217.931 186.975C217.9 186.969 217.87 186.963 217.841 186.957C217.839 186.967 217.839 186.975 217.839 186.985ZM230.841 175.117C230.939 178.58 230.771 182.077 230.696 185.523C230.793 185.758 230.793 186.05 230.685 186.278C230.682 186.73 230.678 187.179 230.65 187.627C230.641 187.76 230.6 187.884 230.533 187.989C230.507 188.163 230.469 188.337 230.423 188.507C230.181 188.997 229.721 189.141 229.294 189.275C228.795 189.339 228.317 189.092 227.813 189.216C224.333 189.183 220.851 189.277 217.374 189.254C216.209 189.268 215.489 188.706 215.575 187.301C215.613 185.758 215.702 184.216 215.713 182.674C215.738 180.567 215.842 178.478 215.94 176.392C215.808 169.753 215.27 163.123 214.474 156.549C213.488 148.081 212.869 139.559 211.271 131.2C210.909 129.015 210.527 126.834 210.099 124.665V124.663C209.618 122.73 209.11 120.805 208.578 118.891C206.535 111.006 203.794 103.368 200.512 96.0526C199.065 93.1723 197.429 90.4235 195.957 87.5594C193.126 82.2273 189.315 77.6163 185.411 73.2805C181.376 68.7867 177.195 64.4608 172.792 60.4326C170.458 58.2421 168.353 56.0134 165.807 54.2245C161.023 51.2144 156.005 48.6599 150.797 46.747C144.113 44.2795 137.096 42.5928 130.049 42.8503C125.909 42.8986 121.743 42.9794 117.653 43.757C115.264 44.277 112.904 44.9612 110.538 45.5972C98.671 49.2589 86.9553 54.5196 77.1765 63.0986C71.9957 67.8593 67.1813 73.1608 63.0124 79.0656C59.9384 83.2292 56.9375 87.4961 54.7271 92.3364C46.7004 110.01 43.1974 129.635 40.3625 149.079C39.1231 157.666 38.4206 166.387 38.1378 175.091C38.161 179.018 38.2523 182.943 38.5275 186.862C38.9515 189.908 39.0982 190.382 36.1709 190.813C33.2326 191.042 30.287 191.268 27.3398 191.262C26.1093 191.24 24.8809 191.091 23.6503 191.104C22.3732 191.125 21.1 191.094 19.916 190.515C19.2865 190.216 18.4534 190.086 18.0975 189.347C17.7327 188.056 17.8257 186.661 17.8954 185.303C17.1658 169.083 18.33 152.752 21.1825 136.839C24.1419 121.627 28.3235 106.696 33.5863 92.3063C38.6155 79.3168 44.5315 66.5717 53.3122 56.2953C60.3746 47.9632 68.982 41.423 77.895 35.8947C82.7792 32.8947 88.0874 30.8771 93.4038 29.1058C96.6732 28.1321 99.9011 26.8972 103.258 26.3671C112.198 24.8445 121.258 24.5105 130.286 24.8163C137.999 25.0713 145.784 25.7392 153.227 28.1866C160.729 30.3508 168.033 33.3339 174.782 37.6661C179.654 40.6717 184.43 43.8886 188.694 47.9312C191.382 50.2627 193.593 53.1919 195.95 55.9244C198.121 58.6349 200.331 61.3154 202.275 64.2421C205.115 68.3167 207.148 72.9972 209.448 77.4641C213.052 84.3225 215.981 91.5795 218.873 98.8446C220.055 101.788 220.797 104.917 221.863 107.913C225.692 119.912 228.393 132.4 229.548 145.102C230.485 155.065 230.739 165.105 230.841 175.117Z" fill="#FFC04F"/>
<path d="M181.999 181.775C182.013 183.469 182.056 185.163 181.972 186.856C181.958 187.117 181.813 187.338 181.616 187.458C180.779 188.351 179.439 188.113 178.381 188.183C173.967 188.115 169.521 187.965 165.111 188.088C164.607 188.078 163.915 188.236 163.63 187.631C163.614 187.582 163.601 187.532 163.589 187.479C163.521 187.384 163.469 187.262 163.442 187.111C163.088 176.89 163.657 166.579 162.448 156.416C161.76 149.405 160.402 142.482 158.48 135.778C157.493 131.649 156.046 127.693 154.207 123.959C151.203 117.465 146.635 112.072 141.234 108.099C136.633 105.055 131.5 103.01 126.214 102.423C124.415 102.31 122.535 102.52 120.795 102.706C118.878 102.939 117.024 103.146 115.196 103.832C111.58 105.123 107.924 106.532 104.771 108.973C101.772 111.139 99.1698 113.903 96.7519 116.837C93.8085 120.259 91.2815 124.111 89.2853 128.321C86.3115 134.315 84.7754 141.039 83.4645 147.705C82.1393 155.261 81.2702 162.911 81.0914 170.615C80.9713 174.164 80.7963 177.505 80.9591 181.014C80.9873 182.038 81.0986 183.056 81.1844 184.076C81.2879 184.854 81.4025 185.629 81.5276 186.408C81.7169 187.204 81.5077 188.202 80.6242 188.143C80.0092 188.195 79.4816 188.254 78.9397 188.325C74.8444 188.777 70.7242 189.094 66.6073 188.91C66.119 188.89 65.23 188.692 65.1691 188.113C65.1353 188.044 65.1121 187.967 65.1032 187.886C64.9693 185.206 64.7185 182.52 64.6903 179.834C64.6831 175.55 65.1104 171.284 65.3767 167.014C66.0133 154.251 67.6945 141.418 71.9381 129.501C74.9446 121.829 78.607 114.297 83.7203 108.154C89.3678 101.48 96.0887 95.8323 103.49 91.9049C108.14 89.6035 113.101 88.1524 118.089 87.1404C122.202 86.5634 126.3 85.9681 130.449 86.0508C134.768 86.3954 139.113 87.1523 143.167 88.9337C146.668 90.5553 150.064 92.5108 153.1 95.071C158.23 98.7352 163.119 103.022 166.492 108.817C172.447 118.038 175.927 128.938 177.887 140.071C179.479 148.361 180.584 156.766 181.242 165.215C181.528 170.733 181.836 176.251 181.999 181.775Z" fill="#FFA9BE"/>
<path d="M145.373 185.756C145.43 186.044 145.412 186.352 145.312 186.609C144.8 187.856 141.907 187.06 140.785 187.268C138.784 187.313 136.81 187.265 134.818 187.26C129.048 187.542 123.41 187.564 117.669 187.538C113.18 187.522 108.675 187.258 104.203 186.841C103.357 186.834 102.509 186.835 101.663 186.819C101.08 186.785 100.282 186.918 100.071 186.131C100.064 185.817 100.064 185.505 100.07 185.194C99.9889 183.421 100.051 181.649 100.1 179.876C100.121 178.226 100.16 176.577 100.295 174.933C100.946 168.077 101.913 161.087 104.363 154.731C106.84 148.863 110.6 143.472 115.49 139.989C118.77 137.833 122.601 136.845 126.38 136.853C132.596 137.161 137.366 141.806 140.385 147.675C144.149 156.162 144.813 165.877 145.146 175.224C145.294 178.733 145.349 182.245 145.373 185.756Z" fill="#FF7D9F"/>
<path d="M91.9145 186.955C90.8434 186.554 91.7988 184.979 91.7706 184.108C91.9295 182.878 91.9422 181.588 91.7928 180.368C91.289 177.288 90.0319 174.483 89.0066 171.605C87.7008 167 88.1265 161.446 90.845 157.593C94.1692 153.141 97.3428 149.066 98.0021 143.039C99.1336 135.476 100.343 125.04 108.171 122.977C111.829 122.324 115.67 122.836 119.151 121.127C124.505 118.512 134.94 113.199 139.407 119.696C141.622 123.224 141.809 127.99 144.474 131.196C145.89 132.86 147.699 133.888 149.379 135.149C152.546 137.316 154.445 141.167 155.162 145.199C155.813 148.228 155.945 151.388 155.593 154.478C155.363 157.326 154.655 160.191 154.714 163.049C155.085 165.48 157.152 166.977 157.861 169.275C159.805 174.048 158.275 179.271 158.381 184.255C158.404 185.05 159.009 186.283 158.042 186.576C157.675 186.661 157.31 186.36 157.242 185.951C156.409 181.829 157.91 177.609 157.412 173.459C157.213 170.805 156.111 168.417 154.608 166.411C152.452 163.673 153.614 159.942 153.942 156.713C154.482 153.072 154.655 149.315 153.857 145.705C152.146 136.924 148.707 137.418 143.701 132.521C140.709 129.306 140.51 124.268 138.252 120.537C134.37 115.073 124.102 120.419 119.54 122.618C116.291 124.155 112.752 124.032 109.328 124.341C100.438 125.868 100.513 138.276 98.8391 146.07C97.9661 149.988 95.8238 153.305 93.5509 156.332C92.1526 158.157 90.6873 160.095 90.1475 162.467C88.1486 170.694 92.7283 174.101 93.2453 181.405C93.3272 183.085 93.1091 184.764 92.7178 186.384C92.632 186.788 92.2666 187.049 91.9145 186.955Z" fill="#FFC04F"/>
<path d="M50.2008 184.655C49.097 184.535 48.1283 183.521 47.9085 182.294C46.5357 179.844 48.3198 175.914 51.0019 176.271C52.321 176.443 53.5787 177.445 54.1373 178.811C55.1547 181.548 52.8165 185.071 50.2008 184.655Z" fill="#EF9107"/>
<path d="M51.3005 159.363C49.8496 158.976 48.9489 156.77 48.5808 155.266C48.216 152.5 50.9766 149.863 53.2518 151.317C56.6286 153.202 55.2878 160.173 51.3005 159.363Z" fill="#EF9107"/>
<path d="M56.8031 130.749C56.3752 130.716 55.9966 130.509 55.6783 130.21C55.0389 130.018 54.5208 129.504 54.151 128.896C52.6287 126.443 53.7386 122.206 56.5778 121.874C59.1237 121.551 60.6676 124.864 60.1583 127.382C59.7891 129.126 58.5369 130.95 56.8031 130.749Z" fill="#EF9107"/>
<path d="M66.6769 105.727C65.4862 104.988 64.4615 103.531 64.3984 101.941C64.2224 99.0184 66.9653 96.5284 69.2898 98.3505C72.6018 100.459 70.3094 107.064 66.6769 105.727Z" fill="#EF9107"/>
<path d="M81.8688 88.1431C80.7207 88.0748 80.1516 87.1418 79.6097 86.1493C77.9169 83.5346 79.9341 78.5947 82.863 78.601C84.1805 78.5634 85.2616 79.7339 85.6746 81.0804C86.8703 84.0478 84.9483 88.3649 81.8688 88.1431Z" fill="#EF9107"/>
<path d="M103.447 73.3522C98.655 72.2608 101.398 63.3233 105.754 65.0577C109.777 66.7244 107.404 74.3472 103.447 73.3522Z" fill="#EF9107"/>
<path d="M124.602 68.91C120.145 66.8755 123.148 58.9813 127.497 61.331C131.396 63.2358 128.445 70.6776 124.602 68.91Z" fill="#EF9107"/>
<path d="M147.84 71.9716C143.489 71.56 144.38 64.0142 148.208 63.3544C149.689 63.0079 151.176 64.3155 151.776 65.7548C152.805 68.5117 150.456 72.1565 147.84 71.9716Z" fill="#EF9107"/>
<path d="M166.39 88.3342C161.554 85.9194 164.96 77.7877 169.551 81.0209C173.047 83.3047 170.019 89.8468 166.39 88.3342Z" fill="#EF9107"/>
<path d="M182.987 112.231C180.668 112.103 179.837 109.431 180.168 107.174C180.574 104.207 184.016 102.65 186.072 104.571C188.598 107.077 186.231 112.556 182.987 112.231Z" fill="#EF9107"/>
<path d="M191.363 139.481C188.404 136.086 193.16 130.23 196.254 133.611C198.983 137.094 194.589 142.793 191.363 139.481Z" fill="#EF9107"/>
<path d="M194.796 162.758C194.575 157.04 201.55 154.924 201.441 161.692C201.214 166.275 195.54 167.882 194.796 162.758Z" fill="#EF9107"/>
<path d="M199.199 185.799C195.16 185.541 196.819 178.427 200.339 179.011C204.155 179.77 202.622 185.988 199.199 185.799Z" fill="#EF9107"/>
<path d="M7.12061 182.651C5.57505 182.431 -0.830291 183.136 0.0902931 180.096C0.518202 179.084 1.74491 179.159 2.57471 179.128C4.8853 179.057 7.19036 179.086 9.50096 179.031C11.5995 178.967 11.7523 182.459 9.66703 182.638C8.81951 182.683 7.96868 182.671 7.12061 182.651Z" fill="#FDABC5"/>
<path d="M9.40636 146.037C7.92723 145.698 6.42374 145.53 4.92135 145.379C3.75166 145.201 2.45078 145.359 1.40675 144.649C0.634518 144.07 0.743572 142.643 1.58776 142.218C2.96504 141.738 4.48016 141.987 5.9067 142.003C7.31388 142.102 8.70887 142.244 10.0983 142.525C12.1299 143.097 11.4607 146.473 9.40636 146.037Z" fill="#FDABC5"/>
<path d="M12.2797 117.544C10.7889 116.573 4.63935 113.804 5.10656 111.715C5.56879 109.681 7.51292 110.723 8.58352 111.465C10.257 112.476 11.9597 113.413 13.6835 114.313C15.5386 115.31 14.1247 118.598 12.2797 117.544Z" fill="#FDABC5"/>
<path d="M23.1484 87.6162C21.61 86.0229 19.9255 84.6143 18.4165 82.9846C17.8834 82.41 17.3342 81.7822 17.0896 80.979C16.8853 80.3129 17.4472 79.5579 18.0694 79.734C18.7099 79.9138 19.2944 80.3474 19.8491 80.7421C21.6427 81.9865 23.4113 83.3355 25.0421 84.8205C25.382 85.1118 25.6306 85.4784 25.7108 85.9646C26.0164 87.563 24.2035 88.714 23.1484 87.6162Z" fill="#FDABC5"/>
<path d="M34.628 62.5078C33.2241 60.8981 31.8685 59.2126 30.5521 57.5058C30.1624 56.9996 29.7317 56.5058 29.4007 55.9494C28.3749 54.1336 30.8588 52.2019 31.9919 53.9394C33.5707 55.9776 35.1921 57.9845 36.86 59.9288C38.3469 61.5491 36.0944 64.1594 34.628 62.5078Z" fill="#FDABC5"/>
<path d="M53.9676 36.1326C52.783 33.3488 50.954 30.8832 49.926 28.0517C49.8225 27.2804 50.2892 26.5216 50.9457 26.3186C52.7082 25.5185 55.6931 32.751 56.7006 34.298C57.7657 36.2767 55.0288 38.1446 53.9676 36.1326Z" fill="#FDABC5"/>
<path d="M72.1377 23.5266C71.0571 21.7559 71.1285 19.3236 70.5766 17.2885C70.4211 15.6074 68.8429 12.9256 70.9221 12.0898C71.7751 11.7997 72.7212 12.5171 72.8119 13.5115C73.3351 15.4877 73.7774 17.4871 74.2269 19.4858C74.3503 20.4451 74.7251 21.306 74.8563 22.2509C74.9127 23.7841 73.0544 24.687 72.1377 23.5266Z" fill="#FDABC5"/>
<path d="M96.9082 13.9129C96.8429 11.0219 96.1725 8.12342 96.3718 5.24118C96.508 4.5814 97.1823 4.13779 97.7541 4.33202C98.5501 4.60145 98.7954 5.65785 98.9437 6.47991C99.2338 8.14535 99.5371 9.80514 99.7591 11.4837C99.8482 12.5539 100.331 13.7977 99.6999 14.7569C98.926 15.9825 97.0284 15.4324 96.9082 13.9129Z" fill="#FDABC5"/>
<path d="M125.684 9.95927C125.702 7.66602 125.659 5.37339 125.632 3.08076C125.683 2.23238 125.611 1.26996 126.074 0.548778C126.932 -0.669279 128.506 0.320705 128.397 1.7612C128.584 4.48992 128.787 7.22052 128.826 9.95927C128.857 10.9286 128.089 11.7387 127.256 11.7387C126.394 11.7387 125.693 10.9286 125.684 9.95927Z" fill="#FDABC5"/>
<path d="M155.857 16.1797C153.688 15.0788 155.579 12.414 156.311 10.8738C157.3 9.56682 157.915 6.44523 159.89 7.43898C161.215 8.29801 160.74 9.88637 159.796 10.8106C159.142 12.065 158.554 13.3463 158.026 14.6734C157.808 15.7793 156.845 16.5945 155.857 16.1797Z" fill="#FDABC5"/>
<path d="M183.37 31.3028C181.562 29.6048 184.045 27.5145 184.804 25.9406C185.727 24.72 186.624 21.8083 188.408 23.064C190.04 24.5452 187.9 26.4243 187.304 27.8942C186.31 29.2959 185.409 32.6919 183.37 31.3028Z" fill="#FDABC5"/>
<path d="M203.938 52.2232C202.331 49.9568 205.448 48.6028 206.763 47.5207C208.079 46.6855 209.366 45.2037 210.918 45.183C212.537 45.4223 212.71 48.1786 211.137 48.6755L211.153 48.6799C209.9 49.2914 208.803 50.2075 207.672 51.0571C206.566 51.8434 205.224 53.6893 203.938 52.2232Z" fill="#FDABC5"/>
<path d="M217.358 72.6733C216.386 70.1444 219.633 69.4884 220.987 68.4245C222.505 67.8192 224.716 65.1256 226.032 67.3211C226.942 69.7165 223.843 70.3556 222.587 71.4327C221.021 72.1376 218.757 75.028 217.358 72.6733Z" fill="#FDABC5"/>
<path d="M227.96 96.4315C227.665 95.0875 228.757 94.2204 229.793 94.0706C232.263 93.3939 234.823 91.892 237.404 92.4234C238.985 92.9177 238.585 95.7191 236.95 95.6176C235.038 95.6164 233.213 96.679 231.39 97.2392C230.217 97.8275 228.382 98.3232 227.96 96.4315Z" fill="#FDABC5"/>
<path d="M243.424 187.073C241.521 186.815 241.742 183.476 243.66 183.514C245.292 183.874 250.404 182.979 250.42 185.559C250.414 186.294 249.903 186.981 249.243 187.053C247.306 187.057 245.36 187.156 243.424 187.073Z" fill="#FDABC5"/>
<path d="M239.552 132.289C239.163 129.446 242.688 129.949 244.262 129.184C245.719 129.057 248.666 127.025 249.349 129.262C249.774 131.523 246.273 131.502 244.989 132.285C243.303 132.567 240.467 134.981 239.552 132.289Z" fill="#FDABC5"/>
<path d="M240.965 160.541C240.935 157.538 244.575 158.751 246.284 158.331C247.884 158.254 251.618 157.531 250.912 160.563C250.581 161.455 249.619 161.779 248.917 161.366C247.88 161.431 246.849 161.601 245.816 161.709C244.234 161.657 241.433 163.116 240.965 160.541Z" fill="#FDABC5"/>
<path d="M191.113 189.075L189.748 188.852C189.772 188.665 192.05 169.722 185.203 142.135C177.092 109.45 168.634 94.7957 151.687 84.0569C136.742 74.5831 99.8451 72.5793 79.538 102.295C59.5747 131.508 59.1224 186.993 59.1197 187.549L57.7407 187.543C57.7435 186.981 58.2013 130.967 78.4475 101.34C99.2362 70.9101 137.04 72.9847 152.361 82.6947C169.682 93.6697 178.304 108.563 186.531 141.713C193.463 169.643 191.137 188.884 191.113 189.075Z" fill="#474747"/>
<path d="M28.0296 191.291L26.6506 191.233C26.675 190.518 29.2441 119.353 46.8404 85.6469C62.8546 54.9681 91.0976 36.3181 122.391 35.7555C146.561 35.3169 179.717 42.6202 200.291 79.858C226.59 127.456 224.722 190.073 224.7 190.699L223.321 190.639C223.345 190.015 225.191 127.867 199.122 80.6845C178.889 44.0632 146.266 36.8695 122.412 37.3163C91.6025 37.8695 63.7956 56.2331 48.0278 86.4395C30.607 119.812 28.0523 190.58 28.0296 191.291Z" fill="#474747"/>
<path d="M14.5299 50.2127C12.3959 47.5523 10.346 44.7402 8.94548 41.4915C7.70106 38.5616 6.1627 35.6737 5.8145 32.3899C5.18565 28.8466 6.3725 21.9555 10.7042 24.9994C12.3405 26.1793 13.7604 27.8535 14.4679 29.9168C15.3237 27.0439 16.83 23.0771 20.0246 23.3365C23.7064 24.1041 24.1476 29.1768 23.3925 32.5885C22.5694 36.2865 20.7055 39.6694 19.2579 43.0428C18.4652 44.8392 17.7312 46.6676 17.0104 48.5022C16.5969 49.5774 15.6691 51.5724 14.5299 50.2127ZM15.2778 48.7835C16.4486 46.2315 17.3708 43.5121 18.587 40.9833C20.3473 36.8987 24.6862 29.0502 20.6845 25.2745C17.254 23.235 15.6475 30.5809 15.1034 33.2345C15.1443 34.1443 15.2086 35.1424 14.9456 36.0089C14.5415 36.6092 13.9702 36.0967 14.0627 35.4419C13.033 35.0171 13.7527 33.4412 13.8241 32.5584C13.6076 31.3529 13.3048 30.1467 12.6743 29.1285C8.06199 22.4819 6.33486 26.9556 7.30637 33.1518C7.70826 35.3911 8.72406 37.3949 9.57877 39.4419C10.9704 42.8931 13.0436 46.0084 15.2778 48.7835Z" fill="#FFA9BE"/>
</g>
</g>
<defs>
<clipPath id="clip0_230_19950">
<rect width="251" height="191.291" fill="white"/>
</clipPath>
</defs>
</svg>
