<svg width="232" height="67" viewBox="0 0 232 67" fill="none" xmlns="http://www.w3.org/2000/svg">
<g clip-path="url(#clip0_184_19784)">
<mask id="mask0_184_19784" style="mask-type:luminance" maskUnits="userSpaceOnUse" x="-1" y="-293" width="240" height="627">
<path d="M238.026 -292.127H-0.160633V333.698H238.026V-292.127Z" fill="white"/>
</mask>
<g mask="url(#mask0_184_19784)">
<path d="M147.103 6.20958C152.944 5.65676 158.894 7.10475 164.289 9.99582C168.677 12.5709 172.547 16.7897 175.169 22.0092C180.854 18.0929 187.778 15.4779 194.253 15.5614C197.515 15.6117 200.767 16.2074 203.86 17.5683C205.277 18.1745 206.714 18.731 208.077 19.5237C209.547 20.4802 210.968 21.5785 212.307 22.816C214.356 24.7726 215.975 27.3533 217.347 30.1026C219.1 33.506 220.448 37.2566 220.921 41.3098C221.674 48.1503 221.262 55.786 218.021 61.5356C217.25 62.8259 216.324 64.1174 215.125 64.7187C214.832 64.8445 214.375 64.7009 214.431 64.2045C214.45 64.0518 214.537 63.9248 214.643 63.872C215.472 63.4799 216.095 62.6651 216.691 61.8638C219.778 57.2781 220.504 50.8315 220.291 44.9555C220.187 40.079 218.935 35.3479 216.847 31.2935C215.297 28.0828 213.41 25.0727 210.917 23.013C208.763 21.0815 206.366 19.7636 203.861 18.8095C200.75 17.418 197.477 16.7811 194.189 16.7443C190.589 16.64 187.028 17.5542 183.595 18.8457C180.837 19.8973 178.157 21.2349 175.637 23.0295C177.42 27.0078 178.145 31.7389 177.579 36.2835C176.92 41.935 173.591 47.0164 168.819 45.9617C164.473 45.1175 163.77 40.0121 165.057 35.3522C166.85 29.848 170.416 25.5592 174.375 22.6068C170.981 15.854 165.504 11.0168 159.469 9.09205C154.559 7.34158 149.396 6.73846 144.354 7.80604C136.501 9.54915 129.219 14.4263 123.159 21.0116C119.881 24.4812 116.729 28.1895 114.244 32.6157C117.39 37.0861 118.926 42.4007 118.879 48.4166C118.978 53.7502 119.102 60.0588 115.98 64.1193C113.834 66.9355 111.2 66.344 109.516 63.1873C108.313 60.8521 107.998 57.9444 107.918 55.197C107.813 47.2772 109.315 39.1188 113.06 32.7225C109.8 28.5871 105.936 25.2003 101.643 23.1418C95.2044 20.2262 88.0507 20.2281 81.5367 22.7516C77.6643 24.3646 74.0715 26.8735 70.6349 29.6516C67.628 32.1433 64.6869 34.8349 62.2107 38.1788C64.8446 43.5505 65.8573 50.0186 66.146 56.2903C66.2346 58.4065 66.3094 60.6993 65.4429 62.5854C64.6393 64.3021 63.6965 66.2194 62.1159 66.8072C60.2933 67.457 58.1958 66.4115 57.0906 64.4616C55.4576 61.7203 55.1504 58.1666 55.3319 54.8172C55.4486 48.5816 57.9238 42.7541 61.016 38.107C58.1782 33.5821 54.1533 30.5597 50.0265 28.3877C45.519 26.3121 40.6228 26.2108 35.8939 26.6035C30.85 26.9465 25.992 29.0289 21.4221 31.7027C15.8152 34.9331 10.546 39.6746 6.98561 46.2053C5.83087 48.416 4.71663 50.6702 3.85202 53.0949C3.13698 55.2945 2.57438 57.5665 2.00655 59.8342C1.62878 61.3515 1.29865 62.8897 1.02712 64.3647C0.934704 64.8844 0.885639 65.6912 0.316848 65.5096C-0.00994415 65.3801 -0.0571173 64.9138 0.0543542 64.5481C0.275392 63.2713 0.532646 62.0049 0.826092 60.7521C1.93747 55.889 3.24606 51.0647 5.53075 46.8857C9.2398 39.3176 15.1521 33.9404 21.4431 30.3891C25.4046 28.1423 29.5514 26.2697 33.8717 25.6433C39.0761 24.9991 44.4662 24.907 49.5087 26.9029C54.0809 29.0332 58.5178 32.3586 61.6433 37.2309C64.3267 33.6581 67.5042 30.7738 70.7726 28.1576C73.8785 25.6807 77.1202 23.4284 80.5916 21.9282C87.1227 19.1224 94.4179 18.9304 100.989 21.6306C105.759 23.5578 110.022 27.2962 113.601 31.7396C116.012 27.5146 118.996 23.8977 122.133 20.5778C129.133 12.8556 137.825 7.16427 147.103 6.20958ZM174.836 23.6314C171.917 25.8194 169.233 28.6785 167.386 32.3482C166.612 33.7545 165.961 35.2282 165.661 36.8867C165.125 39.9507 165.246 42.9148 167.708 44.38C172.459 46.5649 175.994 41.8791 176.676 36.0903C177.203 31.8113 176.529 27.3674 174.836 23.6314ZM61.5724 39.0844C58.535 43.7014 56.1984 49.4841 56.2212 55.6375C56.105 58.8936 56.6014 62.6167 58.6093 64.7948C60.5224 66.4551 62.5165 66.1489 63.808 63.6683C65.744 60.7177 65.3067 57.5248 65.0851 53.9944C64.7012 48.8295 63.6713 43.5474 61.5724 39.0844ZM113.696 33.6121C110.144 39.7667 108.742 47.5852 108.836 55.1626C108.917 57.6634 109.182 60.3508 110.254 62.4884C111.498 64.8586 113.404 65.6231 115.111 63.5542C118.348 59.7685 118.053 52.9526 117.947 47.7785C117.967 42.5565 116.42 37.4769 113.696 33.6121Z" fill="#83C4C2"/>
<path d="M28.5348 28.2187C29.3689 30.1539 31.5917 30.757 32.9079 29.2833C34.044 28.0488 33.8463 25.7786 33.4147 24.1429C32.261 19.5038 29.7152 15.8096 27.0551 12.4682C26.4525 11.816 26.079 12.8695 25.8761 13.4756C25.374 14.8745 24.8267 16.2477 24.3493 17.6613C23.2894 21.0451 22.2571 24.6202 22.2071 28.3052C22.2547 35.0175 27.6225 33.7383 28.5348 28.2187Z" fill="#FFA9BE"/>
<path d="M187.485 15.9563C188.319 17.8914 190.542 18.4946 191.858 17.0208C192.994 15.7863 192.796 13.5162 192.365 11.8804C191.211 7.24136 188.665 3.54715 186.005 0.205738C185.403 -0.446469 185.029 0.607003 184.826 1.21319C184.324 2.6121 183.777 3.98523 183.299 5.39886C182.239 8.78261 181.207 12.3578 181.157 16.0428C181.205 22.7551 186.573 21.4758 187.485 15.9563Z" fill="#FFA9BE"/>
<path d="M220.132 37.213C218.802 38.615 218.737 41.5392 220.098 42.9449C221.243 44.1652 222.942 43.5106 224.115 42.6718C227.454 40.3839 229.823 36.4995 231.902 32.5328C232.293 31.653 231.421 31.3671 230.922 31.218C229.764 30.8309 228.618 30.3817 227.452 30.0283C224.678 29.2871 221.763 28.6159 218.939 29.2086C213.819 30.4646 215.753 37.04 220.132 37.213Z" fill="#FFA9BE"/>
<path d="M105.687 25.607C105.898 27.8035 107.783 29.435 109.432 28.7024C110.845 28.106 111.321 25.9058 111.396 24.1811C111.675 19.323 110.388 14.6698 108.893 10.2884C108.524 9.39321 107.871 10.1896 107.507 10.6541C106.635 11.7094 105.728 12.7181 104.874 13.7991C102.908 16.4252 100.911 19.2432 99.7938 22.6355C97.8869 28.8834 103.237 30.2853 105.687 25.607Z" fill="#FFA9BE"/>
<path d="M70.4642 26.9298C71.7242 28.4348 73.9827 28.117 74.8774 26.1892C75.6591 24.5609 74.9226 22.4828 74.1175 21.101C71.9005 17.1546 68.5887 14.663 65.2536 12.5536C64.5234 12.1757 64.4229 13.3261 64.3762 13.9838C64.2371 15.5146 64.0484 17.0387 63.9365 18.5732C63.7459 22.214 63.6287 26.0254 64.4714 29.5472C66.1383 35.9079 70.9306 32.5407 70.4642 26.9298Z" fill="#FFA9BE"/>
<path d="M86.2805 19.5218C86.7268 20.371 87.3861 21.0128 88.1903 21.1459C89.5594 21.6306 90.9761 20.3293 91.1619 18.542C91.4125 16.6363 90.6679 14.803 89.6251 13.5084C88.388 12.0475 87.2089 10.3173 85.6369 9.46752C84.9266 9.08467 84.4422 10.7818 84.0549 11.3585C82.8939 13.7415 81.6139 16.2405 81.391 19.1034C80.9842 24.3658 85.2544 23.5228 86.2805 19.5218Z" fill="#FFA9BE"/>
<path d="M9.8146 39.8874C10.5425 40.3015 11.3661 40.3942 12.1021 39.958C13.4627 39.4321 14.1267 37.3602 13.5475 35.7189C12.9739 33.9322 11.5872 32.8886 10.17 32.5045C8.51934 32.1124 6.80725 31.4523 5.12469 31.8075C4.36488 31.9689 4.65403 33.7384 4.56305 34.4918C4.56209 37.3049 4.50731 40.2979 5.49865 42.876C7.32316 47.6139 10.5944 43.9798 9.8146 39.8874Z" fill="#FFA9BE"/>
<path d="M50.7388 28.2054C50.9074 29.2074 51.3338 30.1191 52.0412 30.629C53.1721 31.7352 54.8632 31.207 55.5526 29.6375C56.3362 27.9889 56.1752 25.931 55.5816 24.229C54.8561 22.2797 54.2625 20.1084 53.0487 18.5659C52.5004 17.8701 51.5601 19.2126 51.0337 19.5617C49.2678 21.2165 47.357 22.9215 46.3223 25.4715C44.4226 30.1602 48.6294 31.4266 50.7388 28.2054Z" fill="#FFA9BE"/>
<path d="M124.799 20.4198C125.515 20.8665 126.336 20.9966 127.083 20.5935C128.457 20.1296 129.177 18.0889 128.643 16.4225C128.119 14.6113 126.761 13.5051 125.355 13.0572C123.716 12.5909 122.023 11.854 120.332 12.1332C119.568 12.2596 119.809 14.0413 119.698 14.7905C119.62 17.6018 119.484 20.5904 120.404 23.2115C122.099 28.0291 125.467 24.5448 124.799 20.4198Z" fill="#FFA9BE"/>
<path d="M164.569 11.698C164.563 12.7233 164.823 13.7338 165.426 14.4308C166.341 15.8297 168.081 15.7929 169.021 14.4566C170.067 13.0699 170.26 11.0164 169.971 9.18799C169.596 7.08104 169.387 4.79556 168.466 2.94692C168.05 2.1131 166.903 3.15675 166.33 3.3488C164.325 4.46362 162.17 5.58704 160.726 7.78172C158.073 11.8189 161.962 14.2437 164.569 11.698Z" fill="#FFA9BE"/>
<path d="M208.074 19.5735C208.068 20.5988 208.329 21.6087 208.932 22.3063C209.847 23.7052 211.587 23.6684 212.527 22.3321C213.572 20.9454 213.766 18.8919 213.477 17.0635C213.102 14.9565 212.892 12.671 211.972 10.8224C211.555 9.98859 210.409 11.0322 209.836 11.2243C207.831 12.3391 205.676 13.4625 204.232 15.6572C201.579 19.6944 205.468 22.1192 208.074 19.5735Z" fill="#FFA9BE"/>
</g>
</g>
<defs>
<clipPath id="clip0_184_19784">
<rect width="232" height="67" fill="white" transform="matrix(-1 0 0 -1 232 67)"/>
</clipPath>
</defs>
</svg>
