<svg width="82" height="144" viewBox="0 0 82 144" fill="none" xmlns="http://www.w3.org/2000/svg">
<g clip-path="url(#clip0_230_20187)">
<mask id="mask0_230_20187" style="mask-type:luminance" maskUnits="userSpaceOnUse" x="-172" y="-163" width="513" height="913">
<path d="M-171.729 749.098H340.837V-162.131H-171.729V749.098Z" fill="white"/>
</mask>
<g mask="url(#mask0_230_20187)">
<path d="M81.9231 43.4552C82.2316 55.492 81.5487 67.4813 80.9915 79.4835C80.488 93.1889 79.8582 106.988 77.5445 120.52C76.8146 125.135 75.7975 129.699 74.5545 134.2C74.1421 135.377 74.0163 136.815 73.0121 137.646C70.8968 138.607 68.1361 138.506 65.9391 138.871C62.4955 139.28 59.0266 139.746 55.6304 140.168C46.8266 141.314 38.019 142.434 29.1302 142.67C25.7212 142.692 22.2585 143.489 18.8779 142.953C16.6654 142.23 16.8889 139.28 16.2814 137.423C14.8491 131.845 13.59 126.227 12.413 120.586C8.66364 103.702 5.12265 86.6793 2.5228 69.5871C1.52188 61.5764 0.268945 53.764 0.177822 45.7024C0.30976 42.385 -1.0718 34.1095 2.22049 32.4759C6.54218 32.1109 11.1126 32.539 15.3336 32.4507C23.5428 32.306 31.7524 31.9975 39.9644 32.0606C50.5375 31.96 61.0665 33.1308 71.6021 33.8674C82.3384 35.1483 81.6963 31.6202 81.9231 43.4552Z" fill="#FFA9BE"/>
</g>
<mask id="mask1_230_20187" style="mask-type:luminance" maskUnits="userSpaceOnUse" x="-172" y="-163" width="513" height="913">
<path d="M-171.729 749.098H340.837V-162.131H-171.729V749.098Z" fill="white"/>
</mask>
<g mask="url(#mask1_230_20187)">
<path d="M64.3151 17.0956C61.9887 16.4084 59.6854 17.9789 57.7785 19.1535C59.4823 15.4004 61.2407 11.0426 59.6878 6.9539C59.358 5.89175 58.423 4.87231 57.2327 4.92689C53.5071 5.51112 50.5261 11.7929 48.4484 14.7046C48.8247 11.6121 50.2447 -1.55233 44.6326 0.151475C40.3845 3.44519 38.329 11.4716 37.6541 16.6448C36.4168 13.7825 35.5013 10.4271 32.892 8.4869C29.3239 6.00427 26.1223 9.51913 25.3563 12.9471C24.3501 17.2361 26.0354 21.441 27.5784 25.4149C27.5622 25.3688 27.5551 25.3503 27.548 25.3322C27.5423 25.318 27.5366 25.3033 27.5314 25.2891C28.5888 27.8139 30.1028 30.232 32.3001 31.9149C36.2811 34.4436 41.0119 36.0971 45.8034 36.0321C49.4659 36.053 53.1725 35.2305 56.2883 33.259C59.9023 31.1897 63.5202 28.682 65.5111 24.9113C66.8134 22.5131 67.3991 18.349 64.3151 17.0956Z" fill="#FFC04F"/>
</g>
<mask id="mask2_230_20187" style="mask-type:luminance" maskUnits="userSpaceOnUse" x="0" y="32" width="82" height="112">
<path d="M15.334 32.4509C13.6687 32.486 11.9497 32.44 10.2127 32.395C7.54636 32.3247 4.83782 32.255 2.22088 32.4761C-1.07236 34.1097 0.310152 42.3852 0.177739 45.7027C0.269336 53.7637 1.52181 61.5766 2.52273 69.5873C5.12259 86.6795 8.66356 103.702 12.4129 120.586C13.5899 126.227 14.849 131.846 16.2813 137.423C16.8888 139.28 16.6653 142.23 18.8784 142.954C22.2584 143.488 25.7211 142.692 29.1301 142.67C38.0194 142.434 46.8265 141.313 55.6303 140.168C59.0265 139.746 62.4954 139.28 65.9391 138.871C68.1365 138.506 70.8967 138.607 73.012 137.647C74.0162 136.816 74.142 135.377 74.5544 134.2C75.7979 129.699 76.8145 125.134 77.5444 120.52C79.8581 106.988 80.4879 93.1886 80.9914 79.4837C81.5486 67.4811 82.2315 55.4917 81.9231 43.455C81.6967 31.6199 82.3388 35.1485 71.6015 33.8671C61.0668 33.131 50.5379 31.9602 39.9643 32.0603C39.2211 32.0546 38.4788 32.0523 37.7356 32.0523C30.2668 32.0523 22.8 32.319 15.334 32.4509Z" fill="white"/>
</mask>
<g mask="url(#mask2_230_20187)">
<path d="M103.721 48.6556H-12.4023V44.6268H103.721V48.6556Z" fill="#FFC3D1"/>
</g>
<mask id="mask3_230_20187" style="mask-type:luminance" maskUnits="userSpaceOnUse" x="0" y="32" width="82" height="112">
<path d="M15.334 32.4509C13.6687 32.486 11.9497 32.44 10.2127 32.395C7.54636 32.3247 4.83782 32.255 2.22088 32.4761C-1.07236 34.1097 0.310152 42.3852 0.177739 45.7027C0.269336 53.7637 1.52181 61.5766 2.52273 69.5873C5.12259 86.6795 8.66356 103.702 12.4129 120.586C13.5899 126.227 14.849 131.846 16.2813 137.423C16.8888 139.28 16.6653 142.23 18.8784 142.954C22.2584 143.488 25.7211 142.692 29.1301 142.67C38.0194 142.434 46.8265 141.313 55.6303 140.168C59.0265 139.746 62.4954 139.28 65.9391 138.871C68.1365 138.506 70.8967 138.607 73.012 137.647C74.0162 136.816 74.142 135.377 74.5544 134.2C75.7979 129.699 76.8145 125.134 77.5444 120.52C79.8581 106.988 80.4879 93.1886 80.9914 79.4837C81.5486 67.4811 82.2315 55.4917 81.9231 43.455C81.6967 31.6199 82.3388 35.1485 71.6015 33.8671C61.0668 33.131 50.5379 31.9602 39.9643 32.0603C39.2211 32.0546 38.4788 32.0523 37.7356 32.0523C30.2668 32.0523 22.8 32.319 15.334 32.4509Z" fill="white"/>
</mask>
<g mask="url(#mask3_230_20187)">
<path d="M103.721 69.5417H-12.4023V65.5129H103.721V69.5417Z" fill="#FFC3D1"/>
</g>
<mask id="mask4_230_20187" style="mask-type:luminance" maskUnits="userSpaceOnUse" x="0" y="32" width="82" height="112">
<path d="M15.334 32.4509C13.6687 32.486 11.9497 32.44 10.2127 32.395C7.54636 32.3247 4.83782 32.255 2.22088 32.4761C-1.07236 34.1097 0.310152 42.3852 0.177739 45.7027C0.269336 53.7637 1.52181 61.5766 2.52273 69.5873C5.12259 86.6795 8.66356 103.702 12.4129 120.586C13.5899 126.227 14.849 131.846 16.2813 137.423C16.8888 139.28 16.6653 142.23 18.8784 142.954C22.2584 143.488 25.7211 142.692 29.1301 142.67C38.0194 142.434 46.8265 141.313 55.6303 140.168C59.0265 139.746 62.4954 139.28 65.9391 138.871C68.1365 138.506 70.8967 138.607 73.012 137.647C74.0162 136.816 74.142 135.377 74.5544 134.2C75.7979 129.699 76.8145 125.134 77.5444 120.52C79.8581 106.988 80.4879 93.1886 80.9914 79.4837C81.5486 67.4811 82.2315 55.4917 81.9231 43.455C81.6967 31.6199 82.3388 35.1485 71.6015 33.8671C61.0668 33.131 50.5379 31.9602 39.9643 32.0603C39.2211 32.0546 38.4788 32.0523 37.7356 32.0523C30.2668 32.0523 22.8 32.319 15.334 32.4509Z" fill="white"/>
</mask>
<g mask="url(#mask4_230_20187)">
<path d="M103.721 90.4274H-12.4023V86.3985H103.721V90.4274Z" fill="#FFC3D1"/>
</g>
<mask id="mask5_230_20187" style="mask-type:luminance" maskUnits="userSpaceOnUse" x="0" y="32" width="82" height="112">
<path d="M15.334 32.4509C13.6687 32.486 11.9497 32.44 10.2127 32.395C7.54636 32.3247 4.83782 32.255 2.22088 32.4761C-1.07236 34.1097 0.310152 42.3852 0.177739 45.7027C0.269336 53.7637 1.52181 61.5766 2.52273 69.5873C5.12259 86.6795 8.66356 103.702 12.4129 120.586C13.5899 126.227 14.849 131.846 16.2813 137.423C16.8888 139.28 16.6653 142.23 18.8784 142.954C22.2584 143.488 25.7211 142.692 29.1301 142.67C38.0194 142.434 46.8265 141.313 55.6303 140.168C59.0265 139.746 62.4954 139.28 65.9391 138.871C68.1365 138.506 70.8967 138.607 73.012 137.647C74.0162 136.816 74.142 135.377 74.5544 134.2C75.7979 129.699 76.8145 125.134 77.5444 120.52C79.8581 106.988 80.4879 93.1886 80.9914 79.4837C81.5486 67.4811 82.2315 55.4917 81.9231 43.455C81.6967 31.6199 82.3388 35.1485 71.6015 33.8671C61.0668 33.131 50.5379 31.9602 39.9643 32.0603C39.2211 32.0546 38.4788 32.0523 37.7356 32.0523C30.2668 32.0523 22.8 32.319 15.334 32.4509Z" fill="white"/>
</mask>
<g mask="url(#mask5_230_20187)">
<path d="M103.721 111.313H-12.4023V107.284H103.721V111.313Z" fill="#FFC3D1"/>
</g>
<mask id="mask6_230_20187" style="mask-type:luminance" maskUnits="userSpaceOnUse" x="0" y="32" width="82" height="112">
<path d="M15.334 32.4509C13.6687 32.486 11.9497 32.44 10.2127 32.395C7.54636 32.3247 4.83782 32.255 2.22088 32.4761C-1.07236 34.1097 0.310152 42.3852 0.177739 45.7027C0.269336 53.7637 1.52181 61.5766 2.52273 69.5873C5.12259 86.6795 8.66356 103.702 12.4129 120.586C13.5899 126.227 14.849 131.846 16.2813 137.423C16.8888 139.28 16.6653 142.23 18.8784 142.954C22.2584 143.488 25.7211 142.692 29.1301 142.67C38.0194 142.434 46.8265 141.313 55.6303 140.168C59.0265 139.746 62.4954 139.28 65.9391 138.871C68.1365 138.506 70.8967 138.607 73.012 137.647C74.0162 136.816 74.142 135.377 74.5544 134.2C75.7979 129.699 76.8145 125.134 77.5444 120.52C79.8581 106.988 80.4879 93.1886 80.9914 79.4837C81.5486 67.4811 82.2315 55.4917 81.9231 43.455C81.6967 31.6199 82.3388 35.1485 71.6015 33.8671C61.0668 33.131 50.5379 31.9602 39.9643 32.0603C39.2211 32.0546 38.4788 32.0523 37.7356 32.0523C30.2668 32.0523 22.8 32.319 15.334 32.4509Z" fill="white"/>
</mask>
<g mask="url(#mask6_230_20187)">
<path d="M103.721 132.199H-12.4023V128.17H103.721V132.199Z" fill="#FFC3D1"/>
</g>
</g>
<defs>
<clipPath id="clip0_230_20187">
<rect width="82" height="143.138" fill="white"/>
</clipPath>
</defs>
</svg>
