<svg width="1281" height="81" viewBox="0 0 1281 81" fill="none" xmlns="http://www.w3.org/2000/svg">
<g clip-path="url(#clip0_224_20968)">
<mask id="mask0_224_20968" style="mask-type:luminance" maskUnits="userSpaceOnUse" x="-795" y="-224" width="1050" height="753">
<path d="M-794.346 -223.356H254.411V528.595H-794.346V-223.356Z" fill="white"/>
</mask>
<g mask="url(#mask0_224_20968)">
<path d="M22.947 36.7452C22.947 36.7452 8.71533 33.2215 2.14801 41.3997C-4.42141 49.578 3.87636 68.1662 29.8016 76.594C55.7269 85.0204 114.837 80.8065 137.996 68.6625C161.156 56.5185 163.231 37.1858 153.551 31.7342C143.873 26.281 131.774 29.5039 131.774 29.5039C131.774 29.5039 133.664 11.7759 115.183 7.94094C102.046 5.21437 92.3684 16.1192 92.3684 16.1192C92.3684 16.1192 86.8373 -0.449329 69.5538 0.00936058C50.2839 0.520687 47.4313 20.5812 47.4313 20.5812C47.4313 20.5812 19.8364 10.4735 22.947 36.7452Z" fill="#FF7D9F"/>
</g>
<mask id="mask1_224_20968" style="mask-type:luminance" maskUnits="userSpaceOnUse" x="-801" y="-220" width="1050" height="753">
<path d="M-800.551 -219.673H248.207V532.278H-800.551V-219.673Z" fill="white"/>
</mask>
<g mask="url(#mask1_224_20968)">
<path d="M66.6049 67.187C64.9856 66.7809 63.6495 65.7929 63.2111 64.5988C62.8964 63.6483 61.7911 60.0555 64.2472 60.3713C64.8954 60.5578 64.9772 61.045 64.7108 61.4556C64.5682 62.37 64.8031 63.2828 65.0883 64.1716C65.403 65.1417 66.6573 65.85 67.9934 65.9929C71.0201 66.0621 72.7736 63.3325 72.4548 61.4436C72.394 60.5217 74.3384 60.4375 74.4244 61.3609C74.9718 64.3641 71.2676 68.4006 66.6049 67.187Z" fill="#474747"/>
</g>
<mask id="mask2_224_20968" style="mask-type:luminance" maskUnits="userSpaceOnUse" x="-801" y="-220" width="1050" height="753">
<path d="M-800.551 -219.673H248.207V532.278H-800.551V-219.673Z" fill="white"/>
</mask>
<g mask="url(#mask2_224_20968)">
<path d="M50.4326 57.3196C47.5967 56.4563 47.9281 50.6362 51.8127 51.0889C55.5589 51.5957 54.3423 57.9813 50.4326 57.3196Z" fill="#474747"/>
</g>
<mask id="mask3_224_20968" style="mask-type:luminance" maskUnits="userSpaceOnUse" x="-801" y="-220" width="1050" height="753">
<path d="M-800.551 -219.673H248.207V532.278H-800.551V-219.673Z" fill="white"/>
</mask>
<g mask="url(#mask3_224_20968)">
<path d="M46.3891 52.9835C45.6571 52.9158 45.0572 52.4526 44.6985 52.024C44.4069 51.0991 45.9822 50.8254 46.5569 51.6225C47.6959 51.8586 47.6371 52.9835 46.3891 52.9835Z" fill="#474747"/>
</g>
<mask id="mask4_224_20968" style="mask-type:luminance" maskUnits="userSpaceOnUse" x="-801" y="-220" width="1050" height="753">
<path d="M-800.551 -219.673H248.207V532.278H-800.551V-219.673Z" fill="white"/>
</mask>
<g mask="url(#mask4_224_20968)">
<path d="M45.7491 54.559C45.2226 54.4898 44.564 54.5409 44.1613 54.2462C43.5236 53.7424 44.4465 52.9438 45.252 53.2987C45.9043 53.24 46.7496 53.404 46.6888 53.9815C46.6531 54.3319 46.221 54.574 45.7491 54.559Z" fill="#474747"/>
</g>
<mask id="mask5_224_20968" style="mask-type:luminance" maskUnits="userSpaceOnUse" x="-801" y="-220" width="1050" height="753">
<path d="M-800.551 -219.673H248.207V532.278H-800.551V-219.673Z" fill="white"/>
</mask>
<g mask="url(#mask5_224_20968)">
<path d="M86.7365 57.3196C89.5724 56.4563 89.241 50.6362 85.3564 51.0889C81.6102 51.5957 82.8268 57.9813 86.7365 57.3196Z" fill="#474747"/>
</g>
<mask id="mask6_224_20968" style="mask-type:luminance" maskUnits="userSpaceOnUse" x="-801" y="-220" width="1050" height="753">
<path d="M-800.551 -219.673H248.207V532.278H-800.551V-219.673Z" fill="white"/>
</mask>
<g mask="url(#mask6_224_20968)">
<path d="M90.7803 52.9835C91.5124 52.9158 92.1123 52.4526 92.4709 52.024C92.7625 51.0991 91.1873 50.8254 90.6125 51.6225C89.4736 51.8586 89.5323 52.9835 90.7803 52.9835Z" fill="#474747"/>
</g>
<mask id="mask7_224_20968" style="mask-type:luminance" maskUnits="userSpaceOnUse" x="-801" y="-220" width="1050" height="753">
<path d="M-800.551 -219.673H248.207V532.278H-800.551V-219.673Z" fill="white"/>
</mask>
<g mask="url(#mask7_224_20968)">
<path d="M91.4201 54.559C91.9466 54.4898 92.6052 54.5409 93.0079 54.2462C93.6455 53.7424 92.7226 52.9438 91.9172 53.2987C91.2649 53.24 90.4196 53.404 90.4804 53.9815C90.5182 54.3319 90.9481 54.574 91.4201 54.559Z" fill="#474747"/>
</g>
<mask id="mask8_224_20968" style="mask-type:luminance" maskUnits="userSpaceOnUse" x="-801" y="-220" width="1050" height="753">
<path d="M-800.551 -219.673H248.207V532.278H-800.551V-219.673Z" fill="white"/>
</mask>
<g mask="url(#mask8_224_20968)">
<path d="M30.6066 36.4027C26.3822 34.9875 29.2684 28.9253 33.8368 30.1841C35.5798 30.9255 36.6768 32.3106 36.5489 33.7709C36.4902 34.3619 36.4839 35.0567 35.8441 35.4914C34.508 36.4614 32.4126 37.0479 30.6066 36.4027Z" fill="white"/>
</g>
<mask id="mask9_224_20968" style="mask-type:luminance" maskUnits="userSpaceOnUse" x="-801" y="-220" width="1050" height="753">
<path d="M-800.551 -219.673H248.207V532.278H-800.551V-219.673Z" fill="white"/>
</mask>
<g mask="url(#mask9_224_20968)">
<path d="M31.6258 46.7192C30.468 46.6921 29.8597 45.6439 30.2225 44.934C30.5917 44.328 31.5608 43.8663 32.4962 44.0016C34.6063 44.3475 33.6541 47.02 31.6258 46.7192Z" fill="white"/>
</g>
<mask id="mask10_224_20968" style="mask-type:luminance" maskUnits="userSpaceOnUse" x="-801" y="-220" width="1050" height="753">
<path d="M-800.551 -219.673H248.207V532.278H-800.551V-219.673Z" fill="white"/>
</mask>
<g mask="url(#mask10_224_20968)">
<path d="M39.5043 43.4056C35.905 42.5649 37.2935 38.4337 40.7586 38.2547C43.2148 38.1735 44.4335 40.3782 43.5567 41.8205C42.961 42.9634 41.1404 43.5981 39.5043 43.4056Z" fill="white"/>
</g>
<mask id="mask11_224_20968" style="mask-type:luminance" maskUnits="userSpaceOnUse" x="-801" y="-220" width="1050" height="753">
<path d="M-800.551 -219.673H248.207V532.278H-800.551V-219.673Z" fill="white"/>
</mask>
<g mask="url(#mask11_224_20968)">
<path d="M131.237 59.5882C130.064 59.5325 129.213 58.6723 129.425 57.8587C129.196 56.6601 130.905 55.5352 132.541 55.6871C135.839 56.0916 134.041 59.8017 131.237 59.5882Z" fill="white"/>
</g>
<mask id="mask12_224_20968" style="mask-type:luminance" maskUnits="userSpaceOnUse" x="-801" y="-220" width="1050" height="753">
<path d="M-800.551 -219.673H248.207V532.278H-800.551V-219.673Z" fill="white"/>
</mask>
<g mask="url(#mask12_224_20968)">
<path d="M129.443 68.5678C128.491 68.2309 127.702 67.5677 127.358 66.8519C126.895 65.2487 129.204 63.2666 131.562 63.8802C135.492 64.9148 133.594 69.6822 129.443 68.5678Z" fill="white"/>
</g>
<mask id="mask13_224_20968" style="mask-type:luminance" maskUnits="userSpaceOnUse" x="-801" y="-220" width="1050" height="753">
<path d="M-800.551 -219.673H248.207V532.278H-800.551V-219.673Z" fill="white"/>
</mask>
<g mask="url(#mask13_224_20968)">
<path d="M85.8742 21.3705L85.1821 20.0696C85.1506 20.011 82.019 14.1352 78.2225 9.80398C74.6274 5.70134 66.4135 4.85163 66.3296 4.84261L66.6149 3.35375C66.9903 3.38984 75.8859 4.31323 79.9991 9.0039C82.8832 12.2959 85.331 16.3294 86.4678 18.3176C89.3142 15.8948 97.0414 10.1935 106.646 10.5198L106.541 12.0207C95.8018 11.6793 87.0971 20.1568 87.0132 20.2426L85.8742 21.3705Z" fill="#474747"/>
</g>
</g>
<g clip-path="url(#clip1_224_20968)">
<mask id="mask14_224_20968" style="mask-type:luminance" maskUnits="userSpaceOnUse" x="-693" y="-224" width="1050" height="753">
<path d="M-692.346 -223.356H356.411V528.595H-692.346V-223.356Z" fill="white"/>
</mask>
<g mask="url(#mask14_224_20968)">
<path d="M124.947 36.7452C124.947 36.7452 110.715 33.2215 104.148 41.3997C97.5786 49.578 105.876 68.1662 131.802 76.594C157.727 85.0204 216.837 80.8065 239.996 68.6625C263.156 56.5185 265.231 37.1858 255.551 31.7342C245.873 26.281 233.774 29.5039 233.774 29.5039C233.774 29.5039 235.664 11.7759 217.183 7.94094C204.046 5.21437 194.368 16.1192 194.368 16.1192C194.368 16.1192 188.837 -0.449329 171.554 0.00936058C152.284 0.520687 149.431 20.5812 149.431 20.5812C149.431 20.5812 121.836 10.4735 124.947 36.7452Z" fill="#FF7D9F"/>
</g>
<mask id="mask15_224_20968" style="mask-type:luminance" maskUnits="userSpaceOnUse" x="-699" y="-220" width="1050" height="753">
<path d="M-698.551 -219.673H350.207V532.278H-698.551V-219.673Z" fill="white"/>
</mask>
<g mask="url(#mask15_224_20968)">
<path d="M168.605 67.187C166.986 66.7809 165.649 65.7929 165.211 64.5988C164.896 63.6483 163.791 60.0555 166.247 60.3713C166.895 60.5578 166.977 61.045 166.711 61.4556C166.568 62.37 166.803 63.2828 167.088 64.1716C167.403 65.1417 168.657 65.85 169.993 65.9929C173.02 66.0621 174.774 63.3325 174.455 61.4436C174.394 60.5217 176.338 60.4375 176.424 61.3609C176.972 64.3641 173.268 68.4006 168.605 67.187Z" fill="#474747"/>
</g>
<mask id="mask16_224_20968" style="mask-type:luminance" maskUnits="userSpaceOnUse" x="-699" y="-220" width="1050" height="753">
<path d="M-698.551 -219.673H350.207V532.278H-698.551V-219.673Z" fill="white"/>
</mask>
<g mask="url(#mask16_224_20968)">
<path d="M152.433 57.3196C149.597 56.4563 149.928 50.6362 153.813 51.0889C157.559 51.5957 156.342 57.9813 152.433 57.3196Z" fill="#474747"/>
</g>
<mask id="mask17_224_20968" style="mask-type:luminance" maskUnits="userSpaceOnUse" x="-699" y="-220" width="1050" height="753">
<path d="M-698.551 -219.673H350.207V532.278H-698.551V-219.673Z" fill="white"/>
</mask>
<g mask="url(#mask17_224_20968)">
<path d="M148.389 52.9835C147.657 52.9158 147.057 52.4526 146.698 52.024C146.407 51.0991 147.982 50.8254 148.557 51.6225C149.696 51.8586 149.637 52.9835 148.389 52.9835Z" fill="#474747"/>
</g>
<mask id="mask18_224_20968" style="mask-type:luminance" maskUnits="userSpaceOnUse" x="-699" y="-220" width="1050" height="753">
<path d="M-698.551 -219.673H350.207V532.278H-698.551V-219.673Z" fill="white"/>
</mask>
<g mask="url(#mask18_224_20968)">
<path d="M147.749 54.559C147.223 54.4898 146.564 54.5409 146.161 54.2462C145.524 53.7424 146.447 52.9438 147.252 53.2987C147.904 53.24 148.75 53.404 148.689 53.9815C148.653 54.3319 148.221 54.574 147.749 54.559Z" fill="#474747"/>
</g>
<mask id="mask19_224_20968" style="mask-type:luminance" maskUnits="userSpaceOnUse" x="-699" y="-220" width="1050" height="753">
<path d="M-698.551 -219.673H350.207V532.278H-698.551V-219.673Z" fill="white"/>
</mask>
<g mask="url(#mask19_224_20968)">
<path d="M188.737 57.3196C191.572 56.4563 191.241 50.6362 187.356 51.0889C183.61 51.5957 184.827 57.9813 188.737 57.3196Z" fill="#474747"/>
</g>
<mask id="mask20_224_20968" style="mask-type:luminance" maskUnits="userSpaceOnUse" x="-699" y="-220" width="1050" height="753">
<path d="M-698.551 -219.673H350.207V532.278H-698.551V-219.673Z" fill="white"/>
</mask>
<g mask="url(#mask20_224_20968)">
<path d="M192.78 52.9835C193.512 52.9158 194.112 52.4526 194.471 52.024C194.762 51.0991 193.187 50.8254 192.613 51.6225C191.474 51.8586 191.532 52.9835 192.78 52.9835Z" fill="#474747"/>
</g>
<mask id="mask21_224_20968" style="mask-type:luminance" maskUnits="userSpaceOnUse" x="-699" y="-220" width="1050" height="753">
<path d="M-698.551 -219.673H350.207V532.278H-698.551V-219.673Z" fill="white"/>
</mask>
<g mask="url(#mask21_224_20968)">
<path d="M193.42 54.559C193.947 54.4898 194.605 54.5409 195.008 54.2462C195.646 53.7424 194.723 52.9438 193.917 53.2987C193.265 53.24 192.42 53.404 192.48 53.9815C192.518 54.3319 192.948 54.574 193.42 54.559Z" fill="#474747"/>
</g>
<mask id="mask22_224_20968" style="mask-type:luminance" maskUnits="userSpaceOnUse" x="-699" y="-220" width="1050" height="753">
<path d="M-698.551 -219.673H350.207V532.278H-698.551V-219.673Z" fill="white"/>
</mask>
<g mask="url(#mask22_224_20968)">
<path d="M132.607 36.4027C128.382 34.9875 131.268 28.9253 135.837 30.1841C137.58 30.9255 138.677 32.3106 138.549 33.7709C138.49 34.3619 138.484 35.0567 137.844 35.4914C136.508 36.4614 134.413 37.0479 132.607 36.4027Z" fill="white"/>
</g>
<mask id="mask23_224_20968" style="mask-type:luminance" maskUnits="userSpaceOnUse" x="-699" y="-220" width="1050" height="753">
<path d="M-698.551 -219.673H350.207V532.278H-698.551V-219.673Z" fill="white"/>
</mask>
<g mask="url(#mask23_224_20968)">
<path d="M133.626 46.7192C132.468 46.6921 131.86 45.6439 132.223 44.934C132.592 44.328 133.561 43.8663 134.496 44.0016C136.606 44.3475 135.654 47.02 133.626 46.7192Z" fill="white"/>
</g>
<mask id="mask24_224_20968" style="mask-type:luminance" maskUnits="userSpaceOnUse" x="-699" y="-220" width="1050" height="753">
<path d="M-698.551 -219.673H350.207V532.278H-698.551V-219.673Z" fill="white"/>
</mask>
<g mask="url(#mask24_224_20968)">
<path d="M141.504 43.4056C137.905 42.5649 139.294 38.4337 142.759 38.2547C145.215 38.1735 146.433 40.3782 145.557 41.8205C144.961 42.9634 143.14 43.5981 141.504 43.4056Z" fill="white"/>
</g>
<mask id="mask25_224_20968" style="mask-type:luminance" maskUnits="userSpaceOnUse" x="-699" y="-220" width="1050" height="753">
<path d="M-698.551 -219.673H350.207V532.278H-698.551V-219.673Z" fill="white"/>
</mask>
<g mask="url(#mask25_224_20968)">
<path d="M233.237 59.5882C232.064 59.5325 231.213 58.6723 231.425 57.8587C231.196 56.6601 232.905 55.5352 234.541 55.6871C237.839 56.0916 236.041 59.8017 233.237 59.5882Z" fill="white"/>
</g>
<mask id="mask26_224_20968" style="mask-type:luminance" maskUnits="userSpaceOnUse" x="-699" y="-220" width="1050" height="753">
<path d="M-698.551 -219.673H350.207V532.278H-698.551V-219.673Z" fill="white"/>
</mask>
<g mask="url(#mask26_224_20968)">
<path d="M231.443 68.5678C230.491 68.2309 229.702 67.5677 229.358 66.8519C228.895 65.2487 231.204 63.2666 233.562 63.8802C237.492 64.9148 235.594 69.6822 231.443 68.5678Z" fill="white"/>
</g>
<mask id="mask27_224_20968" style="mask-type:luminance" maskUnits="userSpaceOnUse" x="-699" y="-220" width="1050" height="753">
<path d="M-698.551 -219.673H350.207V532.278H-698.551V-219.673Z" fill="white"/>
</mask>
<g mask="url(#mask27_224_20968)">
<path d="M187.874 21.3705L187.182 20.0696C187.151 20.011 184.019 14.1352 180.223 9.80398C176.627 5.70134 168.413 4.85163 168.33 4.84261L168.615 3.35375C168.99 3.38984 177.886 4.31323 181.999 9.0039C184.883 12.2959 187.331 16.3294 188.468 18.3176C191.314 15.8948 199.041 10.1935 208.646 10.5198L208.541 12.0207C197.802 11.6793 189.097 20.1568 189.013 20.2426L187.874 21.3705Z" fill="#474747"/>
</g>
</g>
<g clip-path="url(#clip2_224_20968)">
<mask id="mask28_224_20968" style="mask-type:luminance" maskUnits="userSpaceOnUse" x="-591" y="-224" width="1050" height="753">
<path d="M-590.346 -223.356H458.411V528.595H-590.346V-223.356Z" fill="white"/>
</mask>
<g mask="url(#mask28_224_20968)">
<path d="M226.947 36.7452C226.947 36.7452 212.715 33.2215 206.148 41.3997C199.579 49.578 207.876 68.1662 233.802 76.594C259.727 85.0204 318.837 80.8065 341.996 68.6625C365.156 56.5185 367.231 37.1858 357.551 31.7342C347.873 26.281 335.774 29.5039 335.774 29.5039C335.774 29.5039 337.664 11.7759 319.183 7.94094C306.046 5.21437 296.368 16.1192 296.368 16.1192C296.368 16.1192 290.837 -0.449329 273.554 0.00936058C254.284 0.520687 251.431 20.5812 251.431 20.5812C251.431 20.5812 223.836 10.4735 226.947 36.7452Z" fill="#FF7D9F"/>
</g>
<mask id="mask29_224_20968" style="mask-type:luminance" maskUnits="userSpaceOnUse" x="-597" y="-220" width="1050" height="753">
<path d="M-596.551 -219.673H452.207V532.278H-596.551V-219.673Z" fill="white"/>
</mask>
<g mask="url(#mask29_224_20968)">
<path d="M270.605 67.187C268.986 66.7809 267.649 65.7929 267.211 64.5988C266.896 63.6483 265.791 60.0555 268.247 60.3713C268.895 60.5578 268.977 61.045 268.711 61.4556C268.568 62.37 268.803 63.2828 269.088 64.1716C269.403 65.1417 270.657 65.85 271.993 65.9929C275.02 66.0621 276.774 63.3325 276.455 61.4436C276.394 60.5217 278.338 60.4375 278.424 61.3609C278.972 64.3641 275.268 68.4006 270.605 67.187Z" fill="#474747"/>
</g>
<mask id="mask30_224_20968" style="mask-type:luminance" maskUnits="userSpaceOnUse" x="-597" y="-220" width="1050" height="753">
<path d="M-596.551 -219.673H452.207V532.278H-596.551V-219.673Z" fill="white"/>
</mask>
<g mask="url(#mask30_224_20968)">
<path d="M254.433 57.3196C251.597 56.4563 251.928 50.6362 255.813 51.0889C259.559 51.5957 258.342 57.9813 254.433 57.3196Z" fill="#474747"/>
</g>
<mask id="mask31_224_20968" style="mask-type:luminance" maskUnits="userSpaceOnUse" x="-597" y="-220" width="1050" height="753">
<path d="M-596.551 -219.673H452.207V532.278H-596.551V-219.673Z" fill="white"/>
</mask>
<g mask="url(#mask31_224_20968)">
<path d="M250.389 52.9835C249.657 52.9158 249.057 52.4526 248.698 52.024C248.407 51.0991 249.982 50.8254 250.557 51.6225C251.696 51.8586 251.637 52.9835 250.389 52.9835Z" fill="#474747"/>
</g>
<mask id="mask32_224_20968" style="mask-type:luminance" maskUnits="userSpaceOnUse" x="-597" y="-220" width="1050" height="753">
<path d="M-596.551 -219.673H452.207V532.278H-596.551V-219.673Z" fill="white"/>
</mask>
<g mask="url(#mask32_224_20968)">
<path d="M249.749 54.559C249.223 54.4898 248.564 54.5409 248.161 54.2462C247.524 53.7424 248.447 52.9438 249.252 53.2987C249.904 53.24 250.75 53.404 250.689 53.9815C250.653 54.3319 250.221 54.574 249.749 54.559Z" fill="#474747"/>
</g>
<mask id="mask33_224_20968" style="mask-type:luminance" maskUnits="userSpaceOnUse" x="-597" y="-220" width="1050" height="753">
<path d="M-596.551 -219.673H452.207V532.278H-596.551V-219.673Z" fill="white"/>
</mask>
<g mask="url(#mask33_224_20968)">
<path d="M290.737 57.3196C293.572 56.4563 293.241 50.6362 289.356 51.0889C285.61 51.5957 286.827 57.9813 290.737 57.3196Z" fill="#474747"/>
</g>
<mask id="mask34_224_20968" style="mask-type:luminance" maskUnits="userSpaceOnUse" x="-597" y="-220" width="1050" height="753">
<path d="M-596.551 -219.673H452.207V532.278H-596.551V-219.673Z" fill="white"/>
</mask>
<g mask="url(#mask34_224_20968)">
<path d="M294.78 52.9835C295.512 52.9158 296.112 52.4526 296.471 52.024C296.762 51.0991 295.187 50.8254 294.613 51.6225C293.474 51.8586 293.532 52.9835 294.78 52.9835Z" fill="#474747"/>
</g>
<mask id="mask35_224_20968" style="mask-type:luminance" maskUnits="userSpaceOnUse" x="-597" y="-220" width="1050" height="753">
<path d="M-596.551 -219.673H452.207V532.278H-596.551V-219.673Z" fill="white"/>
</mask>
<g mask="url(#mask35_224_20968)">
<path d="M295.42 54.559C295.947 54.4898 296.605 54.5409 297.008 54.2462C297.646 53.7424 296.723 52.9438 295.917 53.2987C295.265 53.24 294.42 53.404 294.48 53.9815C294.518 54.3319 294.948 54.574 295.42 54.559Z" fill="#474747"/>
</g>
<mask id="mask36_224_20968" style="mask-type:luminance" maskUnits="userSpaceOnUse" x="-597" y="-220" width="1050" height="753">
<path d="M-596.551 -219.673H452.207V532.278H-596.551V-219.673Z" fill="white"/>
</mask>
<g mask="url(#mask36_224_20968)">
<path d="M234.607 36.4027C230.382 34.9875 233.268 28.9253 237.837 30.1841C239.58 30.9255 240.677 32.3106 240.549 33.7709C240.49 34.3619 240.484 35.0567 239.844 35.4914C238.508 36.4614 236.413 37.0479 234.607 36.4027Z" fill="white"/>
</g>
<mask id="mask37_224_20968" style="mask-type:luminance" maskUnits="userSpaceOnUse" x="-597" y="-220" width="1050" height="753">
<path d="M-596.551 -219.673H452.207V532.278H-596.551V-219.673Z" fill="white"/>
</mask>
<g mask="url(#mask37_224_20968)">
<path d="M235.626 46.7192C234.468 46.6921 233.86 45.6439 234.223 44.934C234.592 44.328 235.561 43.8663 236.496 44.0016C238.606 44.3475 237.654 47.02 235.626 46.7192Z" fill="white"/>
</g>
<mask id="mask38_224_20968" style="mask-type:luminance" maskUnits="userSpaceOnUse" x="-597" y="-220" width="1050" height="753">
<path d="M-596.551 -219.673H452.207V532.278H-596.551V-219.673Z" fill="white"/>
</mask>
<g mask="url(#mask38_224_20968)">
<path d="M243.504 43.4056C239.905 42.5649 241.294 38.4337 244.759 38.2547C247.215 38.1735 248.433 40.3782 247.557 41.8205C246.961 42.9634 245.14 43.5981 243.504 43.4056Z" fill="white"/>
</g>
<mask id="mask39_224_20968" style="mask-type:luminance" maskUnits="userSpaceOnUse" x="-597" y="-220" width="1050" height="753">
<path d="M-596.551 -219.673H452.207V532.278H-596.551V-219.673Z" fill="white"/>
</mask>
<g mask="url(#mask39_224_20968)">
<path d="M335.237 59.5882C334.064 59.5325 333.213 58.6723 333.425 57.8587C333.196 56.6601 334.905 55.5352 336.541 55.6871C339.839 56.0916 338.041 59.8017 335.237 59.5882Z" fill="white"/>
</g>
<mask id="mask40_224_20968" style="mask-type:luminance" maskUnits="userSpaceOnUse" x="-597" y="-220" width="1050" height="753">
<path d="M-596.551 -219.673H452.207V532.278H-596.551V-219.673Z" fill="white"/>
</mask>
<g mask="url(#mask40_224_20968)">
<path d="M333.443 68.5678C332.491 68.2309 331.702 67.5677 331.358 66.8519C330.895 65.2487 333.204 63.2666 335.562 63.8802C339.492 64.9148 337.594 69.6822 333.443 68.5678Z" fill="white"/>
</g>
<mask id="mask41_224_20968" style="mask-type:luminance" maskUnits="userSpaceOnUse" x="-597" y="-220" width="1050" height="753">
<path d="M-596.551 -219.673H452.207V532.278H-596.551V-219.673Z" fill="white"/>
</mask>
<g mask="url(#mask41_224_20968)">
<path d="M289.874 21.3705L289.182 20.0696C289.151 20.011 286.019 14.1352 282.223 9.80398C278.627 5.70134 270.413 4.85163 270.33 4.84261L270.615 3.35375C270.99 3.38984 279.886 4.31323 283.999 9.0039C286.883 12.2959 289.331 16.3294 290.468 18.3176C293.314 15.8948 301.041 10.1935 310.646 10.5198L310.541 12.0207C299.802 11.6793 291.097 20.1568 291.013 20.2426L289.874 21.3705Z" fill="#474747"/>
</g>
</g>
<g clip-path="url(#clip3_224_20968)">
<mask id="mask42_224_20968" style="mask-type:luminance" maskUnits="userSpaceOnUse" x="-489" y="-224" width="1050" height="753">
<path d="M-488.346 -223.356H560.411V528.595H-488.346V-223.356Z" fill="white"/>
</mask>
<g mask="url(#mask42_224_20968)">
<path d="M328.947 36.7452C328.947 36.7452 314.715 33.2215 308.148 41.3997C301.579 49.578 309.876 68.1662 335.802 76.594C361.727 85.0204 420.837 80.8065 443.996 68.6625C467.156 56.5185 469.231 37.1858 459.551 31.7342C449.873 26.281 437.774 29.5039 437.774 29.5039C437.774 29.5039 439.664 11.7759 421.183 7.94094C408.046 5.21437 398.368 16.1192 398.368 16.1192C398.368 16.1192 392.837 -0.449329 375.554 0.00936058C356.284 0.520687 353.431 20.5812 353.431 20.5812C353.431 20.5812 325.836 10.4735 328.947 36.7452Z" fill="#FF7D9F"/>
</g>
<mask id="mask43_224_20968" style="mask-type:luminance" maskUnits="userSpaceOnUse" x="-495" y="-220" width="1050" height="753">
<path d="M-494.551 -219.673H554.207V532.278H-494.551V-219.673Z" fill="white"/>
</mask>
<g mask="url(#mask43_224_20968)">
<path d="M372.605 67.187C370.986 66.7809 369.649 65.7929 369.211 64.5988C368.896 63.6483 367.791 60.0555 370.247 60.3713C370.895 60.5578 370.977 61.045 370.711 61.4556C370.568 62.37 370.803 63.2828 371.088 64.1716C371.403 65.1417 372.657 65.85 373.993 65.9929C377.02 66.0621 378.774 63.3325 378.455 61.4436C378.394 60.5217 380.338 60.4375 380.424 61.3609C380.972 64.3641 377.268 68.4006 372.605 67.187Z" fill="#474747"/>
</g>
<mask id="mask44_224_20968" style="mask-type:luminance" maskUnits="userSpaceOnUse" x="-495" y="-220" width="1050" height="753">
<path d="M-494.551 -219.673H554.207V532.278H-494.551V-219.673Z" fill="white"/>
</mask>
<g mask="url(#mask44_224_20968)">
<path d="M356.433 57.3196C353.597 56.4563 353.928 50.6362 357.813 51.0889C361.559 51.5957 360.342 57.9813 356.433 57.3196Z" fill="#474747"/>
</g>
<mask id="mask45_224_20968" style="mask-type:luminance" maskUnits="userSpaceOnUse" x="-495" y="-220" width="1050" height="753">
<path d="M-494.551 -219.673H554.207V532.278H-494.551V-219.673Z" fill="white"/>
</mask>
<g mask="url(#mask45_224_20968)">
<path d="M352.389 52.9835C351.657 52.9158 351.057 52.4526 350.698 52.024C350.407 51.0991 351.982 50.8254 352.557 51.6225C353.696 51.8586 353.637 52.9835 352.389 52.9835Z" fill="#474747"/>
</g>
<mask id="mask46_224_20968" style="mask-type:luminance" maskUnits="userSpaceOnUse" x="-495" y="-220" width="1050" height="753">
<path d="M-494.551 -219.673H554.207V532.278H-494.551V-219.673Z" fill="white"/>
</mask>
<g mask="url(#mask46_224_20968)">
<path d="M351.749 54.559C351.223 54.4898 350.564 54.5409 350.161 54.2462C349.524 53.7424 350.447 52.9438 351.252 53.2987C351.904 53.24 352.75 53.404 352.689 53.9815C352.653 54.3319 352.221 54.574 351.749 54.559Z" fill="#474747"/>
</g>
<mask id="mask47_224_20968" style="mask-type:luminance" maskUnits="userSpaceOnUse" x="-495" y="-220" width="1050" height="753">
<path d="M-494.551 -219.673H554.207V532.278H-494.551V-219.673Z" fill="white"/>
</mask>
<g mask="url(#mask47_224_20968)">
<path d="M392.737 57.3196C395.572 56.4563 395.241 50.6362 391.356 51.0889C387.61 51.5957 388.827 57.9813 392.737 57.3196Z" fill="#474747"/>
</g>
<mask id="mask48_224_20968" style="mask-type:luminance" maskUnits="userSpaceOnUse" x="-495" y="-220" width="1050" height="753">
<path d="M-494.551 -219.673H554.207V532.278H-494.551V-219.673Z" fill="white"/>
</mask>
<g mask="url(#mask48_224_20968)">
<path d="M396.78 52.9835C397.512 52.9158 398.112 52.4526 398.471 52.024C398.762 51.0991 397.187 50.8254 396.613 51.6225C395.474 51.8586 395.532 52.9835 396.78 52.9835Z" fill="#474747"/>
</g>
<mask id="mask49_224_20968" style="mask-type:luminance" maskUnits="userSpaceOnUse" x="-495" y="-220" width="1050" height="753">
<path d="M-494.551 -219.673H554.207V532.278H-494.551V-219.673Z" fill="white"/>
</mask>
<g mask="url(#mask49_224_20968)">
<path d="M397.42 54.559C397.947 54.4898 398.605 54.5409 399.008 54.2462C399.646 53.7424 398.723 52.9438 397.917 53.2987C397.265 53.24 396.42 53.404 396.48 53.9815C396.518 54.3319 396.948 54.574 397.42 54.559Z" fill="#474747"/>
</g>
<mask id="mask50_224_20968" style="mask-type:luminance" maskUnits="userSpaceOnUse" x="-495" y="-220" width="1050" height="753">
<path d="M-494.551 -219.673H554.207V532.278H-494.551V-219.673Z" fill="white"/>
</mask>
<g mask="url(#mask50_224_20968)">
<path d="M336.607 36.4027C332.382 34.9875 335.268 28.9253 339.837 30.1841C341.58 30.9255 342.677 32.3106 342.549 33.7709C342.49 34.3619 342.484 35.0567 341.844 35.4914C340.508 36.4614 338.413 37.0479 336.607 36.4027Z" fill="white"/>
</g>
<mask id="mask51_224_20968" style="mask-type:luminance" maskUnits="userSpaceOnUse" x="-495" y="-220" width="1050" height="753">
<path d="M-494.551 -219.673H554.207V532.278H-494.551V-219.673Z" fill="white"/>
</mask>
<g mask="url(#mask51_224_20968)">
<path d="M337.626 46.7192C336.468 46.6921 335.86 45.6439 336.223 44.934C336.592 44.328 337.561 43.8663 338.496 44.0016C340.606 44.3475 339.654 47.02 337.626 46.7192Z" fill="white"/>
</g>
<mask id="mask52_224_20968" style="mask-type:luminance" maskUnits="userSpaceOnUse" x="-495" y="-220" width="1050" height="753">
<path d="M-494.551 -219.673H554.207V532.278H-494.551V-219.673Z" fill="white"/>
</mask>
<g mask="url(#mask52_224_20968)">
<path d="M345.504 43.4056C341.905 42.5649 343.294 38.4337 346.759 38.2547C349.215 38.1735 350.433 40.3782 349.557 41.8205C348.961 42.9634 347.14 43.5981 345.504 43.4056Z" fill="white"/>
</g>
<mask id="mask53_224_20968" style="mask-type:luminance" maskUnits="userSpaceOnUse" x="-495" y="-220" width="1050" height="753">
<path d="M-494.551 -219.673H554.207V532.278H-494.551V-219.673Z" fill="white"/>
</mask>
<g mask="url(#mask53_224_20968)">
<path d="M437.237 59.5882C436.064 59.5325 435.213 58.6723 435.425 57.8587C435.196 56.6601 436.905 55.5352 438.541 55.6871C441.839 56.0916 440.041 59.8017 437.237 59.5882Z" fill="white"/>
</g>
<mask id="mask54_224_20968" style="mask-type:luminance" maskUnits="userSpaceOnUse" x="-495" y="-220" width="1050" height="753">
<path d="M-494.551 -219.673H554.207V532.278H-494.551V-219.673Z" fill="white"/>
</mask>
<g mask="url(#mask54_224_20968)">
<path d="M435.443 68.5678C434.491 68.2309 433.702 67.5677 433.358 66.8519C432.895 65.2487 435.204 63.2666 437.562 63.8802C441.492 64.9148 439.594 69.6822 435.443 68.5678Z" fill="white"/>
</g>
<mask id="mask55_224_20968" style="mask-type:luminance" maskUnits="userSpaceOnUse" x="-495" y="-220" width="1050" height="753">
<path d="M-494.551 -219.673H554.207V532.278H-494.551V-219.673Z" fill="white"/>
</mask>
<g mask="url(#mask55_224_20968)">
<path d="M391.874 21.3705L391.182 20.0696C391.151 20.011 388.019 14.1352 384.223 9.80398C380.627 5.70134 372.413 4.85163 372.33 4.84261L372.615 3.35375C372.99 3.38984 381.886 4.31323 385.999 9.0039C388.883 12.2959 391.331 16.3294 392.468 18.3176C395.314 15.8948 403.041 10.1935 412.646 10.5198L412.541 12.0207C401.802 11.6793 393.097 20.1568 393.013 20.2426L391.874 21.3705Z" fill="#474747"/>
</g>
</g>
<g clip-path="url(#clip4_224_20968)">
<mask id="mask56_224_20968" style="mask-type:luminance" maskUnits="userSpaceOnUse" x="-387" y="-224" width="1050" height="753">
<path d="M-386.346 -223.356H662.411V528.595H-386.346V-223.356Z" fill="white"/>
</mask>
<g mask="url(#mask56_224_20968)">
<path d="M430.947 36.7452C430.947 36.7452 416.715 33.2215 410.148 41.3997C403.579 49.578 411.876 68.1662 437.802 76.594C463.727 85.0204 522.837 80.8065 545.996 68.6625C569.156 56.5185 571.231 37.1858 561.551 31.7342C551.873 26.281 539.774 29.5039 539.774 29.5039C539.774 29.5039 541.664 11.7759 523.183 7.94094C510.046 5.21437 500.368 16.1192 500.368 16.1192C500.368 16.1192 494.837 -0.449329 477.554 0.00936058C458.284 0.520687 455.431 20.5812 455.431 20.5812C455.431 20.5812 427.836 10.4735 430.947 36.7452Z" fill="#FF7D9F"/>
</g>
<mask id="mask57_224_20968" style="mask-type:luminance" maskUnits="userSpaceOnUse" x="-393" y="-220" width="1050" height="753">
<path d="M-392.551 -219.673H656.207V532.278H-392.551V-219.673Z" fill="white"/>
</mask>
<g mask="url(#mask57_224_20968)">
<path d="M474.605 67.187C472.986 66.7809 471.649 65.7929 471.211 64.5988C470.896 63.6483 469.791 60.0555 472.247 60.3713C472.895 60.5578 472.977 61.045 472.711 61.4556C472.568 62.37 472.803 63.2828 473.088 64.1716C473.403 65.1417 474.657 65.85 475.993 65.9929C479.02 66.0621 480.774 63.3325 480.455 61.4436C480.394 60.5217 482.338 60.4375 482.424 61.3609C482.972 64.3641 479.268 68.4006 474.605 67.187Z" fill="#474747"/>
</g>
<mask id="mask58_224_20968" style="mask-type:luminance" maskUnits="userSpaceOnUse" x="-393" y="-220" width="1050" height="753">
<path d="M-392.551 -219.673H656.207V532.278H-392.551V-219.673Z" fill="white"/>
</mask>
<g mask="url(#mask58_224_20968)">
<path d="M458.433 57.3196C455.597 56.4563 455.928 50.6362 459.813 51.0889C463.559 51.5957 462.342 57.9813 458.433 57.3196Z" fill="#474747"/>
</g>
<mask id="mask59_224_20968" style="mask-type:luminance" maskUnits="userSpaceOnUse" x="-393" y="-220" width="1050" height="753">
<path d="M-392.551 -219.673H656.207V532.278H-392.551V-219.673Z" fill="white"/>
</mask>
<g mask="url(#mask59_224_20968)">
<path d="M454.389 52.9835C453.657 52.9158 453.057 52.4526 452.698 52.024C452.407 51.0991 453.982 50.8254 454.557 51.6225C455.696 51.8586 455.637 52.9835 454.389 52.9835Z" fill="#474747"/>
</g>
<mask id="mask60_224_20968" style="mask-type:luminance" maskUnits="userSpaceOnUse" x="-393" y="-220" width="1050" height="753">
<path d="M-392.551 -219.673H656.207V532.278H-392.551V-219.673Z" fill="white"/>
</mask>
<g mask="url(#mask60_224_20968)">
<path d="M453.749 54.559C453.223 54.4898 452.564 54.5409 452.161 54.2462C451.524 53.7424 452.447 52.9438 453.252 53.2987C453.904 53.24 454.75 53.404 454.689 53.9815C454.653 54.3319 454.221 54.574 453.749 54.559Z" fill="#474747"/>
</g>
<mask id="mask61_224_20968" style="mask-type:luminance" maskUnits="userSpaceOnUse" x="-393" y="-220" width="1050" height="753">
<path d="M-392.551 -219.673H656.207V532.278H-392.551V-219.673Z" fill="white"/>
</mask>
<g mask="url(#mask61_224_20968)">
<path d="M494.737 57.3196C497.572 56.4563 497.241 50.6362 493.356 51.0889C489.61 51.5957 490.827 57.9813 494.737 57.3196Z" fill="#474747"/>
</g>
<mask id="mask62_224_20968" style="mask-type:luminance" maskUnits="userSpaceOnUse" x="-393" y="-220" width="1050" height="753">
<path d="M-392.551 -219.673H656.207V532.278H-392.551V-219.673Z" fill="white"/>
</mask>
<g mask="url(#mask62_224_20968)">
<path d="M498.78 52.9835C499.512 52.9158 500.112 52.4526 500.471 52.024C500.762 51.0991 499.187 50.8254 498.613 51.6225C497.474 51.8586 497.532 52.9835 498.78 52.9835Z" fill="#474747"/>
</g>
<mask id="mask63_224_20968" style="mask-type:luminance" maskUnits="userSpaceOnUse" x="-393" y="-220" width="1050" height="753">
<path d="M-392.551 -219.673H656.207V532.278H-392.551V-219.673Z" fill="white"/>
</mask>
<g mask="url(#mask63_224_20968)">
<path d="M499.42 54.559C499.947 54.4898 500.605 54.5409 501.008 54.2462C501.646 53.7424 500.723 52.9438 499.917 53.2987C499.265 53.24 498.42 53.404 498.48 53.9815C498.518 54.3319 498.948 54.574 499.42 54.559Z" fill="#474747"/>
</g>
<mask id="mask64_224_20968" style="mask-type:luminance" maskUnits="userSpaceOnUse" x="-393" y="-220" width="1050" height="753">
<path d="M-392.551 -219.673H656.207V532.278H-392.551V-219.673Z" fill="white"/>
</mask>
<g mask="url(#mask64_224_20968)">
<path d="M438.607 36.4027C434.382 34.9875 437.268 28.9253 441.837 30.1841C443.58 30.9255 444.677 32.3106 444.549 33.7709C444.49 34.3619 444.484 35.0567 443.844 35.4914C442.508 36.4614 440.413 37.0479 438.607 36.4027Z" fill="white"/>
</g>
<mask id="mask65_224_20968" style="mask-type:luminance" maskUnits="userSpaceOnUse" x="-393" y="-220" width="1050" height="753">
<path d="M-392.551 -219.673H656.207V532.278H-392.551V-219.673Z" fill="white"/>
</mask>
<g mask="url(#mask65_224_20968)">
<path d="M439.626 46.7192C438.468 46.6921 437.86 45.6439 438.223 44.934C438.592 44.328 439.561 43.8663 440.496 44.0016C442.606 44.3475 441.654 47.02 439.626 46.7192Z" fill="white"/>
</g>
<mask id="mask66_224_20968" style="mask-type:luminance" maskUnits="userSpaceOnUse" x="-393" y="-220" width="1050" height="753">
<path d="M-392.551 -219.673H656.207V532.278H-392.551V-219.673Z" fill="white"/>
</mask>
<g mask="url(#mask66_224_20968)">
<path d="M447.504 43.4056C443.905 42.5649 445.294 38.4337 448.759 38.2547C451.215 38.1735 452.433 40.3782 451.557 41.8205C450.961 42.9634 449.14 43.5981 447.504 43.4056Z" fill="white"/>
</g>
<mask id="mask67_224_20968" style="mask-type:luminance" maskUnits="userSpaceOnUse" x="-393" y="-220" width="1050" height="753">
<path d="M-392.551 -219.673H656.207V532.278H-392.551V-219.673Z" fill="white"/>
</mask>
<g mask="url(#mask67_224_20968)">
<path d="M539.237 59.5882C538.064 59.5325 537.213 58.6723 537.425 57.8587C537.196 56.6601 538.905 55.5352 540.541 55.6871C543.839 56.0916 542.041 59.8017 539.237 59.5882Z" fill="white"/>
</g>
<mask id="mask68_224_20968" style="mask-type:luminance" maskUnits="userSpaceOnUse" x="-393" y="-220" width="1050" height="753">
<path d="M-392.551 -219.673H656.207V532.278H-392.551V-219.673Z" fill="white"/>
</mask>
<g mask="url(#mask68_224_20968)">
<path d="M537.443 68.5678C536.491 68.2309 535.702 67.5677 535.358 66.8519C534.895 65.2487 537.204 63.2666 539.562 63.8802C543.492 64.9148 541.594 69.6822 537.443 68.5678Z" fill="white"/>
</g>
<mask id="mask69_224_20968" style="mask-type:luminance" maskUnits="userSpaceOnUse" x="-393" y="-220" width="1050" height="753">
<path d="M-392.551 -219.673H656.207V532.278H-392.551V-219.673Z" fill="white"/>
</mask>
<g mask="url(#mask69_224_20968)">
<path d="M493.874 21.3705L493.182 20.0696C493.151 20.011 490.019 14.1352 486.223 9.80398C482.627 5.70134 474.413 4.85163 474.33 4.84261L474.615 3.35375C474.99 3.38984 483.886 4.31323 487.999 9.0039C490.883 12.2959 493.331 16.3294 494.468 18.3176C497.314 15.8948 505.041 10.1935 514.646 10.5198L514.541 12.0207C503.802 11.6793 495.097 20.1568 495.013 20.2426L493.874 21.3705Z" fill="#474747"/>
</g>
</g>
<g clip-path="url(#clip5_224_20968)">
<mask id="mask70_224_20968" style="mask-type:luminance" maskUnits="userSpaceOnUse" x="-285" y="-224" width="1050" height="753">
<path d="M-284.346 -223.356H764.411V528.595H-284.346V-223.356Z" fill="white"/>
</mask>
<g mask="url(#mask70_224_20968)">
<path d="M532.947 36.7452C532.947 36.7452 518.715 33.2215 512.148 41.3997C505.579 49.578 513.876 68.1662 539.802 76.594C565.727 85.0204 624.837 80.8065 647.996 68.6625C671.156 56.5185 673.231 37.1858 663.551 31.7342C653.873 26.281 641.774 29.5039 641.774 29.5039C641.774 29.5039 643.664 11.7759 625.183 7.94094C612.046 5.21437 602.368 16.1192 602.368 16.1192C602.368 16.1192 596.837 -0.449329 579.554 0.00936058C560.284 0.520687 557.431 20.5812 557.431 20.5812C557.431 20.5812 529.836 10.4735 532.947 36.7452Z" fill="#FF7D9F"/>
</g>
<mask id="mask71_224_20968" style="mask-type:luminance" maskUnits="userSpaceOnUse" x="-291" y="-220" width="1050" height="753">
<path d="M-290.551 -219.673H758.207V532.278H-290.551V-219.673Z" fill="white"/>
</mask>
<g mask="url(#mask71_224_20968)">
<path d="M576.605 67.187C574.986 66.7809 573.649 65.7929 573.211 64.5988C572.896 63.6483 571.791 60.0555 574.247 60.3713C574.895 60.5578 574.977 61.045 574.711 61.4556C574.568 62.37 574.803 63.2828 575.088 64.1716C575.403 65.1417 576.657 65.85 577.993 65.9929C581.02 66.0621 582.774 63.3325 582.455 61.4436C582.394 60.5217 584.338 60.4375 584.424 61.3609C584.972 64.3641 581.268 68.4006 576.605 67.187Z" fill="#474747"/>
</g>
<mask id="mask72_224_20968" style="mask-type:luminance" maskUnits="userSpaceOnUse" x="-291" y="-220" width="1050" height="753">
<path d="M-290.551 -219.673H758.207V532.278H-290.551V-219.673Z" fill="white"/>
</mask>
<g mask="url(#mask72_224_20968)">
<path d="M560.433 57.3196C557.597 56.4563 557.928 50.6362 561.813 51.0889C565.559 51.5957 564.342 57.9813 560.433 57.3196Z" fill="#474747"/>
</g>
<mask id="mask73_224_20968" style="mask-type:luminance" maskUnits="userSpaceOnUse" x="-291" y="-220" width="1050" height="753">
<path d="M-290.551 -219.673H758.207V532.278H-290.551V-219.673Z" fill="white"/>
</mask>
<g mask="url(#mask73_224_20968)">
<path d="M556.389 52.9835C555.657 52.9158 555.057 52.4526 554.698 52.024C554.407 51.0991 555.982 50.8254 556.557 51.6225C557.696 51.8586 557.637 52.9835 556.389 52.9835Z" fill="#474747"/>
</g>
<mask id="mask74_224_20968" style="mask-type:luminance" maskUnits="userSpaceOnUse" x="-291" y="-220" width="1050" height="753">
<path d="M-290.551 -219.673H758.207V532.278H-290.551V-219.673Z" fill="white"/>
</mask>
<g mask="url(#mask74_224_20968)">
<path d="M555.749 54.559C555.223 54.4898 554.564 54.5409 554.161 54.2462C553.524 53.7424 554.447 52.9438 555.252 53.2987C555.904 53.24 556.75 53.404 556.689 53.9815C556.653 54.3319 556.221 54.574 555.749 54.559Z" fill="#474747"/>
</g>
<mask id="mask75_224_20968" style="mask-type:luminance" maskUnits="userSpaceOnUse" x="-291" y="-220" width="1050" height="753">
<path d="M-290.551 -219.673H758.207V532.278H-290.551V-219.673Z" fill="white"/>
</mask>
<g mask="url(#mask75_224_20968)">
<path d="M596.737 57.3196C599.572 56.4563 599.241 50.6362 595.356 51.0889C591.61 51.5957 592.827 57.9813 596.737 57.3196Z" fill="#474747"/>
</g>
<mask id="mask76_224_20968" style="mask-type:luminance" maskUnits="userSpaceOnUse" x="-291" y="-220" width="1050" height="753">
<path d="M-290.551 -219.673H758.207V532.278H-290.551V-219.673Z" fill="white"/>
</mask>
<g mask="url(#mask76_224_20968)">
<path d="M600.78 52.9835C601.512 52.9158 602.112 52.4526 602.471 52.024C602.762 51.0991 601.187 50.8254 600.613 51.6225C599.474 51.8586 599.532 52.9835 600.78 52.9835Z" fill="#474747"/>
</g>
<mask id="mask77_224_20968" style="mask-type:luminance" maskUnits="userSpaceOnUse" x="-291" y="-220" width="1050" height="753">
<path d="M-290.551 -219.673H758.207V532.278H-290.551V-219.673Z" fill="white"/>
</mask>
<g mask="url(#mask77_224_20968)">
<path d="M601.42 54.559C601.947 54.4898 602.605 54.5409 603.008 54.2462C603.646 53.7424 602.723 52.9438 601.917 53.2987C601.265 53.24 600.42 53.404 600.48 53.9815C600.518 54.3319 600.948 54.574 601.42 54.559Z" fill="#474747"/>
</g>
<mask id="mask78_224_20968" style="mask-type:luminance" maskUnits="userSpaceOnUse" x="-291" y="-220" width="1050" height="753">
<path d="M-290.551 -219.673H758.207V532.278H-290.551V-219.673Z" fill="white"/>
</mask>
<g mask="url(#mask78_224_20968)">
<path d="M540.607 36.4027C536.382 34.9875 539.268 28.9253 543.837 30.1841C545.58 30.9255 546.677 32.3106 546.549 33.7709C546.49 34.3619 546.484 35.0567 545.844 35.4914C544.508 36.4614 542.413 37.0479 540.607 36.4027Z" fill="white"/>
</g>
<mask id="mask79_224_20968" style="mask-type:luminance" maskUnits="userSpaceOnUse" x="-291" y="-220" width="1050" height="753">
<path d="M-290.551 -219.673H758.207V532.278H-290.551V-219.673Z" fill="white"/>
</mask>
<g mask="url(#mask79_224_20968)">
<path d="M541.626 46.7192C540.468 46.6921 539.86 45.6439 540.223 44.934C540.592 44.328 541.561 43.8663 542.496 44.0016C544.606 44.3475 543.654 47.02 541.626 46.7192Z" fill="white"/>
</g>
<mask id="mask80_224_20968" style="mask-type:luminance" maskUnits="userSpaceOnUse" x="-291" y="-220" width="1050" height="753">
<path d="M-290.551 -219.673H758.207V532.278H-290.551V-219.673Z" fill="white"/>
</mask>
<g mask="url(#mask80_224_20968)">
<path d="M549.504 43.4056C545.905 42.5649 547.294 38.4337 550.759 38.2547C553.215 38.1735 554.433 40.3782 553.557 41.8205C552.961 42.9634 551.14 43.5981 549.504 43.4056Z" fill="white"/>
</g>
<mask id="mask81_224_20968" style="mask-type:luminance" maskUnits="userSpaceOnUse" x="-291" y="-220" width="1050" height="753">
<path d="M-290.551 -219.673H758.207V532.278H-290.551V-219.673Z" fill="white"/>
</mask>
<g mask="url(#mask81_224_20968)">
<path d="M641.237 59.5882C640.064 59.5325 639.213 58.6723 639.425 57.8587C639.196 56.6601 640.905 55.5352 642.541 55.6871C645.839 56.0916 644.041 59.8017 641.237 59.5882Z" fill="white"/>
</g>
<mask id="mask82_224_20968" style="mask-type:luminance" maskUnits="userSpaceOnUse" x="-291" y="-220" width="1050" height="753">
<path d="M-290.551 -219.673H758.207V532.278H-290.551V-219.673Z" fill="white"/>
</mask>
<g mask="url(#mask82_224_20968)">
<path d="M639.443 68.5678C638.491 68.2309 637.702 67.5677 637.358 66.8519C636.895 65.2487 639.204 63.2666 641.562 63.8802C645.492 64.9148 643.594 69.6822 639.443 68.5678Z" fill="white"/>
</g>
<mask id="mask83_224_20968" style="mask-type:luminance" maskUnits="userSpaceOnUse" x="-291" y="-220" width="1050" height="753">
<path d="M-290.551 -219.673H758.207V532.278H-290.551V-219.673Z" fill="white"/>
</mask>
<g mask="url(#mask83_224_20968)">
<path d="M595.874 21.3705L595.182 20.0696C595.151 20.011 592.019 14.1352 588.223 9.80398C584.627 5.70134 576.413 4.85163 576.33 4.84261L576.615 3.35375C576.99 3.38984 585.886 4.31323 589.999 9.0039C592.883 12.2959 595.331 16.3294 596.468 18.3176C599.314 15.8948 607.041 10.1935 616.646 10.5198L616.541 12.0207C605.802 11.6793 597.097 20.1568 597.013 20.2426L595.874 21.3705Z" fill="#474747"/>
</g>
</g>
<g clip-path="url(#clip6_224_20968)">
<mask id="mask84_224_20968" style="mask-type:luminance" maskUnits="userSpaceOnUse" x="-183" y="-224" width="1050" height="753">
<path d="M-182.346 -223.356H866.411V528.595H-182.346V-223.356Z" fill="white"/>
</mask>
<g mask="url(#mask84_224_20968)">
<path d="M634.947 36.7452C634.947 36.7452 620.715 33.2215 614.148 41.3997C607.579 49.578 615.876 68.1662 641.802 76.594C667.727 85.0204 726.837 80.8065 749.996 68.6625C773.156 56.5185 775.231 37.1858 765.551 31.7342C755.873 26.281 743.774 29.5039 743.774 29.5039C743.774 29.5039 745.664 11.7759 727.183 7.94094C714.046 5.21437 704.368 16.1192 704.368 16.1192C704.368 16.1192 698.837 -0.449329 681.554 0.00936058C662.284 0.520687 659.431 20.5812 659.431 20.5812C659.431 20.5812 631.836 10.4735 634.947 36.7452Z" fill="#FF7D9F"/>
</g>
<mask id="mask85_224_20968" style="mask-type:luminance" maskUnits="userSpaceOnUse" x="-189" y="-220" width="1050" height="753">
<path d="M-188.551 -219.673H860.207V532.278H-188.551V-219.673Z" fill="white"/>
</mask>
<g mask="url(#mask85_224_20968)">
<path d="M678.605 67.187C676.986 66.7809 675.649 65.7929 675.211 64.5988C674.896 63.6483 673.791 60.0555 676.247 60.3713C676.895 60.5578 676.977 61.045 676.711 61.4556C676.568 62.37 676.803 63.2828 677.088 64.1716C677.403 65.1417 678.657 65.85 679.993 65.9929C683.02 66.0621 684.774 63.3325 684.455 61.4436C684.394 60.5217 686.338 60.4375 686.424 61.3609C686.972 64.3641 683.268 68.4006 678.605 67.187Z" fill="#474747"/>
</g>
<mask id="mask86_224_20968" style="mask-type:luminance" maskUnits="userSpaceOnUse" x="-189" y="-220" width="1050" height="753">
<path d="M-188.551 -219.673H860.207V532.278H-188.551V-219.673Z" fill="white"/>
</mask>
<g mask="url(#mask86_224_20968)">
<path d="M662.433 57.3196C659.597 56.4563 659.928 50.6362 663.813 51.0889C667.559 51.5957 666.342 57.9813 662.433 57.3196Z" fill="#474747"/>
</g>
<mask id="mask87_224_20968" style="mask-type:luminance" maskUnits="userSpaceOnUse" x="-189" y="-220" width="1050" height="753">
<path d="M-188.551 -219.673H860.207V532.278H-188.551V-219.673Z" fill="white"/>
</mask>
<g mask="url(#mask87_224_20968)">
<path d="M658.389 52.9835C657.657 52.9158 657.057 52.4526 656.698 52.024C656.407 51.0991 657.982 50.8254 658.557 51.6225C659.696 51.8586 659.637 52.9835 658.389 52.9835Z" fill="#474747"/>
</g>
<mask id="mask88_224_20968" style="mask-type:luminance" maskUnits="userSpaceOnUse" x="-189" y="-220" width="1050" height="753">
<path d="M-188.551 -219.673H860.207V532.278H-188.551V-219.673Z" fill="white"/>
</mask>
<g mask="url(#mask88_224_20968)">
<path d="M657.749 54.559C657.223 54.4898 656.564 54.5409 656.161 54.2462C655.524 53.7424 656.447 52.9438 657.252 53.2987C657.904 53.24 658.75 53.404 658.689 53.9815C658.653 54.3319 658.221 54.574 657.749 54.559Z" fill="#474747"/>
</g>
<mask id="mask89_224_20968" style="mask-type:luminance" maskUnits="userSpaceOnUse" x="-189" y="-220" width="1050" height="753">
<path d="M-188.551 -219.673H860.207V532.278H-188.551V-219.673Z" fill="white"/>
</mask>
<g mask="url(#mask89_224_20968)">
<path d="M698.737 57.3196C701.572 56.4563 701.241 50.6362 697.356 51.0889C693.61 51.5957 694.827 57.9813 698.737 57.3196Z" fill="#474747"/>
</g>
<mask id="mask90_224_20968" style="mask-type:luminance" maskUnits="userSpaceOnUse" x="-189" y="-220" width="1050" height="753">
<path d="M-188.551 -219.673H860.207V532.278H-188.551V-219.673Z" fill="white"/>
</mask>
<g mask="url(#mask90_224_20968)">
<path d="M702.78 52.9835C703.512 52.9158 704.112 52.4526 704.471 52.024C704.762 51.0991 703.187 50.8254 702.613 51.6225C701.474 51.8586 701.532 52.9835 702.78 52.9835Z" fill="#474747"/>
</g>
<mask id="mask91_224_20968" style="mask-type:luminance" maskUnits="userSpaceOnUse" x="-189" y="-220" width="1050" height="753">
<path d="M-188.551 -219.673H860.207V532.278H-188.551V-219.673Z" fill="white"/>
</mask>
<g mask="url(#mask91_224_20968)">
<path d="M703.42 54.559C703.947 54.4898 704.605 54.5409 705.008 54.2462C705.646 53.7424 704.723 52.9438 703.917 53.2987C703.265 53.24 702.42 53.404 702.48 53.9815C702.518 54.3319 702.948 54.574 703.42 54.559Z" fill="#474747"/>
</g>
<mask id="mask92_224_20968" style="mask-type:luminance" maskUnits="userSpaceOnUse" x="-189" y="-220" width="1050" height="753">
<path d="M-188.551 -219.673H860.207V532.278H-188.551V-219.673Z" fill="white"/>
</mask>
<g mask="url(#mask92_224_20968)">
<path d="M642.607 36.4027C638.382 34.9875 641.268 28.9253 645.837 30.1841C647.58 30.9255 648.677 32.3106 648.549 33.7709C648.49 34.3619 648.484 35.0567 647.844 35.4914C646.508 36.4614 644.413 37.0479 642.607 36.4027Z" fill="white"/>
</g>
<mask id="mask93_224_20968" style="mask-type:luminance" maskUnits="userSpaceOnUse" x="-189" y="-220" width="1050" height="753">
<path d="M-188.551 -219.673H860.207V532.278H-188.551V-219.673Z" fill="white"/>
</mask>
<g mask="url(#mask93_224_20968)">
<path d="M643.626 46.7192C642.468 46.6921 641.86 45.6439 642.223 44.934C642.592 44.328 643.561 43.8663 644.496 44.0016C646.606 44.3475 645.654 47.02 643.626 46.7192Z" fill="white"/>
</g>
<mask id="mask94_224_20968" style="mask-type:luminance" maskUnits="userSpaceOnUse" x="-189" y="-220" width="1050" height="753">
<path d="M-188.551 -219.673H860.207V532.278H-188.551V-219.673Z" fill="white"/>
</mask>
<g mask="url(#mask94_224_20968)">
<path d="M651.504 43.4056C647.905 42.5649 649.294 38.4337 652.759 38.2547C655.215 38.1735 656.433 40.3782 655.557 41.8205C654.961 42.9634 653.14 43.5981 651.504 43.4056Z" fill="white"/>
</g>
<mask id="mask95_224_20968" style="mask-type:luminance" maskUnits="userSpaceOnUse" x="-189" y="-220" width="1050" height="753">
<path d="M-188.551 -219.673H860.207V532.278H-188.551V-219.673Z" fill="white"/>
</mask>
<g mask="url(#mask95_224_20968)">
<path d="M743.237 59.5882C742.064 59.5325 741.213 58.6723 741.425 57.8587C741.196 56.6601 742.905 55.5352 744.541 55.6871C747.839 56.0916 746.041 59.8017 743.237 59.5882Z" fill="white"/>
</g>
<mask id="mask96_224_20968" style="mask-type:luminance" maskUnits="userSpaceOnUse" x="-189" y="-220" width="1050" height="753">
<path d="M-188.551 -219.673H860.207V532.278H-188.551V-219.673Z" fill="white"/>
</mask>
<g mask="url(#mask96_224_20968)">
<path d="M741.443 68.5678C740.491 68.2309 739.702 67.5677 739.358 66.8519C738.895 65.2487 741.204 63.2666 743.562 63.8802C747.492 64.9148 745.594 69.6822 741.443 68.5678Z" fill="white"/>
</g>
<mask id="mask97_224_20968" style="mask-type:luminance" maskUnits="userSpaceOnUse" x="-189" y="-220" width="1050" height="753">
<path d="M-188.551 -219.673H860.207V532.278H-188.551V-219.673Z" fill="white"/>
</mask>
<g mask="url(#mask97_224_20968)">
<path d="M697.874 21.3705L697.182 20.0696C697.151 20.011 694.019 14.1352 690.223 9.80398C686.627 5.70134 678.413 4.85163 678.33 4.84261L678.615 3.35375C678.99 3.38984 687.886 4.31323 691.999 9.0039C694.883 12.2959 697.331 16.3294 698.468 18.3176C701.314 15.8948 709.041 10.1935 718.646 10.5198L718.541 12.0207C707.802 11.6793 699.097 20.1568 699.013 20.2426L697.874 21.3705Z" fill="#474747"/>
</g>
</g>
<g clip-path="url(#clip7_224_20968)">
<mask id="mask98_224_20968" style="mask-type:luminance" maskUnits="userSpaceOnUse" x="-81" y="-224" width="1050" height="753">
<path d="M-80.3462 -223.356H968.411V528.595H-80.3462V-223.356Z" fill="white"/>
</mask>
<g mask="url(#mask98_224_20968)">
<path d="M736.947 36.7452C736.947 36.7452 722.715 33.2215 716.148 41.3997C709.579 49.578 717.876 68.1662 743.802 76.594C769.727 85.0204 828.837 80.8065 851.996 68.6625C875.156 56.5185 877.231 37.1858 867.551 31.7342C857.873 26.281 845.774 29.5039 845.774 29.5039C845.774 29.5039 847.664 11.7759 829.183 7.94094C816.046 5.21437 806.368 16.1192 806.368 16.1192C806.368 16.1192 800.837 -0.449329 783.554 0.00936058C764.284 0.520687 761.431 20.5812 761.431 20.5812C761.431 20.5812 733.836 10.4735 736.947 36.7452Z" fill="#FF7D9F"/>
</g>
<mask id="mask99_224_20968" style="mask-type:luminance" maskUnits="userSpaceOnUse" x="-87" y="-220" width="1050" height="753">
<path d="M-86.5508 -219.673H962.207V532.278H-86.5508V-219.673Z" fill="white"/>
</mask>
<g mask="url(#mask99_224_20968)">
<path d="M780.605 67.187C778.986 66.7809 777.649 65.7929 777.211 64.5988C776.896 63.6483 775.791 60.0555 778.247 60.3713C778.895 60.5578 778.977 61.045 778.711 61.4556C778.568 62.37 778.803 63.2828 779.088 64.1716C779.403 65.1417 780.657 65.85 781.993 65.9929C785.02 66.0621 786.774 63.3325 786.455 61.4436C786.394 60.5217 788.338 60.4375 788.424 61.3609C788.972 64.3641 785.268 68.4006 780.605 67.187Z" fill="#474747"/>
</g>
<mask id="mask100_224_20968" style="mask-type:luminance" maskUnits="userSpaceOnUse" x="-87" y="-220" width="1050" height="753">
<path d="M-86.5508 -219.673H962.207V532.278H-86.5508V-219.673Z" fill="white"/>
</mask>
<g mask="url(#mask100_224_20968)">
<path d="M764.433 57.3196C761.597 56.4563 761.928 50.6362 765.813 51.0889C769.559 51.5957 768.342 57.9813 764.433 57.3196Z" fill="#474747"/>
</g>
<mask id="mask101_224_20968" style="mask-type:luminance" maskUnits="userSpaceOnUse" x="-87" y="-220" width="1050" height="753">
<path d="M-86.5508 -219.673H962.207V532.278H-86.5508V-219.673Z" fill="white"/>
</mask>
<g mask="url(#mask101_224_20968)">
<path d="M760.389 52.9835C759.657 52.9158 759.057 52.4526 758.698 52.024C758.407 51.0991 759.982 50.8254 760.557 51.6225C761.696 51.8586 761.637 52.9835 760.389 52.9835Z" fill="#474747"/>
</g>
<mask id="mask102_224_20968" style="mask-type:luminance" maskUnits="userSpaceOnUse" x="-87" y="-220" width="1050" height="753">
<path d="M-86.5508 -219.673H962.207V532.278H-86.5508V-219.673Z" fill="white"/>
</mask>
<g mask="url(#mask102_224_20968)">
<path d="M759.749 54.559C759.223 54.4898 758.564 54.5409 758.161 54.2462C757.524 53.7424 758.447 52.9438 759.252 53.2987C759.904 53.24 760.75 53.404 760.689 53.9815C760.653 54.3319 760.221 54.574 759.749 54.559Z" fill="#474747"/>
</g>
<mask id="mask103_224_20968" style="mask-type:luminance" maskUnits="userSpaceOnUse" x="-87" y="-220" width="1050" height="753">
<path d="M-86.5508 -219.673H962.207V532.278H-86.5508V-219.673Z" fill="white"/>
</mask>
<g mask="url(#mask103_224_20968)">
<path d="M800.737 57.3196C803.572 56.4563 803.241 50.6362 799.356 51.0889C795.61 51.5957 796.827 57.9813 800.737 57.3196Z" fill="#474747"/>
</g>
<mask id="mask104_224_20968" style="mask-type:luminance" maskUnits="userSpaceOnUse" x="-87" y="-220" width="1050" height="753">
<path d="M-86.5508 -219.673H962.207V532.278H-86.5508V-219.673Z" fill="white"/>
</mask>
<g mask="url(#mask104_224_20968)">
<path d="M804.78 52.9835C805.512 52.9158 806.112 52.4526 806.471 52.024C806.762 51.0991 805.187 50.8254 804.613 51.6225C803.474 51.8586 803.532 52.9835 804.78 52.9835Z" fill="#474747"/>
</g>
<mask id="mask105_224_20968" style="mask-type:luminance" maskUnits="userSpaceOnUse" x="-87" y="-220" width="1050" height="753">
<path d="M-86.5508 -219.673H962.207V532.278H-86.5508V-219.673Z" fill="white"/>
</mask>
<g mask="url(#mask105_224_20968)">
<path d="M805.42 54.559C805.947 54.4898 806.605 54.5409 807.008 54.2462C807.646 53.7424 806.723 52.9438 805.917 53.2987C805.265 53.24 804.42 53.404 804.48 53.9815C804.518 54.3319 804.948 54.574 805.42 54.559Z" fill="#474747"/>
</g>
<mask id="mask106_224_20968" style="mask-type:luminance" maskUnits="userSpaceOnUse" x="-87" y="-220" width="1050" height="753">
<path d="M-86.5508 -219.673H962.207V532.278H-86.5508V-219.673Z" fill="white"/>
</mask>
<g mask="url(#mask106_224_20968)">
<path d="M744.607 36.4027C740.382 34.9875 743.268 28.9253 747.837 30.1841C749.58 30.9255 750.677 32.3106 750.549 33.7709C750.49 34.3619 750.484 35.0567 749.844 35.4914C748.508 36.4614 746.413 37.0479 744.607 36.4027Z" fill="white"/>
</g>
<mask id="mask107_224_20968" style="mask-type:luminance" maskUnits="userSpaceOnUse" x="-87" y="-220" width="1050" height="753">
<path d="M-86.5508 -219.673H962.207V532.278H-86.5508V-219.673Z" fill="white"/>
</mask>
<g mask="url(#mask107_224_20968)">
<path d="M745.626 46.7192C744.468 46.6921 743.86 45.6439 744.223 44.934C744.592 44.328 745.561 43.8663 746.496 44.0016C748.606 44.3475 747.654 47.02 745.626 46.7192Z" fill="white"/>
</g>
<mask id="mask108_224_20968" style="mask-type:luminance" maskUnits="userSpaceOnUse" x="-87" y="-220" width="1050" height="753">
<path d="M-86.5508 -219.673H962.207V532.278H-86.5508V-219.673Z" fill="white"/>
</mask>
<g mask="url(#mask108_224_20968)">
<path d="M753.504 43.4056C749.905 42.5649 751.294 38.4337 754.759 38.2547C757.215 38.1735 758.433 40.3782 757.557 41.8205C756.961 42.9634 755.14 43.5981 753.504 43.4056Z" fill="white"/>
</g>
<mask id="mask109_224_20968" style="mask-type:luminance" maskUnits="userSpaceOnUse" x="-87" y="-220" width="1050" height="753">
<path d="M-86.5508 -219.673H962.207V532.278H-86.5508V-219.673Z" fill="white"/>
</mask>
<g mask="url(#mask109_224_20968)">
<path d="M845.237 59.5882C844.064 59.5325 843.213 58.6723 843.425 57.8587C843.196 56.6601 844.905 55.5352 846.541 55.6871C849.839 56.0916 848.041 59.8017 845.237 59.5882Z" fill="white"/>
</g>
<mask id="mask110_224_20968" style="mask-type:luminance" maskUnits="userSpaceOnUse" x="-87" y="-220" width="1050" height="753">
<path d="M-86.5508 -219.673H962.207V532.278H-86.5508V-219.673Z" fill="white"/>
</mask>
<g mask="url(#mask110_224_20968)">
<path d="M843.443 68.5678C842.491 68.2309 841.702 67.5677 841.358 66.8519C840.895 65.2487 843.204 63.2666 845.562 63.8802C849.492 64.9148 847.594 69.6822 843.443 68.5678Z" fill="white"/>
</g>
<mask id="mask111_224_20968" style="mask-type:luminance" maskUnits="userSpaceOnUse" x="-87" y="-220" width="1050" height="753">
<path d="M-86.5508 -219.673H962.207V532.278H-86.5508V-219.673Z" fill="white"/>
</mask>
<g mask="url(#mask111_224_20968)">
<path d="M799.874 21.3705L799.182 20.0696C799.151 20.011 796.019 14.1352 792.223 9.80398C788.627 5.70134 780.413 4.85163 780.33 4.84261L780.615 3.35375C780.99 3.38984 789.886 4.31323 793.999 9.0039C796.883 12.2959 799.331 16.3294 800.468 18.3176C803.314 15.8948 811.041 10.1935 820.646 10.5198L820.541 12.0207C809.802 11.6793 801.097 20.1568 801.013 20.2426L799.874 21.3705Z" fill="#474747"/>
</g>
</g>
<g clip-path="url(#clip8_224_20968)">
<mask id="mask112_224_20968" style="mask-type:luminance" maskUnits="userSpaceOnUse" x="21" y="-224" width="1050" height="753">
<path d="M21.6538 -223.356H1070.41V528.595H21.6538V-223.356Z" fill="white"/>
</mask>
<g mask="url(#mask112_224_20968)">
<path d="M838.947 36.7452C838.947 36.7452 824.715 33.2215 818.148 41.3997C811.579 49.578 819.876 68.1662 845.802 76.594C871.727 85.0204 930.837 80.8065 953.996 68.6625C977.156 56.5185 979.231 37.1858 969.551 31.7342C959.873 26.281 947.774 29.5039 947.774 29.5039C947.774 29.5039 949.664 11.7759 931.183 7.94094C918.046 5.21437 908.368 16.1192 908.368 16.1192C908.368 16.1192 902.837 -0.449329 885.554 0.00936058C866.284 0.520687 863.431 20.5812 863.431 20.5812C863.431 20.5812 835.836 10.4735 838.947 36.7452Z" fill="#FF7D9F"/>
</g>
<mask id="mask113_224_20968" style="mask-type:luminance" maskUnits="userSpaceOnUse" x="15" y="-220" width="1050" height="753">
<path d="M15.4492 -219.673H1064.21V532.278H15.4492V-219.673Z" fill="white"/>
</mask>
<g mask="url(#mask113_224_20968)">
<path d="M882.605 67.187C880.986 66.7809 879.649 65.7929 879.211 64.5988C878.896 63.6483 877.791 60.0555 880.247 60.3713C880.895 60.5578 880.977 61.045 880.711 61.4556C880.568 62.37 880.803 63.2828 881.088 64.1716C881.403 65.1417 882.657 65.85 883.993 65.9929C887.02 66.0621 888.774 63.3325 888.455 61.4436C888.394 60.5217 890.338 60.4375 890.424 61.3609C890.972 64.3641 887.268 68.4006 882.605 67.187Z" fill="#474747"/>
</g>
<mask id="mask114_224_20968" style="mask-type:luminance" maskUnits="userSpaceOnUse" x="15" y="-220" width="1050" height="753">
<path d="M15.4492 -219.673H1064.21V532.278H15.4492V-219.673Z" fill="white"/>
</mask>
<g mask="url(#mask114_224_20968)">
<path d="M866.433 57.3196C863.597 56.4563 863.928 50.6362 867.813 51.0889C871.559 51.5957 870.342 57.9813 866.433 57.3196Z" fill="#474747"/>
</g>
<mask id="mask115_224_20968" style="mask-type:luminance" maskUnits="userSpaceOnUse" x="15" y="-220" width="1050" height="753">
<path d="M15.4492 -219.673H1064.21V532.278H15.4492V-219.673Z" fill="white"/>
</mask>
<g mask="url(#mask115_224_20968)">
<path d="M862.389 52.9835C861.657 52.9158 861.057 52.4526 860.698 52.024C860.407 51.0991 861.982 50.8254 862.557 51.6225C863.696 51.8586 863.637 52.9835 862.389 52.9835Z" fill="#474747"/>
</g>
<mask id="mask116_224_20968" style="mask-type:luminance" maskUnits="userSpaceOnUse" x="15" y="-220" width="1050" height="753">
<path d="M15.4492 -219.673H1064.21V532.278H15.4492V-219.673Z" fill="white"/>
</mask>
<g mask="url(#mask116_224_20968)">
<path d="M861.749 54.559C861.223 54.4898 860.564 54.5409 860.161 54.2462C859.524 53.7424 860.447 52.9438 861.252 53.2987C861.904 53.24 862.75 53.404 862.689 53.9815C862.653 54.3319 862.221 54.574 861.749 54.559Z" fill="#474747"/>
</g>
<mask id="mask117_224_20968" style="mask-type:luminance" maskUnits="userSpaceOnUse" x="15" y="-220" width="1050" height="753">
<path d="M15.4492 -219.673H1064.21V532.278H15.4492V-219.673Z" fill="white"/>
</mask>
<g mask="url(#mask117_224_20968)">
<path d="M902.737 57.3196C905.572 56.4563 905.241 50.6362 901.356 51.0889C897.61 51.5957 898.827 57.9813 902.737 57.3196Z" fill="#474747"/>
</g>
<mask id="mask118_224_20968" style="mask-type:luminance" maskUnits="userSpaceOnUse" x="15" y="-220" width="1050" height="753">
<path d="M15.4492 -219.673H1064.21V532.278H15.4492V-219.673Z" fill="white"/>
</mask>
<g mask="url(#mask118_224_20968)">
<path d="M906.78 52.9835C907.512 52.9158 908.112 52.4526 908.471 52.024C908.762 51.0991 907.187 50.8254 906.613 51.6225C905.474 51.8586 905.532 52.9835 906.78 52.9835Z" fill="#474747"/>
</g>
<mask id="mask119_224_20968" style="mask-type:luminance" maskUnits="userSpaceOnUse" x="15" y="-220" width="1050" height="753">
<path d="M15.4492 -219.673H1064.21V532.278H15.4492V-219.673Z" fill="white"/>
</mask>
<g mask="url(#mask119_224_20968)">
<path d="M907.42 54.559C907.947 54.4898 908.605 54.5409 909.008 54.2462C909.646 53.7424 908.723 52.9438 907.917 53.2987C907.265 53.24 906.42 53.404 906.48 53.9815C906.518 54.3319 906.948 54.574 907.42 54.559Z" fill="#474747"/>
</g>
<mask id="mask120_224_20968" style="mask-type:luminance" maskUnits="userSpaceOnUse" x="15" y="-220" width="1050" height="753">
<path d="M15.4492 -219.673H1064.21V532.278H15.4492V-219.673Z" fill="white"/>
</mask>
<g mask="url(#mask120_224_20968)">
<path d="M846.607 36.4027C842.382 34.9875 845.268 28.9253 849.837 30.1841C851.58 30.9255 852.677 32.3106 852.549 33.7709C852.49 34.3619 852.484 35.0567 851.844 35.4914C850.508 36.4614 848.413 37.0479 846.607 36.4027Z" fill="white"/>
</g>
<mask id="mask121_224_20968" style="mask-type:luminance" maskUnits="userSpaceOnUse" x="15" y="-220" width="1050" height="753">
<path d="M15.4492 -219.673H1064.21V532.278H15.4492V-219.673Z" fill="white"/>
</mask>
<g mask="url(#mask121_224_20968)">
<path d="M847.626 46.7192C846.468 46.6921 845.86 45.6439 846.223 44.934C846.592 44.328 847.561 43.8663 848.496 44.0016C850.606 44.3475 849.654 47.02 847.626 46.7192Z" fill="white"/>
</g>
<mask id="mask122_224_20968" style="mask-type:luminance" maskUnits="userSpaceOnUse" x="15" y="-220" width="1050" height="753">
<path d="M15.4492 -219.673H1064.21V532.278H15.4492V-219.673Z" fill="white"/>
</mask>
<g mask="url(#mask122_224_20968)">
<path d="M855.504 43.4056C851.905 42.5649 853.294 38.4337 856.759 38.2547C859.215 38.1735 860.433 40.3782 859.557 41.8205C858.961 42.9634 857.14 43.5981 855.504 43.4056Z" fill="white"/>
</g>
<mask id="mask123_224_20968" style="mask-type:luminance" maskUnits="userSpaceOnUse" x="15" y="-220" width="1050" height="753">
<path d="M15.4492 -219.673H1064.21V532.278H15.4492V-219.673Z" fill="white"/>
</mask>
<g mask="url(#mask123_224_20968)">
<path d="M947.237 59.5882C946.064 59.5325 945.213 58.6723 945.425 57.8587C945.196 56.6601 946.905 55.5352 948.541 55.6871C951.839 56.0916 950.041 59.8017 947.237 59.5882Z" fill="white"/>
</g>
<mask id="mask124_224_20968" style="mask-type:luminance" maskUnits="userSpaceOnUse" x="15" y="-220" width="1050" height="753">
<path d="M15.4492 -219.673H1064.21V532.278H15.4492V-219.673Z" fill="white"/>
</mask>
<g mask="url(#mask124_224_20968)">
<path d="M945.443 68.5678C944.491 68.2309 943.702 67.5677 943.358 66.8519C942.895 65.2487 945.204 63.2666 947.562 63.8802C951.492 64.9148 949.594 69.6822 945.443 68.5678Z" fill="white"/>
</g>
<mask id="mask125_224_20968" style="mask-type:luminance" maskUnits="userSpaceOnUse" x="15" y="-220" width="1050" height="753">
<path d="M15.4492 -219.673H1064.21V532.278H15.4492V-219.673Z" fill="white"/>
</mask>
<g mask="url(#mask125_224_20968)">
<path d="M901.874 21.3705L901.182 20.0696C901.151 20.011 898.019 14.1352 894.223 9.80398C890.627 5.70134 882.413 4.85163 882.33 4.84261L882.615 3.35375C882.99 3.38984 891.886 4.31323 895.999 9.0039C898.883 12.2959 901.331 16.3294 902.468 18.3176C905.314 15.8948 913.041 10.1935 922.646 10.5198L922.541 12.0207C911.802 11.6793 903.097 20.1568 903.013 20.2426L901.874 21.3705Z" fill="#474747"/>
</g>
</g>
<g clip-path="url(#clip9_224_20968)">
<mask id="mask126_224_20968" style="mask-type:luminance" maskUnits="userSpaceOnUse" x="123" y="-224" width="1050" height="753">
<path d="M123.654 -223.356H1172.41V528.595H123.654V-223.356Z" fill="white"/>
</mask>
<g mask="url(#mask126_224_20968)">
<path d="M940.947 36.7452C940.947 36.7452 926.715 33.2215 920.148 41.3997C913.579 49.578 921.876 68.1662 947.802 76.594C973.727 85.0204 1032.84 80.8065 1056 68.6625C1079.16 56.5185 1081.23 37.1858 1071.55 31.7342C1061.87 26.281 1049.77 29.5039 1049.77 29.5039C1049.77 29.5039 1051.66 11.7759 1033.18 7.94094C1020.05 5.21437 1010.37 16.1192 1010.37 16.1192C1010.37 16.1192 1004.84 -0.449329 987.554 0.00936058C968.284 0.520687 965.431 20.5812 965.431 20.5812C965.431 20.5812 937.836 10.4735 940.947 36.7452Z" fill="#FF7D9F"/>
</g>
<mask id="mask127_224_20968" style="mask-type:luminance" maskUnits="userSpaceOnUse" x="117" y="-220" width="1050" height="753">
<path d="M117.449 -219.673H1166.21V532.278H117.449V-219.673Z" fill="white"/>
</mask>
<g mask="url(#mask127_224_20968)">
<path d="M984.605 67.187C982.986 66.7809 981.649 65.7929 981.211 64.5988C980.896 63.6483 979.791 60.0555 982.247 60.3713C982.895 60.5578 982.977 61.045 982.711 61.4556C982.568 62.37 982.803 63.2828 983.088 64.1716C983.403 65.1417 984.657 65.85 985.993 65.9929C989.02 66.0621 990.774 63.3325 990.455 61.4436C990.394 60.5217 992.338 60.4375 992.424 61.3609C992.972 64.3641 989.268 68.4006 984.605 67.187Z" fill="#474747"/>
</g>
<mask id="mask128_224_20968" style="mask-type:luminance" maskUnits="userSpaceOnUse" x="117" y="-220" width="1050" height="753">
<path d="M117.449 -219.673H1166.21V532.278H117.449V-219.673Z" fill="white"/>
</mask>
<g mask="url(#mask128_224_20968)">
<path d="M968.433 57.3196C965.597 56.4563 965.928 50.6362 969.813 51.0889C973.559 51.5957 972.342 57.9813 968.433 57.3196Z" fill="#474747"/>
</g>
<mask id="mask129_224_20968" style="mask-type:luminance" maskUnits="userSpaceOnUse" x="117" y="-220" width="1050" height="753">
<path d="M117.449 -219.673H1166.21V532.278H117.449V-219.673Z" fill="white"/>
</mask>
<g mask="url(#mask129_224_20968)">
<path d="M964.389 52.9835C963.657 52.9158 963.057 52.4526 962.698 52.024C962.407 51.0991 963.982 50.8254 964.557 51.6225C965.696 51.8586 965.637 52.9835 964.389 52.9835Z" fill="#474747"/>
</g>
<mask id="mask130_224_20968" style="mask-type:luminance" maskUnits="userSpaceOnUse" x="117" y="-220" width="1050" height="753">
<path d="M117.449 -219.673H1166.21V532.278H117.449V-219.673Z" fill="white"/>
</mask>
<g mask="url(#mask130_224_20968)">
<path d="M963.749 54.559C963.223 54.4898 962.564 54.5409 962.161 54.2462C961.524 53.7424 962.447 52.9438 963.252 53.2987C963.904 53.24 964.75 53.404 964.689 53.9815C964.653 54.3319 964.221 54.574 963.749 54.559Z" fill="#474747"/>
</g>
<mask id="mask131_224_20968" style="mask-type:luminance" maskUnits="userSpaceOnUse" x="117" y="-220" width="1050" height="753">
<path d="M117.449 -219.673H1166.21V532.278H117.449V-219.673Z" fill="white"/>
</mask>
<g mask="url(#mask131_224_20968)">
<path d="M1004.74 57.3196C1007.57 56.4563 1007.24 50.6362 1003.36 51.0889C999.61 51.5957 1000.83 57.9813 1004.74 57.3196Z" fill="#474747"/>
</g>
<mask id="mask132_224_20968" style="mask-type:luminance" maskUnits="userSpaceOnUse" x="117" y="-220" width="1050" height="753">
<path d="M117.449 -219.673H1166.21V532.278H117.449V-219.673Z" fill="white"/>
</mask>
<g mask="url(#mask132_224_20968)">
<path d="M1008.78 52.9835C1009.51 52.9158 1010.11 52.4526 1010.47 52.024C1010.76 51.0991 1009.19 50.8254 1008.61 51.6225C1007.47 51.8586 1007.53 52.9835 1008.78 52.9835Z" fill="#474747"/>
</g>
<mask id="mask133_224_20968" style="mask-type:luminance" maskUnits="userSpaceOnUse" x="117" y="-220" width="1050" height="753">
<path d="M117.449 -219.673H1166.21V532.278H117.449V-219.673Z" fill="white"/>
</mask>
<g mask="url(#mask133_224_20968)">
<path d="M1009.42 54.559C1009.95 54.4898 1010.61 54.5409 1011.01 54.2462C1011.65 53.7424 1010.72 52.9438 1009.92 53.2987C1009.26 53.24 1008.42 53.404 1008.48 53.9815C1008.52 54.3319 1008.95 54.574 1009.42 54.559Z" fill="#474747"/>
</g>
<mask id="mask134_224_20968" style="mask-type:luminance" maskUnits="userSpaceOnUse" x="117" y="-220" width="1050" height="753">
<path d="M117.449 -219.673H1166.21V532.278H117.449V-219.673Z" fill="white"/>
</mask>
<g mask="url(#mask134_224_20968)">
<path d="M948.607 36.4027C944.382 34.9875 947.268 28.9253 951.837 30.1841C953.58 30.9255 954.677 32.3106 954.549 33.7709C954.49 34.3619 954.484 35.0567 953.844 35.4914C952.508 36.4614 950.413 37.0479 948.607 36.4027Z" fill="white"/>
</g>
<mask id="mask135_224_20968" style="mask-type:luminance" maskUnits="userSpaceOnUse" x="117" y="-220" width="1050" height="753">
<path d="M117.449 -219.673H1166.21V532.278H117.449V-219.673Z" fill="white"/>
</mask>
<g mask="url(#mask135_224_20968)">
<path d="M949.626 46.7192C948.468 46.6921 947.86 45.6439 948.223 44.934C948.592 44.328 949.561 43.8663 950.496 44.0016C952.606 44.3475 951.654 47.02 949.626 46.7192Z" fill="white"/>
</g>
<mask id="mask136_224_20968" style="mask-type:luminance" maskUnits="userSpaceOnUse" x="117" y="-220" width="1050" height="753">
<path d="M117.449 -219.673H1166.21V532.278H117.449V-219.673Z" fill="white"/>
</mask>
<g mask="url(#mask136_224_20968)">
<path d="M957.504 43.4056C953.905 42.5649 955.294 38.4337 958.759 38.2547C961.215 38.1735 962.433 40.3782 961.557 41.8205C960.961 42.9634 959.14 43.5981 957.504 43.4056Z" fill="white"/>
</g>
<mask id="mask137_224_20968" style="mask-type:luminance" maskUnits="userSpaceOnUse" x="117" y="-220" width="1050" height="753">
<path d="M117.449 -219.673H1166.21V532.278H117.449V-219.673Z" fill="white"/>
</mask>
<g mask="url(#mask137_224_20968)">
<path d="M1049.24 59.5882C1048.06 59.5325 1047.21 58.6723 1047.42 57.8587C1047.2 56.6601 1048.91 55.5352 1050.54 55.6871C1053.84 56.0916 1052.04 59.8017 1049.24 59.5882Z" fill="white"/>
</g>
<mask id="mask138_224_20968" style="mask-type:luminance" maskUnits="userSpaceOnUse" x="117" y="-220" width="1050" height="753">
<path d="M117.449 -219.673H1166.21V532.278H117.449V-219.673Z" fill="white"/>
</mask>
<g mask="url(#mask138_224_20968)">
<path d="M1047.44 68.5678C1046.49 68.2309 1045.7 67.5677 1045.36 66.8519C1044.89 65.2487 1047.2 63.2666 1049.56 63.8802C1053.49 64.9148 1051.59 69.6822 1047.44 68.5678Z" fill="white"/>
</g>
<mask id="mask139_224_20968" style="mask-type:luminance" maskUnits="userSpaceOnUse" x="117" y="-220" width="1050" height="753">
<path d="M117.449 -219.673H1166.21V532.278H117.449V-219.673Z" fill="white"/>
</mask>
<g mask="url(#mask139_224_20968)">
<path d="M1003.87 21.3705L1003.18 20.0696C1003.15 20.011 1000.02 14.1352 996.223 9.80398C992.627 5.70134 984.413 4.85163 984.33 4.84261L984.615 3.35375C984.99 3.38984 993.886 4.31323 997.999 9.0039C1000.88 12.2959 1003.33 16.3294 1004.47 18.3176C1007.31 15.8948 1015.04 10.1935 1024.65 10.5198L1024.54 12.0207C1013.8 11.6793 1005.1 20.1568 1005.01 20.2426L1003.87 21.3705Z" fill="#474747"/>
</g>
</g>
<g clip-path="url(#clip10_224_20968)">
<mask id="mask140_224_20968" style="mask-type:luminance" maskUnits="userSpaceOnUse" x="225" y="-224" width="1050" height="753">
<path d="M225.654 -223.356H1274.41V528.595H225.654V-223.356Z" fill="white"/>
</mask>
<g mask="url(#mask140_224_20968)">
<path d="M1042.95 36.7452C1042.95 36.7452 1028.72 33.2215 1022.15 41.3997C1015.58 49.578 1023.88 68.1662 1049.8 76.594C1075.73 85.0204 1134.84 80.8065 1158 68.6625C1181.16 56.5185 1183.23 37.1858 1173.55 31.7342C1163.87 26.281 1151.77 29.5039 1151.77 29.5039C1151.77 29.5039 1153.66 11.7759 1135.18 7.94094C1122.05 5.21437 1112.37 16.1192 1112.37 16.1192C1112.37 16.1192 1106.84 -0.449329 1089.55 0.00936058C1070.28 0.520687 1067.43 20.5812 1067.43 20.5812C1067.43 20.5812 1039.84 10.4735 1042.95 36.7452Z" fill="#FF7D9F"/>
</g>
<mask id="mask141_224_20968" style="mask-type:luminance" maskUnits="userSpaceOnUse" x="219" y="-220" width="1050" height="753">
<path d="M219.449 -219.673H1268.21V532.278H219.449V-219.673Z" fill="white"/>
</mask>
<g mask="url(#mask141_224_20968)">
<path d="M1086.6 67.187C1084.99 66.7809 1083.65 65.7929 1083.21 64.5988C1082.9 63.6483 1081.79 60.0555 1084.25 60.3713C1084.9 60.5578 1084.98 61.045 1084.71 61.4556C1084.57 62.37 1084.8 63.2828 1085.09 64.1716C1085.4 65.1417 1086.66 65.85 1087.99 65.9929C1091.02 66.0621 1092.77 63.3325 1092.45 61.4436C1092.39 60.5217 1094.34 60.4375 1094.42 61.3609C1094.97 64.3641 1091.27 68.4006 1086.6 67.187Z" fill="#474747"/>
</g>
<mask id="mask142_224_20968" style="mask-type:luminance" maskUnits="userSpaceOnUse" x="219" y="-220" width="1050" height="753">
<path d="M219.449 -219.673H1268.21V532.278H219.449V-219.673Z" fill="white"/>
</mask>
<g mask="url(#mask142_224_20968)">
<path d="M1070.43 57.3196C1067.6 56.4563 1067.93 50.6362 1071.81 51.0889C1075.56 51.5957 1074.34 57.9813 1070.43 57.3196Z" fill="#474747"/>
</g>
<mask id="mask143_224_20968" style="mask-type:luminance" maskUnits="userSpaceOnUse" x="219" y="-220" width="1050" height="753">
<path d="M219.449 -219.673H1268.21V532.278H219.449V-219.673Z" fill="white"/>
</mask>
<g mask="url(#mask143_224_20968)">
<path d="M1066.39 52.9835C1065.66 52.9158 1065.06 52.4526 1064.7 52.024C1064.41 51.0991 1065.98 50.8254 1066.56 51.6225C1067.7 51.8586 1067.64 52.9835 1066.39 52.9835Z" fill="#474747"/>
</g>
<mask id="mask144_224_20968" style="mask-type:luminance" maskUnits="userSpaceOnUse" x="219" y="-220" width="1050" height="753">
<path d="M219.449 -219.673H1268.21V532.278H219.449V-219.673Z" fill="white"/>
</mask>
<g mask="url(#mask144_224_20968)">
<path d="M1065.75 54.559C1065.22 54.4898 1064.56 54.5409 1064.16 54.2462C1063.52 53.7424 1064.45 52.9438 1065.25 53.2987C1065.9 53.24 1066.75 53.404 1066.69 53.9815C1066.65 54.3319 1066.22 54.574 1065.75 54.559Z" fill="#474747"/>
</g>
<mask id="mask145_224_20968" style="mask-type:luminance" maskUnits="userSpaceOnUse" x="219" y="-220" width="1050" height="753">
<path d="M219.449 -219.673H1268.21V532.278H219.449V-219.673Z" fill="white"/>
</mask>
<g mask="url(#mask145_224_20968)">
<path d="M1106.74 57.3196C1109.57 56.4563 1109.24 50.6362 1105.36 51.0889C1101.61 51.5957 1102.83 57.9813 1106.74 57.3196Z" fill="#474747"/>
</g>
<mask id="mask146_224_20968" style="mask-type:luminance" maskUnits="userSpaceOnUse" x="219" y="-220" width="1050" height="753">
<path d="M219.449 -219.673H1268.21V532.278H219.449V-219.673Z" fill="white"/>
</mask>
<g mask="url(#mask146_224_20968)">
<path d="M1110.78 52.9835C1111.51 52.9158 1112.11 52.4526 1112.47 52.024C1112.76 51.0991 1111.19 50.8254 1110.61 51.6225C1109.47 51.8586 1109.53 52.9835 1110.78 52.9835Z" fill="#474747"/>
</g>
<mask id="mask147_224_20968" style="mask-type:luminance" maskUnits="userSpaceOnUse" x="219" y="-220" width="1050" height="753">
<path d="M219.449 -219.673H1268.21V532.278H219.449V-219.673Z" fill="white"/>
</mask>
<g mask="url(#mask147_224_20968)">
<path d="M1111.42 54.559C1111.95 54.4898 1112.61 54.5409 1113.01 54.2462C1113.65 53.7424 1112.72 52.9438 1111.92 53.2987C1111.26 53.24 1110.42 53.404 1110.48 53.9815C1110.52 54.3319 1110.95 54.574 1111.42 54.559Z" fill="#474747"/>
</g>
<mask id="mask148_224_20968" style="mask-type:luminance" maskUnits="userSpaceOnUse" x="219" y="-220" width="1050" height="753">
<path d="M219.449 -219.673H1268.21V532.278H219.449V-219.673Z" fill="white"/>
</mask>
<g mask="url(#mask148_224_20968)">
<path d="M1050.61 36.4027C1046.38 34.9875 1049.27 28.9253 1053.84 30.1841C1055.58 30.9255 1056.68 32.3106 1056.55 33.7709C1056.49 34.3619 1056.48 35.0567 1055.84 35.4914C1054.51 36.4614 1052.41 37.0479 1050.61 36.4027Z" fill="white"/>
</g>
<mask id="mask149_224_20968" style="mask-type:luminance" maskUnits="userSpaceOnUse" x="219" y="-220" width="1050" height="753">
<path d="M219.449 -219.673H1268.21V532.278H219.449V-219.673Z" fill="white"/>
</mask>
<g mask="url(#mask149_224_20968)">
<path d="M1051.63 46.7192C1050.47 46.6921 1049.86 45.6439 1050.22 44.934C1050.59 44.328 1051.56 43.8663 1052.5 44.0016C1054.61 44.3475 1053.65 47.02 1051.63 46.7192Z" fill="white"/>
</g>
<mask id="mask150_224_20968" style="mask-type:luminance" maskUnits="userSpaceOnUse" x="219" y="-220" width="1050" height="753">
<path d="M219.449 -219.673H1268.21V532.278H219.449V-219.673Z" fill="white"/>
</mask>
<g mask="url(#mask150_224_20968)">
<path d="M1059.5 43.4056C1055.9 42.5649 1057.29 38.4337 1060.76 38.2547C1063.21 38.1735 1064.43 40.3782 1063.56 41.8205C1062.96 42.9634 1061.14 43.5981 1059.5 43.4056Z" fill="white"/>
</g>
<mask id="mask151_224_20968" style="mask-type:luminance" maskUnits="userSpaceOnUse" x="219" y="-220" width="1050" height="753">
<path d="M219.449 -219.673H1268.21V532.278H219.449V-219.673Z" fill="white"/>
</mask>
<g mask="url(#mask151_224_20968)">
<path d="M1151.24 59.5882C1150.06 59.5325 1149.21 58.6723 1149.42 57.8587C1149.2 56.6601 1150.91 55.5352 1152.54 55.6871C1155.84 56.0916 1154.04 59.8017 1151.24 59.5882Z" fill="white"/>
</g>
<mask id="mask152_224_20968" style="mask-type:luminance" maskUnits="userSpaceOnUse" x="219" y="-220" width="1050" height="753">
<path d="M219.449 -219.673H1268.21V532.278H219.449V-219.673Z" fill="white"/>
</mask>
<g mask="url(#mask152_224_20968)">
<path d="M1149.44 68.5678C1148.49 68.2309 1147.7 67.5677 1147.36 66.8519C1146.89 65.2487 1149.2 63.2666 1151.56 63.8802C1155.49 64.9148 1153.59 69.6822 1149.44 68.5678Z" fill="white"/>
</g>
<mask id="mask153_224_20968" style="mask-type:luminance" maskUnits="userSpaceOnUse" x="219" y="-220" width="1050" height="753">
<path d="M219.449 -219.673H1268.21V532.278H219.449V-219.673Z" fill="white"/>
</mask>
<g mask="url(#mask153_224_20968)">
<path d="M1105.87 21.3705L1105.18 20.0696C1105.15 20.011 1102.02 14.1352 1098.22 9.80398C1094.63 5.70134 1086.41 4.85163 1086.33 4.84261L1086.61 3.35375C1086.99 3.38984 1095.89 4.31323 1100 9.0039C1102.88 12.2959 1105.33 16.3294 1106.47 18.3176C1109.31 15.8948 1117.04 10.1935 1126.65 10.5198L1126.54 12.0207C1115.8 11.6793 1107.1 20.1568 1107.01 20.2426L1105.87 21.3705Z" fill="#474747"/>
</g>
</g>
<g clip-path="url(#clip11_224_20968)">
<mask id="mask154_224_20968" style="mask-type:luminance" maskUnits="userSpaceOnUse" x="327" y="-224" width="1050" height="753">
<path d="M327.654 -223.356H1376.41V528.595H327.654V-223.356Z" fill="white"/>
</mask>
<g mask="url(#mask154_224_20968)">
<path d="M1144.95 36.7452C1144.95 36.7452 1130.72 33.2215 1124.15 41.3997C1117.58 49.578 1125.88 68.1662 1151.8 76.594C1177.73 85.0204 1236.84 80.8065 1260 68.6625C1283.16 56.5185 1285.23 37.1858 1275.55 31.7342C1265.87 26.281 1253.77 29.5039 1253.77 29.5039C1253.77 29.5039 1255.66 11.7759 1237.18 7.94094C1224.05 5.21437 1214.37 16.1192 1214.37 16.1192C1214.37 16.1192 1208.84 -0.449329 1191.55 0.00936058C1172.28 0.520687 1169.43 20.5812 1169.43 20.5812C1169.43 20.5812 1141.84 10.4735 1144.95 36.7452Z" fill="#FF7D9F"/>
</g>
<mask id="mask155_224_20968" style="mask-type:luminance" maskUnits="userSpaceOnUse" x="321" y="-220" width="1050" height="753">
<path d="M321.449 -219.673H1370.21V532.278H321.449V-219.673Z" fill="white"/>
</mask>
<g mask="url(#mask155_224_20968)">
<path d="M1188.6 67.187C1186.99 66.7809 1185.65 65.7929 1185.21 64.5988C1184.9 63.6483 1183.79 60.0555 1186.25 60.3713C1186.9 60.5578 1186.98 61.045 1186.71 61.4556C1186.57 62.37 1186.8 63.2828 1187.09 64.1716C1187.4 65.1417 1188.66 65.85 1189.99 65.9929C1193.02 66.0621 1194.77 63.3325 1194.45 61.4436C1194.39 60.5217 1196.34 60.4375 1196.42 61.3609C1196.97 64.3641 1193.27 68.4006 1188.6 67.187Z" fill="#474747"/>
</g>
<mask id="mask156_224_20968" style="mask-type:luminance" maskUnits="userSpaceOnUse" x="321" y="-220" width="1050" height="753">
<path d="M321.449 -219.673H1370.21V532.278H321.449V-219.673Z" fill="white"/>
</mask>
<g mask="url(#mask156_224_20968)">
<path d="M1172.43 57.3196C1169.6 56.4563 1169.93 50.6362 1173.81 51.0889C1177.56 51.5957 1176.34 57.9813 1172.43 57.3196Z" fill="#474747"/>
</g>
<mask id="mask157_224_20968" style="mask-type:luminance" maskUnits="userSpaceOnUse" x="321" y="-220" width="1050" height="753">
<path d="M321.449 -219.673H1370.21V532.278H321.449V-219.673Z" fill="white"/>
</mask>
<g mask="url(#mask157_224_20968)">
<path d="M1168.39 52.9835C1167.66 52.9158 1167.06 52.4526 1166.7 52.024C1166.41 51.0991 1167.98 50.8254 1168.56 51.6225C1169.7 51.8586 1169.64 52.9835 1168.39 52.9835Z" fill="#474747"/>
</g>
<mask id="mask158_224_20968" style="mask-type:luminance" maskUnits="userSpaceOnUse" x="321" y="-220" width="1050" height="753">
<path d="M321.449 -219.673H1370.21V532.278H321.449V-219.673Z" fill="white"/>
</mask>
<g mask="url(#mask158_224_20968)">
<path d="M1167.75 54.559C1167.22 54.4898 1166.56 54.5409 1166.16 54.2462C1165.52 53.7424 1166.45 52.9438 1167.25 53.2987C1167.9 53.24 1168.75 53.404 1168.69 53.9815C1168.65 54.3319 1168.22 54.574 1167.75 54.559Z" fill="#474747"/>
</g>
<mask id="mask159_224_20968" style="mask-type:luminance" maskUnits="userSpaceOnUse" x="321" y="-220" width="1050" height="753">
<path d="M321.449 -219.673H1370.21V532.278H321.449V-219.673Z" fill="white"/>
</mask>
<g mask="url(#mask159_224_20968)">
<path d="M1208.74 57.3196C1211.57 56.4563 1211.24 50.6362 1207.36 51.0889C1203.61 51.5957 1204.83 57.9813 1208.74 57.3196Z" fill="#474747"/>
</g>
<mask id="mask160_224_20968" style="mask-type:luminance" maskUnits="userSpaceOnUse" x="321" y="-220" width="1050" height="753">
<path d="M321.449 -219.673H1370.21V532.278H321.449V-219.673Z" fill="white"/>
</mask>
<g mask="url(#mask160_224_20968)">
<path d="M1212.78 52.9835C1213.51 52.9158 1214.11 52.4526 1214.47 52.024C1214.76 51.0991 1213.19 50.8254 1212.61 51.6225C1211.47 51.8586 1211.53 52.9835 1212.78 52.9835Z" fill="#474747"/>
</g>
<mask id="mask161_224_20968" style="mask-type:luminance" maskUnits="userSpaceOnUse" x="321" y="-220" width="1050" height="753">
<path d="M321.449 -219.673H1370.21V532.278H321.449V-219.673Z" fill="white"/>
</mask>
<g mask="url(#mask161_224_20968)">
<path d="M1213.42 54.559C1213.95 54.4898 1214.61 54.5409 1215.01 54.2462C1215.65 53.7424 1214.72 52.9438 1213.92 53.2987C1213.26 53.24 1212.42 53.404 1212.48 53.9815C1212.52 54.3319 1212.95 54.574 1213.42 54.559Z" fill="#474747"/>
</g>
<mask id="mask162_224_20968" style="mask-type:luminance" maskUnits="userSpaceOnUse" x="321" y="-220" width="1050" height="753">
<path d="M321.449 -219.673H1370.21V532.278H321.449V-219.673Z" fill="white"/>
</mask>
<g mask="url(#mask162_224_20968)">
<path d="M1152.61 36.4027C1148.38 34.9875 1151.27 28.9253 1155.84 30.1841C1157.58 30.9255 1158.68 32.3106 1158.55 33.7709C1158.49 34.3619 1158.48 35.0567 1157.84 35.4914C1156.51 36.4614 1154.41 37.0479 1152.61 36.4027Z" fill="white"/>
</g>
<mask id="mask163_224_20968" style="mask-type:luminance" maskUnits="userSpaceOnUse" x="321" y="-220" width="1050" height="753">
<path d="M321.449 -219.673H1370.21V532.278H321.449V-219.673Z" fill="white"/>
</mask>
<g mask="url(#mask163_224_20968)">
<path d="M1153.63 46.7192C1152.47 46.6921 1151.86 45.6439 1152.22 44.934C1152.59 44.328 1153.56 43.8663 1154.5 44.0016C1156.61 44.3475 1155.65 47.02 1153.63 46.7192Z" fill="white"/>
</g>
<mask id="mask164_224_20968" style="mask-type:luminance" maskUnits="userSpaceOnUse" x="321" y="-220" width="1050" height="753">
<path d="M321.449 -219.673H1370.21V532.278H321.449V-219.673Z" fill="white"/>
</mask>
<g mask="url(#mask164_224_20968)">
<path d="M1161.5 43.4056C1157.9 42.5649 1159.29 38.4337 1162.76 38.2547C1165.21 38.1735 1166.43 40.3782 1165.56 41.8205C1164.96 42.9634 1163.14 43.5981 1161.5 43.4056Z" fill="white"/>
</g>
<mask id="mask165_224_20968" style="mask-type:luminance" maskUnits="userSpaceOnUse" x="321" y="-220" width="1050" height="753">
<path d="M321.449 -219.673H1370.21V532.278H321.449V-219.673Z" fill="white"/>
</mask>
<g mask="url(#mask165_224_20968)">
<path d="M1253.24 59.5882C1252.06 59.5325 1251.21 58.6723 1251.42 57.8587C1251.2 56.6601 1252.91 55.5352 1254.54 55.6871C1257.84 56.0916 1256.04 59.8017 1253.24 59.5882Z" fill="white"/>
</g>
<mask id="mask166_224_20968" style="mask-type:luminance" maskUnits="userSpaceOnUse" x="321" y="-220" width="1050" height="753">
<path d="M321.449 -219.673H1370.21V532.278H321.449V-219.673Z" fill="white"/>
</mask>
<g mask="url(#mask166_224_20968)">
<path d="M1251.44 68.5678C1250.49 68.2309 1249.7 67.5677 1249.36 66.8519C1248.89 65.2487 1251.2 63.2666 1253.56 63.8802C1257.49 64.9148 1255.59 69.6822 1251.44 68.5678Z" fill="white"/>
</g>
<mask id="mask167_224_20968" style="mask-type:luminance" maskUnits="userSpaceOnUse" x="321" y="-220" width="1050" height="753">
<path d="M321.449 -219.673H1370.21V532.278H321.449V-219.673Z" fill="white"/>
</mask>
<g mask="url(#mask167_224_20968)">
<path d="M1207.87 21.3705L1207.18 20.0696C1207.15 20.011 1204.02 14.1352 1200.22 9.80398C1196.63 5.70134 1188.41 4.85163 1188.33 4.84261L1188.61 3.35375C1188.99 3.38984 1197.89 4.31323 1202 9.0039C1204.88 12.2959 1207.33 16.3294 1208.47 18.3176C1211.31 15.8948 1219.04 10.1935 1228.65 10.5198L1228.54 12.0207C1217.8 11.6793 1209.1 20.1568 1209.01 20.2426L1207.87 21.3705Z" fill="#474747"/>
</g>
</g>
<defs>
<clipPath id="clip0_224_20968">
<rect width="159" height="81" fill="white"/>
</clipPath>
<clipPath id="clip1_224_20968">
<rect width="159" height="81" fill="white" transform="translate(102)"/>
</clipPath>
<clipPath id="clip2_224_20968">
<rect width="159" height="81" fill="white" transform="translate(204)"/>
</clipPath>
<clipPath id="clip3_224_20968">
<rect width="159" height="81" fill="white" transform="translate(306)"/>
</clipPath>
<clipPath id="clip4_224_20968">
<rect width="159" height="81" fill="white" transform="translate(408)"/>
</clipPath>
<clipPath id="clip5_224_20968">
<rect width="159" height="81" fill="white" transform="translate(510)"/>
</clipPath>
<clipPath id="clip6_224_20968">
<rect width="159" height="81" fill="white" transform="translate(612)"/>
</clipPath>
<clipPath id="clip7_224_20968">
<rect width="159" height="81" fill="white" transform="translate(714)"/>
</clipPath>
<clipPath id="clip8_224_20968">
<rect width="159" height="81" fill="white" transform="translate(816)"/>
</clipPath>
<clipPath id="clip9_224_20968">
<rect width="159" height="81" fill="white" transform="translate(918)"/>
</clipPath>
<clipPath id="clip10_224_20968">
<rect width="159" height="81" fill="white" transform="translate(1020)"/>
</clipPath>
<clipPath id="clip11_224_20968">
<rect width="159" height="81" fill="white" transform="translate(1122)"/>
</clipPath>
</defs>
</svg>
