<svg width="827" height="79" viewBox="0 0 827 79" fill="none" xmlns="http://www.w3.org/2000/svg">
<g clip-path="url(#clip0_184_19289)">
<mask id="mask0_184_19289" style="mask-type:luminance" maskUnits="userSpaceOnUse" x="-144" y="-106" width="504" height="414">
<path d="M-143.682 84.2285L-36.696 307.254L359.794 117.057L252.808 -105.969L-143.682 84.2285Z" fill="white"/>
</mask>
<g mask="url(#mask0_184_19289)">
<path d="M31.7799 46.3211C31.6623 46.4657 31.4901 46.577 31.2991 46.5218C29.5507 47.5769 27.5346 48.1813 25.5742 48.7229C22.2978 49.6819 18.8991 50.1758 15.4858 49.8947C14.2418 49.8617 13.0307 49.594 11.8154 49.3529C10.9721 49.2106 10.1294 49.0361 9.33866 48.7016C8.01345 48.0398 6.50766 47.2138 5.93841 45.7672C5.26305 43.7683 6.79865 42.06 8.30013 40.9531C10.6326 39.3348 13.7296 38.6113 16.5068 39.3128C14.4079 37.1181 12.6374 34.7792 13.0203 31.5719C13.1542 28.597 15.3339 26.0041 17.9702 24.789C20.1204 23.946 22.548 24.3171 24.6836 25.0335C28.2162 26.3435 30.2678 29.8726 31.7746 33.1291C32.8604 35.527 33.2972 38.209 33.1792 40.8224C33.0696 42.7001 33.113 44.8403 31.7799 46.3211Z" fill="#EA81C2"/>
</g>
<mask id="mask1_184_19289" style="mask-type:luminance" maskUnits="userSpaceOnUse" x="-144" y="-106" width="504" height="414">
<path d="M-143.682 84.2282L-36.6961 307.254L359.794 117.056L252.808 -105.969L-143.682 84.2282Z" fill="white"/>
</mask>
<g mask="url(#mask1_184_19289)">
<path d="M18.8726 50.603C18.1274 47.3386 18.3719 47.4184 20.5291 45.0804C21.1858 44.3407 20.4548 43.5731 20.0521 42.9232C19.0077 41.4032 20.6886 40.0502 21.9393 39.3974C22.3356 39.1095 23.1949 38.9155 23.288 38.3989C23.29 38.409 23.2917 38.4194 23.2933 38.4296C23.2937 38.4378 23.2937 38.4459 23.2977 38.4589C23.082 37.8557 22.6524 37.3307 22.514 36.6891C22.1448 35.5354 22.5439 34.128 23.6915 33.5929C24.6063 33.0774 25.7058 33.3682 26.6697 33.0645C26.8854 32.99 26.9139 32.7437 26.934 32.5473C26.9312 31.2394 27.1589 30.2124 28.5086 29.7136C29.5741 29.2319 31.2694 28.8612 32.1941 29.7599C32.5848 30.2243 31.7616 30.6905 31.5644 30.1168C30.7814 29.8137 29.8218 30.0052 29.0905 30.3398C26.8663 31.0585 28.6999 33.0153 27.061 33.8945C26.0602 34.3675 24.7687 33.8909 23.8609 34.6012C23.1325 35.1569 23.2845 36.2116 23.6224 36.9498C23.989 37.6515 24.6303 38.5223 23.9407 39.2438C23.0299 40.1296 21.6218 40.4149 20.8433 41.4737C20.1563 42.5722 22.5732 43.4996 21.5099 45.3334C20.5181 46.9972 18.9077 47.1431 19.635 49.4625C19.6887 49.771 19.7362 50.0823 19.8145 50.3859C19.9564 50.993 19.021 51.2205 18.8726 50.603Z" fill="#FFA9BE"/>
</g>
<mask id="mask2_184_19289" style="mask-type:luminance" maskUnits="userSpaceOnUse" x="-144" y="-106" width="504" height="414">
<path d="M-143.682 84.2284L-36.6959 307.254L359.795 117.057L252.808 -105.969L-143.682 84.2284Z" fill="white"/>
</mask>
<g mask="url(#mask2_184_19289)">
<path d="M19.079 30.3549C18.8414 29.9014 18.9251 29.3763 18.959 28.8858C19.2735 27.257 21.714 26.7714 22.5997 28.1867C23.1671 29.1318 22.8141 30.5067 21.9134 31.1196C20.981 31.7076 19.5644 31.3711 19.079 30.3549Z" fill="#FFA9BE"/>
</g>
<mask id="mask3_184_19289" style="mask-type:luminance" maskUnits="userSpaceOnUse" x="-144" y="-106" width="504" height="414">
<path d="M-143.682 84.2281L-36.696 307.254L359.794 117.056L252.808 -105.969L-143.682 84.2281Z" fill="white"/>
</mask>
<g mask="url(#mask3_184_19289)">
<path d="M17.559 35.1146C17.4905 34.787 17.6428 34.2747 18.0597 34.3414C18.4797 34.3876 18.9339 34.8399 18.6806 35.282C18.4314 35.6977 17.6874 35.5745 17.559 35.1146Z" fill="#FFA9BE"/>
</g>
<mask id="mask4_184_19289" style="mask-type:luminance" maskUnits="userSpaceOnUse" x="-144" y="-106" width="504" height="414">
<path d="M-143.682 84.2282L-36.6961 307.254L359.794 117.056L252.808 -105.969L-143.682 84.2282Z" fill="white"/>
</mask>
<g mask="url(#mask4_184_19289)">
<path d="M12.1032 45.1134C11.2867 43.1678 14.4031 41.4547 15.883 42.6705C16.7453 43.4412 16.5165 44.897 15.6747 45.5942C14.6626 46.5174 12.7884 46.3528 12.1032 45.1134ZM14.1476 43.3902C14.5806 43.4505 15.0524 43.3405 15.4411 43.5989C15.3841 43.4532 15.23 43.2998 15.0886 43.2586C14.7846 43.1502 14.4505 43.1956 14.1479 43.2882C14.1524 43.3219 14.1523 43.3562 14.1476 43.3902Z" fill="#FFA9BE"/>
</g>
<mask id="mask5_184_19289" style="mask-type:luminance" maskUnits="userSpaceOnUse" x="-144" y="-106" width="504" height="414">
<path d="M-143.682 84.2282L-36.6961 307.254L359.794 117.056L252.808 -105.969L-143.682 84.2282Z" fill="white"/>
</mask>
<g mask="url(#mask5_184_19289)">
<path d="M31.7846 46.3256C31.6427 46.4467 31.5354 46.6212 31.5952 46.811C30.5809 48.5834 30.0238 50.6131 29.5281 52.5856C28.6457 55.8837 28.2313 59.2928 28.5919 62.6986C28.6539 63.9415 28.9497 65.1459 29.2191 66.3557C29.3813 67.1952 29.5752 68.0337 29.928 68.8163C30.6207 70.1257 31.4813 71.6117 32.9411 72.1473C34.9549 72.7758 36.627 71.201 37.6987 69.6738C39.262 67.3042 39.9132 64.1912 39.1471 61.4311C41.3901 63.4784 43.7697 65.1939 46.9673 64.7363C49.9382 64.533 52.4796 62.2933 53.6327 59.6294C54.4254 57.46 53.9978 55.0419 53.2318 52.9236C51.8398 49.4223 48.2637 47.4537 44.9731 46.0233C42.5504 44.9937 39.8591 44.6196 37.249 44.7987C35.3746 44.9517 33.2338 44.9585 31.7846 46.3256Z" fill="#EA81C2"/>
</g>
<mask id="mask6_184_19289" style="mask-type:luminance" maskUnits="userSpaceOnUse" x="-144" y="-106" width="504" height="414">
<path d="M-143.682 84.2285L-36.696 307.254L359.794 117.057L252.808 -105.969L-143.682 84.2285Z" fill="white"/>
</mask>
<g mask="url(#mask6_184_19289)">
<path d="M27.8049 59.3294C31.0857 59.9983 31.0003 59.7556 33.2873 57.5443C34.0115 56.8707 34.796 57.5837 35.4551 57.9709C36.999 58.9798 38.3124 57.2678 38.936 56.0021C39.2145 55.5993 39.3885 54.7357 39.9028 54.6305C39.8925 54.6288 39.8822 54.6274 39.8719 54.626C39.8637 54.6258 39.8558 54.6258 39.8427 54.6222C40.4504 54.8237 40.9852 55.2411 41.6299 55.3645C42.7921 55.7067 44.1899 55.2747 44.698 54.1152C45.192 53.1883 44.8758 52.096 45.1567 51.1253C45.2262 50.908 45.4718 50.874 45.6677 50.8492C46.9752 50.8212 47.9967 50.5697 48.4639 49.2089C48.9205 48.1325 49.2517 46.4289 48.3316 45.5254C47.8583 45.1456 47.4113 45.9794 47.9895 46.1633C48.3108 46.9389 48.1417 47.9028 47.8243 48.6418C47.1576 50.8821 45.1585 49.0945 44.3179 50.7534C43.8684 51.7652 44.375 53.0453 43.686 53.9692C43.1474 54.7104 42.0898 54.583 41.3436 54.2624C40.6335 53.9121 39.748 53.2916 39.0429 53.9977C38.1785 54.9287 37.9261 56.3433 36.8858 57.1461C35.8036 57.8586 34.82 55.464 33.0116 56.5698C31.3713 57.6002 31.2631 59.2137 28.9273 58.5405C28.6176 58.4939 28.3052 58.4538 28.0001 58.3827C27.3896 58.2549 27.1841 59.1955 27.8049 59.3294Z" fill="#FFA9BE"/>
</g>
<mask id="mask7_184_19289" style="mask-type:luminance" maskUnits="userSpaceOnUse" x="-144" y="-106" width="504" height="414">
<path d="M-143.682 84.2281L-36.696 307.254L359.794 117.056L252.808 -105.969L-143.682 84.2281Z" fill="white"/>
</mask>
<g mask="url(#mask7_184_19289)">
<path d="M48.0426 58.6508C48.5016 58.8778 49.0246 58.7818 49.5142 58.7367C51.1352 58.3841 51.5637 55.9332 50.1282 55.0807C49.1701 54.5353 47.8037 54.9203 47.2121 55.835C46.6457 56.7809 47.0152 58.1893 48.0426 58.6508Z" fill="#FFA9BE"/>
</g>
<mask id="mask8_184_19289" style="mask-type:luminance" maskUnits="userSpaceOnUse" x="-144" y="-106" width="504" height="414">
<path d="M-143.682 84.2281L-36.696 307.254L359.794 117.056L252.808 -105.969L-143.682 84.2281Z" fill="white"/>
</mask>
<g mask="url(#mask8_184_19289)">
<path d="M43.3198 60.2812C43.6487 60.3422 44.1575 60.1779 44.0811 59.7629C44.0251 59.3439 43.5624 58.9003 43.1262 59.1639C42.7164 59.4227 42.8569 60.1636 43.3198 60.2812Z" fill="#FFA9BE"/>
</g>
<mask id="mask9_184_19289" style="mask-type:luminance" maskUnits="userSpaceOnUse" x="-144" y="-106" width="504" height="414">
<path d="M-143.682 84.2284L-36.6959 307.254L359.795 117.057L252.808 -105.969L-143.682 84.2284Z" fill="white"/>
</mask>
<g mask="url(#mask9_184_19289)">
<path d="M32.8869 62.4096C33.5643 61.5516 35.0143 61.2889 35.8049 62.1331C37.055 63.5842 35.415 66.7397 33.4506 65.9688C32.1955 65.3127 31.9875 63.443 32.8869 62.4096ZM35.2279 63.882C35.3132 63.5774 35.3509 63.2425 35.2353 62.9411C35.191 62.8005 35.034 62.6502 34.887 62.5968C35.1546 62.979 35.0556 63.4535 35.1261 63.8848C35.1598 63.8793 35.1941 63.8783 35.2279 63.882Z" fill="#FFA9BE"/>
</g>
<mask id="mask10_184_19289" style="mask-type:luminance" maskUnits="userSpaceOnUse" x="-144" y="-106" width="504" height="414">
<path d="M-143.682 84.2281L-36.696 307.254L359.794 117.056L252.808 -105.969L-143.682 84.2281Z" fill="white"/>
</mask>
<g mask="url(#mask10_184_19289)">
<path d="M47.0727 39.0672C47.2739 37.4092 45.2823 37.149 44.6524 38.5023C42.4189 38.943 40.2095 39.6249 38.2373 40.7561C38.0874 40.4922 37.9064 40.2775 37.7032 40.1075C38.1823 39.5162 38.6742 38.9185 39.1266 38.3154C40.4907 36.383 41.7751 34.276 42.2463 31.9306C43.6052 31.4792 43.4557 29.3046 41.8665 29.5736C40.8157 29.801 39.925 31.3656 41.2417 31.8994C40.5754 34.8665 38.6788 37.3162 36.8308 39.6636C34.918 39.1744 32.3844 41.0576 33.5962 43.1728C33.4769 43.2429 33.3677 43.3075 33.2784 43.3524C30.1207 45.6874 27.0179 48.168 24.3805 51.093C23.3452 52.3375 22.3742 53.683 21.8536 55.2427C21.7196 55.7566 21.4005 56.3459 21.6472 56.8671C23.2101 59.0857 26.1392 54.4601 27.2236 53.3749C28.5683 51.5688 30.0561 49.8382 31.459 48.0693C32.2609 47.0717 33.0632 46.0703 33.8694 45.0762C34.143 44.7326 34.4253 44.3965 34.7066 44.0599C35.6166 44.3752 36.7336 44.1313 37.4805 43.4996C38.2423 43.0595 38.6357 42.3 38.5089 41.5033C40.3841 40.4881 42.4304 39.914 44.5295 39.4837C44.708 40.9989 46.9794 40.2781 47.0727 39.0672Z" fill="#AFAFAF"/>
</g>
</g>
<g clip-path="url(#clip1_184_19289)">
<mask id="mask11_184_19289" style="mask-type:luminance" maskUnits="userSpaceOnUse" x="421" y="-211" width="471" height="306">
<path d="M857.273 94.8399L891.378 -150.157L455.828 -210.787L421.724 34.21L857.273 94.8399Z" fill="white"/>
</mask>
<g mask="url(#mask11_184_19289)">
<path d="M690.095 29.4546C690.273 29.3991 690.478 29.4015 690.607 29.5531C692.647 29.64 694.661 30.2507 696.594 30.8828C699.855 31.8944 702.96 33.3613 705.649 35.482C706.668 36.1971 707.529 37.0895 708.409 37.9621C709.033 38.5469 709.639 39.158 710.113 39.8738C710.851 41.1578 711.65 42.6784 711.325 44.1987C710.783 46.2377 708.559 46.8127 706.696 46.9053C703.858 46.9648 700.877 45.8561 698.95 43.7366C699.486 46.7256 699.669 49.6534 697.577 52.1147C695.821 54.5199 692.572 55.4761 689.703 55.0316C687.445 54.5458 685.627 52.8948 684.243 51.1175C682.023 48.0733 682.264 43.9982 682.808 40.4515C683.229 37.8531 684.347 35.3765 685.89 33.2638C687.019 31.7594 688.166 29.9519 690.095 29.4546Z" fill="#EA81C2"/>
</g>
<mask id="mask12_184_19289" style="mask-type:luminance" maskUnits="userSpaceOnUse" x="421" y="-211" width="471" height="306">
<path d="M857.273 94.8401L891.378 -150.157L455.828 -210.787L421.723 34.2102L857.273 94.8401Z" fill="white"/>
</mask>
<g mask="url(#mask12_184_19289)">
<path d="M703.218 33.0199C702.035 36.1522 701.875 35.9506 698.785 36.7067C697.829 36.9603 698.014 38.004 697.991 38.7682C698.021 40.6122 695.872 40.8107 694.469 40.6635C693.98 40.6844 693.157 40.3711 692.793 40.7503C692.797 40.7406 692.802 40.7311 692.806 40.7217C692.81 40.7147 692.815 40.7079 692.818 40.6948C692.665 41.3167 692.733 41.9917 692.493 42.6029C692.164 43.7684 691.053 44.7208 689.801 44.5324C688.754 44.4564 687.998 43.6064 687.027 43.3267C686.806 43.2696 686.646 43.4592 686.521 43.6117C685.8 44.7032 685.043 45.4333 683.642 45.103C682.488 44.9155 680.87 44.2875 680.596 43.0275C680.528 42.4245 681.471 42.4909 681.319 43.0781C681.804 43.7635 682.709 44.1342 683.504 44.2596C685.754 44.8899 685.308 42.2457 687.16 42.4188C688.255 42.5778 689.068 43.6888 690.217 43.5985C691.131 43.538 691.587 42.575 691.714 41.7731C691.796 40.9856 691.743 39.9054 692.716 39.6853C693.965 39.4505 695.296 39.991 696.53 39.5389C697.71 39.0031 696.208 36.8944 698.108 35.9538C699.854 35.1154 701.277 35.8839 701.953 33.549C702.078 33.2621 702.211 32.9765 702.313 32.6802C702.531 32.0958 703.436 32.4232 703.218 33.0199Z" fill="#FFA9BE"/>
</g>
<mask id="mask13_184_19289" style="mask-type:luminance" maskUnits="userSpaceOnUse" x="421" y="-211" width="471" height="306">
<path d="M857.273 94.8399L891.378 -150.157L455.828 -210.787L421.723 34.21L857.273 94.8399Z" fill="white"/>
</mask>
<g mask="url(#mask13_184_19289)">
<path d="M691.855 49.7803C691.803 50.2895 691.443 50.6809 691.143 51.0709C689.981 52.2545 687.679 51.3104 687.723 49.6414C687.772 48.5401 688.827 47.5894 689.916 47.5764C691.018 47.6017 692.012 48.6651 691.855 49.7803Z" fill="#FFA9BE"/>
</g>
<mask id="mask14_184_19289" style="mask-type:luminance" maskUnits="userSpaceOnUse" x="421" y="-211" width="471" height="306">
<path d="M857.273 94.8401L891.378 -150.157L455.828 -210.787L421.723 34.2102L857.273 94.8401Z" fill="white"/>
</mask>
<g mask="url(#mask14_184_19289)">
<path d="M695.753 46.6537C695.629 46.9646 695.219 47.3073 694.908 47.0213C694.584 46.7507 694.455 46.1227 694.91 45.8943C695.348 45.6856 695.9 46.1994 695.753 46.6537Z" fill="#FFA9BE"/>
</g>
<mask id="mask15_184_19289" style="mask-type:luminance" maskUnits="userSpaceOnUse" x="421" y="-211" width="471" height="306">
<path d="M857.273 94.8401L891.378 -150.157L455.828 -210.787L421.723 34.2102L857.273 94.8401Z" fill="white"/>
</mask>
<g mask="url(#mask15_184_19289)">
<path d="M705.826 41.3362C705.431 43.4089 701.887 43.1142 701.326 41.283C701.033 40.1642 702.028 39.0774 703.115 38.9616C704.469 38.7516 705.94 39.9246 705.826 41.3362ZM703.17 41.6424C702.842 41.3528 702.388 41.1837 702.207 40.7536C702.174 40.9064 702.218 41.1195 702.313 41.2319C702.506 41.4903 702.81 41.6371 703.113 41.7272C703.128 41.6967 703.147 41.6681 703.17 41.6424Z" fill="#FFA9BE"/>
</g>
<mask id="mask16_184_19289" style="mask-type:luminance" maskUnits="userSpaceOnUse" x="421" y="-211" width="471" height="306">
<path d="M857.273 94.8401L891.378 -150.157L455.828 -210.787L421.723 34.2102L857.273 94.8401Z" fill="white"/>
</mask>
<g mask="url(#mask16_184_19289)">
<path d="M690.094 29.4482C690.279 29.4257 690.465 29.3396 690.52 29.1484C692.345 28.2319 693.931 26.8483 695.434 25.4784C697.992 23.2175 700.222 20.6054 701.804 17.5678C702.439 16.4977 702.858 15.3305 703.302 14.1734C703.631 13.3841 703.933 12.5782 704.071 11.731C704.218 10.2568 704.322 8.54277 703.401 7.28963C702.07 5.65283 699.806 6.04115 698.069 6.72152C695.457 7.83227 693.193 10.0667 692.306 12.7903C691.569 9.84445 690.534 7.09957 687.616 5.71362C685.028 4.24105 681.672 4.70305 679.239 6.28573C677.379 7.65553 676.399 9.90716 675.866 12.0958C675.091 15.7831 676.984 19.4002 678.935 22.411C680.385 24.608 682.421 26.4073 684.696 27.7006C686.342 28.609 688.13 29.7866 690.094 29.4482Z" fill="#EA81C2"/>
</g>
<mask id="mask17_184_19289" style="mask-type:luminance" maskUnits="userSpaceOnUse" x="421" y="-211" width="471" height="306">
<path d="M857.273 94.8399L891.378 -150.157L455.828 -210.787L421.724 34.21L857.273 94.8399Z" fill="white"/>
</mask>
<g mask="url(#mask17_184_19289)">
<path d="M700.597 20.8107C698.233 18.4399 698.17 18.6895 695.042 19.2683C694.066 19.4294 693.806 18.4016 693.471 17.7146C692.742 16.0206 690.701 16.7214 689.482 17.4315C689.027 17.6133 688.405 18.2369 687.918 18.0403C687.926 18.0474 687.933 18.0542 687.941 18.0611C687.948 18.0658 687.955 18.0701 687.964 18.0804C687.568 17.5766 687.353 16.9331 686.884 16.474C686.105 15.5465 684.701 15.1339 683.637 15.8194C682.713 16.3189 682.373 17.4039 681.602 18.0577C681.424 18.2003 681.201 18.0929 681.024 18.0053C679.919 17.306 678.928 16.951 677.787 17.8269C676.811 18.4716 675.594 19.7083 675.861 20.9698C676.046 21.5479 676.879 21.1001 676.499 20.6272C676.66 19.8033 677.334 19.0935 678.006 18.653C679.8 17.1545 680.478 19.7491 682.096 18.8312C683.03 18.2365 683.315 16.8896 684.4 16.5005C685.258 16.1804 686.069 16.8711 686.514 17.5507C686.912 18.2351 687.307 19.2417 688.285 19.0429C689.52 18.7447 690.512 17.7054 691.823 17.6112C693.118 17.6156 692.615 20.1549 694.733 20.2328C696.669 20.2806 697.651 18.9958 699.226 20.8479C699.458 21.0578 699.696 21.2639 699.911 21.4918C700.35 21.9357 701.041 21.2653 700.597 20.8107Z" fill="#FFA9BE"/>
</g>
<mask id="mask18_184_19289" style="mask-type:luminance" maskUnits="userSpaceOnUse" x="421" y="-211" width="471" height="306">
<path d="M857.273 94.8401L891.378 -150.157L455.828 -210.787L421.723 34.2102L857.273 94.8401Z" fill="white"/>
</mask>
<g mask="url(#mask18_184_19289)">
<path d="M683.356 10.1909C683.099 9.74814 682.611 9.53902 682.177 9.306C680.632 8.70395 678.92 10.5097 679.645 12.0136C680.142 12.9976 681.494 13.432 682.492 12.9966C683.487 12.5213 683.958 11.1434 683.356 10.1909Z" fill="#FFA9BE"/>
</g>
<mask id="mask19_184_19289" style="mask-type:luminance" maskUnits="userSpaceOnUse" x="421" y="-211" width="471" height="306">
<path d="M857.273 94.8401L891.378 -150.157L455.828 -210.787L421.723 34.2102L857.273 94.8401Z" fill="white"/>
</mask>
<g mask="url(#mask19_184_19289)">
<path d="M688.194 11.4425C687.953 11.2099 687.438 11.0656 687.273 11.4537C687.088 11.8338 687.228 12.4592 687.737 12.4806C688.222 12.4914 688.514 11.7963 688.194 11.4425Z" fill="#FFA9BE"/>
</g>
<mask id="mask20_184_19289" style="mask-type:luminance" maskUnits="userSpaceOnUse" x="421" y="-211" width="471" height="306">
<path d="M857.273 94.8399L891.378 -150.157L455.828 -210.787L421.723 34.21L857.273 94.8399Z" fill="white"/>
</mask>
<g mask="url(#mask20_184_19289)">
<path d="M698.064 15.4349C697.026 15.7754 695.672 15.193 695.48 14.0525C695.24 12.1523 698.351 10.429 699.562 12.1571C700.245 13.3976 699.385 15.0707 698.064 15.4349ZM696.927 12.914C696.688 13.1207 696.471 13.3789 696.401 13.694C696.36 13.8356 696.408 14.0476 696.501 14.1734C696.489 13.707 696.834 13.3662 697.014 12.9678C696.983 12.9538 696.953 12.9356 696.927 12.914Z" fill="#FFA9BE"/>
</g>
<mask id="mask21_184_19289" style="mask-type:luminance" maskUnits="userSpaceOnUse" x="421" y="-211" width="471" height="306">
<path d="M857.273 94.8401L891.378 -150.157L455.828 -210.787L421.723 34.2102L857.273 94.8401Z" fill="white"/>
</mask>
<g mask="url(#mask21_184_19289)">
<path d="M673.341 27.0476C672.257 28.3182 673.773 29.6357 675.046 28.856C677.151 29.7232 679.369 30.3761 681.638 30.5234C681.617 30.8262 681.649 31.1051 681.724 31.3591C680.998 31.5871 680.258 31.8133 679.548 32.0659C677.343 32.9224 675.108 33.9685 673.419 35.6626C672.037 35.2878 670.96 37.1828 672.433 37.8369C673.434 38.2281 675.041 37.4165 674.239 36.2439C676.434 34.1395 679.368 33.1461 682.206 32.2112C683.53 33.6761 686.682 33.507 686.841 31.0745C686.979 31.0819 687.106 31.0885 687.205 31.1004C691.127 30.8997 695.084 30.5473 698.899 29.5673C700.449 29.1024 702.002 28.5178 703.298 27.5056C703.694 27.1514 704.286 26.8367 704.368 26.2659C704.292 23.5532 699.294 25.7892 697.791 26.0942C695.672 26.8563 693.475 27.4762 691.329 28.175C690.109 28.5632 688.887 28.9543 687.666 29.3372C687.248 29.4724 686.827 29.5964 686.406 29.7215C685.822 28.9557 684.756 28.5417 683.785 28.6552C682.907 28.601 682.159 29.0165 681.824 29.7506C679.7 29.5602 677.678 28.9077 675.691 28.1062C676.379 26.7447 674.088 26.09 673.341 27.0476Z" fill="#AFAFAF"/>
</g>
</g>
<g clip-path="url(#clip2_184_19289)">
<mask id="mask22_184_19289" style="mask-type:luminance" maskUnits="userSpaceOnUse" x="288" y="-101" width="285" height="298">
<path d="M288.655 100.33L401.738 196.452L572.621 -4.58441L459.538 -100.706L288.655 100.33Z" fill="white"/>
</mask>
<g mask="url(#mask22_184_19289)">
<path d="M375.571 36.7196C375.542 36.8276 375.474 36.9306 375.356 36.947C374.655 37.9521 373.698 38.7755 372.756 39.5509C371.194 40.8764 369.452 41.9768 367.512 42.656C366.822 42.9416 366.093 43.0905 365.368 43.255C364.871 43.3829 364.367 43.493 363.852 43.5027C362.964 43.4634 361.937 43.3783 361.272 42.7243C360.414 41.7937 360.838 40.4825 361.391 39.5093C362.275 38.0529 363.795 36.9003 365.489 36.6068C363.803 35.9163 362.261 35.0666 361.688 33.2152C361.035 31.552 361.597 29.5988 362.745 28.2892C363.718 27.3023 365.139 26.913 366.485 26.7843C368.741 26.64 370.727 28.0734 372.347 29.4904C373.528 30.5397 374.422 31.903 374.995 33.3642C375.394 34.4201 375.94 35.5826 375.571 36.7196Z" fill="#EA81C2"/>
</g>
<mask id="mask23_184_19289" style="mask-type:luminance" maskUnits="userSpaceOnUse" x="288" y="-101" width="285" height="298">
<path d="M288.655 100.33L401.737 196.452L572.621 -4.58458L459.538 -100.707L288.655 100.33Z" fill="white"/>
</mask>
<g mask="url(#mask23_184_19289)">
<path d="M369.542 42.2174C368.336 40.6101 368.49 40.5941 369.101 38.7861C369.281 38.2203 368.693 37.9781 368.313 37.7202C367.37 37.142 367.961 35.9901 368.487 35.327C368.634 35.0724 369.057 34.7564 368.982 34.4505C368.986 34.4555 368.989 34.4608 368.993 34.466C368.995 34.4704 368.997 34.4748 369.002 34.481C368.737 34.2031 368.373 34.0202 368.141 33.7023C367.657 33.1601 367.532 32.2913 368.03 31.7179C368.406 31.212 369.079 31.103 369.534 30.7012C369.634 30.6077 369.589 30.4658 369.552 30.3532C369.231 29.637 369.106 29.0185 369.724 28.4157C370.19 27.8916 371.029 27.2745 371.755 27.5413C372.082 27.7005 371.745 28.157 371.497 27.8907C370.994 27.9157 370.514 28.2549 370.195 28.6169C369.152 29.5537 370.634 30.1786 369.951 31.0606C369.518 31.5641 368.693 31.6182 368.369 32.2291C368.106 32.7115 368.447 33.2525 368.812 33.5746C369.184 33.8697 369.748 34.1905 369.546 34.7542C369.263 35.4621 368.561 35.9622 368.393 36.7325C368.285 37.5023 369.836 37.4207 369.701 38.6853C369.563 39.8394 368.716 40.3124 369.681 41.4061C369.786 41.5621 369.888 41.7211 370.005 41.8684C370.231 42.1665 369.774 42.5196 369.542 42.2174Z" fill="#FFA9BE"/>
</g>
<mask id="mask24_184_19289" style="mask-type:luminance" maskUnits="userSpaceOnUse" x="288" y="-101" width="285" height="298">
<path d="M288.655 100.33L401.738 196.452L572.621 -4.58453L459.538 -100.707L288.655 100.33Z" fill="white"/>
</mask>
<g mask="url(#mask24_184_19289)">
<path d="M364.712 31.0692C364.471 30.8786 364.388 30.5704 364.287 30.2932C364.062 29.3237 365.281 28.4618 366.112 29.0213C366.654 29.4008 366.796 30.2406 366.452 30.7964C366.084 31.3463 365.226 31.5076 364.712 31.0692Z" fill="#FFA9BE"/>
</g>
<mask id="mask25_184_19289" style="mask-type:luminance" maskUnits="userSpaceOnUse" x="288" y="-101" width="285" height="298">
<path d="M288.655 100.329L401.738 196.451L572.621 -4.5847L459.538 -100.707L288.655 100.329Z" fill="white"/>
</mask>
<g mask="url(#mask25_184_19289)">
<path d="M365.041 34.0489C364.923 33.886 364.881 33.5681 365.126 33.5029C365.368 33.4257 365.727 33.5627 365.696 33.8668C365.661 34.1555 365.223 34.2696 365.041 34.0489Z" fill="#FFA9BE"/>
</g>
<mask id="mask26_184_19289" style="mask-type:luminance" maskUnits="userSpaceOnUse" x="288" y="-101" width="285" height="298">
<path d="M288.655 100.33L401.737 196.452L572.621 -4.58458L459.538 -100.707L288.655 100.33Z" fill="white"/>
</mask>
<g mask="url(#mask26_184_19289)">
<path d="M364.491 40.8611C363.569 39.9941 364.859 38.2944 365.967 38.5995C366.627 38.8114 366.857 39.6652 366.566 40.2528C366.237 41.0059 365.169 41.3732 364.491 40.8611ZM365.191 39.4176C365.443 39.3449 365.675 39.1695 365.951 39.2162C365.884 39.1502 365.762 39.1038 365.675 39.1158C365.482 39.1305 365.31 39.237 365.166 39.3616C365.177 39.379 365.185 39.3978 365.191 39.4176Z" fill="#FFA9BE"/>
</g>
<mask id="mask27_184_19289" style="mask-type:luminance" maskUnits="userSpaceOnUse" x="288" y="-101" width="285" height="298">
<path d="M288.655 100.33L401.737 196.452L572.621 -4.58458L459.538 -100.707L288.655 100.33Z" fill="white"/>
</mask>
<g mask="url(#mask27_184_19289)">
<path d="M375.574 36.721C375.526 36.822 375.51 36.9438 375.589 37.0332C375.466 38.2523 375.656 39.5007 375.866 40.7028C376.187 42.7259 376.792 44.6956 377.821 46.4743C378.159 47.1404 378.615 47.7283 379.058 48.3256C379.352 48.7461 379.663 49.1583 380.047 49.5012C380.746 50.0498 381.581 50.6541 382.512 50.5913C383.769 50.4442 384.301 49.1729 384.515 48.0742C384.794 46.3938 384.391 44.5286 383.297 43.2029C385.026 43.7774 386.749 44.1368 388.39 43.1054C389.969 42.2687 390.815 40.4207 390.797 38.6792C390.702 37.2967 389.877 36.0757 388.94 35.1016C387.322 33.5224 384.882 33.3164 382.729 33.3357C381.15 33.3628 379.583 33.8148 378.197 34.5501C377.207 35.0916 376.035 35.6178 375.574 36.721Z" fill="#EA81C2"/>
</g>
<mask id="mask28_184_19289" style="mask-type:luminance" maskUnits="userSpaceOnUse" x="288" y="-101" width="285" height="298">
<path d="M288.655 100.33L401.738 196.452L572.621 -4.58441L459.538 -100.706L288.655 100.33Z" fill="white"/>
</mask>
<g mask="url(#mask28_184_19289)">
<path d="M376.567 44.8197C378.529 44.3855 378.423 44.2733 379.137 42.503C379.369 41.957 379.973 42.1563 380.429 42.2076C381.521 42.3836 381.823 41.1247 381.856 40.2788C381.91 39.99 381.795 39.4742 382.051 39.291C382.045 39.2926 382.039 39.2943 382.033 39.2961C382.029 39.298 382.024 39.2999 382.016 39.3011C382.399 39.2632 382.794 39.3614 383.177 39.2717C383.898 39.1755 384.558 38.5976 384.554 37.838C384.598 37.2094 384.158 36.6879 384.075 36.0872C384.06 35.9512 384.187 35.8726 384.288 35.8112C384.998 35.4766 385.496 35.0895 385.42 34.2295C385.407 33.5281 385.173 32.5135 384.448 32.243C384.096 32.1503 384.055 32.7164 384.416 32.6761C384.782 33.0227 384.925 33.5923 384.931 34.0749C385.112 35.4655 383.58 34.9737 383.525 36.0882C383.525 36.7525 384.115 37.3304 383.963 38.005C383.849 38.5427 383.238 38.7311 382.751 38.7375C382.276 38.7189 381.639 38.5949 381.425 39.1541C381.179 39.8754 381.386 40.7123 381.012 41.4063C380.592 42.061 379.469 40.9886 378.748 42.0362C378.1 43.0014 378.435 43.9121 376.99 44.1134C376.809 44.1634 376.628 44.2177 376.443 44.2532C376.078 44.3322 376.195 44.8979 376.567 44.8197Z" fill="#FFA9BE"/>
</g>
<mask id="mask29_184_19289" style="mask-type:luminance" maskUnits="userSpaceOnUse" x="288" y="-101" width="285" height="298">
<path d="M288.655 100.329L401.738 196.451L572.621 -4.5847L459.538 -100.707L288.655 100.329Z" fill="white"/>
</mask>
<g mask="url(#mask29_184_19289)">
<path d="M387.494 39.5075C387.801 39.5198 388.064 39.3396 388.322 39.1953C389.124 38.6063 388.76 37.1584 387.766 37.0416C387.107 36.9766 386.452 37.5211 386.351 38.1669C386.272 38.8236 386.818 39.5053 387.494 39.5075Z" fill="#FFA9BE"/>
</g>
<mask id="mask30_184_19289" style="mask-type:luminance" maskUnits="userSpaceOnUse" x="288" y="-101" width="285" height="298">
<path d="M288.655 100.329L401.738 196.451L572.621 -4.5847L459.538 -100.707L288.655 100.329Z" fill="white"/>
</mask>
<g mask="url(#mask30_184_19289)">
<path d="M385.303 41.554C385.499 41.5071 385.737 41.2928 385.594 41.084C385.461 40.868 385.099 40.7379 384.925 40.9888C384.763 41.2307 385.021 41.6025 385.303 41.554Z" fill="#FFA9BE"/>
</g>
<mask id="mask31_184_19289" style="mask-type:luminance" maskUnits="userSpaceOnUse" x="288" y="-101" width="285" height="298">
<path d="M288.655 100.33L401.738 196.452L572.621 -4.58453L459.538 -100.707L288.655 100.33Z" fill="white"/>
</mask>
<g mask="url(#mask31_184_19289)">
<path d="M380.105 45.2674C380.267 44.6318 380.997 44.1338 381.637 44.4035C382.676 44.8937 382.547 47.0235 381.283 47.0806C380.435 47.0274 379.864 46.0534 380.105 45.2674ZM381.747 45.5029C381.72 45.3152 381.659 45.1224 381.522 44.9854C381.463 44.9192 381.34 44.8751 381.247 44.8817C381.487 45.0259 381.548 45.3101 381.692 45.5293C381.709 45.5181 381.728 45.5092 381.747 45.5029Z" fill="#FFA9BE"/>
</g>
<mask id="mask32_184_19289" style="mask-type:luminance" maskUnits="userSpaceOnUse" x="288" y="-101" width="285" height="298">
<path d="M288.655 100.329L401.738 196.451L572.621 -4.5847L459.538 -100.707L288.655 100.329Z" fill="white"/>
</mask>
<g mask="url(#mask32_184_19289)">
<path d="M382.182 29.0105C381.887 28.0526 380.732 28.3963 380.717 29.2917C379.601 30.0785 378.556 30.9916 377.751 32.0931C377.605 31.985 377.453 31.9115 377.3 31.868C377.419 31.4269 377.542 30.9792 377.643 30.5382C377.919 29.1461 378.109 27.6777 377.794 26.2772C378.429 25.698 377.816 24.5426 377.011 25.078C376.49 25.4592 376.384 26.5342 377.236 26.5054C377.595 28.2943 377.154 30.0999 376.714 31.8376C375.546 32.0364 374.617 33.6871 375.798 34.5506C375.749 34.6182 375.705 34.6802 375.667 34.7266C374.507 36.7772 373.412 38.8943 372.68 41.1413C372.416 42.0762 372.213 43.0506 372.308 44.0326C372.36 44.347 372.329 44.7479 372.591 44.9733C373.99 45.8078 374.466 42.5575 374.795 41.698C375.091 40.3798 375.484 39.0681 375.822 37.7561C376.018 37.0135 376.213 36.2688 376.412 35.5272C376.478 35.272 376.551 35.0189 376.623 34.7657C377.199 34.7164 377.751 34.31 378.006 33.7815C378.317 33.3543 378.347 32.842 378.083 32.4363C378.863 31.4221 379.844 30.6079 380.89 29.8596C381.357 30.6466 382.426 29.697 382.182 29.0105Z" fill="#AFAFAF"/>
</g>
</g>
<g clip-path="url(#clip3_184_19289)">
<mask id="mask33_184_19289" style="mask-type:luminance" maskUnits="userSpaceOnUse" x="433" y="-107" width="285" height="298">
<path d="M433.655 94.3297L546.738 190.452L717.621 -10.5844L604.538 -106.706L433.655 94.3297Z" fill="white"/>
</mask>
<g mask="url(#mask33_184_19289)">
<path d="M520.571 30.7196C520.542 30.8276 520.474 30.9306 520.356 30.947C519.655 31.9521 518.698 32.7755 517.756 33.5509C516.194 34.8764 514.452 35.9768 512.512 36.656C511.822 36.9416 511.093 37.0905 510.368 37.255C509.871 37.3829 509.367 37.493 508.852 37.5027C507.964 37.4634 506.937 37.3783 506.272 36.7243C505.414 35.7937 505.838 34.4825 506.391 33.5093C507.275 32.0529 508.795 30.9003 510.489 30.6068C508.803 29.9163 507.261 29.0666 506.688 27.2152C506.035 25.552 506.597 23.5988 507.745 22.2892C508.718 21.3023 510.139 20.913 511.485 20.7843C513.741 20.64 515.727 22.0734 517.347 23.4904C518.528 24.5397 519.422 25.903 519.995 27.3642C520.394 28.4201 520.94 29.5826 520.571 30.7196Z" fill="#EA81C2"/>
</g>
<mask id="mask34_184_19289" style="mask-type:luminance" maskUnits="userSpaceOnUse" x="433" y="-107" width="285" height="298">
<path d="M433.655 94.3295L546.737 190.452L717.621 -10.5846L604.538 -106.707L433.655 94.3295Z" fill="white"/>
</mask>
<g mask="url(#mask34_184_19289)">
<path d="M514.542 36.2174C513.336 34.6101 513.49 34.5941 514.101 32.7861C514.281 32.2203 513.693 31.9781 513.313 31.7202C512.37 31.142 512.961 29.9901 513.487 29.327C513.634 29.0724 514.057 28.7564 513.982 28.4505C513.986 28.4555 513.989 28.4608 513.993 28.466C513.995 28.4704 513.997 28.4748 514.002 28.481C513.737 28.2031 513.373 28.0202 513.141 27.7023C512.657 27.1601 512.532 26.2913 513.03 25.7179C513.406 25.212 514.079 25.103 514.534 24.7012C514.634 24.6077 514.589 24.4658 514.552 24.3532C514.231 23.637 514.106 23.0185 514.724 22.4157C515.19 21.8916 516.029 21.2745 516.755 21.5413C517.082 21.7005 516.745 22.157 516.497 21.8907C515.994 21.9157 515.514 22.2549 515.195 22.6169C514.152 23.5537 515.634 24.1786 514.951 25.0606C514.518 25.5641 513.693 25.6182 513.369 26.2291C513.106 26.7115 513.447 27.2525 513.812 27.5746C514.184 27.8697 514.748 28.1905 514.546 28.7542C514.263 29.4621 513.561 29.9622 513.393 30.7325C513.285 31.5023 514.836 31.4207 514.701 32.6853C514.563 33.8394 513.716 34.3124 514.681 35.4061C514.786 35.5621 514.888 35.7211 515.005 35.8684C515.231 36.1665 514.774 36.5196 514.542 36.2174Z" fill="#FFA9BE"/>
</g>
<mask id="mask35_184_19289" style="mask-type:luminance" maskUnits="userSpaceOnUse" x="433" y="-107" width="285" height="298">
<path d="M433.655 94.3296L546.738 190.452L717.621 -10.5845L604.538 -106.707L433.655 94.3296Z" fill="white"/>
</mask>
<g mask="url(#mask35_184_19289)">
<path d="M509.712 25.0692C509.471 24.8786 509.388 24.5704 509.287 24.2932C509.062 23.3237 510.281 22.4618 511.112 23.0213C511.654 23.4008 511.796 24.2406 511.452 24.7964C511.084 25.3463 510.226 25.5076 509.712 25.0692Z" fill="#FFA9BE"/>
</g>
<mask id="mask36_184_19289" style="mask-type:luminance" maskUnits="userSpaceOnUse" x="433" y="-107" width="285" height="298">
<path d="M433.655 94.3294L546.738 190.451L717.621 -10.5847L604.538 -106.707L433.655 94.3294Z" fill="white"/>
</mask>
<g mask="url(#mask36_184_19289)">
<path d="M510.041 28.0489C509.923 27.886 509.881 27.5681 510.126 27.5029C510.368 27.4257 510.727 27.5627 510.696 27.8668C510.661 28.1555 510.223 28.2696 510.041 28.0489Z" fill="#FFA9BE"/>
</g>
<mask id="mask37_184_19289" style="mask-type:luminance" maskUnits="userSpaceOnUse" x="433" y="-107" width="285" height="298">
<path d="M433.655 94.3295L546.737 190.452L717.621 -10.5846L604.538 -106.707L433.655 94.3295Z" fill="white"/>
</mask>
<g mask="url(#mask37_184_19289)">
<path d="M509.491 34.8611C508.569 33.9941 509.859 32.2944 510.967 32.5995C511.627 32.8114 511.857 33.6652 511.566 34.2528C511.237 35.0059 510.169 35.3732 509.491 34.8611ZM510.191 33.4176C510.443 33.3449 510.675 33.1695 510.951 33.2162C510.884 33.1502 510.762 33.1038 510.675 33.1158C510.482 33.1305 510.31 33.237 510.166 33.3616C510.177 33.379 510.185 33.3978 510.191 33.4176Z" fill="#FFA9BE"/>
</g>
<mask id="mask38_184_19289" style="mask-type:luminance" maskUnits="userSpaceOnUse" x="433" y="-107" width="285" height="298">
<path d="M433.655 94.3295L546.737 190.452L717.621 -10.5846L604.538 -106.707L433.655 94.3295Z" fill="white"/>
</mask>
<g mask="url(#mask38_184_19289)">
<path d="M520.574 30.721C520.526 30.822 520.51 30.9438 520.589 31.0332C520.466 32.2523 520.656 33.5007 520.866 34.7028C521.187 36.7259 521.792 38.6956 522.821 40.4743C523.159 41.1404 523.615 41.7283 524.058 42.3256C524.352 42.7461 524.663 43.1583 525.047 43.5012C525.746 44.0498 526.581 44.6541 527.512 44.5913C528.769 44.4442 529.301 43.1729 529.515 42.0742C529.794 40.3938 529.391 38.5286 528.297 37.2029C530.026 37.7774 531.749 38.1368 533.39 37.1054C534.969 36.2687 535.815 34.4207 535.797 32.6792C535.702 31.2967 534.877 30.0757 533.94 29.1016C532.322 27.5224 529.882 27.3164 527.729 27.3357C526.15 27.3628 524.583 27.8148 523.197 28.5501C522.207 29.0916 521.035 29.6178 520.574 30.721Z" fill="#EA81C2"/>
</g>
<mask id="mask39_184_19289" style="mask-type:luminance" maskUnits="userSpaceOnUse" x="433" y="-107" width="285" height="298">
<path d="M433.655 94.3297L546.738 190.452L717.621 -10.5844L604.538 -106.706L433.655 94.3297Z" fill="white"/>
</mask>
<g mask="url(#mask39_184_19289)">
<path d="M521.567 38.8197C523.529 38.3855 523.423 38.2733 524.137 36.503C524.369 35.957 524.973 36.1563 525.429 36.2076C526.521 36.3836 526.823 35.1247 526.856 34.2788C526.91 33.99 526.795 33.4742 527.051 33.291C527.045 33.2926 527.039 33.2943 527.033 33.2961C527.029 33.298 527.024 33.2999 527.016 33.3011C527.399 33.2632 527.794 33.3614 528.177 33.2717C528.898 33.1755 529.558 32.5976 529.554 31.838C529.598 31.2094 529.158 30.6879 529.075 30.0872C529.06 29.9512 529.187 29.8726 529.288 29.8112C529.998 29.4766 530.496 29.0895 530.42 28.2295C530.407 27.5281 530.173 26.5135 529.448 26.243C529.096 26.1503 529.055 26.7164 529.416 26.6761C529.782 27.0227 529.925 27.5923 529.931 28.0749C530.112 29.4655 528.58 28.9737 528.525 30.0882C528.525 30.7525 529.115 31.3304 528.963 32.005C528.849 32.5427 528.238 32.7311 527.751 32.7375C527.276 32.7189 526.639 32.5949 526.425 33.1541C526.179 33.8754 526.386 34.7123 526.012 35.4063C525.592 36.061 524.469 34.9886 523.748 36.0362C523.1 37.0014 523.435 37.9121 521.99 38.1134C521.809 38.1634 521.628 38.2177 521.443 38.2532C521.078 38.3322 521.195 38.8979 521.567 38.8197Z" fill="#FFA9BE"/>
</g>
<mask id="mask40_184_19289" style="mask-type:luminance" maskUnits="userSpaceOnUse" x="433" y="-107" width="285" height="298">
<path d="M433.655 94.3294L546.738 190.451L717.621 -10.5847L604.538 -106.707L433.655 94.3294Z" fill="white"/>
</mask>
<g mask="url(#mask40_184_19289)">
<path d="M532.494 33.5075C532.801 33.5198 533.064 33.3396 533.322 33.1953C534.124 32.6063 533.76 31.1584 532.766 31.0416C532.107 30.9766 531.452 31.5211 531.351 32.1669C531.272 32.8236 531.818 33.5053 532.494 33.5075Z" fill="#FFA9BE"/>
</g>
<mask id="mask41_184_19289" style="mask-type:luminance" maskUnits="userSpaceOnUse" x="433" y="-107" width="285" height="298">
<path d="M433.655 94.3294L546.738 190.451L717.621 -10.5847L604.538 -106.707L433.655 94.3294Z" fill="white"/>
</mask>
<g mask="url(#mask41_184_19289)">
<path d="M530.303 35.554C530.499 35.5071 530.737 35.2928 530.594 35.084C530.461 34.868 530.099 34.7379 529.925 34.9888C529.763 35.2307 530.021 35.6025 530.303 35.554Z" fill="#FFA9BE"/>
</g>
<mask id="mask42_184_19289" style="mask-type:luminance" maskUnits="userSpaceOnUse" x="433" y="-107" width="285" height="298">
<path d="M433.655 94.3296L546.738 190.452L717.621 -10.5845L604.538 -106.707L433.655 94.3296Z" fill="white"/>
</mask>
<g mask="url(#mask42_184_19289)">
<path d="M525.105 39.2674C525.267 38.6318 525.997 38.1338 526.637 38.4035C527.676 38.8937 527.547 41.0235 526.283 41.0806C525.435 41.0274 524.864 40.0534 525.105 39.2674ZM526.747 39.5029C526.72 39.3152 526.659 39.1224 526.522 38.9854C526.463 38.9192 526.34 38.8751 526.247 38.8817C526.487 39.0259 526.548 39.3101 526.692 39.5293C526.709 39.5181 526.728 39.5092 526.747 39.5029Z" fill="#FFA9BE"/>
</g>
<mask id="mask43_184_19289" style="mask-type:luminance" maskUnits="userSpaceOnUse" x="433" y="-107" width="285" height="298">
<path d="M433.655 94.3294L546.738 190.451L717.621 -10.5847L604.538 -106.707L433.655 94.3294Z" fill="white"/>
</mask>
<g mask="url(#mask43_184_19289)">
<path d="M527.182 23.0105C526.887 22.0526 525.732 22.3963 525.717 23.2917C524.601 24.0785 523.556 24.9916 522.751 26.0931C522.605 25.985 522.453 25.9115 522.3 25.868C522.419 25.4269 522.542 24.9792 522.643 24.5382C522.919 23.1461 523.109 21.6777 522.794 20.2772C523.429 19.698 522.816 18.5426 522.011 19.078C521.49 19.4592 521.384 20.5342 522.236 20.5054C522.595 22.2943 522.154 24.0999 521.714 25.8376C520.546 26.0364 519.617 27.6871 520.798 28.5506C520.749 28.6182 520.705 28.6802 520.667 28.7266C519.507 30.7772 518.412 32.8943 517.68 35.1413C517.416 36.0762 517.213 37.0506 517.308 38.0326C517.36 38.347 517.329 38.7479 517.591 38.9733C518.99 39.8078 519.466 36.5575 519.795 35.698C520.091 34.3798 520.484 33.0681 520.822 31.7561C521.018 31.0135 521.213 30.2688 521.412 29.5272C521.478 29.272 521.551 29.0189 521.623 28.7657C522.199 28.7164 522.751 28.31 523.006 27.7815C523.317 27.3543 523.347 26.842 523.083 26.4363C523.863 25.4221 524.844 24.6079 525.89 23.8596C526.357 24.6466 527.426 23.697 527.182 23.0105Z" fill="#AFAFAF"/>
</g>
</g>
<g clip-path="url(#clip4_184_19289)">
<mask id="mask44_184_19289" style="mask-type:luminance" maskUnits="userSpaceOnUse" x="0" y="-117" width="394" height="394">
<path d="M0.276978 -116.996H393.847V276.575H0.276978V-116.996Z" fill="white"/>
</mask>
<g mask="url(#mask44_184_19289)">
<path d="M251.665 22.7298C251.784 22.4905 252.046 22.2552 251.993 21.9694C251.853 21.5326 250.766 21.5656 250.351 21.4515C248.25 21.0178 246.103 20.9178 243.967 20.7848C243.685 20.6809 243.813 19.8127 243.796 19.5474C243.859 18.2809 243.985 17.0183 244.013 15.7502C244.035 15.041 244.051 14.3318 244.01 13.6234C243.983 13.2652 243.966 12.8717 243.77 12.5607C243.278 11.9853 242.261 12.7843 241.726 13.0126C239.318 14.294 237.04 15.8038 234.684 17.175C234.167 15.1866 232.897 13.5486 231.774 11.8626C231.319 11.14 230.863 10.415 230.336 9.74121C229.718 8.95879 229.089 8.70297 228.29 9.43029C226.861 10.8786 225.8 12.6284 224.614 14.2767C224.3 14.1201 223.99 13.9563 223.691 13.7745C222.175 12.9354 220.551 12.3026 219.06 11.4194C218.476 11.0746 217.471 10.2639 216.787 10.6606C216.431 11.2139 216.247 11.8854 215.957 12.4805C215.802 12.8292 214.93 14.9914 214.6 16.3611C213.104 16.0675 211.555 16.1761 210.037 16.1407C209.596 16.1367 209.128 16.1265 208.655 16.1501C208.396 16.1525 208.119 16.2131 207.969 16.4453C207.259 17.3836 208.418 20.4558 208.728 21.5971C209.181 22.9943 209.588 24.4064 210.074 25.7926C208.072 26.32 206.306 27.4369 204.435 28.2839C203.641 28.6405 202.848 29.0167 202.143 29.5323C201.741 29.9857 202.283 30.58 202.583 30.9428C203.812 32.1621 205.027 33.3972 206.298 34.5731C206.839 35.0864 207.334 35.5996 207.804 36.2041C207.9 36.3151 207.824 36.4678 207.8 36.5937C207.305 38.0129 206.762 39.3952 206.162 40.7758C205.509 42.2273 204.714 43.6087 204.084 45.0705C203.951 45.3782 203.823 45.6876 203.714 46.0048C203.666 46.137 203.611 46.2811 203.658 46.422C203.912 46.9612 205.166 46.7416 205.671 46.7069C206.716 46.5849 207.769 46.5857 208.817 46.4999C209.694 46.4542 210.581 46.3614 211.456 46.4968C211.772 46.5944 211.811 47.0171 211.907 47.2933C212.059 47.9545 212.23 48.6102 212.371 49.2746C212.634 50.6395 212.743 52.0264 212.97 53.4031C213.058 53.7991 213.018 54.3123 213.306 54.624C213.613 54.794 213.925 54.4729 214.153 54.2926C214.497 53.9943 214.848 53.7038 215.211 53.4299C216.556 52.4499 217.963 51.4636 219.383 50.5828C219.816 51.662 220.791 52.394 221.523 53.2638C222.219 54.0258 222.974 54.7318 223.693 55.4717C224.032 55.8023 224.36 56.1534 224.759 56.4132C225.262 56.7973 225.565 56.2423 225.922 55.9495C227.057 54.9137 228.191 53.877 229.309 52.8238C230.379 53.7998 231.728 54.3839 232.954 55.1325C233.577 55.4977 234.27 55.9708 235.006 56.1148C235.816 56.0676 236.146 54.3729 236.409 53.7337C236.867 52.2696 237.595 50.9079 238.062 49.4477C240.266 49.2809 242.405 48.6606 244.555 48.186C245.271 47.9939 246.031 47.9081 246.717 47.6326C247.174 47.2965 246.362 46.7392 246.149 46.4629C245.789 46.0819 245.437 45.6931 245.083 45.3058C244.458 44.6304 244.055 43.7677 243.47 43.053C244.395 42.1462 245.531 41.4897 246.571 40.7262C247.412 40.1209 248.198 39.4455 249.01 38.8032C249.511 38.3861 250.067 38.0208 250.525 37.5572C250.699 37.3077 250.412 37.1172 250.227 36.9905C249.94 36.785 249.71 36.5843 249.468 36.3119C248.432 35.1312 247.441 33.9112 246.541 32.6234C246.235 32.1787 245.824 31.8252 245.523 31.3773C245.336 30.7185 246.86 28.9663 247.275 28.3484C248.688 26.438 250.329 24.6961 251.665 22.7298Z" fill="#EF9107"/>
<path d="M216.637 21.864C213.351 24.752 209.21 32.5361 212.27 40.1469C215.332 47.7586 226.748 50.6537 231.547 48.4198C236.345 46.1867 243.211 33.198 241.06 26.1657C238.91 19.1342 223.319 15.9903 216.637 21.864Z" fill="#FFC04F"/>
<path d="M226.535 40.6903C225.548 40.647 224.925 39.4773 225.117 38.5784C225.194 38.2973 225.621 38.3981 225.563 38.6862C225.556 38.8161 225.529 38.9774 225.557 39.1018C225.633 39.4072 225.743 39.7221 225.972 39.944C226.296 40.2786 226.898 40.3494 227.191 39.9385C227.518 39.5198 227.581 38.9491 227.611 38.4453C227.611 38.3816 227.627 38.3225 227.671 38.2737C227.802 38.1194 228.078 38.2147 228.082 38.4186C228.074 39.3623 227.718 40.7666 226.535 40.6903Z" fill="#474747"/>
<path d="M224.097 38.0733C223.714 37.8387 223.787 37.2121 223.998 36.8752C224.11 36.6131 224.49 36.495 224.653 36.7745C224.955 37.0405 224.601 38.3991 224.097 38.0733Z" fill="#474747"/>
<path d="M228.825 38.426C228.751 38.3591 228.725 38.2497 228.722 38.1536C228.635 37.8781 228.57 37.5703 228.7 37.2917C228.853 36.8659 229.399 36.7997 229.514 37.2854C229.602 37.6601 229.387 38.7589 228.825 38.426Z" fill="#474747"/>
<path d="M238.535 35.2655C238.41 35.2387 238.325 35.1104 238.354 34.9853C238.439 34.5948 238.52 34.2052 238.583 33.8108C238.628 33.4779 238.652 33.1433 238.674 32.808C238.7 32.6372 238.634 32.379 238.836 32.2995C238.962 32.2578 239.114 32.357 239.108 32.4932C239.134 32.9363 239.097 33.3842 239.048 33.8258C238.99 34.2485 238.905 34.668 238.815 35.0852C238.786 35.2112 238.658 35.2938 238.535 35.2655Z" fill="#FFE2A8"/>
<path d="M237.566 38.7076C237.224 38.5415 237.567 38.1369 237.628 37.8874C237.708 37.6969 237.79 37.5064 237.851 37.3081C237.866 37.1916 237.963 37.0916 238.086 37.1026C238.482 37.1837 238.161 37.6977 238.098 37.9362C237.959 38.1684 237.94 38.8147 237.566 38.7076Z" fill="#FFE2A8"/>
<path d="M221.427 27.9388C221.175 27.9002 220.976 27.6759 221.039 27.4169C221.093 27.0721 221.232 26.6597 221.606 26.5573C222.056 26.3362 222.816 26.5849 222.724 27.1721C222.559 27.6743 221.942 28.0159 221.427 27.9388Z" fill="#FFE2A8"/>
<path d="M213.576 36.1089C213.529 35.7287 213.57 35.3407 213.608 34.9613C213.665 34.5937 213.681 34.1946 213.841 33.8561C213.914 33.6491 214.242 33.72 214.22 33.9411C214.194 34.0758 214.159 34.186 214.141 34.319C214.07 34.892 213.985 35.4729 214.037 36.0515C214.058 36.3333 213.63 36.3892 213.576 36.1089Z" fill="#FFE2A8"/>
<path d="M214.554 40.5363C214.473 40.375 214.36 40.2293 214.286 40.0656C214.222 39.8681 214.167 39.6673 214.109 39.4682C213.984 39.0597 213.86 38.6283 213.937 38.1985C213.949 37.9608 214.309 37.9592 214.322 38.1985C214.29 38.4181 214.336 38.6378 214.379 38.8534C214.517 39.3603 214.66 39.8736 214.959 40.3065C215.086 40.5615 214.712 40.7764 214.554 40.5363Z" fill="#FFE2A8"/>
<path d="M219.365 22.5188C220.915 22.0811 222.543 23.4468 221.262 24.9117C220.687 25.5595 219.8 25.846 218.95 25.8043C218.252 25.7319 217.528 25.3454 217.657 24.5386C217.727 23.5838 218.432 22.7447 219.365 22.5188Z" fill="#FFE2A8"/>
<path d="M216.707 28.6412C217.63 28.5011 218.172 29.4441 218.048 30.2658C217.981 31.2749 217.031 32.5415 215.952 32.5249C215.021 32.421 214.734 31.2868 214.93 30.502C215.044 29.6023 215.805 28.7805 216.707 28.6412Z" fill="#FFE2A8"/>
<path d="M227.592 49.4722C224.839 49.4722 221.641 48.6756 218.612 47.1541C213.746 44.7108 212.039 40.4453 211.969 40.265L212.572 40.0305C212.588 40.0714 214.267 44.2488 218.902 46.5763C223.455 48.863 228.367 49.4707 231.416 48.1246L231.677 48.715C230.525 49.2243 229.127 49.4722 227.592 49.4722Z" fill="#474747"/>
</g>
</g>
<g clip-path="url(#clip5_184_19289)">
<mask id="mask45_184_19289" style="mask-type:luminance" maskUnits="userSpaceOnUse" x="-178" y="-60" width="529" height="307">
<path d="M-177.671 -59.9968H350.006V246.353H-177.671V-59.9968Z" fill="white"/>
</mask>
<g mask="url(#mask45_184_19289)">
<path d="M233.546 45.9703C233.546 45.9703 226.385 44.5347 223.081 47.8666C219.776 51.1984 223.95 58.7714 236.995 62.205C250.039 65.6379 279.78 63.9212 291.432 58.9736C303.085 54.026 304.129 46.1498 299.258 43.9287C294.389 41.7071 288.302 43.0201 288.302 43.0201C288.302 43.0201 289.253 35.7976 279.954 34.2352C273.344 33.1244 268.475 37.5671 268.475 37.5671C268.475 37.5671 265.692 30.8169 256.996 31.0038C247.3 31.2121 245.865 39.3849 245.865 39.3849C245.865 39.3849 231.981 35.267 233.546 45.9703Z" fill="#FF7D9F"/>
</g>
<mask id="mask46_184_19289" style="mask-type:luminance" maskUnits="userSpaceOnUse" x="-181" y="-59" width="528" height="307">
<path d="M-180.793 -58.4964H346.884V247.854H-180.793V-58.4964Z" fill="white"/>
</mask>
<g mask="url(#mask46_184_19289)">
<path d="M255.512 58.3724C254.697 58.207 254.025 57.8045 253.804 57.318C253.646 56.9307 253.09 55.467 254.326 55.5957C254.652 55.6716 254.693 55.8702 254.559 56.0374C254.487 56.41 254.605 56.7819 254.749 57.144C254.907 57.5392 255.538 57.8277 256.211 57.8859C257.734 57.9141 258.616 56.8021 258.455 56.0325C258.425 55.6569 259.403 55.6226 259.446 55.9988C259.722 57.2224 257.858 58.8669 255.512 58.3724Z" fill="#474747"/>
</g>
<mask id="mask47_184_19289" style="mask-type:luminance" maskUnits="userSpaceOnUse" x="-181" y="-59" width="528" height="307">
<path d="M-180.793 -58.4964H346.884V247.854H-180.793V-58.4964Z" fill="white"/>
</mask>
<g mask="url(#mask47_184_19289)">
<path d="M247.375 54.3524C245.948 54.0007 246.115 51.6295 248.069 51.814C249.954 52.0204 249.342 54.622 247.375 54.3524Z" fill="#474747"/>
</g>
<mask id="mask48_184_19289" style="mask-type:luminance" maskUnits="userSpaceOnUse" x="-181" y="-59" width="528" height="307">
<path d="M-180.793 -58.4964H346.884V247.854H-180.793V-58.4964Z" fill="white"/>
</mask>
<g mask="url(#mask48_184_19289)">
<path d="M245.341 52.5859C244.972 52.5583 244.67 52.3696 244.49 52.195C244.343 51.8182 245.136 51.7067 245.425 52.0314C245.998 52.1276 245.969 52.5859 245.341 52.5859Z" fill="#474747"/>
</g>
<mask id="mask49_184_19289" style="mask-type:luminance" maskUnits="userSpaceOnUse" x="-181" y="-59" width="528" height="307">
<path d="M-180.793 -58.4964H346.884V247.854H-180.793V-58.4964Z" fill="white"/>
</mask>
<g mask="url(#mask49_184_19289)">
<path d="M245.019 53.2277C244.754 53.1995 244.422 53.2203 244.22 53.1003C243.899 52.895 244.363 52.5697 244.768 52.7143C245.097 52.6904 245.522 52.7571 245.491 52.9924C245.473 53.1352 245.256 53.2338 245.019 53.2277Z" fill="#474747"/>
</g>
<mask id="mask50_184_19289" style="mask-type:luminance" maskUnits="userSpaceOnUse" x="-181" y="-59" width="528" height="307">
<path d="M-180.793 -58.4964H346.884V247.854H-180.793V-58.4964Z" fill="white"/>
</mask>
<g mask="url(#mask50_184_19289)">
<path d="M265.641 54.3524C267.068 54.0007 266.901 51.6295 264.947 51.814C263.062 52.0204 263.674 54.622 265.641 54.3524Z" fill="#474747"/>
</g>
<mask id="mask51_184_19289" style="mask-type:luminance" maskUnits="userSpaceOnUse" x="-181" y="-59" width="528" height="307">
<path d="M-180.793 -58.4964H346.884V247.854H-180.793V-58.4964Z" fill="white"/>
</mask>
<g mask="url(#mask51_184_19289)">
<path d="M267.676 52.5859C268.044 52.5583 268.346 52.3696 268.526 52.195C268.673 51.8182 267.88 51.7067 267.591 52.0314C267.018 52.1276 267.048 52.5859 267.676 52.5859Z" fill="#474747"/>
</g>
<mask id="mask52_184_19289" style="mask-type:luminance" maskUnits="userSpaceOnUse" x="-181" y="-59" width="528" height="307">
<path d="M-180.793 -58.4964H346.884V247.854H-180.793V-58.4964Z" fill="white"/>
</mask>
<g mask="url(#mask52_184_19289)">
<path d="M267.998 53.2277C268.263 53.1995 268.594 53.2203 268.797 53.1003C269.117 52.895 268.653 52.5697 268.248 52.7143C267.92 52.6904 267.494 52.7571 267.525 52.9924C267.544 53.1352 267.76 53.2338 267.998 53.2277Z" fill="#474747"/>
</g>
<mask id="mask53_184_19289" style="mask-type:luminance" maskUnits="userSpaceOnUse" x="-181" y="-59" width="528" height="307">
<path d="M-180.793 -58.4964H346.884V247.854H-180.793V-58.4964Z" fill="white"/>
</mask>
<g mask="url(#mask53_184_19289)">
<path d="M237.4 45.8307C235.274 45.2542 236.726 42.7844 239.025 43.2972C239.902 43.5993 240.454 44.1636 240.389 44.7585C240.36 44.9993 240.357 45.2824 240.035 45.4594C239.363 45.8546 238.308 46.0936 237.4 45.8307Z" fill="white"/>
</g>
<mask id="mask54_184_19289" style="mask-type:luminance" maskUnits="userSpaceOnUse" x="-181" y="-59" width="528" height="307">
<path d="M-180.793 -58.4964H346.884V247.854H-180.793V-58.4964Z" fill="white"/>
</mask>
<g mask="url(#mask54_184_19289)">
<path d="M237.912 50.0337C237.33 50.0227 237.024 49.5957 237.206 49.3065C237.392 49.0595 237.88 48.8714 238.35 48.9266C239.412 49.0675 238.933 50.1563 237.912 50.0337Z" fill="white"/>
</g>
<mask id="mask55_184_19289" style="mask-type:luminance" maskUnits="userSpaceOnUse" x="-181" y="-59" width="528" height="307">
<path d="M-180.793 -58.4964H346.884V247.854H-180.793V-58.4964Z" fill="white"/>
</mask>
<g mask="url(#mask55_184_19289)">
<path d="M241.876 48.6837C240.065 48.3412 240.764 46.6581 242.508 46.5852C243.743 46.5521 244.357 47.4504 243.915 48.0379C243.616 48.5036 242.7 48.7622 241.876 48.6837Z" fill="white"/>
</g>
<mask id="mask56_184_19289" style="mask-type:luminance" maskUnits="userSpaceOnUse" x="-181" y="-59" width="528" height="307">
<path d="M-180.793 -58.4964H346.884V247.854H-180.793V-58.4964Z" fill="white"/>
</mask>
<g mask="url(#mask56_184_19289)">
<path d="M288.031 55.2767C287.441 55.254 287.013 54.9035 287.119 54.5721C287.004 54.0837 287.865 53.6254 288.688 53.6873C290.347 53.8521 289.442 55.3637 288.031 55.2767Z" fill="white"/>
</g>
<mask id="mask57_184_19289" style="mask-type:luminance" maskUnits="userSpaceOnUse" x="-181" y="-59" width="528" height="307">
<path d="M-180.793 -58.4964H346.884V247.854H-180.793V-58.4964Z" fill="white"/>
</mask>
<g mask="url(#mask57_184_19289)">
<path d="M287.129 58.935C286.65 58.7977 286.253 58.5275 286.08 58.2359C285.846 57.5828 287.008 56.7752 288.195 57.0252C290.172 57.4467 289.217 59.389 287.129 58.935Z" fill="white"/>
</g>
<mask id="mask58_184_19289" style="mask-type:luminance" maskUnits="userSpaceOnUse" x="-181" y="-59" width="528" height="307">
<path d="M-180.793 -58.4964H346.884V247.854H-180.793V-58.4964Z" fill="white"/>
</mask>
<g mask="url(#mask58_184_19289)">
<path d="M265.207 39.7064L264.859 39.1764C264.843 39.1525 263.267 36.7587 261.357 34.9941C259.548 33.3227 255.416 32.9765 255.373 32.9728L255.517 32.3663C255.706 32.381 260.182 32.7572 262.251 34.6682C263.702 36.0094 264.934 37.6526 265.506 38.4626C266.938 37.4756 270.826 35.1528 275.658 35.2858L275.606 35.8973C270.202 35.7582 265.822 39.212 265.78 39.2469L265.207 39.7064Z" fill="#474747"/>
</g>
</g>
<g clip-path="url(#clip6_184_19289)">
<mask id="mask59_184_19289" style="mask-type:luminance" maskUnits="userSpaceOnUse" x="425" y="-105" width="443" height="353">
<path d="M425.276 -104.784H867.205V247.983H425.276V-104.784Z" fill="white"/>
</mask>
<g mask="url(#mask59_184_19289)">
<path d="M769.67 17.2385C769.67 17.2385 763.673 15.5854 760.905 19.4221C758.137 23.2588 761.634 31.9792 772.558 35.933C783.483 39.8861 808.391 37.9092 818.149 32.212C827.909 26.5148 828.783 17.4452 824.704 14.8876C820.626 12.3294 815.528 13.8413 815.528 13.8413C815.528 13.8413 816.324 5.52449 808.536 3.72538C803.001 2.44625 798.923 7.56207 798.923 7.56207C798.923 7.56207 796.592 -0.210797 789.309 0.00439091C781.189 0.244272 779.987 9.65539 779.987 9.65539C779.987 9.65539 768.359 4.9135 769.67 17.2385Z" fill="#FF7D9F"/>
</g>
<mask id="mask60_184_19289" style="mask-type:luminance" maskUnits="userSpaceOnUse" x="422" y="-104" width="443" height="354">
<path d="M422.661 -103.056H864.59V249.711H422.661V-103.056Z" fill="white"/>
</mask>
<g mask="url(#mask60_184_19289)">
<path d="M788.066 31.5198C787.384 31.3293 786.821 30.8658 786.636 30.3056C786.504 29.8597 786.038 28.1742 787.073 28.3224C787.346 28.4098 787.38 28.6384 787.268 28.8311C787.208 29.26 787.307 29.6883 787.427 30.1052C787.56 30.5603 788.088 30.8926 788.651 30.9596C789.927 30.9921 790.666 29.7116 790.531 28.8254C790.506 28.3929 791.325 28.3534 791.361 28.7866C791.592 30.1956 790.031 32.0892 788.066 31.5198Z" fill="#474747"/>
</g>
<mask id="mask61_184_19289" style="mask-type:luminance" maskUnits="userSpaceOnUse" x="422" y="-104" width="443" height="354">
<path d="M422.661 -103.056H864.59V249.711H422.661V-103.056Z" fill="white"/>
</mask>
<g mask="url(#mask61_184_19289)">
<path d="M781.252 26.8907C780.057 26.4857 780.196 23.7553 781.833 23.9676C783.412 24.2054 782.899 27.2011 781.252 26.8907Z" fill="#474747"/>
</g>
<mask id="mask62_184_19289" style="mask-type:luminance" maskUnits="userSpaceOnUse" x="422" y="-104" width="443" height="354">
<path d="M422.661 -103.056H864.59V249.711H422.661V-103.056Z" fill="white"/>
</mask>
<g mask="url(#mask62_184_19289)">
<path d="M779.548 24.8564C779.239 24.8247 778.986 24.6074 778.835 24.4063C778.712 23.9724 779.376 23.844 779.618 24.2179C780.098 24.3287 780.074 24.8564 779.548 24.8564Z" fill="#474747"/>
</g>
<mask id="mask63_184_19289" style="mask-type:luminance" maskUnits="userSpaceOnUse" x="422" y="-104" width="443" height="354">
<path d="M422.661 -103.056H864.59V249.711H422.661V-103.056Z" fill="white"/>
</mask>
<g mask="url(#mask63_184_19289)">
<path d="M779.278 25.5956C779.056 25.5631 778.779 25.5871 778.609 25.4488C778.34 25.2125 778.729 24.8378 779.068 25.0043C779.343 24.9768 779.7 25.0537 779.674 25.3247C779.659 25.489 779.477 25.6026 779.278 25.5956Z" fill="#474747"/>
</g>
<mask id="mask64_184_19289" style="mask-type:luminance" maskUnits="userSpaceOnUse" x="422" y="-104" width="443" height="354">
<path d="M422.661 -103.056H864.59V249.711H422.661V-103.056Z" fill="white"/>
</mask>
<g mask="url(#mask64_184_19289)">
<path d="M796.549 26.8907C797.744 26.4857 797.605 23.7553 795.968 23.9676C794.389 24.2054 794.902 27.2011 796.549 26.8907Z" fill="#474747"/>
</g>
<mask id="mask65_184_19289" style="mask-type:luminance" maskUnits="userSpaceOnUse" x="422" y="-104" width="443" height="354">
<path d="M422.661 -103.056H864.59V249.711H422.661V-103.056Z" fill="white"/>
</mask>
<g mask="url(#mask65_184_19289)">
<path d="M798.253 24.8564C798.562 24.8247 798.815 24.6074 798.966 24.4063C799.089 23.9724 798.425 23.844 798.183 24.2179C797.703 24.3287 797.727 24.8564 798.253 24.8564Z" fill="#474747"/>
</g>
<mask id="mask66_184_19289" style="mask-type:luminance" maskUnits="userSpaceOnUse" x="422" y="-104" width="443" height="354">
<path d="M422.661 -103.056H864.59V249.711H422.661V-103.056Z" fill="white"/>
</mask>
<g mask="url(#mask66_184_19289)">
<path d="M798.523 25.5956C798.745 25.5631 799.022 25.5871 799.192 25.4488C799.461 25.2125 799.072 24.8378 798.732 25.0043C798.458 24.9768 798.101 25.0537 798.127 25.3247C798.143 25.489 798.324 25.6026 798.523 25.5956Z" fill="#474747"/>
</g>
<mask id="mask67_184_19289" style="mask-type:luminance" maskUnits="userSpaceOnUse" x="422" y="-104" width="443" height="354">
<path d="M422.661 -103.056H864.59V249.711H422.661V-103.056Z" fill="white"/>
</mask>
<g mask="url(#mask67_184_19289)">
<path d="M772.897 17.0778C771.117 16.4139 772.333 13.5699 774.258 14.1604C774.993 14.5083 775.455 15.1581 775.401 15.8431C775.376 16.1204 775.374 16.4464 775.104 16.6503C774.541 17.1053 773.658 17.3805 772.897 17.0778Z" fill="white"/>
</g>
<mask id="mask68_184_19289" style="mask-type:luminance" maskUnits="userSpaceOnUse" x="422" y="-104" width="443" height="354">
<path d="M422.661 -103.056H864.59V249.711H422.661V-103.056Z" fill="white"/>
</mask>
<g mask="url(#mask68_184_19289)">
<path d="M773.327 21.9177C772.839 21.905 772.582 21.4132 772.735 21.0802C772.891 20.7959 773.299 20.5793 773.693 20.6428C774.583 20.805 774.181 22.0588 773.327 21.9177Z" fill="white"/>
</g>
<mask id="mask69_184_19289" style="mask-type:luminance" maskUnits="userSpaceOnUse" x="422" y="-104" width="443" height="354">
<path d="M422.661 -103.056H864.59V249.711H422.661V-103.056Z" fill="white"/>
</mask>
<g mask="url(#mask69_184_19289)">
<path d="M776.646 20.3631C775.13 19.9687 775.715 18.0306 777.175 17.9467C778.21 17.9086 778.724 18.9429 778.354 19.6195C778.103 20.1557 777.336 20.4534 776.646 20.3631Z" fill="white"/>
</g>
<mask id="mask70_184_19289" style="mask-type:luminance" maskUnits="userSpaceOnUse" x="422" y="-104" width="443" height="354">
<path d="M422.661 -103.056H864.59V249.711H422.661V-103.056Z" fill="white"/>
</mask>
<g mask="url(#mask70_184_19289)">
<path d="M815.301 27.9549C814.807 27.9288 814.448 27.5253 814.537 27.1436C814.441 26.5813 815.161 26.0535 815.851 26.1248C817.24 26.3146 816.483 28.0551 815.301 27.9549Z" fill="white"/>
</g>
<mask id="mask71_184_19289" style="mask-type:luminance" maskUnits="userSpaceOnUse" x="422" y="-104" width="443" height="354">
<path d="M422.661 -103.056H864.59V249.711H422.661V-103.056Z" fill="white"/>
</mask>
<g mask="url(#mask71_184_19289)">
<path d="M814.545 32.1676C814.144 32.0096 813.812 31.6984 813.667 31.3626C813.471 30.6105 814.444 29.6806 815.438 29.9685C817.094 30.4539 816.294 32.6904 814.545 32.1676Z" fill="white"/>
</g>
<mask id="mask72_184_19289" style="mask-type:luminance" maskUnits="userSpaceOnUse" x="422" y="-104" width="443" height="354">
<path d="M422.661 -103.056H864.59V249.711H422.661V-103.056Z" fill="white"/>
</mask>
<g mask="url(#mask72_184_19289)">
<path d="M796.186 10.0256L795.894 9.41535C795.881 9.38783 794.561 6.63131 792.962 4.59937C791.447 2.67468 787.986 2.27605 787.95 2.27182L788.07 1.57334C788.229 1.59027 791.977 2.02347 793.71 4.22403C794.926 5.76844 795.957 7.66068 796.436 8.5934C797.636 7.45679 800.892 4.78211 804.939 4.93521L804.895 5.63933C800.369 5.47917 796.701 9.45627 796.666 9.49648L796.186 10.0256Z" fill="#474747"/>
</g>
</g>
<g clip-path="url(#clip7_184_19289)">
<mask id="mask73_184_19289" style="mask-type:luminance" maskUnits="userSpaceOnUse" x="-250" y="-60" width="529" height="307">
<path d="M-249.671 -59.9968H278.006V246.353H-249.671V-59.9968Z" fill="white"/>
</mask>
<g mask="url(#mask73_184_19289)">
<path d="M161.546 45.9703C161.546 45.9703 154.385 44.5347 151.081 47.8666C147.776 51.1984 151.95 58.7714 164.995 62.205C178.039 65.6379 207.78 63.9212 219.432 58.9736C231.085 54.026 232.129 46.1498 227.258 43.9287C222.389 41.7071 216.302 43.0201 216.302 43.0201C216.302 43.0201 217.253 35.7976 207.954 34.2352C201.344 33.1244 196.475 37.5671 196.475 37.5671C196.475 37.5671 193.692 30.8169 184.996 31.0038C175.3 31.2121 173.865 39.3849 173.865 39.3849C173.865 39.3849 159.981 35.267 161.546 45.9703Z" fill="#FF7D9F"/>
</g>
<mask id="mask74_184_19289" style="mask-type:luminance" maskUnits="userSpaceOnUse" x="-253" y="-59" width="528" height="307">
<path d="M-252.793 -58.4964H274.884V247.854H-252.793V-58.4964Z" fill="white"/>
</mask>
<g mask="url(#mask74_184_19289)">
<path d="M183.512 58.3724C182.697 58.207 182.025 57.8045 181.804 57.318C181.646 56.9307 181.09 55.467 182.326 55.5957C182.652 55.6716 182.693 55.8702 182.559 56.0374C182.487 56.41 182.605 56.7819 182.749 57.144C182.907 57.5392 183.538 57.8277 184.211 57.8859C185.734 57.9141 186.616 56.8021 186.455 56.0325C186.425 55.6569 187.403 55.6226 187.446 55.9988C187.722 57.2224 185.858 58.8669 183.512 58.3724Z" fill="#474747"/>
</g>
<mask id="mask75_184_19289" style="mask-type:luminance" maskUnits="userSpaceOnUse" x="-253" y="-59" width="528" height="307">
<path d="M-252.793 -58.4964H274.884V247.854H-252.793V-58.4964Z" fill="white"/>
</mask>
<g mask="url(#mask75_184_19289)">
<path d="M175.375 54.3524C173.948 54.0007 174.115 51.6295 176.069 51.814C177.954 52.0204 177.342 54.622 175.375 54.3524Z" fill="#474747"/>
</g>
<mask id="mask76_184_19289" style="mask-type:luminance" maskUnits="userSpaceOnUse" x="-253" y="-59" width="528" height="307">
<path d="M-252.793 -58.4964H274.884V247.854H-252.793V-58.4964Z" fill="white"/>
</mask>
<g mask="url(#mask76_184_19289)">
<path d="M173.341 52.5859C172.972 52.5583 172.67 52.3696 172.49 52.195C172.343 51.8182 173.136 51.7067 173.425 52.0314C173.998 52.1276 173.969 52.5859 173.341 52.5859Z" fill="#474747"/>
</g>
<mask id="mask77_184_19289" style="mask-type:luminance" maskUnits="userSpaceOnUse" x="-253" y="-59" width="528" height="307">
<path d="M-252.793 -58.4964H274.884V247.854H-252.793V-58.4964Z" fill="white"/>
</mask>
<g mask="url(#mask77_184_19289)">
<path d="M173.019 53.2277C172.754 53.1995 172.422 53.2203 172.22 53.1003C171.899 52.895 172.363 52.5697 172.768 52.7143C173.097 52.6904 173.522 52.7571 173.491 52.9924C173.473 53.1352 173.256 53.2338 173.019 53.2277Z" fill="#474747"/>
</g>
<mask id="mask78_184_19289" style="mask-type:luminance" maskUnits="userSpaceOnUse" x="-253" y="-59" width="528" height="307">
<path d="M-252.793 -58.4964H274.884V247.854H-252.793V-58.4964Z" fill="white"/>
</mask>
<g mask="url(#mask78_184_19289)">
<path d="M193.641 54.3524C195.068 54.0007 194.901 51.6295 192.947 51.814C191.062 52.0204 191.674 54.622 193.641 54.3524Z" fill="#474747"/>
</g>
<mask id="mask79_184_19289" style="mask-type:luminance" maskUnits="userSpaceOnUse" x="-253" y="-59" width="528" height="307">
<path d="M-252.793 -58.4964H274.884V247.854H-252.793V-58.4964Z" fill="white"/>
</mask>
<g mask="url(#mask79_184_19289)">
<path d="M195.676 52.5859C196.044 52.5583 196.346 52.3696 196.526 52.195C196.673 51.8182 195.88 51.7067 195.591 52.0314C195.018 52.1276 195.048 52.5859 195.676 52.5859Z" fill="#474747"/>
</g>
<mask id="mask80_184_19289" style="mask-type:luminance" maskUnits="userSpaceOnUse" x="-253" y="-59" width="528" height="307">
<path d="M-252.793 -58.4964H274.884V247.854H-252.793V-58.4964Z" fill="white"/>
</mask>
<g mask="url(#mask80_184_19289)">
<path d="M195.998 53.2277C196.263 53.1995 196.594 53.2203 196.797 53.1003C197.117 52.895 196.653 52.5697 196.248 52.7143C195.92 52.6904 195.494 52.7571 195.525 52.9924C195.544 53.1352 195.76 53.2338 195.998 53.2277Z" fill="#474747"/>
</g>
<mask id="mask81_184_19289" style="mask-type:luminance" maskUnits="userSpaceOnUse" x="-253" y="-59" width="528" height="307">
<path d="M-252.793 -58.4964H274.884V247.854H-252.793V-58.4964Z" fill="white"/>
</mask>
<g mask="url(#mask81_184_19289)">
<path d="M165.4 45.8307C163.274 45.2542 164.726 42.7844 167.025 43.2972C167.902 43.5993 168.454 44.1636 168.389 44.7585C168.36 44.9993 168.357 45.2824 168.035 45.4594C167.363 45.8546 166.308 46.0936 165.4 45.8307Z" fill="white"/>
</g>
<mask id="mask82_184_19289" style="mask-type:luminance" maskUnits="userSpaceOnUse" x="-253" y="-59" width="528" height="307">
<path d="M-252.793 -58.4964H274.884V247.854H-252.793V-58.4964Z" fill="white"/>
</mask>
<g mask="url(#mask82_184_19289)">
<path d="M165.912 50.0337C165.33 50.0227 165.024 49.5957 165.206 49.3065C165.392 49.0595 165.88 48.8714 166.35 48.9266C167.412 49.0675 166.933 50.1563 165.912 50.0337Z" fill="white"/>
</g>
<mask id="mask83_184_19289" style="mask-type:luminance" maskUnits="userSpaceOnUse" x="-253" y="-59" width="528" height="307">
<path d="M-252.793 -58.4964H274.884V247.854H-252.793V-58.4964Z" fill="white"/>
</mask>
<g mask="url(#mask83_184_19289)">
<path d="M169.876 48.6837C168.065 48.3412 168.764 46.6581 170.508 46.5852C171.743 46.5521 172.357 47.4504 171.915 48.0379C171.616 48.5036 170.7 48.7622 169.876 48.6837Z" fill="white"/>
</g>
<mask id="mask84_184_19289" style="mask-type:luminance" maskUnits="userSpaceOnUse" x="-253" y="-59" width="528" height="307">
<path d="M-252.793 -58.4964H274.884V247.854H-252.793V-58.4964Z" fill="white"/>
</mask>
<g mask="url(#mask84_184_19289)">
<path d="M216.031 55.2767C215.441 55.254 215.013 54.9035 215.119 54.5721C215.004 54.0837 215.865 53.6254 216.688 53.6873C218.347 53.8521 217.442 55.3637 216.031 55.2767Z" fill="white"/>
</g>
<mask id="mask85_184_19289" style="mask-type:luminance" maskUnits="userSpaceOnUse" x="-253" y="-59" width="528" height="307">
<path d="M-252.793 -58.4964H274.884V247.854H-252.793V-58.4964Z" fill="white"/>
</mask>
<g mask="url(#mask85_184_19289)">
<path d="M215.129 58.935C214.65 58.7977 214.253 58.5275 214.08 58.2359C213.846 57.5828 215.008 56.7752 216.195 57.0252C218.172 57.4467 217.217 59.389 215.129 58.935Z" fill="white"/>
</g>
<mask id="mask86_184_19289" style="mask-type:luminance" maskUnits="userSpaceOnUse" x="-253" y="-59" width="528" height="307">
<path d="M-252.793 -58.4964H274.884V247.854H-252.793V-58.4964Z" fill="white"/>
</mask>
<g mask="url(#mask86_184_19289)">
<path d="M193.207 39.7064L192.859 39.1764C192.843 39.1525 191.267 36.7587 189.357 34.9941C187.548 33.3227 183.416 32.9765 183.373 32.9728L183.517 32.3663C183.706 32.381 188.182 32.7572 190.251 34.6682C191.702 36.0094 192.934 37.6526 193.506 38.4626C194.938 37.4756 198.826 35.1528 203.658 35.2858L203.606 35.8973C198.202 35.7582 193.822 39.212 193.78 39.2469L193.207 39.7064Z" fill="#474747"/>
</g>
</g>
<g clip-path="url(#clip8_184_19289)">
<mask id="mask87_184_19289" style="mask-type:luminance" maskUnits="userSpaceOnUse" x="94" y="-63" width="534" height="316">
<path d="M94.6486 -53.8742L622.256 -62.4056L627.209 243.905L99.6017 252.436L94.6486 -53.8742Z" fill="white"/>
</mask>
<g mask="url(#mask87_184_19289)">
<path d="M507.525 45.4305C507.525 45.4305 500.342 44.1109 497.092 47.4958C493.841 50.8807 498.138 58.3851 511.236 61.6074C524.334 64.829 554.043 62.6316 565.614 57.4963C577.185 52.3609 578.102 44.4688 573.196 42.3268C568.291 40.1842 562.226 41.5955 562.226 41.5955C562.226 41.5955 563.06 34.3585 553.737 32.9467C547.11 31.9429 542.313 36.4637 542.313 36.4637C542.313 36.4637 539.422 29.7595 530.73 30.0869C521.039 30.452 519.736 38.6469 519.736 38.6469C519.736 38.6469 505.787 34.754 507.525 45.4305Z" fill="#FF7D9F"/>
</g>
<mask id="mask88_184_19289" style="mask-type:luminance" maskUnits="userSpaceOnUse" x="91" y="-61" width="534" height="315">
<path d="M91.5514 -52.3234L619.159 -60.8549L624.112 245.455L96.5045 253.987L91.5514 -52.3234Z" fill="white"/>
</mask>
<g mask="url(#mask88_184_19289)">
<path d="M529.689 57.476C528.871 57.3237 528.193 56.9321 527.964 56.4493C527.8 56.0646 527.22 54.6101 528.458 54.7188C528.785 54.7894 528.829 54.9873 528.698 55.1567C528.632 55.5303 528.756 55.9003 528.906 56.26C529.071 56.6526 529.706 56.9309 530.379 56.9783C531.902 56.9818 532.767 55.8556 532.594 55.0888C532.557 54.7137 533.535 54.6636 533.584 55.0391C533.879 56.258 532.042 57.9324 529.689 57.476Z" fill="#474747"/>
</g>
<mask id="mask89_184_19289" style="mask-type:luminance" maskUnits="userSpaceOnUse" x="91" y="-61" width="534" height="315">
<path d="M91.5514 -52.3234L619.159 -60.8549L624.112 245.455L96.5045 253.987L91.5514 -52.3234Z" fill="white"/>
</mask>
<g mask="url(#mask89_184_19289)">
<path d="M521.488 53.588C520.056 53.2594 520.184 50.8859 522.141 51.0387C524.029 51.2147 523.459 53.8258 521.488 53.588Z" fill="#474747"/>
</g>
<mask id="mask90_184_19289" style="mask-type:luminance" maskUnits="userSpaceOnUse" x="91" y="-61" width="534" height="315">
<path d="M91.5514 -52.3234L619.159 -60.8549L624.112 245.455L96.5045 253.987L91.5514 -52.3234Z" fill="white"/>
</mask>
<g mask="url(#mask90_184_19289)">
<path d="M519.425 51.8546C519.056 51.833 518.752 51.6492 518.568 51.4775C518.415 51.1031 519.206 50.9788 519.501 51.2988C520.075 51.3857 520.053 51.8445 519.425 51.8546Z" fill="#474747"/>
</g>
<mask id="mask91_184_19289" style="mask-type:luminance" maskUnits="userSpaceOnUse" x="91" y="-61" width="534" height="315">
<path d="M91.5514 -52.3234L619.159 -60.8549L624.112 245.455L96.5045 253.987L91.5514 -52.3234Z" fill="white"/>
</mask>
<g mask="url(#mask91_184_19289)">
<path d="M519.113 52.5016C518.848 52.4777 518.517 52.5039 518.312 52.3871C517.988 52.187 518.447 51.8542 518.855 51.9922C519.183 51.963 519.609 52.0229 519.582 52.2587C519.567 52.4017 519.351 52.5038 519.113 52.5016Z" fill="#474747"/>
</g>
<mask id="mask92_184_19289" style="mask-type:luminance" maskUnits="userSpaceOnUse" x="91" y="-61" width="534" height="315">
<path d="M91.5514 -52.3234L619.159 -60.8549L624.112 245.455L96.5045 253.987L91.5514 -52.3234Z" fill="white"/>
</mask>
<g mask="url(#mask92_184_19289)">
<path d="M539.752 53.2927C541.173 52.9179 540.968 50.5498 539.016 50.7658C537.135 51.0027 537.789 53.594 539.752 53.2927Z" fill="#474747"/>
</g>
<mask id="mask93_184_19289" style="mask-type:luminance" maskUnits="userSpaceOnUse" x="91" y="-61" width="534" height="315">
<path d="M91.5514 -52.3234L619.159 -60.8549L624.112 245.455L96.5045 253.987L91.5514 -52.3234Z" fill="white"/>
</mask>
<g mask="url(#mask93_184_19289)">
<path d="M541.757 51.4935C542.125 51.46 542.424 51.2664 542.601 51.0889C542.742 50.7097 541.948 50.6111 541.664 50.9404C541.092 51.0459 541.129 51.5036 541.757 51.4935Z" fill="#474747"/>
</g>
<mask id="mask94_184_19289" style="mask-type:luminance" maskUnits="userSpaceOnUse" x="91" y="-61" width="534" height="315">
<path d="M91.5514 -52.3234L619.159 -60.8549L624.112 245.455L96.5045 253.987L91.5514 -52.3234Z" fill="white"/>
</mask>
<g mask="url(#mask94_184_19289)">
<path d="M542.09 52.13C542.354 52.0975 542.686 52.113 542.886 51.9897C543.204 51.7792 542.734 51.4614 542.331 51.6126C542.003 51.594 541.579 51.6676 541.613 51.9024C541.634 52.0448 541.852 52.14 542.09 52.13Z" fill="#474747"/>
</g>
<mask id="mask95_184_19289" style="mask-type:luminance" maskUnits="userSpaceOnUse" x="91" y="-61" width="534" height="315">
<path d="M91.5514 -52.3234L619.159 -60.8549L624.112 245.455L96.5045 253.987L91.5514 -52.3234Z" fill="white"/>
</mask>
<g mask="url(#mask95_184_19289)">
<path d="M511.376 45.2287C509.241 44.6866 510.653 42.1936 512.96 42.6692C513.842 42.9571 514.403 43.5124 514.348 44.1083C514.322 44.3495 514.324 44.6326 514.005 44.8148C513.339 45.2208 512.289 45.4768 511.376 45.2287Z" fill="white"/>
</g>
<mask id="mask96_184_19289" style="mask-type:luminance" maskUnits="userSpaceOnUse" x="91" y="-61" width="534" height="315">
<path d="M91.5514 -52.3234L619.159 -60.8549L624.112 245.455L96.5045 253.987L91.5514 -52.3234Z" fill="white"/>
</mask>
<g mask="url(#mask96_184_19289)">
<path d="M511.957 49.4228C511.374 49.4212 511.061 48.9992 511.239 48.7071C511.421 48.4572 511.905 48.2612 512.377 48.3088C513.44 48.4325 512.979 49.5289 511.957 49.4228Z" fill="white"/>
</g>
<mask id="mask97_184_19289" style="mask-type:luminance" maskUnits="userSpaceOnUse" x="91" y="-61" width="534" height="315">
<path d="M91.5514 -52.3234L619.159 -60.8549L624.112 245.455L96.5045 253.987L91.5514 -52.3234Z" fill="white"/>
</mask>
<g mask="url(#mask97_184_19289)">
<path d="M515.898 48.009C514.082 47.6958 514.753 46.0016 516.495 45.9005C517.731 45.8475 518.358 46.7357 517.927 47.3303C517.634 47.8007 516.723 48.0741 515.898 48.009Z" fill="white"/>
</g>
<mask id="mask98_184_19289" style="mask-type:luminance" maskUnits="userSpaceOnUse" x="91" y="-61" width="534" height="315">
<path d="M91.5514 -52.3234L619.159 -60.8549L624.112 245.455L96.5045 253.987L91.5514 -52.3234Z" fill="white"/>
</mask>
<g mask="url(#mask98_184_19289)">
<path d="M562.154 53.8548C561.563 53.8417 561.129 53.4982 561.231 53.165C561.108 52.6786 561.96 52.2065 562.784 52.255C564.446 52.393 563.566 53.919 562.154 53.8548Z" fill="white"/>
</g>
<mask id="mask99_184_19289" style="mask-type:luminance" maskUnits="userSpaceOnUse" x="91" y="-61" width="534" height="315">
<path d="M91.5514 -52.3234L619.159 -60.8549L624.112 245.455L96.5045 253.987L91.5514 -52.3234Z" fill="white"/>
</mask>
<g mask="url(#mask99_184_19289)">
<path d="M561.31 57.5273C560.829 57.3978 560.428 57.1341 560.25 56.8453C560.006 56.196 561.155 55.3698 562.345 55.6005C564.33 55.99 563.406 57.9475 561.31 57.5273Z" fill="white"/>
</g>
<mask id="mask100_184_19289" style="mask-type:luminance" maskUnits="userSpaceOnUse" x="91" y="-61" width="534" height="315">
<path d="M91.5514 -52.3234L619.159 -60.8549L624.112 245.455L96.5045 253.987L91.5514 -52.3234Z" fill="white"/>
</mask>
<g mask="url(#mask100_184_19289)">
<path d="M539.081 38.6556L538.724 38.1314C538.708 38.1077 537.094 35.7397 535.155 34.0062C533.32 32.3642 529.182 32.0849 529.139 32.0819L529.273 31.4731C529.462 31.4848 533.943 31.7886 536.044 33.6659C537.516 34.9834 538.774 36.6066 539.359 37.4072C540.775 36.3971 544.625 34.0118 549.459 34.0666L549.416 34.6789C544.011 34.6272 539.688 38.1513 539.646 38.1869L539.081 38.6556Z" fill="#474747"/>
</g>
</g>
<defs>
<clipPath id="clip0_184_19289">
<rect width="50" height="40.2486" fill="white" transform="translate(36.2893 16) rotate(64.3728)"/>
</clipPath>
<clipPath id="clip1_184_19289">
<rect width="50" height="40.2486" fill="white" transform="translate(669.579 52.2313) rotate(-82.0752)"/>
</clipPath>
<clipPath id="clip2_184_19289">
<rect width="30" height="24.1492" fill="white" transform="translate(370.64 19) rotate(40.365)"/>
</clipPath>
<clipPath id="clip3_184_19289">
<rect width="30" height="24.1492" fill="white" transform="translate(515.64 13) rotate(40.365)"/>
</clipPath>
<clipPath id="clip4_184_19289">
<rect width="50" height="47.5441" fill="white" transform="translate(202 9)"/>
</clipPath>
<clipPath id="clip5_184_19289">
<rect width="80" height="33" fill="white" transform="translate(222 31)"/>
</clipPath>
<clipPath id="clip6_184_19289">
<rect width="67" height="38" fill="white" transform="translate(760)"/>
</clipPath>
<clipPath id="clip7_184_19289">
<rect width="80" height="33" fill="white" transform="translate(150 31)"/>
</clipPath>
<clipPath id="clip8_184_19289">
<rect width="80" height="33" fill="white" transform="translate(495.739 30.6489) rotate(-0.9264)"/>
</clipPath>
</defs>
</svg>
