<svg width="379" height="64" viewBox="0 0 379 64" fill="none" xmlns="http://www.w3.org/2000/svg">
<g clip-path="url(#clip0_187_38695)">
<mask id="mask0_187_38695" style="mask-type:luminance" maskUnits="userSpaceOnUse" x="-259" y="14" width="490" height="276">
<path d="M-258.731 14V289.138H230.403V14L-258.731 14Z" fill="white"/>
</mask>
<g mask="url(#mask0_187_38695)">
<path d="M46.6418 5.54694C41.4468 0.253334 32.9723 3.27374 36.3076 11.5179C39.6429 19.7619 51.8368 10.8405 46.6418 5.54694Z" fill="#EAFFFE"/>
</g>
<mask id="mask1_187_38695" style="mask-type:luminance" maskUnits="userSpaceOnUse" x="-288" y="16" width="490" height="276">
<path d="M-287.975 16.769V291.907H201.159V16.769L-287.975 16.769Z" fill="white"/>
</mask>
<g mask="url(#mask1_187_38695)">
<path d="M43.6974 57.2691C38.0046 57.7499 32.3727 56.39 27.0012 54.6138C20.3306 52.4321 14.1407 49.0626 8.68458 44.6581C7.06636 43.3395 5.4856 41.9776 3.97514 40.5351C3.60549 40.3359 3.48168 39.8246 3.74536 39.4927C3.97872 39.1895 4.40567 39.1482 4.71062 39.3689C5.43719 39.9844 6.10467 40.6821 6.83302 41.2959C10.0231 44.1074 13.4445 46.6766 17.1334 48.763C23.8901 52.484 31.3537 55.1162 39.0272 55.911C50.4381 56.2825 61.838 53.0099 71.747 47.4426C76.0781 44.9289 80.2872 42.2071 84.8425 40.0993C89.3388 37.8959 94.0987 35.9887 99.1528 35.8023C108.05 35.5223 116.393 39.2415 124.49 42.4817C131.133 44.9684 137.745 47.7494 144.702 49.2295C153.19 50.8228 162.233 50.2845 170.149 46.6855C177.128 43.4182 182.93 38.2385 189.368 34.0995C195.943 30.0053 203.446 26.0438 211.432 27.4093C213.917 27.6979 221.23 29.4328 221.623 31.2576C221.618 31.6128 221.33 31.9106 220.97 31.9106C220.432 31.8408 220.132 31.3043 219.628 31.1178C214.872 29.0525 209.46 27.9455 204.297 28.8318C198.378 30.1757 192.979 33.3227 187.993 36.6544C181.906 40.8579 176.131 45.7256 169.245 48.589C161.094 51.788 152.017 52.2061 143.491 50.378C137.49 49.0267 131.765 46.6514 125.997 44.545C117.263 41.1952 108.394 36.7729 98.8117 37.1999C94.0556 37.4653 89.7334 39.2649 85.5172 41.2994C81.64 43.1474 78.0069 45.2484 74.3774 47.5178C65.0963 53.1462 54.5412 56.5785 43.6974 57.2691Z" fill="#E5E5E5"/>
</g>
<mask id="mask2_187_38695" style="mask-type:luminance" maskUnits="userSpaceOnUse" x="-288" y="16" width="490" height="276">
<path d="M-287.975 16.769V291.907H201.159V16.769L-287.975 16.769Z" fill="white"/>
</mask>
<g mask="url(#mask2_187_38695)">
<path d="M191.591 46.3601C191.745 45.605 191.499 44.9026 191.565 44.0899C191.643 42.6286 191.655 41.1678 191.692 39.7058C194.555 39.2544 197.401 38.6985 200.266 38.2585C201.211 38.0812 202.167 37.9171 203.092 37.6527C203.221 37.6183 203.321 37.5376 203.392 37.4374C203.5 37.3587 203.579 37.2392 203.6 37.0894C203.648 36.7381 203.322 36.4263 202.976 36.4948C202.92 36.4795 202.865 36.463 202.809 36.4477C202.733 36.424 202.657 36.4018 202.58 36.383C201.295 36.0225 200.022 35.621 198.74 35.2514C196.545 34.5523 194.327 33.9343 192.109 33.3162C192.443 31.4257 193.003 29.5848 193.766 27.8206C193.934 27.161 193.046 26.8963 192.678 27.3898C191.175 28.9153 190.011 30.733 188.574 32.3173C187.576 32.0279 186.579 31.7311 185.587 31.4167C183.466 30.8407 181.416 30.0413 179.266 29.5672C179.001 29.4997 178.72 29.451 178.502 29.6686C177.803 30.4319 179.641 31.6203 180.092 32.2154C181.47 33.6382 182.902 35.0053 184.31 36.3945C183.245 37.3274 182.198 38.2883 180.972 39.007C179.914 39.7015 178.685 40.2077 177.724 41.0242C176.663 43.6994 186.646 40.5131 187.807 40.3941C188.672 42.0524 189.526 43.7167 190.256 45.4396C190.404 45.7614 190.513 46.102 190.668 46.4189C190.865 46.7835 191.441 46.7425 191.591 46.3601Z" fill="#FFC04F"/>
</g>
<mask id="mask3_187_38695" style="mask-type:luminance" maskUnits="userSpaceOnUse" x="-288" y="16" width="490" height="276">
<path d="M-287.975 16.769V291.907H201.159V16.769L-287.975 16.769Z" fill="white"/>
</mask>
<g mask="url(#mask3_187_38695)">
<path d="M100.6 46.3601C100.754 45.605 100.508 44.9026 100.574 44.0899C100.653 42.6286 100.665 41.1678 100.701 39.7058C103.565 39.2544 106.411 38.6985 109.275 38.2585C110.221 38.0812 111.176 37.9171 112.101 37.6527C112.23 37.6183 112.33 37.5376 112.402 37.4374C112.509 37.3587 112.588 37.2392 112.609 37.0894C112.657 36.7381 112.332 36.4263 111.986 36.4948C111.929 36.4795 111.874 36.463 111.818 36.4477C111.742 36.424 111.667 36.4018 111.589 36.383C110.305 36.0225 109.032 35.621 107.75 35.2514C105.555 34.5523 103.337 33.9343 101.118 33.3162C101.452 31.4257 102.013 29.5848 102.775 27.8206C102.943 27.161 102.056 26.8963 101.687 27.3898C100.184 28.9153 99.0199 30.733 97.5838 32.3173C96.5849 32.0279 95.5881 31.7311 94.596 31.4167C92.4754 30.8407 90.4251 30.0413 88.275 29.5672C88.0103 29.4997 87.7296 29.451 87.5117 29.6686C86.8119 30.4319 88.6508 31.6203 89.1012 32.2154C90.4792 33.6382 91.9109 35.0053 93.3192 36.3945C92.2546 37.3274 91.2075 38.2883 89.9816 39.007C88.9233 39.7015 87.6946 40.2077 86.7334 41.0242C85.6721 43.6994 95.6558 40.5131 96.816 40.3941C97.6811 42.0524 98.5356 43.7167 99.2655 45.4396C99.4132 45.7614 99.5223 46.102 99.6769 46.4189C99.8741 46.7835 100.45 46.7425 100.6 46.3601Z" fill="#FFC04F"/>
</g>
<mask id="mask4_187_38695" style="mask-type:luminance" maskUnits="userSpaceOnUse" x="-288" y="16" width="490" height="276">
<path d="M-287.975 16.769V291.907H201.159V16.769L-287.975 16.769Z" fill="white"/>
</mask>
<g mask="url(#mask4_187_38695)">
<path d="M13.9455 59.9086C14.0994 59.1535 13.8533 58.4512 13.919 57.6385C13.9977 56.1772 14.01 54.7164 14.0461 53.2544C16.9099 52.8029 19.7558 52.2471 22.6205 51.8071C23.5659 51.6298 24.5213 51.4657 25.4465 51.2013C25.5754 51.1669 25.675 51.0861 25.7469 50.986C25.8541 50.9073 25.9334 50.7881 25.9542 50.638C26.0021 50.2867 25.6766 49.9749 25.3306 50.0434C25.2746 50.0281 25.219 50.0116 25.1632 49.9963C25.0876 49.9726 25.0117 49.9504 24.9345 49.9316C23.6497 49.5711 22.377 49.1696 21.0948 48.7999C18.8998 48.1009 16.6816 47.4828 14.4632 46.8648C14.7972 44.9742 15.3576 43.1334 16.1201 41.3692C16.2883 40.7096 15.4007 40.4449 15.032 40.9384C13.529 42.4639 12.365 44.2816 10.9289 45.8659C9.93 45.5765 8.93316 45.2797 7.94113 44.9653C5.82053 44.3893 3.77024 43.5899 1.62009 43.1158C1.35539 43.0483 1.07466 42.9996 0.856841 43.2172C0.157022 43.9804 1.99583 45.1689 2.44625 45.764C3.82423 47.1868 5.25599 48.5538 6.66455 49.943C5.59966 50.876 4.55259 51.8369 3.3267 52.5556C2.26844 53.25 1.03974 53.7563 0.078792 54.5727C-0.982782 57.248 9.00092 54.0617 10.1611 53.9427C11.0262 55.6009 11.8807 57.2653 12.6106 58.9882C12.7583 59.31 12.8674 59.6506 13.022 59.9675C13.2192 60.3321 13.7955 60.291 13.9455 59.9086Z" fill="#FFC04F"/>
</g>
<mask id="mask5_187_38695" style="mask-type:luminance" maskUnits="userSpaceOnUse" x="-288" y="16" width="490" height="276">
<path d="M-287.975 16.769V291.907H201.159V16.769L-287.975 16.769Z" fill="white"/>
</mask>
<g mask="url(#mask5_187_38695)">
<path d="M148.993 63.9493C148.331 64.2214 147.949 63.3318 147.588 62.8465C146.021 61.1455 144.535 59.3413 142.96 57.6387C142.742 57.3842 142.526 57.1297 142.311 56.8724C139.61 58.1487 136.82 59.2029 134.05 60.319C133.489 60.4454 132.664 61.1455 132.193 60.666C132.188 60.6629 132.184 60.6571 132.179 60.6528C131.997 60.4867 131.918 60.2072 132.059 59.9662C133.976 57.1195 135.961 54.3172 137.959 51.5235C137.64 51.1427 137.317 50.7661 136.989 50.3942C135.151 48.2608 133.203 46.1522 131.475 43.9394C131.307 43.691 130.943 43.3968 130.825 43.0969C130.816 43.0852 130.808 43.0719 130.799 43.0587C130.668 42.7588 130.9 42.3928 131.24 42.394C134.982 43.2161 138.641 44.3878 142.336 45.4055C143.744 43.4233 145.136 41.4341 146.495 39.421C146.94 38.7344 147.388 38.0479 147.827 37.3567C147.833 37.345 147.84 37.3348 147.847 37.3244C147.85 37.3111 147.855 37.2979 147.861 37.2861C147.956 36.9481 148.372 36.8436 148.675 36.9333C149.234 37.1524 149.2 37.8303 149.212 38.3317C149.169 39.0888 149.151 39.8444 149.174 40.6018C149.147 42.7955 149.193 44.9951 149.154 47.1904C150.134 47.4889 151.111 47.786 152.08 48.1139C152.257 48.1666 152.433 48.2211 152.608 48.2769C153.807 48.6106 155.021 48.9077 156.219 49.2269C156.64 49.368 157.329 49.4753 157.294 50.0503C157.278 50.2355 157.135 50.3883 156.962 50.4678C156.958 50.4706 156.952 50.4737 156.947 50.4752C156.945 50.4765 156.945 50.4765 156.944 50.4765C156.942 50.4765 156.941 50.478 156.941 50.478C156.921 50.4912 156.897 50.5045 156.872 50.5149C154.355 51.5396 151.839 52.5792 149.341 53.6615C149.388 55.1582 149.423 56.6536 149.443 58.1503C149.497 59.6457 149.432 61.1498 149.554 62.6406C149.595 63.1759 149.776 63.9728 148.993 63.9493Z" fill="#FFC04F"/>
</g>
<mask id="mask6_187_38695" style="mask-type:luminance" maskUnits="userSpaceOnUse" x="-288" y="16" width="490" height="276">
<path d="M-287.975 16.769V291.907H201.159V16.769L-287.975 16.769Z" fill="white"/>
</mask>
<g mask="url(#mask6_187_38695)">
<path d="M67.5432 60.1688C66.8816 60.4409 66.4992 59.5513 66.139 59.066C64.5717 57.3649 63.0852 55.5608 61.5106 53.8582C61.2928 53.6037 61.0767 53.3492 60.862 53.0919C58.161 54.3682 55.3704 55.4224 52.6002 56.5385C52.0399 56.6649 51.2151 57.3649 50.7432 56.8855C50.7387 56.8824 50.7343 56.8766 50.73 56.8722C50.5476 56.7061 50.4681 56.4267 50.6092 56.1857C52.5268 53.339 54.5116 50.5367 56.5097 47.743C56.1907 47.3621 55.8672 46.9859 55.5393 46.6137C53.7015 44.4803 51.7534 42.3717 50.0256 40.1589C49.858 39.9105 49.4934 39.6162 49.3757 39.3164C49.3668 39.3047 49.3581 39.2914 49.3492 39.2782C49.2183 38.9783 49.4509 38.6122 49.7905 38.6135C53.5323 39.4356 57.1922 40.6073 60.8869 41.625C62.2942 39.6427 63.6864 37.6536 65.0451 35.6405C65.4906 34.9539 65.939 34.2674 66.3772 33.5762C66.383 33.5645 66.3904 33.5543 66.3978 33.5438C66.4009 33.5306 66.4052 33.5173 66.4111 33.5056C66.5066 33.1676 66.9229 33.0631 67.2255 33.1528C67.7845 33.3719 67.7506 34.0498 67.7623 34.5512C67.7198 35.3083 67.7022 36.0639 67.7241 36.8213C67.6976 39.015 67.7432 41.2146 67.705 43.4098C68.6843 43.7084 69.662 44.0055 70.6309 44.3333C70.8074 44.3861 70.9837 44.4406 71.1587 44.4964C72.3571 44.8301 73.5716 45.1272 74.7699 45.4464C75.1905 45.5875 75.8802 45.6948 75.8448 46.2697C75.8287 46.455 75.686 46.6078 75.5125 46.6873C75.5082 46.6901 75.5021 46.6932 75.4978 46.6947C75.4952 46.696 75.4952 46.696 75.4947 46.696C75.4922 46.696 75.4919 46.6975 75.4919 46.6975C75.4713 46.7107 75.4478 46.724 75.4229 46.7344C72.9056 47.7591 70.3899 48.7987 67.8917 49.8809C67.9389 51.3776 67.974 52.8731 67.9931 54.3698C68.0476 55.8652 67.9829 57.3693 68.1049 58.8601C68.1462 59.3954 68.3268 60.1922 67.5432 60.1688Z" fill="#FFC04F"/>
</g>
</g>
<g clip-path="url(#clip1_187_38695)">
<mask id="mask7_187_38695" style="mask-type:luminance" maskUnits="userSpaceOnUse" x="-82" y="0" width="490" height="276">
<path d="M-81.7314 0L-81.7314 275.138H407.403V0L-81.7314 0Z" fill="white"/>
</mask>
<g mask="url(#mask7_187_38695)">
<path d="M223.642 -8.45306C218.447 -13.7467 209.972 -10.7263 213.308 -2.48206C216.643 5.7619 228.837 -3.15945 223.642 -8.45306Z" fill="#EAFFFE"/>
</g>
<mask id="mask8_187_38695" style="mask-type:luminance" maskUnits="userSpaceOnUse" x="-111" y="2" width="490" height="276">
<path d="M-110.975 2.76904L-110.975 277.907H378.159V2.76904L-110.975 2.76904Z" fill="white"/>
</mask>
<g mask="url(#mask8_187_38695)">
<path d="M220.697 43.2691C215.005 43.7499 209.373 42.39 204.001 40.6138C197.331 38.4321 191.141 35.0626 185.685 30.6581C184.066 29.3395 182.486 27.9776 180.975 26.5351C180.605 26.3359 180.482 25.8246 180.745 25.4927C180.979 25.1895 181.406 25.1482 181.711 25.3689C182.437 25.9844 183.105 26.6821 183.833 27.2959C187.023 30.1074 190.444 32.6766 194.133 34.763C200.89 38.484 208.354 41.1162 216.027 41.911C227.438 42.2825 238.838 39.0099 248.747 33.4426C253.078 30.9289 257.287 28.2071 261.843 26.0993C266.339 23.8959 271.099 21.9887 276.153 21.8023C285.05 21.5223 293.393 25.2415 301.49 28.4817C308.133 30.9684 314.745 33.7494 321.702 35.2295C330.19 36.8228 339.233 36.2845 347.149 32.6855C354.128 29.4182 359.93 24.2385 366.368 20.0995C372.943 16.0053 380.446 12.0438 388.432 13.4093C390.917 13.6979 398.23 15.4328 398.623 17.2576C398.618 17.6128 398.33 17.9106 397.97 17.9106C397.432 17.8408 397.132 17.3043 396.628 17.1178C391.872 15.0525 386.46 13.9455 381.297 14.8318C375.378 16.1757 369.979 19.3227 364.993 22.6544C358.906 26.8579 353.131 31.7256 346.245 34.589C338.094 37.788 329.017 38.2061 320.491 36.378C314.49 35.0267 308.765 32.6514 302.997 30.545C294.263 27.1952 285.394 22.7729 275.812 23.1999C271.056 23.4653 266.733 25.2649 262.517 27.2994C258.64 29.1474 255.007 31.2484 251.377 33.5178C242.096 39.1462 231.541 42.5785 220.697 43.2691Z" fill="#E5E5E5"/>
</g>
<mask id="mask9_187_38695" style="mask-type:luminance" maskUnits="userSpaceOnUse" x="-111" y="2" width="490" height="276">
<path d="M-110.975 2.76904L-110.975 277.907H378.159V2.76904L-110.975 2.76904Z" fill="white"/>
</mask>
<g mask="url(#mask9_187_38695)">
<path d="M368.591 32.3601C368.745 31.605 368.499 30.9026 368.565 30.0899C368.643 28.6286 368.655 27.1678 368.692 25.7058C371.555 25.2544 374.401 24.6985 377.266 24.2585C378.211 24.0812 379.167 23.9171 380.092 23.6527C380.221 23.6183 380.321 23.5376 380.392 23.4374C380.5 23.3587 380.579 23.2392 380.6 23.0894C380.648 22.7381 380.322 22.4263 379.976 22.4948C379.92 22.4795 379.865 22.463 379.809 22.4477C379.733 22.424 379.657 22.4018 379.58 22.383C378.295 22.0225 377.022 21.621 375.74 21.2514C373.545 20.5523 371.327 19.9343 369.109 19.3162C369.443 17.4257 370.003 15.5848 370.766 13.8206C370.934 13.161 370.046 12.8963 369.678 13.3898C368.175 14.9153 367.011 16.733 365.574 18.3173C364.576 18.0279 363.579 17.7311 362.587 17.4167C360.466 16.8407 358.416 16.0413 356.266 15.5672C356.001 15.4997 355.72 15.451 355.502 15.6686C354.803 16.4319 356.641 17.6203 357.092 18.2154C358.47 19.6382 359.902 21.0053 361.31 22.3945C360.245 23.3274 359.198 24.2883 357.972 25.007C356.914 25.7015 355.685 26.2077 354.724 27.0242C353.663 29.6994 363.646 26.5131 364.807 26.3941C365.672 28.0524 366.526 29.7167 367.256 31.4396C367.404 31.7614 367.513 32.102 367.668 32.4189C367.865 32.7835 368.441 32.7425 368.591 32.3601Z" fill="#FFC04F"/>
</g>
<mask id="mask10_187_38695" style="mask-type:luminance" maskUnits="userSpaceOnUse" x="-111" y="2" width="490" height="276">
<path d="M-110.975 2.76904L-110.975 277.907H378.159V2.76904L-110.975 2.76904Z" fill="white"/>
</mask>
<g mask="url(#mask10_187_38695)">
<path d="M277.6 32.3601C277.754 31.605 277.508 30.9026 277.574 30.0899C277.653 28.6286 277.665 27.1678 277.701 25.7058C280.565 25.2544 283.411 24.6985 286.275 24.2585C287.221 24.0812 288.176 23.9171 289.101 23.6527C289.23 23.6183 289.33 23.5376 289.402 23.4374C289.509 23.3587 289.588 23.2392 289.609 23.0894C289.657 22.7381 289.332 22.4263 288.986 22.4948C288.929 22.4795 288.874 22.463 288.818 22.4477C288.742 22.424 288.667 22.4018 288.589 22.383C287.305 22.0225 286.032 21.621 284.75 21.2514C282.555 20.5523 280.337 19.9343 278.118 19.3162C278.452 17.4257 279.013 15.5848 279.775 13.8206C279.943 13.161 279.056 12.8963 278.687 13.3898C277.184 14.9153 276.02 16.733 274.584 18.3173C273.585 18.0279 272.588 17.7311 271.596 17.4167C269.475 16.8407 267.425 16.0413 265.275 15.5672C265.01 15.4997 264.73 15.451 264.512 15.6686C263.812 16.4319 265.651 17.6203 266.101 18.2154C267.479 19.6382 268.911 21.0053 270.319 22.3945C269.255 23.3274 268.208 24.2883 266.982 25.007C265.923 25.7015 264.695 26.2077 263.733 27.0242C262.672 29.6994 272.656 26.5131 273.816 26.3941C274.681 28.0524 275.536 29.7167 276.265 31.4396C276.413 31.7614 276.522 32.102 276.677 32.4189C276.874 32.7835 277.45 32.7425 277.6 32.3601Z" fill="#FFC04F"/>
</g>
<mask id="mask11_187_38695" style="mask-type:luminance" maskUnits="userSpaceOnUse" x="-111" y="2" width="490" height="276">
<path d="M-110.975 2.76904L-110.975 277.907H378.159V2.76904L-110.975 2.76904Z" fill="white"/>
</mask>
<g mask="url(#mask11_187_38695)">
<path d="M190.946 45.9086C191.099 45.1535 190.853 44.4512 190.919 43.6385C190.998 42.1772 191.01 40.7164 191.046 39.2544C193.91 38.8029 196.756 38.2471 199.621 37.8071C200.566 37.6298 201.521 37.4657 202.447 37.2013C202.575 37.1669 202.675 37.0861 202.747 36.986C202.854 36.9073 202.933 36.7881 202.954 36.638C203.002 36.2867 202.677 35.9749 202.331 36.0434C202.275 36.0281 202.219 36.0116 202.163 35.9963C202.088 35.9726 202.012 35.9504 201.934 35.9316C200.65 35.5711 199.377 35.1696 198.095 34.7999C195.9 34.1009 193.682 33.4828 191.463 32.8648C191.797 30.9742 192.358 29.1334 193.12 27.3692C193.288 26.7096 192.401 26.4449 192.032 26.9384C190.529 28.4639 189.365 30.2816 187.929 31.8659C186.93 31.5765 185.933 31.2797 184.941 30.9653C182.821 30.3893 180.77 29.5899 178.62 29.1158C178.355 29.0483 178.075 28.9996 177.857 29.2172C177.157 29.9804 178.996 31.1689 179.446 31.764C180.824 33.1868 182.256 34.5538 183.665 35.943C182.6 36.876 181.553 37.8369 180.327 38.5556C179.268 39.25 178.04 39.7563 177.079 40.5727C176.017 43.248 186.001 40.0617 187.161 39.9427C188.026 41.6009 188.881 43.2653 189.611 44.9882C189.758 45.31 189.867 45.6506 190.022 45.9675C190.219 46.3321 190.795 46.291 190.946 45.9086Z" fill="#FFC04F"/>
</g>
<mask id="mask12_187_38695" style="mask-type:luminance" maskUnits="userSpaceOnUse" x="-111" y="2" width="490" height="276">
<path d="M-110.975 2.76904L-110.975 277.907H378.159V2.76904L-110.975 2.76904Z" fill="white"/>
</mask>
<g mask="url(#mask12_187_38695)">
<path d="M325.993 49.9493C325.331 50.2214 324.949 49.3318 324.588 48.8465C323.021 47.1455 321.535 45.3413 319.96 43.6387C319.742 43.3842 319.526 43.1297 319.311 42.8724C316.61 44.1487 313.82 45.2029 311.05 46.319C310.489 46.4454 309.664 47.1455 309.193 46.666C309.188 46.6629 309.184 46.6571 309.179 46.6528C308.997 46.4867 308.918 46.2072 309.059 45.9662C310.976 43.1195 312.961 40.3172 314.959 37.5235C314.64 37.1427 314.317 36.7661 313.989 36.3942C312.151 34.2608 310.203 32.1522 308.475 29.9394C308.307 29.691 307.943 29.3968 307.825 29.0969C307.816 29.0852 307.808 29.0719 307.799 29.0587C307.668 28.7588 307.9 28.3928 308.24 28.394C311.982 29.2161 315.641 30.3878 319.336 31.4055C320.744 29.4233 322.136 27.4341 323.495 25.421C323.94 24.7344 324.388 24.0479 324.827 23.3567C324.833 23.345 324.84 23.3348 324.847 23.3244C324.85 23.3111 324.855 23.2979 324.861 23.2861C324.956 22.9481 325.372 22.8436 325.675 22.9333C326.234 23.1524 326.2 23.8303 326.212 24.3317C326.169 25.0888 326.151 25.8444 326.174 26.6018C326.147 28.7955 326.193 30.9951 326.154 33.1904C327.134 33.4889 328.111 33.786 329.08 34.1139C329.257 34.1666 329.433 34.2211 329.608 34.2769C330.807 34.6106 332.021 34.9077 333.219 35.2269C333.64 35.368 334.329 35.4753 334.294 36.0503C334.278 36.2355 334.135 36.3883 333.962 36.4678C333.958 36.4706 333.952 36.4737 333.947 36.4752C333.945 36.4765 333.945 36.4765 333.944 36.4765C333.942 36.4765 333.941 36.478 333.941 36.478C333.921 36.4912 333.897 36.5045 333.872 36.5149C331.355 37.5396 328.839 38.5792 326.341 39.6615C326.388 41.1582 326.423 42.6536 326.443 44.1503C326.497 45.6457 326.432 47.1498 326.554 48.6406C326.595 49.1759 326.776 49.9728 325.993 49.9493Z" fill="#FFC04F"/>
</g>
<mask id="mask13_187_38695" style="mask-type:luminance" maskUnits="userSpaceOnUse" x="-111" y="2" width="490" height="276">
<path d="M-110.975 2.76904L-110.975 277.907H378.159V2.76904L-110.975 2.76904Z" fill="white"/>
</mask>
<g mask="url(#mask13_187_38695)">
<path d="M244.543 46.1688C243.882 46.4409 243.499 45.5513 243.139 45.066C241.572 43.3649 240.085 41.5608 238.511 39.8582C238.293 39.6037 238.077 39.3492 237.862 39.0919C235.161 40.3682 232.37 41.4224 229.6 42.5385C229.04 42.6649 228.215 43.3649 227.743 42.8855C227.739 42.8824 227.734 42.8766 227.73 42.8722C227.548 42.7061 227.468 42.4267 227.609 42.1857C229.527 39.339 231.512 36.5367 233.51 33.743C233.191 33.3621 232.867 32.9859 232.539 32.6137C230.701 30.4803 228.753 28.3717 227.026 26.1589C226.858 25.9105 226.493 25.6162 226.376 25.3164C226.367 25.3047 226.358 25.2914 226.349 25.2782C226.218 24.9783 226.451 24.6122 226.79 24.6135C230.532 25.4356 234.192 26.6073 237.887 27.625C239.294 25.6427 240.686 23.6536 242.045 21.6405C242.491 20.9539 242.939 20.2674 243.377 19.5762C243.383 19.5645 243.39 19.5543 243.398 19.5438C243.401 19.5306 243.405 19.5173 243.411 19.5056C243.507 19.1676 243.923 19.0631 244.226 19.1528C244.784 19.3719 244.751 20.0498 244.762 20.5512C244.72 21.3083 244.702 22.0639 244.724 22.8213C244.698 25.015 244.743 27.2146 244.705 29.4098C245.684 29.7084 246.662 30.0055 247.631 30.3333C247.807 30.3861 247.984 30.4406 248.159 30.4964C249.357 30.8301 250.572 31.1272 251.77 31.4464C252.191 31.5875 252.88 31.6948 252.845 32.2697C252.829 32.455 252.686 32.6078 252.513 32.6873C252.508 32.6901 252.502 32.6932 252.498 32.6947C252.495 32.696 252.495 32.696 252.495 32.696C252.492 32.696 252.492 32.6975 252.492 32.6975C252.471 32.7107 252.448 32.724 252.423 32.7344C249.906 33.7591 247.39 34.7987 244.892 35.8809C244.939 37.3776 244.974 38.8731 244.993 40.3698C245.048 41.8652 244.983 43.3693 245.105 44.8601C245.146 45.3954 245.327 46.1922 244.543 46.1688Z" fill="#FFC04F"/>
</g>
</g>
<defs>
<clipPath id="clip0_187_38695">
<rect width="50" height="201.159" fill="white" transform="matrix(0 1 -1 0 201.159 14)"/>
</clipPath>
<clipPath id="clip1_187_38695">
<rect width="50" height="201.159" fill="white" transform="matrix(0 1 -1 0 378.159 0)"/>
</clipPath>
</defs>
</svg>
