<svg width="2408" height="165" viewBox="0 0 2408 165" fill="none" xmlns="http://www.w3.org/2000/svg">
<g clip-path="url(#clip0_446_54725)">
<mask id="mask0_446_54725" style="mask-type:luminance" maskUnits="userSpaceOnUse" x="0" y="0" width="1210" height="165">
<path d="M1210 0H0V164.391H1210V0Z" fill="white"/>
</mask>
<g mask="url(#mask0_446_54725)">
<path d="M396.851 49.3408C390.936 50.5639 381.209 53.4357 371.908 60.7871C352.735 75.9405 350.658 98.0473 350.328 102.701C359.559 102.752 370.865 102.925 383.828 103.369C397.238 103.828 404.466 104.304 409.214 109.407C411.898 112.29 411.711 114.418 414.172 120.061C416.488 125.373 420.405 132.092 427.466 139.131C429.166 132.52 432.149 124.14 437.596 115.334C440.087 111.308 442.701 107.825 445.22 104.855C446.282 108.71 448 113.282 450.85 118.053C458.554 130.957 469.917 137.59 475.85 140.495C483.296 128.674 491.666 116.435 501.082 103.964C504.939 98.856 508.806 93.9289 512.664 89.1799C512.664 89.1799 503.093 129.106 515.032 153.554C515.032 153.554 539.233 135.527 546.727 123.13L554.221 110.732C554.221 110.732 544.444 114.833 564.823 130.325C585.203 145.818 580.33 137.488 580.33 137.488C580.33 137.488 597.564 126.466 597.011 115.334C596.458 104.201 597.011 81.2578 597.011 81.2578C597.011 81.2578 604.327 99.6067 622.534 123.13C640.74 146.653 643.465 147.927 643.465 147.927C643.465 147.927 678.732 113.998 679.833 95.0577C680.336 86.3987 680.609 81.6987 680.758 79.1469L680.934 76.1181C694.742 89.9228 708.622 105.529 721.979 123.13C724.701 126.716 727.328 130.289 729.863 133.844C739.41 124.351 748.956 114.859 758.502 105.365C759.486 109.055 760.391 112.92 761.182 116.954C763.811 130.333 764.642 142.685 764.521 153.554C764.521 153.554 793 145.346 810.372 131.632C827.744 117.916 846.138 106.021 863.51 64.4556L880.882 22.8904L396.851 49.3408Z" fill="#FF7D9F"/>
<path d="M799.593 38.3624C788.607 40.7106 768.784 46.409 748.946 61.3214C731.204 74.658 721.114 89.6024 715.894 98.7838C715.894 98.7838 731.493 108.948 760.866 103.903L790.239 98.8575C790.239 98.8575 780.97 116.003 786.151 136.084C786.151 136.084 807.011 126.347 814.634 115.868L822.258 105.389C825.398 109.639 829.026 114.113 833.213 118.667C841.071 127.218 849.009 134.006 856.159 139.325C862.033 128.374 869.243 116.604 878.12 104.498C881.973 99.2447 885.852 94.3206 889.702 89.7142C889.702 89.7142 880.132 129.64 892.069 154.088C892.069 154.088 916.271 136.061 923.764 123.664L931.258 111.266C931.258 111.266 921.481 115.367 941.861 130.86C962.24 146.352 957.368 138.023 957.368 138.023C962.928 119.279 968.488 100.536 974.049 81.792C974.049 81.792 981.365 100.141 999.571 123.664C1017.78 147.187 1020.5 148.461 1020.5 148.461C1020.5 148.461 1055.77 114.532 1056.87 95.5919C1057.37 86.9329 1057.65 82.2329 1057.8 79.6812L1057.97 76.6523C1057.97 76.6523 1081.65 116.632 1099.02 123.664L1116.39 130.697C1116.39 130.697 1124.56 112.866 1132.74 103.903L1140.91 94.939C1146.14 102.391 1151.37 109.96 1156.6 117.644C1163.74 128.137 1170.68 138.543 1177.41 148.852C1188.26 131.799 1199.11 114.745 1209.96 97.6925C1209.66 64.5157 1209.35 31.339 1209.05 -1.83779C1072.56 11.5623 936.078 24.9624 799.593 38.3624Z" fill="#FF7D9F"/>
<path d="M-0.54335 -44.1164C-0.57863 20.5516 -0.61391 85.2195 -0.64856 149.887C1.77818 148.405 5.16819 146.194 8.97841 143.211C13.2095 139.898 19.8906 135.695 24.6099 127.679L31.1593 116.552C31.1593 116.552 42.8104 138.107 51.5075 152.899C51.5075 152.899 76.6179 126.348 86.6815 110.576L96.7444 94.8038C96.7444 94.8038 91.1759 135.421 105.484 158.671C105.484 158.671 127.788 138.521 134.019 125.497L140.249 112.473C140.249 112.473 130.924 117.445 152.747 131.011C174.57 144.577 168.893 136.729 168.893 136.729C168.893 136.729 184.957 124.187 183.303 113.155C181.649 102.123 179.925 79.2331 179.925 79.2331C179.925 79.2331 189.026 96.8325 209.482 118.59C229.938 140.348 232.777 141.369 232.777 141.369C232.777 141.369 264.521 104.38 263.74 85.4249C263.382 76.7592 263.189 72.055 263.083 69.502L262.958 66.4701C271.999 70.1344 299.895 82.7421 308.478 109.53C309.546 112.862 310.39 116.65 310.776 120.897C320.57 110.631 330.435 99.2882 340.088 86.7856C342.59 83.5459 345.006 80.322 347.338 77.1174C347.338 77.1174 343.98 118.024 353.843 135.94C362.851 128.385 377.321 117.85 397.314 109.94C411.932 104.156 419.253 103.831 445.429 97.1973C459.109 93.7299 470.85 89.7571 480.229 86.1665C492.132 81.609 500.984 77.4628 503.584 76.2253C503.996 76.029 504.297 75.8841 504.31 75.8781C511.934 72.2235 718.499 49.0616 1209.05 -1.83911V-44.1164C1030.1 -45.0719 851.162 -45.6028 672.23 -45.7103C447.979 -45.845 223.721 -45.3135 -0.54335 -44.1164Z" fill="#FF7D9F"/>
</g>
</g>
<g clip-path="url(#clip1_446_54725)">
<mask id="mask1_446_54725" style="mask-type:luminance" maskUnits="userSpaceOnUse" x="1198" y="0" width="1210" height="165">
<path d="M2408 0H1198V164.391H2408V0Z" fill="white"/>
</mask>
<g mask="url(#mask1_446_54725)">
<path d="M1594.85 49.3408C1588.94 50.5639 1579.21 53.4357 1569.91 60.7871C1550.74 75.9405 1548.66 98.0473 1548.33 102.701C1557.56 102.752 1568.86 102.925 1581.83 103.369C1595.24 103.828 1602.47 104.304 1607.21 109.407C1609.9 112.29 1609.71 114.418 1612.17 120.061C1614.49 125.373 1618.41 132.092 1625.47 139.131C1627.17 132.52 1630.15 124.14 1635.6 115.334C1638.09 111.308 1640.7 107.825 1643.22 104.855C1644.28 108.71 1646 113.282 1648.85 118.053C1656.55 130.957 1667.92 137.59 1673.85 140.495C1681.3 128.674 1689.67 116.435 1699.08 103.964C1702.94 98.856 1706.81 93.9289 1710.66 89.1799C1710.66 89.1799 1701.09 129.106 1713.03 153.554C1713.03 153.554 1737.23 135.527 1744.73 123.13L1752.22 110.732C1752.22 110.732 1742.44 114.833 1762.82 130.325C1783.2 145.818 1778.33 137.488 1778.33 137.488C1778.33 137.488 1795.56 126.466 1795.01 115.334C1794.46 104.201 1795.01 81.2578 1795.01 81.2578C1795.01 81.2578 1802.33 99.6067 1820.53 123.13C1838.74 146.653 1841.46 147.927 1841.46 147.927C1841.46 147.927 1876.73 113.998 1877.83 95.0577C1878.34 86.3987 1878.61 81.6987 1878.76 79.1469L1878.93 76.1181C1892.74 89.9228 1906.62 105.529 1919.98 123.13C1922.7 126.716 1925.33 130.289 1927.86 133.844C1937.41 124.351 1946.96 114.859 1956.5 105.365C1957.49 109.055 1958.39 112.92 1959.18 116.954C1961.81 130.333 1962.64 142.685 1962.52 153.554C1962.52 153.554 1991 145.346 2008.37 131.632C2025.74 117.916 2044.14 106.021 2061.51 64.4556L2078.88 22.8904L1594.85 49.3408Z" fill="#FF7D9F"/>
<path d="M1997.59 38.3624C1986.61 40.7106 1966.78 46.409 1946.95 61.3214C1929.2 74.658 1919.11 89.6024 1913.89 98.7838C1913.89 98.7838 1929.49 108.948 1958.87 103.903L1988.24 98.8575C1988.24 98.8575 1978.97 116.003 1984.15 136.084C1984.15 136.084 2005.01 126.347 2012.63 115.868L2020.26 105.389C2023.4 109.639 2027.03 114.113 2031.21 118.667C2039.07 127.218 2047.01 134.006 2054.16 139.325C2060.03 128.374 2067.24 116.604 2076.12 104.498C2079.97 99.2447 2083.85 94.3206 2087.7 89.7142C2087.7 89.7142 2078.13 129.64 2090.07 154.088C2090.07 154.088 2114.27 136.061 2121.76 123.664L2129.26 111.266C2129.26 111.266 2119.48 115.367 2139.86 130.86C2160.24 146.352 2155.37 138.023 2155.37 138.023C2160.93 119.279 2166.49 100.536 2172.05 81.792C2172.05 81.792 2179.37 100.141 2197.57 123.664C2215.78 147.187 2218.5 148.461 2218.5 148.461C2218.5 148.461 2253.77 114.532 2254.87 95.5919C2255.37 86.9329 2255.65 82.2329 2255.8 79.6812L2255.97 76.6523C2255.97 76.6523 2279.65 116.632 2297.02 123.664L2314.39 130.697C2314.39 130.697 2322.56 112.866 2330.74 103.903L2338.91 94.939C2344.14 102.391 2349.37 109.96 2354.6 117.644C2361.74 128.137 2368.68 138.543 2375.41 148.852C2386.26 131.799 2397.11 114.745 2407.96 97.6925C2407.66 64.5157 2407.35 31.339 2407.05 -1.83779C2270.56 11.5623 2134.08 24.9624 1997.59 38.3624Z" fill="#FF7D9F"/>
<path d="M1197.46 -44.1164C1197.42 20.5516 1197.39 85.2195 1197.35 149.887C1199.78 148.405 1203.17 146.194 1206.98 143.211C1211.21 139.898 1217.89 135.695 1222.61 127.679L1229.16 116.552C1229.16 116.552 1240.81 138.107 1249.51 152.899C1249.51 152.899 1274.62 126.348 1284.68 110.576L1294.74 94.8038C1294.74 94.8038 1289.18 135.421 1303.48 158.671C1303.48 158.671 1325.79 138.521 1332.02 125.497L1338.25 112.473C1338.25 112.473 1328.92 117.445 1350.75 131.011C1372.57 144.577 1366.89 136.729 1366.89 136.729C1366.89 136.729 1382.96 124.187 1381.3 113.155C1379.65 102.123 1377.93 79.2331 1377.93 79.2331C1377.93 79.2331 1387.03 96.8325 1407.48 118.59C1427.94 140.348 1430.78 141.369 1430.78 141.369C1430.78 141.369 1462.52 104.38 1461.74 85.4249C1461.38 76.7592 1461.19 72.055 1461.08 69.502L1460.96 66.4701C1470 70.1344 1497.89 82.7421 1506.48 109.53C1507.55 112.862 1508.39 116.65 1508.78 120.897C1518.57 110.631 1528.44 99.2882 1538.09 86.7856C1540.59 83.5459 1543.01 80.322 1545.34 77.1174C1545.34 77.1174 1541.98 118.024 1551.84 135.94C1560.85 128.385 1575.32 117.85 1595.31 109.94C1609.93 104.156 1617.25 103.831 1643.43 97.1973C1657.11 93.7299 1668.85 89.7571 1678.23 86.1665C1690.13 81.609 1698.98 77.4628 1701.58 76.2253C1702 76.029 1702.3 75.8841 1702.31 75.8781C1709.93 72.2235 1916.5 49.0616 2407.05 -1.83911V-44.1164C2228.1 -45.0719 2049.16 -45.6028 1870.23 -45.7103C1645.98 -45.845 1421.72 -45.3135 1197.46 -44.1164Z" fill="#FF7D9F"/>
</g>
</g>
<defs>
<clipPath id="clip0_446_54725">
<rect width="1210" height="164.391" fill="white"/>
</clipPath>
<clipPath id="clip1_446_54725">
<rect width="1210" height="164.391" fill="white" transform="translate(1198)"/>
</clipPath>
</defs>
</svg>
