<svg width="264" height="326" viewBox="0 0 264 326" fill="none" xmlns="http://www.w3.org/2000/svg">
<mask id="mask0_229_21133" style="mask-type:luminance" maskUnits="userSpaceOnUse" x="0" y="0" width="264" height="326">
<path d="M0.041748 0H263.042V325.917H0.041748V0Z" fill="white"/>
</mask>
<g mask="url(#mask0_229_21133)">
<mask id="mask1_229_21133" style="mask-type:luminance" maskUnits="userSpaceOnUse" x="-42" y="-117" width="331" height="586">
<path d="M-41.1121 468.684H288.248V-116.845H-41.1121V468.684Z" fill="white"/>
</mask>
<g mask="url(#mask1_229_21133)">
<path d="M184.337 205.466L197.396 329.158H205.013L207.915 202.201L184.337 205.466Z" fill="#E8E8E8"/>
</g>
<mask id="mask2_229_21133" style="mask-type:luminance" maskUnits="userSpaceOnUse" x="-42" y="-117" width="331" height="586">
<path d="M-41.1121 468.684H288.248V-116.845H-41.1121V468.684Z" fill="white"/>
</mask>
<g mask="url(#mask2_229_21133)">
<path d="M135.28 216.415L109.889 348.812H100.821C100.821 348.812 80.0005 216.357 87.5079 206.047C95.0163 195.739 135.28 216.415 135.28 216.415Z" fill="#E8E8E8"/>
</g>
<mask id="mask3_229_21133" style="mask-type:luminance" maskUnits="userSpaceOnUse" x="-33" y="-28" width="330" height="587">
<path d="M-32.9705 558.355H296.389V-27.173H-32.9705V558.355Z" fill="white"/>
</mask>
<g mask="url(#mask3_229_21133)">
<path d="M220.072 30.3892C220.291 31.9567 221.385 34.3394 219.664 35.3729C218.359 35.6986 216.951 35.5327 215.617 35.7593C213.873 35.9149 212.146 36.4003 210.4 36.4265C209.252 36.2912 209.421 35.1101 209.514 34.2585C209.677 32.175 209.911 30.0979 210.086 28.0166C210.538 20.2864 211.209 12.5699 211.756 4.84549C211.901 3.63815 211.366 -1.81091 213.396 -0.922848C214.122 -0.374864 213.99 0.762092 214.277 1.56105C214.644 3.04561 214.973 4.53017 215.307 6.02264C216.226 11.5123 216.934 17.0462 218.274 22.4586C218.863 25.1042 219.49 27.7397 220.072 30.3892Z" fill="#FFC04F"/>
<path d="M74.1055 173.472C76.0351 173.726 75.5005 181.952 75.4787 183.612C75.0866 193.385 72.9076 202.965 70.974 212.519C68.4524 222.305 66.613 234.507 59.1233 241.803C57.0987 243.908 53.2524 245.995 50.906 243.253C50.9565 250.547 49.8239 258.492 44.7718 264.104C42.3739 266.889 38.5781 269.395 34.7853 268.179C30.0648 266.547 27.7343 261.023 27.7491 256.321C25.3384 261.723 15.0717 273.717 11.4204 263.156C10.2146 258.374 11.1126 252.937 13.7708 248.782C9.76811 250.815 1.07659 252.316 1.02412 245.688C1.59834 241.167 4.25858 236.848 7.57718 233.791C-1.51035 233.67 0.909301 226.259 4.49323 221.018C5.81789 219.032 7.52863 217.347 9.38594 215.859C10.3284 215.013 11.5135 214.346 12.1887 213.251C9.02952 210.396 5.2575 207.46 4.30905 203.087C3.43088 198.373 5.48422 193.689 7.94149 189.764C12.0699 183.498 17.4785 177.868 24.3018 174.575C29.751 171.835 35.9892 170.103 42.1096 171.033C39.9741 165.998 40.874 159.102 46.0331 156.302C49.4922 154.333 53.8484 154.83 57.4938 156.02C66.1971 158.764 71.3344 164.953 74.1055 173.472Z" fill="#ABDDDD"/>
<path d="M31.4859 233.948C28.2811 233.265 28.3475 230.605 29.2514 228.035C30.0355 225.385 31.1988 222.847 32.7393 220.549C30.2068 222.106 27.4326 224.231 24.3101 223.915C22.9191 223.777 22.0013 222.468 22.1577 221.114C22.428 218.449 23.8319 216.009 25.2991 213.82C27.4881 210.557 30.5631 208.026 33.9679 206.11C29.0712 207.128 18.6857 207.569 23.0399 199.702C24.5151 196.786 26.8525 194.365 29.4553 192.422C32.8412 189.845 36.9241 188.517 41.0258 187.583C37.5785 186.248 33.3263 185.807 30.8344 182.824C27.4436 177.88 37.3845 174.757 40.8753 174.129C45.578 173.045 50.4094 173.974 54.9824 175.22C52.9785 172.178 50.2312 168.629 51.3123 164.779C51.936 162.197 55.2259 161.101 57.3129 162.706C59.0336 163.831 59.8543 165.873 61.2206 167.302C61.2176 167.301 61.2127 167.3 61.2127 167.3L61.2096 167.298C61.5383 167.48 61.7077 167.882 61.5156 168.243C61.2879 168.668 60.6612 168.738 60.3622 168.348C59.2841 167.207 58.596 165.763 57.4951 164.637C53.9795 161.079 51.2964 165.295 52.9696 168.92C53.7923 170.875 54.9942 172.751 56.2268 174.454C56.6258 174.938 57.0486 175.404 57.4723 175.854C57.6891 176.056 57.8584 176.277 57.8505 176.588C57.8712 177.061 57.408 177.464 56.9407 177.339C50.8846 175.463 44.7999 174.197 38.6122 176.207C36.1826 176.922 33.8075 177.977 32.0047 179.766C30.6731 181.483 33.0145 183.089 34.4332 183.715C36.6271 184.694 38.9547 185.317 41.2308 186.074C42.099 186.406 44.386 186.74 43.5385 188.093C43.1524 188.639 42.4792 188.804 41.8585 188.935C40.5744 189.255 39.2883 189.577 38.0131 189.934C34.3946 190.922 30.8849 192.863 28.1911 195.423C26.6714 196.74 21.7677 202.599 24.1131 204.234C27.7633 206.446 34.6372 204.405 38.6616 203.64C39.1299 203.415 39.7893 203.281 40.0536 203.86C40.3546 204.516 39.7002 204.959 39.122 205.056C37.8557 205.585 36.6855 206.308 35.4727 206.947C31.6007 209.088 28.0673 211.925 25.8169 215.751C21.5806 222.898 23.726 224.389 30.5513 220.204C32.3898 219.042 34.1758 217.761 35.9301 216.482C36.8924 215.952 38.7507 213.234 39.8803 214.081C40.1328 214.314 40.1833 214.681 40.0318 214.983C39.419 215.929 38.3012 216.456 37.4587 217.19C35.243 219.395 33.3254 222.026 32.0403 224.835C31.4691 226.327 29.2325 230.961 30.6889 232.005C34.9628 234.268 38.9972 229.665 41.0654 226.35C42.4495 224.118 43.6326 221.772 44.89 219.469C45.3662 218.598 46.6829 219.313 46.2255 220.181C43.0139 225.799 39.4012 235.104 31.4859 233.948Z" fill="#83C4C2"/>
<path d="M192.115 88.07C192.115 88.07 192.295 120.716 177.786 136.677C163.276 152.637 140.061 160.617 119.749 164.607C99.4351 168.597 74.407 167.146 64.9759 176.94C55.5449 186.734 59.1724 231.35 76.2208 243.683C93.2692 256.017 167.63 252.026 193.747 222.644C219.863 193.263 227.118 174.763 227.843 119.628C228.569 64.4927 227.843 47.0814 227.843 47.0814L192.115 88.07Z" fill="white"/>
<path d="M218.412 37.2875C204.195 37.1865 184.678 40.5522 166.178 59.777C147.679 79.0023 148.404 93.9963 161.826 100.645C175.247 107.295 217.324 90.2471 226.392 78.6389C235.461 67.0317 234.835 37.4041 218.412 37.2875Z" fill="white"/>
<path d="M262.355 95.5962C262.549 98.4664 262.116 102.503 259.217 103.899C261.556 106.844 261.776 110.167 261.178 113.752C260.48 118.279 257.472 122.248 253.593 124.56C256.268 126.848 259.005 129.722 259.498 133.348C260.196 141.443 255.209 148.481 248.105 151.938C249.331 153.882 250.874 155.718 251.416 158.001C251.991 160.722 251.792 163.679 250.741 166.262C248.71 171.116 244.011 174.963 238.621 172.722C237.567 172.354 236.649 171.545 235.595 171.225C232.927 173.94 230.243 177.867 226.004 177.706C218.484 176.755 221.346 165.527 221.995 160.425C222.749 155.823 223.227 151.184 223.933 146.576C225.718 133.532 225.373 120.377 226.244 107.275C226.521 100.539 227.011 93.8023 226.876 87.0582C226.671 79.6072 225.507 72.3344 224.799 64.9392C224.687 63.7096 224.448 62.4898 224.331 61.2663C223.732 58.8736 222.72 56.8144 222.26 54.4257C221.991 53.1314 221.847 51.8246 221.795 50.51C216.047 55.2875 208.22 56.7961 200.897 56.8712C197.251 56.8892 193.59 56.1166 190.299 54.5391C188.55 53.6694 186.94 52.1687 186.527 50.1947C186.252 48.0648 188.268 46.5196 189.811 45.4131C184.71 45.0328 175.91 42.6401 178.602 35.8217C179.612 32.8871 181.933 30.5206 184.662 29.1067C190.08 26.6451 197.038 26.1538 202.295 29.2644C201.338 25.5168 202.461 20.2497 207.032 19.8594C210.39 19.4974 213.894 20.1082 216.884 21.702C219.253 22.9864 221.487 24.6186 223.124 26.7826C224.861 28.0833 226.374 29.746 227.405 31.6431C227.462 31.6047 227.519 31.5681 227.578 31.534C230.373 29.7582 234.046 29.1815 237.185 30.3306C239.659 31.4692 242.041 33.2168 243.513 35.5426C245.035 38.3197 245.363 41.7359 244.673 44.8084C244.181 46.8815 243.105 48.7302 242.252 50.6616C250.677 50.3907 253.829 53.9907 256.459 61.513C257.807 65.5077 258.863 69.7287 258.855 73.966C258.773 77.3301 257.712 80.6151 256.171 83.5812C259.628 86.68 261.897 90.9619 262.355 95.5962Z" fill="#ABDDDD"/>
<path d="M183.481 65.4521C181.924 64.9617 181.328 63.1883 181.346 61.7083C181.409 61.0191 181.223 60.0579 181.824 59.583C182.448 59.2536 182.856 59.9951 182.805 60.5413C182.655 65.9811 186.036 64.4579 187 60.3674C187.19 59.7315 188.164 59.6868 188.428 60.2863C188.66 60.9905 188.124 61.7187 187.926 62.3838C187.261 64.152 185.581 66.1821 183.481 65.4521Z" fill="#474747"/>
<path d="M200.47 65.3785C199.219 65.2057 198.28 64.1438 198.057 62.9291C197.883 62.2566 197.84 60.2213 199 61.0279C199.399 61.633 199.255 62.461 199.652 63.0849C200.481 64.618 202.391 63.7601 202.956 62.4512C203.449 61.7858 203.369 60.1618 204.55 60.4757C205.58 60.9344 204.727 62.1646 204.477 62.8889C203.771 64.3935 202.239 65.7762 200.47 65.3785Z" fill="#474747"/>
<path d="M194.826 84.6475C194.087 84.3624 194.347 83.6228 194.566 83.0634C194.801 82.2961 194.738 81.4853 194.516 80.722C193.72 80.1676 194.497 79.0954 195.315 79.5488C196.524 80.1191 196.645 85.1009 194.826 84.6475Z" fill="#474747"/>
<path d="M167.388 86.0573C167.258 85.7108 167.37 85.3544 167.459 85.0128C167.577 84.3039 167.653 83.5693 168.014 82.9347C168.35 82.1803 169.448 82.0457 169.735 82.909C169.862 83.9208 169.625 85.4256 168.776 86.0989C168.472 86.6068 167.586 86.7117 167.388 86.0573Z" fill="#474747"/>
<path d="M159.177 85.1156C158.467 85.1651 158.272 84.3582 158.204 83.7969C158.012 82.9217 158.18 81.406 159.391 81.5772C160.705 81.8455 160.815 85.3463 159.177 85.1156Z" fill="#474747"/>
<path d="M192.682 120.705C191.732 120.236 192.648 119.048 192.738 118.306C193.038 117.271 193.29 116.221 193.598 115.189C193.872 114.4 195.091 114.837 194.804 115.619C194.218 117.129 193.975 118.745 193.538 120.3C193.436 120.648 193.011 120.821 192.682 120.705Z" fill="#E8E8E8"/>
<path d="M196.391 121.751C195.797 121.627 196.017 120.894 196.135 120.525C196.434 119.398 196.826 118.312 197.182 117.206C197.416 116.405 198.538 117.121 197.895 117.673C197.458 118.865 197.249 120.108 197.011 121.35C196.95 121.629 196.665 121.812 196.391 121.751Z" fill="#E8E8E8"/>
<path d="M192.566 126.296C191.63 125.841 192.613 124.766 192.77 124.09C192.986 123.514 193.231 122.94 193.363 122.337C193.392 122.018 193.671 121.771 193.995 121.796C195.134 122.047 194.116 123.493 193.971 124.183C193.591 124.813 193.589 126.564 192.566 126.296Z" fill="#E8E8E8"/>
<path d="M193.446 131.551C193.034 131.413 192.908 130.911 193.121 130.556C193.687 129.436 194.097 128.156 194.915 127.198C195.399 126.88 196.004 127.535 195.655 127.991L195.658 127.99C195.107 129.017 194.69 130.085 194.279 131.157C194.152 131.491 193.776 131.673 193.446 131.551Z" fill="#E8E8E8"/>
<path d="M186.332 132.997C185.389 132.558 186.294 131.595 186.647 131.049C187.197 130.235 187.706 129.39 188.285 128.596C188.426 128.41 188.671 128.333 188.886 128.444C189.109 128.558 189.216 128.853 189.092 129.075C188.777 129.615 188.462 130.155 188.164 130.705C187.827 131.328 187.466 131.937 187.163 132.577C187.043 132.919 186.67 133.124 186.332 132.997Z" fill="#E8E8E8"/>
<path d="M188.403 136.122C188.096 136.013 187.945 135.64 188.096 135.349C188.704 134.234 189.267 133.031 189.924 131.955C190.291 131.374 191.101 131.997 190.665 132.503C190.117 133.485 189.664 134.519 189.228 135.508C189.119 135.874 188.833 136.285 188.403 136.122Z" fill="#E8E8E8"/>
<path d="M92.9533 181.917C91.5356 181.483 90.301 180.28 90.0872 178.787C89.7921 177.902 89.6862 176.515 90.5099 175.902C91.8366 172.29 96.7155 171.564 98.5797 175.091C100.145 178.487 96.6531 182.955 92.9533 181.917Z" fill="#E8E8E8"/>
<path d="M86.4255 190.764C83.992 190.566 84.1672 186.411 86.276 185.783C87.3373 185.419 88.4729 186.142 88.7966 187.172C89.3342 188.696 88.0887 190.742 86.4255 190.764Z" fill="#E8E8E8"/>
<path d="M98.5163 191.814C96.5165 191.596 97.067 188.292 98.8767 188.177C101.541 188.049 100.706 191.846 98.5163 191.814Z" fill="#E8E8E8"/>
<path d="M247.982 30.2415C247.608 32.054 247.05 33.8401 246.351 35.5592C244.01 41.0739 239.655 45.4851 234.938 49.0633C234.069 49.6793 233.178 50.2697 232.292 50.8598C231.816 51.2483 231.153 51.4813 230.625 51.0464C230.335 50.7824 230.092 50.482 229.874 50.1608C229.263 49.2548 228.865 48.188 228.218 47.3131C227.368 46.0807 225.914 45.1903 225.23 43.8542C225.132 43.6626 225.048 43.4608 224.986 43.2485C224.925 42.451 225.489 41.7729 225.909 41.1305C226.136 40.5612 226.53 39.9863 226.84 39.4788C229.699 34.8239 233.913 32.6596 238.801 30.666C241.204 29.6512 243.632 28.7918 246.2 28.3258C247.826 27.8598 248.39 28.6781 247.982 30.2415Z" fill="white"/>
<path d="M238.544 40.0123C238.259 41.3639 237.839 42.6944 237.312 43.9735C235.903 47.2561 232.858 48.4469 229.875 50.1609C229.265 49.2548 228.867 48.188 228.219 47.3131C227.37 46.0807 225.915 45.1903 225.231 43.8543C227.054 42.3111 229.234 41.2965 231.626 40.3334C233.439 39.5723 235.266 38.9352 237.203 38.5885C238.429 38.2414 238.854 38.8525 238.544 40.0123Z" fill="#FF7D9F"/>
<path d="M197.197 50.9843C191.696 49.568 196.799 43.8741 199.468 42.1751C196.518 41.9082 193.321 40.9549 191.407 38.5616C189.216 36.0256 190.516 31.9692 194.064 31.8667C196.073 31.8323 198.176 32.5746 199.566 34.0451C199.968 34.6538 199.133 35.3754 198.594 34.8883C197.665 34.0716 196.527 33.5477 195.305 33.358C191.968 32.657 190.621 35.8578 192.958 38.1109C195.409 40.4664 199.006 40.7781 202.24 40.8369C203.151 40.807 203.3 42.1561 202.399 42.3237C202.035 42.3986 201.703 42.5783 201.377 42.7488C199.616 43.7505 198.01 45.0878 196.964 46.8313C196.696 47.4219 195.846 48.3582 196.394 48.9401C199.182 50.8568 202.666 48.3783 205.46 47.544C206.072 47.3089 206.679 48.0584 206.354 48.6159C206.012 49.1249 205.219 49.1798 204.721 49.4464C202.334 50.3268 199.797 51.6143 197.197 50.9843Z" fill="#83C4C2"/>
<path d="M231.724 160.265C229.661 160.215 229.238 157.846 229.438 156.192C229.527 155.354 229.767 151.225 231.284 152.378C231.483 152.607 231.466 152.974 231.259 153.181C230.887 154.222 230.796 155.34 230.745 156.437C230.761 157.172 230.687 158.033 231.185 158.633C232.271 159.349 233.618 158.22 234.435 157.515C236.401 155.632 237.212 152.942 237.767 150.353C237.624 149.786 238.033 149.062 238.681 149.218C239.375 149.366 239.165 150.082 239.32 150.568C239.928 151.951 240.927 153.258 242.322 153.906C242.796 154.134 243.112 154.082 243.306 153.555C244.007 151.301 243.412 148.89 242.951 146.647C242.427 144.59 241.647 142.615 240.755 140.689C240.372 140.204 239.941 139.715 239.83 139.091C239.685 138.108 241.082 137.984 241.419 138.795C242.4 141.583 249.447 146.601 249.639 140.97C249.249 138.537 247.846 136.414 246.794 134.226C246.048 132.773 245.276 131.336 244.452 129.926C243.848 128.959 243.246 127.925 242.441 127.121C241.741 126.461 242.732 125.364 243.455 126.027C245.55 128.205 246.775 131.048 248.214 133.67C249.32 135.97 250.781 138.212 251.133 140.781C251.315 142.175 250.708 143.664 249.541 144.465C247.587 145.748 245.165 144.557 243.484 143.343C244.528 146.389 246.185 152.041 244.233 154.881C242.339 156.714 239.791 154.16 238.723 152.535C237.82 155.881 235.597 160.05 231.724 160.265Z" fill="#83C4C2"/>
<path d="M207.268 78.3697C204.232 82.1803 206.622 92.0124 213.871 85.1267C221.12 78.241 213.871 70.0854 207.268 78.3697Z" fill="#FF7D9F"/>
<path d="M168.335 211.783L181.393 335.475H189.011L191.913 208.518L168.335 211.783Z" fill="white"/>
<path d="M115.654 222.214L90.2624 354.611H81.1937C81.1937 354.611 60.3733 222.156 67.8817 211.847C75.3901 201.538 115.654 222.214 115.654 222.214Z" fill="white"/>
<path d="M107.985 266.332L106.454 266.04L109.639 249.43L110.319 249.466C110.389 249.464 117.621 249.806 140.649 246.585L140.865 248.13C121.298 250.867 113.165 251.052 110.917 251.039L107.985 266.332Z" fill="#474747"/>
<path d="M187.705 99.4951L187.355 97.9754C187.552 97.9298 207.148 93.343 216.398 85.791L217.384 86.9998C207.849 94.7815 188.524 99.306 187.705 99.4951Z" fill="#474747"/>
</g>
</g>
</svg>
