<svg width="158" height="128" viewBox="0 0 158 128" fill="none" xmlns="http://www.w3.org/2000/svg">
<g clip-path="url(#clip0_230_20227)">
<mask id="mask0_230_20227" style="mask-type:luminance" maskUnits="userSpaceOnUse" x="-52" y="-784" width="783" height="1391">
<path d="M-51.5823 606.015H730.073V-783.594H-51.5823V606.015Z" fill="white"/>
</mask>
<g mask="url(#mask0_230_20227)">
<path d="M80.2257 54.2891C80.4768 54.8217 80.5586 55.4644 80.1403 55.9334C80.7569 62.3567 79.7234 68.927 78.5871 75.2526C76.8414 85.8983 73.6033 96.2567 68.1376 105.597C66.3434 109.097 63.9253 112.181 61.5774 115.315C60.0192 117.523 58.3705 119.685 56.3367 121.481C52.6398 124.352 48.2285 127.513 43.3287 127.158C36.7107 126.35 33.9423 119.64 32.8408 113.85C31.4179 104.992 33.5891 95.1797 39.3835 88.2259C30.262 91.2063 21.1782 93.0541 12.5633 87.5796C4.27055 83.1321 -0.137846 73.3781 0.00328606 64.2059C0.540312 56.9279 4.91541 50.5183 9.8753 45.4129C18.4359 37.1382 31.2948 36.1163 42.6324 36.2741C50.9484 36.4579 59.1869 38.8789 66.4715 42.7871C71.6716 45.6655 77.8286 48.4672 80.2257 54.2891Z" fill="#EA81C2"/>
</g>
<mask id="mask1_230_20227" style="mask-type:luminance" maskUnits="userSpaceOnUse" x="-52" y="-784" width="783" height="1391">
<path d="M-51.583 606.015H730.072V-783.594H-51.583V606.015Z" fill="white"/>
</mask>
<g mask="url(#mask1_230_20227)">
<path d="M74.7846 96.9161C64.4653 94.5776 65.0269 93.99 61.3141 84.6485C60.1039 81.7665 56.918 82.8 54.5158 83.0591C48.7576 83.9573 47.2001 77.319 47.0496 72.8636C46.7709 71.3408 47.3926 68.6274 46.0479 67.6562C46.0797 67.6641 46.1116 67.6735 46.1427 67.6829C46.1666 67.6931 46.1898 67.7039 46.2325 67.7104C44.219 67.5005 42.136 68.0072 40.1189 67.5244C36.3272 66.9997 32.8625 63.939 32.9067 59.938C32.6881 56.6269 35.0193 53.8918 35.4717 50.7304C35.5542 50.0139 34.8912 49.5963 34.3593 49.2706C30.629 47.4909 28.0141 45.4383 28.4375 40.9113C28.5215 37.2172 29.7822 31.8802 33.6066 30.474C35.4637 29.9956 35.6671 32.9782 33.7629 32.756C31.829 34.5726 31.0633 37.5682 31.017 40.1093C30.0247 47.4287 38.1061 44.8789 38.371 50.75C38.3508 54.2479 35.2278 57.2761 36.0109 60.8333C36.5986 63.6683 39.8113 64.6765 42.3763 64.7228C44.8769 64.6374 48.2344 64.0005 49.3475 66.9512C50.6264 70.7567 49.5147 75.1586 51.4674 78.8237C53.6582 82.2825 59.6038 76.664 63.3753 82.2C66.7603 87.2996 64.9748 92.0872 72.5771 93.1851C73.5296 93.4537 74.4813 93.7439 75.4533 93.9357C77.3771 94.3612 76.7467 97.3373 74.7846 96.9161Z" fill="#FFA9BE"/>
</g>
<mask id="mask2_230_20227" style="mask-type:luminance" maskUnits="userSpaceOnUse" x="-52" y="-784" width="783" height="1391">
<path d="M-51.5823 606.015H730.073V-783.594H-51.5823V606.015Z" fill="white"/>
</mask>
<g mask="url(#mask2_230_20227)">
<path d="M17.3767 68.6543C15.7599 68.7115 14.3782 67.7554 13.027 66.9882C8.81617 63.8659 10.7681 56.2491 16.011 55.66C19.4792 55.335 22.9142 58.2199 23.4295 61.6237C23.8305 65.084 20.9354 68.6601 17.3767 68.6543Z" fill="#FFA9BE"/>
</g>
<mask id="mask3_230_20227" style="mask-type:luminance" maskUnits="userSpaceOnUse" x="-52" y="-784" width="783" height="1391">
<path d="M-51.583 606.015H730.072V-783.594H-51.583V606.015Z" fill="white"/>
</mask>
<g mask="url(#mask3_230_20227)">
<path d="M28.8603 79.4898C27.8333 79.2372 26.5819 78.1031 27.3419 77.0066C28.0475 75.8732 29.9568 75.1972 30.8702 76.5232C31.7141 77.8013 30.3462 79.7526 28.8603 79.4898Z" fill="#FFA9BE"/>
</g>
<mask id="mask4_230_20227" style="mask-type:luminance" maskUnits="userSpaceOnUse" x="-52" y="-784" width="783" height="1391">
<path d="M-51.583 606.015H730.072V-783.594H-51.583V606.015Z" fill="white"/>
</mask>
<g mask="url(#mask4_230_20227)">
<path d="M49.8919 108.7C43.2327 108.367 42.611 97.1471 48.0977 94.5922C51.4719 93.1888 55.3071 95.8305 56.143 99.1815C57.39 103.327 54.3597 108.442 49.8919 108.7ZM47.7764 100.52C48.5399 99.369 48.8714 97.8744 50.1387 97.1203C49.6458 97.0834 48.9981 97.3128 48.6876 97.6595C47.9631 98.3774 47.636 99.3914 47.4862 100.38C47.5882 100.413 47.6859 100.46 47.7764 100.52Z" fill="#FFA9BE"/>
</g>
<mask id="mask5_230_20227" style="mask-type:luminance" maskUnits="userSpaceOnUse" x="-52" y="-784" width="783" height="1391">
<path d="M-51.583 606.015H730.072V-783.594H-51.583V606.015Z" fill="white"/>
</mask>
<g mask="url(#mask5_230_20227)">
<path d="M80.2448 54.282C80.3961 54.8516 80.7464 55.3958 81.3688 55.4849C85.0325 60.7972 90.0539 65.1586 94.9964 69.2666C103.187 76.2885 112.334 82.1284 122.53 85.7559C126.156 87.278 129.992 88.0813 133.807 88.9672C136.42 89.6526 139.074 90.2461 141.786 90.3105C146.464 90.1267 151.874 89.7054 155.395 86.2785C159.938 81.3996 157.737 74.4834 154.85 69.3426C150.236 61.6498 142.256 55.5399 133.345 53.9505C142.244 50.3578 150.384 45.9226 153.45 36.1867C156.932 27.4445 154.024 17.1425 148.01 10.2162C142.913 4.99287 135.438 2.90628 128.356 2.19338C116.478 1.37409 105.982 8.87219 97.4087 16.2928C91.1641 21.7883 86.4199 28.9448 83.3628 36.626C81.2371 42.1757 78.3305 48.2842 80.2448 54.282Z" fill="#EA81C2"/>
</g>
<mask id="mask6_230_20227" style="mask-type:luminance" maskUnits="userSpaceOnUse" x="-52" y="-784" width="783" height="1391">
<path d="M-51.5823 606.015H730.073V-783.594H-51.5823V606.015Z" fill="white"/>
</mask>
<g mask="url(#mask6_230_20227)">
<path d="M111.855 83.3935C118.245 74.9603 117.437 74.872 114.262 65.3337C113.333 62.3496 116.437 61.0889 118.441 59.7405C123.425 56.7203 120.343 50.6386 117.589 47.132C116.822 45.788 114.599 44.1118 115.002 42.5029C114.983 42.5296 114.965 42.5571 114.947 42.5846C114.935 42.6078 114.925 42.6302 114.896 42.6628C116.301 41.2066 118.221 40.2534 119.454 38.5852C122.017 35.7415 122.697 31.1689 120.088 28.1363C118.122 25.4621 114.578 24.87 112.196 22.7429C111.672 22.2479 111.911 21.5017 112.108 20.9096C113.815 17.1461 114.495 13.8921 111.256 10.7011C108.813 7.9291 104.412 4.65701 100.58 6.04372C98.8514 6.87314 100.616 9.28614 101.93 7.89002C104.579 8.03477 107.094 9.83403 108.766 11.7484C114.238 16.7097 106.413 19.9622 109.99 24.6247C112.258 27.2881 116.598 27.5942 118.289 30.82C119.664 33.3676 117.856 36.2069 115.923 37.8947C113.954 39.4392 110.976 41.114 112.024 44.0879C113.495 47.8232 117.181 50.4757 118.046 54.5367C118.597 58.5941 110.43 58.1236 111.109 64.7873C111.803 70.869 116.252 73.3826 111.142 79.1176C110.586 79.9362 110.044 80.7714 109.425 81.5436C108.226 83.1084 110.625 84.9793 111.855 83.3935Z" fill="#FFA9BE"/>
</g>
<mask id="mask7_230_20227" style="mask-type:luminance" maskUnits="userSpaceOnUse" x="-52" y="-784" width="783" height="1391">
<path d="M-51.583 606.015H730.072V-783.594H-51.583V606.015Z" fill="white"/>
</mask>
<g mask="url(#mask7_230_20227)">
<path d="M137.582 24.8059C138.856 23.8086 139.297 22.1874 139.838 20.7305C141.049 15.6302 134.651 11.0597 130.26 13.9844C127.397 15.9689 126.626 20.3881 128.424 23.3237C130.345 26.2303 134.863 27.1024 137.582 24.8059Z" fill="#FFA9BE"/>
</g>
<mask id="mask8_230_20227" style="mask-type:luminance" maskUnits="userSpaceOnUse" x="-52" y="-784" width="783" height="1391">
<path d="M-51.583 606.015H730.072V-783.594H-51.583V606.015Z" fill="white"/>
</mask>
<g mask="url(#mask8_230_20227)">
<path d="M135.772 40.4905C136.395 39.6365 136.622 37.9625 135.336 37.6129C134.065 37.1996 132.169 37.9118 132.324 39.5149C132.501 41.0362 134.804 41.6485 135.772 40.4905Z" fill="#FFA9BE"/>
</g>
<mask id="mask9_230_20227" style="mask-type:luminance" maskUnits="userSpaceOnUse" x="-52" y="-784" width="783" height="1391">
<path d="M-51.5823 606.015H730.073V-783.594H-51.5823V606.015Z" fill="white"/>
</mask>
<g mask="url(#mask9_230_20227)">
<path d="M127.577 73.124C126.058 70.0212 127.292 65.5311 130.777 64.4324C136.62 62.8539 143.369 71.8393 138.488 76.3823C134.903 79.0616 129.292 77.0988 127.577 73.124ZM134.971 68.4666C134.22 67.8073 133.318 67.242 132.301 67.1595C131.84 67.0936 131.197 67.3354 130.844 67.6813C132.299 67.441 133.515 68.3718 134.84 68.7605C134.871 68.657 134.915 68.5578 134.971 68.4666Z" fill="#FFA9BE"/>
</g>
<mask id="mask10_230_20227" style="mask-type:luminance" maskUnits="userSpaceOnUse" x="-52" y="-784" width="783" height="1391">
<path d="M-51.583 606.015H730.072V-783.594H-51.583V606.015Z" fill="white"/>
</mask>
<g mask="url(#mask10_230_20227)">
<path d="M80.4595 0.803341C76.0106 -2.03595 72.5475 3.28292 75.5423 6.92703C73.7453 13.8932 72.6683 21.1199 73.1959 28.285C72.2391 28.3516 71.38 28.5738 70.6179 28.9205C69.588 26.747 68.5574 24.5287 67.4573 22.4154C63.8161 15.8878 59.5684 9.34871 53.5301 4.80063C54.1011 0.311908 47.701 -2.23426 46.2954 2.66122C45.5073 5.96588 48.7475 10.6421 52.0681 7.62038C59.6111 13.574 63.9985 22.3256 68.1608 30.7993C64.1526 35.5805 66.0554 45.3729 73.738 44.8112C73.7749 45.2469 73.8097 45.6464 73.8155 45.962C76.1525 58.15 78.9795 70.3808 83.7085 81.8928C85.8392 86.5436 88.3456 91.1489 92.078 94.764C93.359 95.8482 94.6017 97.5628 96.4241 97.5722C104.881 96.1515 95.7054 81.4839 94.0958 76.9112C90.7875 70.6116 87.8903 64.0074 84.768 57.5927C83.0216 53.9443 81.2651 50.2901 79.5346 46.6344C78.9295 45.3852 78.3578 44.1215 77.7831 42.86C79.9254 40.6981 80.757 37.1821 79.9782 34.1909C79.7655 31.4189 78.1392 29.2599 75.6958 28.5325C75.3665 21.8024 76.5274 15.1872 78.1703 8.61845C82.7314 10.181 83.7823 2.72419 80.4595 0.803341Z" fill="#AFAFAF"/>
</g>
</g>
<defs>
<clipPath id="clip0_230_20227">
<rect width="158" height="127.186" fill="white"/>
</clipPath>
</defs>
</svg>
