<svg width="122" height="196" viewBox="0 0 122 196" fill="none" xmlns="http://www.w3.org/2000/svg">
<g clip-path="url(#clip0_83_3613)">
<path d="M93.1594 13.3996C92.0006 12.0738 90.8874 10.6724 90.1269 9.05375C89.4511 7.59337 88.6157 6.15421 88.4266 4.51772C88.0851 2.75196 88.7296 -0.682152 91.0819 0.83475C91.9705 1.42271 92.7416 2.25704 93.1258 3.28528C93.5905 1.85362 94.4085 -0.123228 96.1433 0.00604329C98.1427 0.388548 98.3823 2.91651 97.9723 4.6167C97.5253 6.45959 96.5131 8.14542 95.727 9.82657C95.2965 10.7218 94.8979 11.6329 94.5065 12.5472C94.2819 13.083 93.7781 14.0772 93.1594 13.3996ZM93.5656 12.6874C94.2014 11.4159 94.7022 10.0604 95.3626 8.80021C96.3186 6.76466 98.6748 2.85344 96.5017 0.971828C94.6388 -0.0445403 93.7664 3.61626 93.4709 4.93863C93.4931 5.39202 93.5277 5.88943 93.3852 6.32127C93.1658 6.6204 92.8555 6.36498 92.9057 6.03868C92.3466 5.82698 92.7374 5.04167 92.7762 4.60172C92.6586 4.00095 92.4942 3.39987 92.1518 2.89247C89.6471 -0.419864 88.7092 1.80959 89.2367 4.89741C89.455 6.01339 90.0066 7.01196 90.4708 8.03208C91.2265 9.75194 92.3523 11.3044 93.5656 12.6874Z" fill="#FFA9BE"/>
<path d="M14.2227 22.3201C13.0638 20.9943 11.9506 19.5929 11.1901 17.9742C10.5143 16.5138 9.6789 15.0747 9.48982 13.4382C9.14832 11.6724 9.79283 8.23832 12.1451 9.75522C13.0337 10.3432 13.8048 11.1775 14.189 12.2057C14.6538 10.7741 15.4717 8.79724 17.2066 8.92651C19.2059 9.30902 19.4455 11.837 19.0355 13.5372C18.5885 15.3801 17.5763 17.0659 16.7902 18.747C16.3597 19.6423 15.9611 20.5534 15.5697 21.4677C15.3452 22.0035 14.8413 22.9977 14.2227 22.3201ZM14.6288 21.6079C15.2646 20.3364 15.7654 18.9809 16.4259 17.7207C17.3818 15.6851 19.738 11.7739 17.5649 9.8923C15.702 8.87593 14.8296 12.5367 14.5341 13.8591C14.5564 14.3125 14.5912 14.8099 14.4484 15.2417C14.229 15.5409 13.9188 15.2855 13.969 14.9592C13.4098 14.7474 13.8006 13.9621 13.8394 13.5222C13.7219 12.9214 13.5574 12.3203 13.215 11.8129C10.7103 8.50061 9.77239 10.7301 10.3 13.8179C10.5182 14.9339 11.0698 15.9324 11.534 16.9525C12.2897 18.6724 13.4155 20.2249 14.6288 21.6079Z" fill="#FFA9BE"/>
<path d="M62.809 51.2436C62.7954 49.0257 62.4371 46.809 61.5365 44.7879C61.305 44.1937 61.0612 43.6004 60.8766 42.9877C60.7134 42.3839 60.1257 42.4166 59.8777 42.9337C57.8161 45.7627 56.1798 49.3779 57.0384 52.9822C57.4611 54.2028 57.8287 55.7828 59.1589 56.2446C59.3817 56.4903 59.7617 56.509 60.0042 56.287C60.4122 56.1818 60.8457 56.1097 61.1917 55.8465C62.6394 54.8282 62.8646 52.9251 62.809 51.2436Z" fill="#EF9107"/>
<path d="M59.9874 56.5145C58.2237 56.1386 58.9013 53.0835 58.9692 51.734C59.0964 50.9777 59.7343 48.6446 60.0692 48.8501C60.4497 48.8744 61.6155 56.4155 59.9874 56.5145Z" fill="#FFDFB1"/>
<path d="M59.2874 60.0434C59.3505 58.5839 59.3911 57.1204 59.3364 55.6597C59.2865 55.295 59.4338 54.8632 59.8402 54.8647C60.078 54.8647 60.3071 55.0577 60.3314 55.3072C60.4484 56.129 60.4544 56.9637 60.4469 57.7936C60.455 58.5443 60.4439 59.294 60.3994 60.0434C60.3873 60.3584 60.1556 60.6207 59.8432 60.6207C59.5489 60.6207 59.2769 60.3584 59.2874 60.0434Z" fill="#FFC5C5"/>
<path d="M66.3164 87.6284C66.4354 88.7278 65.0141 88.7185 64.2887 88.8699C62.8497 89.0148 61.4049 89.1771 59.9587 89.1138C58.9922 89.0997 58.0916 88.8112 57.1774 88.538C56.608 88.5642 55.8824 88.3388 55.9392 87.6159C55.9392 86.4194 56.0044 85.2275 56.0236 84.0322C56.1532 77.8622 56.3703 71.6953 56.559 65.5284C56.6138 64.1311 56.6823 62.7322 56.7106 61.3349C56.7136 61.0632 56.8696 60.8934 57.0614 60.8284C57.9383 59.9098 62.4691 58.3442 63.1142 58.9958C63.3418 59.2366 63.3568 59.621 63.4236 59.9145C63.7894 61.985 63.9514 64.0864 64.1549 66.18C64.589 70.5203 64.8223 74.8809 65.2281 79.218C65.5209 81.2282 65.744 83.2463 65.9716 85.2659C66.0488 85.9376 66.1573 86.6033 66.2331 87.2749C66.2361 87.3149 66.2361 87.3552 66.2331 87.3936C66.2746 87.4601 66.3043 87.5388 66.3164 87.6284Z" fill="#D8FCFC"/>
<path d="M58.1872 65.5745C57.6139 65.5492 56.9694 65.6222 56.4548 65.3312C56.0817 65.1186 56.244 64.48 56.6556 64.4738C58.4484 64.4966 60.2581 64.5125 62.0327 64.2003C62.5428 64.1094 63.1227 63.9976 63.6262 63.9408C63.9833 63.8477 64.4472 63.9355 64.5034 64.3886C64.5557 64.718 64.2686 65.0387 63.9587 65.0249C62.0302 65.275 60.1397 65.6578 58.1872 65.5745Z" fill="#83C4C2"/>
<path d="M59.3883 72.1487C58.6172 72.1437 57.8404 72.1453 57.0693 72.1085C56.7609 72.0985 56.42 72.0769 56.1789 71.8493C55.823 71.5068 56.224 70.8632 56.6683 71.0556C56.6581 71.0509 56.6476 71.0465 56.6374 71.0415C56.6199 71.0378 56.6016 71.0349 56.5847 71.0309C59.0663 71.1839 61.5653 71 64.0403 70.7895C64.2859 70.7736 64.5627 70.6674 64.7723 70.8641C64.9848 71.054 65.0488 71.3828 64.8661 71.6239C64.6571 71.9086 64.2913 71.8608 63.9865 71.8858C62.4566 72.0085 60.9247 72.1469 59.3883 72.1487Z" fill="#83C4C2"/>
<path d="M56.167 80.0298C55.802 79.973 55.621 79.5009 55.8874 79.2177C56.0106 79.0741 56.1862 79.0756 56.2902 79.0834C57.0252 79.124 57.7542 78.9919 58.4859 78.9398C60.4648 78.8361 62.4417 78.7562 64.3978 78.4008C64.867 78.3515 65.6261 78.0799 65.7415 78.7759C65.7941 79.1787 65.4484 79.4372 65.0889 79.4322C64.6274 79.4662 64.172 79.5602 63.7124 79.6146C62.1909 79.8678 60.6533 79.899 59.1163 79.9649C58.1348 79.9458 57.1412 80.2088 56.167 80.0298Z" fill="#83C4C2"/>
<path d="M58.6133 86.4112C57.6781 86.3765 56.7742 86.4336 55.9048 86.107C55.6998 86.0096 55.5943 85.7626 55.6836 85.5419C55.9036 85.0663 56.4576 85.4129 56.8406 85.3832C58.7988 85.446 60.7642 85.4276 62.6984 85.0769C63.7565 84.9358 64.8216 84.8452 65.8825 84.7266C66.178 84.7004 66.4545 84.8933 66.4963 85.2099C66.5658 86.1589 65.1066 85.8319 64.518 85.9659C62.5508 86.1476 60.5968 86.5489 58.6133 86.4112Z" fill="#83C4C2"/>
<path d="M84.1358 50.6645C81.2998 50.0512 81.8803 46.6365 82.4812 44.4682C82.8016 43.2898 83.2045 42.1323 83.6452 40.9973C83.7269 40.7984 83.8246 40.5283 84.048 40.4571C84.2999 39.9228 85.0722 40.0246 85.1954 40.6051C85.3776 41.4669 85.5369 42.314 85.8006 43.1527C86.3282 45.0702 87.0887 47.1511 86.3699 49.122C85.9891 50.0141 85.123 50.8112 84.1358 50.6645Z" fill="#EF9107"/>
<path d="M83.6779 50.0443C83.0289 49.2206 83.4227 48.0565 83.5412 47.1151C83.6274 46.608 83.7209 46.0963 83.8649 45.602C83.8358 45.4499 83.8836 45.2894 83.984 45.1761C84.0246 44.7445 84.5425 44.579 84.7602 44.9737C84.8882 45.3047 84.8594 45.686 84.9547 46.0319C85.3202 47.1482 85.8664 51.4054 83.6779 50.0443Z" fill="#FFDFB1"/>
<path d="M83.939 53.3916C83.8002 52.5189 83.9432 51.6034 83.8648 50.7157C83.8624 50.4143 83.8567 50.0996 83.9511 49.8108C84.224 49.2787 84.8496 49.5975 84.8162 50.143C84.9251 51.1946 84.9668 52.2719 84.9365 53.3236C84.8192 53.8132 84.1194 53.8637 83.939 53.3916Z" fill="#FFC5C5"/>
<path d="M87.3965 57.3961C87.4425 62.808 87.2405 68.2198 87.248 73.6317C87.248 77.4362 87.1912 81.2437 87.3177 85.0466C87.337 85.8482 87.352 86.6509 87.3652 87.4525C87.3758 87.6408 87.389 87.8662 87.3607 88.0717C87.3577 88.3202 87.3147 88.5578 87.1659 88.7786C86.8912 89.157 86.3783 89.0581 85.9812 89.1692C84.6865 89.39 83.3857 89.6866 82.066 89.5586C81.7492 89.5214 81.3004 89.4812 81.1681 89.1168C81.1561 89.0921 81.147 89.0674 81.1413 89.0412C81.1176 89.0197 81.0938 88.9919 81.0728 88.9625C80.9568 88.8111 80.945 88.615 80.948 88.422C80.9583 88.1316 80.8693 87.8181 80.9526 87.5371C80.9541 86.0149 80.948 84.4892 80.9568 82.9655C80.9198 75.5109 80.9273 68.0562 81.1233 60.6032C81.1813 58.9511 81.2586 57.3002 81.3091 55.6481C81.3121 54.969 81.4474 54.2926 81.4786 53.6254C81.4906 53.5361 81.5276 53.4539 81.5826 53.3893C81.95 52.6574 83.9776 52.8413 84.5795 52.7917C85.3809 52.8425 86.3976 52.6171 87.0442 53.2085C87.5495 54.5056 87.3208 56.0156 87.3965 57.3961Z" fill="#83C4C2"/>
<path d="M82.4541 56.9018C82.4541 56.5792 82.7141 56.3088 83.025 56.3088C83.3355 56.3088 83.5958 56.5792 83.5958 56.9018C83.5958 57.2243 83.3355 57.4948 83.025 57.4948C82.7141 57.4948 82.4541 57.2243 82.4541 56.9018Z" fill="#D8FCFC"/>
<path d="M85.2902 60.0933C85.2902 59.7707 85.5487 59.5019 85.8595 59.5019C86.1701 59.5019 86.4289 59.7707 86.4289 60.0933C86.4289 60.4158 86.1701 60.6847 85.8595 60.6847C85.5487 60.6847 85.2902 60.4158 85.2902 60.0933Z" fill="#D8FCFC"/>
<path d="M83.2766 64.6183C83.2766 64.2958 83.5366 64.0254 83.8475 64.0254C84.158 64.0254 84.4183 64.2958 84.4183 64.6183C84.4183 64.9409 84.158 65.2113 83.8475 65.2113C83.5366 65.2113 83.2766 64.9409 83.2766 64.6183Z" fill="#D8FCFC"/>
<path d="M85.1704 70.4088C85.1704 70.0891 85.4289 69.8205 85.7368 69.8205C86.0446 69.8205 86.3031 70.0891 86.3031 70.4088C86.3031 70.7285 86.0446 70.9971 85.7368 70.9971C85.4289 70.9971 85.1704 70.7285 85.1704 70.4088Z" fill="#D8FCFC"/>
<path d="M82.0562 75.54C82.0562 75.2171 82.3147 74.9486 82.6255 74.9486C82.936 74.9486 83.1949 75.2171 83.1949 75.54C83.1949 75.8625 82.936 76.1313 82.6255 76.1313C82.3147 76.1313 82.0562 75.8625 82.0562 75.54Z" fill="#D8FCFC"/>
<path d="M81.8197 82.5809C81.8197 82.2596 82.0767 81.9926 82.3861 81.9926C82.6954 81.9926 82.9524 82.2596 82.9524 82.5809C82.9524 82.9022 82.6954 83.1692 82.3861 83.1692C82.0767 83.1692 81.8197 82.9022 81.8197 82.5809Z" fill="#D8FCFC"/>
<path d="M84.7135 84.5954C84.7135 84.2741 84.972 84.0056 85.2814 84.0056C85.5907 84.0056 85.8492 84.2741 85.8492 84.5954C85.8492 84.9167 85.5907 85.1852 85.2814 85.1852C84.972 85.1852 84.7135 84.9167 84.7135 84.5954Z" fill="#D8FCFC"/>
<path d="M84.9834 78.408C84.9834 78.0855 85.2434 77.8151 85.5543 77.8151C85.8648 77.8151 86.1251 78.0855 86.1251 78.408C86.1251 78.7306 85.8648 79.001 85.5543 79.001C85.2434 79.001 84.9834 78.7306 84.9834 78.408Z" fill="#D8FCFC"/>
<path d="M82.0122 68.2326C82.0122 67.9206 82.2635 67.6596 82.5635 67.6596C82.8638 67.6596 83.1152 67.9206 83.1152 68.2326C83.1152 68.5445 82.8638 68.8052 82.5635 68.8052C82.2635 68.8052 82.0122 68.5445 82.0122 68.2326Z" fill="#D8FCFC"/>
<path d="M84.8708 54.5407C84.8708 54.2319 85.1177 53.9756 85.415 53.9756C85.7123 53.9756 85.9591 54.2319 85.9591 54.5407C85.9591 54.8495 85.7123 55.1059 85.415 55.1059C85.1177 55.1059 84.8708 54.8495 84.8708 54.5407Z" fill="#D8FCFC"/>
<path d="M81.7949 87.5219C81.7949 87.2162 82.0417 86.9598 82.336 86.9598C82.6303 86.9598 82.8771 87.2162 82.8771 87.5219C82.8771 87.8276 82.6303 88.0839 82.336 88.0839C82.0417 88.0839 81.7949 87.8276 81.7949 87.5219Z" fill="#D8FCFC"/>
<path d="M35.2382 50.7269C33.5163 49.0616 34.0207 45.3752 34.2014 43.2504C34.3141 42.2468 34.4641 41.2448 34.6475 40.2487C34.8375 39.4522 35.4171 36.6894 36.0556 37.3323C36.5952 37.8757 37.4285 40.9466 37.7721 44.0997C38.0192 46.3654 38.2137 48.0087 37.2012 50.1292C36.9917 50.4571 36.6024 50.8349 36.0505 50.754C35.7922 50.8633 35.4859 50.8683 35.2382 50.7269Z" fill="#EF9107"/>
<path d="M35.9284 50.9714C35.0404 50.8003 35.1684 49.8083 35.1955 49.2035C35.2285 48.5952 35.2739 47.9717 35.3467 47.3575C35.4239 46.5809 35.5845 43.9986 36.2073 44.1026C36.6802 44.2531 36.8014 46.5075 36.7929 47.1848C36.8041 48.0169 37.4474 51.0938 35.9284 50.9714Z" fill="#FFDFB1"/>
<path d="M35.7374 52.8858C35.316 52.6809 35.4245 52.1155 35.4362 51.7045C35.4786 51.2449 35.4512 50.775 35.5144 50.3178C35.6283 49.7108 36.427 49.4298 36.4944 50.207C36.4872 50.9452 36.4559 51.7339 36.4466 52.439C36.4457 52.4386 36.4448 52.4383 36.4442 52.438C36.4159 52.7909 36.0305 53.0463 35.7374 52.8858Z" fill="#FFC5C5"/>
<path d="M39.7224 87.1371C39.3965 83.3842 39.1921 79.6522 38.9405 75.878C38.6218 70.6082 38.234 65.2282 38.2656 59.9281C38.2566 58.9104 38.2106 57.8944 38.1748 56.8768C38.0786 55.6453 38.2596 54.3625 38.0338 53.1541C37.7606 52.317 34.9631 52.0285 34.4749 52.688C33.9894 53.5766 34.2494 54.7244 34.1998 55.7143C34.2903 58.8502 34.2611 61.9911 34.2563 65.1282C34.2052 73.3935 34.4373 81.6527 34.3606 89.9186C34.2103 90.1893 34.2909 90.5833 34.6059 90.7179C35.2748 90.8569 35.9794 90.8541 36.6618 90.8862C37.4624 90.8428 38.388 90.9468 39.0956 90.5112C39.5249 90.4019 39.5925 89.9532 39.609 89.5426C40.2175 89.1623 39.6761 87.7894 39.7224 87.1371Z" fill="#83C4C2"/>
<path d="M17.9085 96.9164C16.3471 98.2138 11.1105 186.219 15.5093 192.242C19.9079 198.264 107.283 193.696 109.682 190.788C112.081 187.881 103.484 95.0473 101.684 92.3473C99.8849 89.6476 21.9073 93.5934 17.9085 96.9164Z" fill="#EF9107"/>
<mask id="mask0_83_3613" style="mask-type:luminance" maskUnits="userSpaceOnUse" x="13" y="91" width="97" height="79">
<path d="M17.9087 96.9163C16.8148 97.8256 13.9166 141.299 13.7921 169.317H109.388C107.596 140.906 102.952 94.25 101.684 92.3475C101.266 91.7193 96.7182 91.4507 89.9402 91.4507C67.5941 91.4504 20.9768 94.3668 17.9087 96.9163Z" fill="white"/>
</mask>
<g mask="url(#mask0_83_3613)">
<path d="M113.773 170.536C110.629 170.416 107.486 170.186 104.341 170.062C100.007 170.149 95.6804 170.519 91.3387 170.388C85.6255 170.304 79.9199 170.014 74.2052 170.004C70.131 169.8 66.0057 169.564 61.9357 169.572H61.9907C61.9982 169.572 62.0057 169.572 62.0129 169.572C57.5966 169.635 53.1857 169.617 48.7727 169.442C48.7814 169.442 48.7904 169.442 48.7994 169.442H48.8484C41.9719 169.347 35.1032 169.631 28.2357 169.23C24.8928 169.013 21.6074 169.071 18.2742 169.099C15.1939 169.09 12.1724 168.921 9.19029 169.771C8.96363 169.773 8.77906 169.555 8.80822 169.319C8.79228 168.278 13.5173 168.032 14.3969 167.983C17.9255 167.993 21.486 167.892 25.0092 167.936C27.5869 167.975 30.2537 168.234 32.8173 168.251C40.0465 168.313 47.3 168.13 54.5207 168.435C59.6336 168.448 64.7434 168.299 69.8457 168.597C75.3608 168.983 80.8881 168.8 86.4071 169.106C90.4512 169.207 94.4581 169.297 98.4858 169.12C100.64 169.03 102.791 168.821 104.95 168.895C106.45 168.936 107.943 169.051 109.44 169.157C110.966 169.307 112.517 169.171 114.034 169.387C114.33 169.474 114.522 169.787 114.442 170.108C114.367 170.412 114.062 170.596 113.773 170.536Z" fill="#FFC04F"/>
<path d="M39.6691 119.065C31.5024 118.808 23.298 119.47 15.167 118.434C13.8972 118.291 12.6274 118.141 11.357 118.007C11.0125 117.944 10.5896 118.019 10.3112 117.766C10.3115 117.767 10.3118 117.769 10.3121 117.771C10.0662 117.484 10.2772 117.038 10.6539 117.045C11.4541 117.033 12.2541 117.118 13.0516 117.182C15.1625 117.371 17.2692 117.609 19.3828 117.754C24.8107 118.079 30.2512 117.777 35.6854 117.866C39.1193 117.928 42.5812 117.934 46.0061 117.871C55.954 117.657 65.9043 117.356 75.8329 116.609C85.5421 116.079 95.2607 115.73 104.961 115.019C106.551 114.939 108.134 114.688 109.727 114.67C110.197 114.673 110.453 115.36 110.08 115.684C109.91 115.858 109.664 115.838 109.443 115.841C107.571 115.932 105.709 116.183 103.834 116.251C99.5183 116.53 95.2039 116.861 90.8807 117.034C81.7577 117.426 72.6425 117.987 63.5261 118.506C55.5755 118.834 47.6207 119.056 39.6691 119.065Z" fill="#FFC04F"/>
<path d="M37.8227 138.289C33.6992 137.93 30.1204 135.494 26.394 133.843C24.6877 133.121 22.8504 132.968 21.0281 133.006C18.7224 133.079 16.3382 133.313 14.2231 134.326C13.575 134.536 12.2492 135.75 11.6901 135.164C11.6026 135.16 11.5272 135.089 11.5191 134.995C11.51 134.895 11.5843 134.802 11.6811 134.794C12.2529 134.807 12.665 134.351 13.1258 134.099C16.364 132.059 20.4007 131.82 24.0934 132.153C26.2188 132.426 28.1153 133.498 30.017 134.449C32.3672 135.529 34.7664 136.815 37.3363 137.151C40.6395 137.514 43.8335 136.272 46.9647 135.386C51.2091 134.034 55.7065 133.005 60.1649 133.326C65.8655 133.913 71.0697 137.355 76.8875 137.074C80.8042 137.061 84.1762 134.899 87.7844 133.63C90.4833 132.655 93.3034 131.918 96.1592 131.695C97.7167 131.657 99.2609 131.98 100.76 132.389C102.534 132.887 104.003 134.119 105.705 134.802C109.86 136.673 113.072 132.899 117.083 132.605C117.532 132.559 117.981 132.517 118.433 132.519C118.702 132.52 118.928 132.767 118.951 133.036C118.976 133.332 118.751 133.639 118.454 133.65C117.407 133.696 116.357 133.822 115.35 134.129C111.818 135.398 109.195 137.542 105.292 135.878C103.113 134.917 101.137 133.355 98.7204 133.09C96.6796 132.623 94.6937 132.944 92.6913 133.389C89.1324 134.106 85.868 135.658 82.5147 137.015C78.5625 138.744 74.1209 138.431 70.0681 137.254C66.6886 136.234 63.411 134.764 59.8724 134.434C56.4776 134.251 53.035 134.849 49.7475 135.71C45.8209 136.753 41.9387 138.479 37.8227 138.289Z" fill="#FFC04F"/>
<path d="M12.1347 152.907C11.7421 152.842 11.6396 152.288 11.9549 152.056C12.0713 151.97 12.2222 151.949 12.3566 151.993C15.0383 150.787 17.9363 151.809 20.7425 151.615C25.053 151.437 29.334 150.798 33.6415 150.565C39.3348 150.434 45.0315 150.509 50.7218 150.252C59.4702 150.059 68.203 149.229 76.9587 149.451C82.4064 149.511 87.8509 149.738 93.3004 149.733C98.6735 149.681 104.038 149.662 109.412 149.887C110.565 149.92 111.667 149.825 112.807 149.695C113.071 149.674 113.319 149.89 113.366 150.157C113.42 150.467 113.201 150.809 112.883 150.82C110.975 151.092 109.048 151.03 107.13 150.951C101.643 150.703 96.1523 150.904 90.664 150.833C85.2139 150.825 79.7728 150.557 74.3226 150.55C66.642 150.496 58.979 151.197 51.3026 151.364C45.5702 151.613 39.8212 151.593 34.0915 151.688C30.3257 151.855 26.5819 152.38 22.8206 152.612C20.1172 152.905 17.4228 152.537 14.7254 152.403C13.8338 152.383 13.0107 152.894 12.1347 152.907Z" fill="#FFC04F"/>
<path d="M14.7804 157.017C13.2713 156.998 11.7574 156.96 10.2658 156.695C10.0487 156.66 9.90475 156.428 9.94323 156.209C9.98201 155.988 10.1976 155.828 10.4116 155.874C12.8354 156.261 15.3065 156.089 17.7457 156.085C23.3214 155.974 28.8774 155.285 34.4498 155.23C37.768 155.244 41.0703 155.65 44.3872 155.706C46.9007 155.744 49.4138 155.743 51.9266 155.814C60.3182 155.763 68.6849 155.27 77.0783 155.424C81.7285 155.663 86.3736 155.335 91.019 155.357C96.5097 155.312 102.008 155.498 107.492 155.182C109.723 155.119 111.966 154.923 114.197 154.935C114.489 154.909 114.775 155.143 114.794 155.456C114.819 155.764 114.592 156.05 114.293 156.075C108.808 156.194 103.331 156.61 97.839 156.516C93.0082 156.464 88.1908 156.475 83.3783 156.638C80.0427 156.749 76.7092 156.481 73.3727 156.55C65.1416 156.493 56.9282 157.11 48.7025 156.864C43.3192 156.97 37.967 156.279 32.5878 156.308C26.6579 156.633 20.7241 157.159 14.7804 157.017Z" fill="#FFC04F"/>
<path d="M22.9662 125.61C22.1707 125.466 22.643 124.364 22.6361 123.799C22.8062 123.26 22.5531 121.879 23.3603 121.986C23.6383 122.032 23.8253 122.364 23.7216 122.636C23.6588 123.068 23.6092 123.502 23.5593 123.937C23.4138 124.467 23.727 125.575 22.9662 125.61Z" fill="#FFC04F"/>
<path d="M27.017 130.156C26.7287 129.871 26.8967 129.339 26.8432 129.002C26.842 128.972 26.8426 128.959 26.8432 128.986C26.8348 128.668 26.8315 128.339 26.8252 128.033C26.7473 127.769 26.8952 127.462 27.1805 127.435C27.825 127.444 27.5842 128.293 27.6828 128.734C27.7111 129.073 27.7409 129.413 27.7631 129.753C27.8028 130.16 27.3134 130.429 27.017 130.156Z" fill="#FFC04F"/>
<path d="M31.4415 123.616C31.214 123.605 31.0357 123.399 31.0474 123.165C31.0817 122.368 31.1382 121.573 31.162 120.776C31.171 120.52 31.4118 120.328 31.6511 120.373C31.9724 120.437 32.0379 120.78 31.949 121.056C31.8961 121.771 31.8873 122.49 31.8756 123.206C31.8714 123.441 31.661 123.626 31.4415 123.616Z" fill="#FFC04F"/>
<path d="M35.1833 133.186C34.494 133.115 34.8646 131.823 34.7642 131.322C34.7453 130.74 34.7245 130.158 34.6809 129.576C34.6617 129.319 34.846 129.086 35.0958 129.065C35.3351 129.043 35.5759 129.236 35.5876 129.494C35.6396 130.582 35.6516 131.676 35.6279 132.766C35.6237 133.007 35.4087 133.197 35.1833 133.186Z" fill="#FFC04F"/>
<path d="M38.3883 124.363C38.3808 123.42 38.3706 122.475 38.3898 121.531C38.4184 120.938 39.2908 120.98 39.2667 121.576C39.2222 122.434 39.2628 123.264 39.2757 124.106C39.2757 124.301 39.3142 124.521 39.1777 124.684C38.9138 125.022 38.3703 124.796 38.3883 124.363Z" fill="#FFC04F"/>
<path d="M43.3678 127.665C42.8294 127.61 43.0363 126.942 43.0528 126.572C43.1135 126.28 43.0387 125.873 43.3261 125.702C43.6886 125.489 44.0836 126.002 43.8025 126.321C43.6994 126.759 44.0166 127.628 43.3678 127.665Z" fill="#FFC04F"/>
<path d="M42.3212 134.784C42.0966 134.773 41.9063 134.565 41.9229 134.327C41.9659 133.709 42.0344 133.093 42.0744 132.474C42.0891 132.252 42.2692 132.076 42.4862 132.087C43.0712 132.164 42.7926 132.916 42.8103 133.328C42.7108 133.799 43.0003 134.746 42.3212 134.784Z" fill="#FFC04F"/>
<path d="M50.6052 124.531C50.3614 124.518 50.1949 124.305 50.1949 124.061C50.1949 123.3 50.2205 122.538 50.2105 121.776C50.1507 121.458 50.2036 121.05 50.583 121.016C51.3532 121.058 50.9882 122.171 51.0616 122.699C50.9636 123.224 51.3586 124.521 50.6052 124.531Z" fill="#FFC04F"/>
<path d="M48.5801 131.843C47.8884 131.759 48.2918 130.542 48.21 130.033C48.2975 129.524 47.9638 128.496 48.6931 128.44C48.9237 128.452 49.1287 128.668 49.1079 128.915C49.0349 129.751 49.0319 130.594 49.0156 131.432C49.0114 131.668 48.801 131.854 48.5801 131.843Z" fill="#FFC04F"/>
<path d="M61.8802 124.755C61.6542 124.742 61.5042 124.546 61.5012 124.32C61.4922 123.441 61.5117 122.562 61.5562 121.684C61.5697 121.426 61.7853 121.22 62.0348 121.233C62.2801 121.245 62.4851 121.472 62.4689 121.73C62.4123 122.607 62.3558 123.484 62.2993 124.361C62.2852 124.587 62.0982 124.766 61.8802 124.755Z" fill="#FFC04F"/>
<path d="M57.4323 129.108C57.2182 129.098 57.0784 128.912 57.0754 128.701C57.0562 127.915 57.0823 127.217 57.0397 126.473C56.9988 125.948 57.7722 125.878 57.8158 126.403C57.833 127.18 57.8191 127.96 57.8246 128.738C57.8261 128.951 57.6286 129.118 57.4323 129.108Z" fill="#FFC04F"/>
<path d="M64.9933 132.023C64.5703 131.989 64.6395 131.526 64.6882 131.217C64.7645 130.459 64.938 129.696 64.9665 128.929C64.9873 128.441 65.7048 128.476 65.6889 128.966C65.651 129.735 65.4974 130.506 65.4199 131.268C65.3901 131.57 65.3946 132.039 64.9933 132.023Z" fill="#FFC04F"/>
<path d="M70.2078 123.742C69.4677 123.625 69.9607 122.477 69.9225 121.95C70.0584 121.446 69.8332 120.196 70.5779 120.25C71.1824 120.412 70.7715 121.135 70.7799 121.571C70.7228 122.154 70.6789 122.738 70.6554 123.323C70.6452 123.564 70.4381 123.755 70.2078 123.742Z" fill="#FFC04F"/>
<path d="M76.3719 129.755C76.1534 129.744 75.9571 129.537 75.9778 129.304C76.09 128.041 76.2213 126.901 76.4122 125.678C76.521 125.073 77.4084 125.239 77.3083 125.85C77.1093 127 76.9395 128.059 76.8247 129.182C76.8241 129.463 76.6831 129.776 76.3719 129.755Z" fill="#FFC04F"/>
<path d="M72.0769 134.168C71.8598 134.157 71.7098 133.966 71.7098 133.748C71.7134 132.805 71.7363 131.898 71.7186 130.989V131.017V131.043C71.7168 130.92 71.7134 130.832 71.7113 130.748C71.6882 130.182 72.4965 130.165 72.4932 130.733C72.4857 131.75 72.4752 132.769 72.4812 133.787C72.4827 134.006 72.2792 134.177 72.0769 134.168Z" fill="#FFC04F"/>
<path d="M81.0249 133.678C80.8004 133.665 80.6014 133.455 80.6221 133.216C80.7027 132.233 80.8163 131.255 80.9537 130.279C81.0583 129.694 81.9213 129.854 81.823 130.446C81.6625 131.39 81.5591 132.312 81.4695 133.259C81.4464 133.498 81.2609 133.691 81.0249 133.678Z" fill="#FFC04F"/>
<path d="M82.719 123.124C82.4737 123.112 82.2744 122.886 82.2879 122.631C82.3576 121.423 82.5287 120.22 82.6847 119.02C82.7205 118.748 82.9985 118.569 83.2498 118.617C84.0179 118.819 83.4074 120.112 83.4296 120.697C83.34 121.357 83.2501 122.014 83.1915 122.678C83.1702 122.933 82.9685 123.137 82.719 123.124Z" fill="#FFC04F"/>
<path d="M91.8352 124.043C91.7919 123.173 91.8373 122.302 91.8767 121.434C91.8887 121.141 91.9095 120.844 91.9065 120.551C91.9311 120.013 92.7208 120.048 92.7049 120.591C92.6992 121.153 92.6637 121.712 92.6529 122.274C92.6379 122.858 92.6439 123.443 92.6556 124.026C92.6601 124.236 92.4728 124.414 92.281 124.431C92.0658 124.451 91.8442 124.277 91.8352 124.043Z" fill="#FFC04F"/>
<path d="M88.7132 129.688C88.5957 129.586 88.5452 129.443 88.5437 129.287C88.5488 128.643 88.5819 127.998 88.6225 127.355C88.6676 127.048 88.5783 126.428 89.0349 126.478C89.0358 126.477 89.0364 126.477 89.0373 126.477C89.1482 126.491 89.2387 126.583 89.2724 126.691C89.3833 127.103 89.3587 127.544 89.3971 127.968C89.4269 128.402 89.4684 128.834 89.4921 129.268C89.5324 129.691 89.0241 129.973 88.7132 129.688Z" fill="#FFC04F"/>
<path d="M100.642 122.804C100.567 121.826 100.638 120.833 100.688 119.852C100.709 119.6 100.907 119.398 101.156 119.411C101.89 119.5 101.453 120.693 101.556 121.196C101.567 121.678 101.568 122.165 101.625 122.645C101.655 122.899 101.473 123.141 101.238 123.195C100.984 123.255 100.687 123.083 100.642 122.804Z" fill="#FFC04F"/>
<path d="M98.5227 128.104C98.4631 127.598 98.4439 127.088 98.3856 126.582C98.1024 126.099 98.783 125.583 99.1425 126.01C99.392 126.512 99.3379 127.429 99.4251 128.022C99.4624 128.634 98.5906 128.716 98.5227 128.104Z" fill="#FFC04F"/>
<path d="M104.373 130.829C104.112 130.817 103.937 130.567 103.974 130.307C104.049 129.787 104.118 129.267 104.185 128.746C104.275 128.356 103.966 127.711 104.524 127.624C105.201 127.608 104.885 128.74 104.914 129.191C104.79 129.686 105.071 130.8 104.373 130.829Z" fill="#FFC04F"/>
<path d="M18.3652 128.798C18.1094 128.785 17.9312 128.56 17.9312 128.302C17.9357 127.487 17.9609 126.673 18.0024 125.859C18.0174 125.585 18.2462 125.367 18.5122 125.381C18.7726 125.393 18.9911 125.634 18.9731 125.909C18.9211 126.721 18.8796 127.535 18.8423 128.348C18.8309 128.606 18.6117 128.811 18.3652 128.798Z" fill="#FFC04F"/>
<path d="M20.106 142.906C20.1222 142.573 20.3943 142.343 20.7051 142.343C21.0157 142.343 21.261 142.654 21.2477 142.965C21.2312 143.298 20.9591 143.528 20.6486 143.528C20.3378 143.528 20.0925 143.217 20.106 142.906Z" fill="#FFC04F"/>
<path d="M22.872 138.51C22.8867 138.177 23.1588 137.948 23.4696 137.948C23.7801 137.948 24.0254 138.258 24.0107 138.569C23.9957 138.902 23.7236 139.131 23.4131 139.131C23.1023 139.131 22.857 138.82 22.872 138.51Z" fill="#FFC04F"/>
<path d="M26.3144 144.217C26.3291 143.887 26.5982 143.661 26.906 143.661C27.2138 143.661 27.4561 143.969 27.4426 144.276C27.4264 144.606 27.1573 144.832 26.8495 144.832C26.5419 144.832 26.2994 144.526 26.3144 144.217Z" fill="#FFC04F"/>
<path d="M31.8614 147.432C31.8761 147.099 32.1467 146.872 32.4575 146.872C32.768 146.872 33.0118 147.18 32.9971 147.491C32.9821 147.824 32.7115 148.051 32.401 148.051C32.0904 148.051 31.8463 147.742 31.8614 147.432Z" fill="#FFC04F"/>
<path d="M34.7552 142.24C34.7714 141.909 35.0405 141.682 35.3483 141.682C35.6561 141.682 35.8981 141.989 35.8849 142.298C35.8686 142.629 35.5996 142.856 35.2918 142.856C34.9842 142.856 34.7417 142.548 34.7552 142.24Z" fill="#FFC04F"/>
<path d="M39.2824 146.697C39.2971 146.364 39.5677 146.137 39.8785 146.137C40.189 146.137 40.4328 146.446 40.4181 146.756C40.4031 147.089 40.1325 147.316 39.822 147.316C39.5115 147.316 39.2674 147.008 39.2824 146.697Z" fill="#FFC04F"/>
<path d="M43.981 141.554C43.9957 141.222 44.2663 140.995 44.5756 140.995C44.8849 140.995 45.1284 141.304 45.1137 141.613C45.099 141.945 44.8284 142.172 44.5191 142.172C44.2101 142.172 43.966 141.863 43.981 141.554Z" fill="#FFC04F"/>
<path d="M48.6761 146.079C48.6908 145.752 48.9557 145.53 49.2587 145.53C49.5635 145.53 49.8028 145.832 49.7881 146.135C49.773 146.462 49.5085 146.684 49.2052 146.684C48.9006 146.684 48.6611 146.382 48.6761 146.079Z" fill="#FFC04F"/>
<path d="M54.2104 139.722C54.2251 139.392 54.4957 139.165 54.8035 139.165C55.1113 139.165 55.3533 139.472 55.3401 139.781C55.3254 140.111 55.0548 140.338 54.747 140.338C54.4394 140.338 54.1969 140.031 54.2104 139.722Z" fill="#FFC04F"/>
<path d="M60.0545 146.057C60.0707 145.728 60.3383 145.501 60.6461 145.501C60.9524 145.501 61.1947 145.809 61.1812 146.116C61.165 146.445 60.8974 146.672 60.5896 146.672C60.2836 146.672 60.041 146.365 60.0545 146.057Z" fill="#FFC04F"/>
<path d="M61.3935 142.527C61.4082 142.201 61.6731 141.979 61.9746 141.979C62.2779 141.979 62.5157 142.282 62.5025 142.583C62.4874 142.908 62.2229 143.131 61.9211 143.131C61.6181 143.131 61.38 142.828 61.3935 142.527Z" fill="#FFC04F"/>
<path d="M65.3454 139.204C65.3601 138.873 65.6292 138.646 65.9385 138.646C66.2463 138.646 66.4898 138.953 66.4751 139.262C66.4604 139.593 66.1913 139.82 65.882 139.82C65.5745 139.82 65.3304 139.512 65.3454 139.204Z" fill="#FFC04F"/>
<path d="M68.3641 143.661C68.3788 143.327 68.6508 143.099 68.9617 143.099C69.2722 143.099 69.5175 143.409 69.5028 143.719C69.4877 144.053 69.2157 144.281 68.9052 144.281C68.5943 144.281 68.349 143.971 68.3641 143.661Z" fill="#FFC04F"/>
<path d="M76.2275 146.326C76.2437 145.997 76.5113 145.772 76.8176 145.772C77.1239 145.772 77.3647 146.078 77.3512 146.385C77.3349 146.714 77.0674 146.939 76.7611 146.939C76.455 146.939 76.2139 146.634 76.2275 146.326Z" fill="#FFC04F"/>
<path d="M78.3395 141.924C78.3543 141.594 78.6233 141.368 78.9311 141.368C79.239 141.368 79.4813 141.676 79.4662 141.983C79.4515 142.313 79.1825 142.539 78.8746 142.539C78.5671 142.539 78.3245 142.233 78.3395 141.924Z" fill="#FFC04F"/>
<path d="M84.9965 145.867C85.0112 145.535 85.2818 145.308 85.5911 145.308C85.9005 145.308 86.144 145.616 86.1292 145.925C86.1145 146.257 85.8439 146.484 85.5346 146.484C85.2256 146.484 84.9815 146.175 84.9965 145.867Z" fill="#FFC04F"/>
<path d="M88.3288 139.007C88.3435 138.678 88.6114 138.452 88.9189 138.452C89.2252 138.452 89.4675 138.758 89.4525 139.065C89.4378 139.394 89.1702 139.62 88.8624 139.62C88.5564 139.62 88.3138 139.314 88.3288 139.007Z" fill="#FFC04F"/>
<path d="M88.5325 141.527C88.5473 141.211 88.8061 140.993 89.1004 140.993C89.3962 140.993 89.628 141.288 89.6148 141.583C89.5997 141.9 89.3427 142.117 89.0469 142.117C88.7511 142.117 88.519 141.822 88.5325 141.527Z" fill="#FFC04F"/>
<path d="M96.5679 136.942C96.5827 136.619 96.8445 136.4 97.1433 136.4C97.4436 136.4 97.6784 136.698 97.6649 136.997C97.6501 137.32 97.3883 137.539 97.0898 137.539C96.7895 137.539 96.5544 137.241 96.5679 136.942Z" fill="#FFC04F"/>
<path d="M92.4905 143.562C92.5053 143.236 92.7701 143.014 93.0716 143.014C93.3749 143.014 93.6127 143.316 93.5995 143.617C93.5845 143.943 93.3199 144.165 93.0181 144.165C92.7151 144.165 92.477 143.863 92.4905 143.562Z" fill="#FFC04F"/>
<path d="M102.116 146.388C102.133 146.063 102.397 145.839 102.699 145.839C103.002 145.839 103.241 146.141 103.228 146.444C103.212 146.77 102.947 146.994 102.645 146.994C102.342 146.994 102.103 146.691 102.116 146.388Z" fill="#FFC04F"/>
<path d="M101.81 140.98C101.825 140.652 102.09 140.43 102.393 140.43C102.698 140.43 102.937 140.733 102.922 141.035C102.907 141.362 102.643 141.585 102.339 141.585C102.035 141.585 101.795 141.282 101.81 140.98Z" fill="#FFC04F"/>
<path d="M17.8059 164.28C17.5506 164.072 17.624 163.601 17.9366 163.499C18.0064 163.484 18.0866 163.394 18.1209 163.374C18.5466 163.018 18.956 162.655 19.3504 162.262C19.6573 161.969 19.9315 161.628 20.2661 161.37C20.7248 161.021 21.2822 161.731 20.8562 162.126C20.105 162.838 19.3098 163.495 18.4904 164.119C18.3806 164.389 18.0181 164.476 17.8059 164.28Z" fill="#FFC04F"/>
<path d="M26.2781 163.663C25.7036 163.037 25.3092 162.251 24.9445 161.482C24.8093 161.236 24.9403 160.91 25.1883 160.815C25.8193 160.619 25.8542 161.504 26.1494 161.876C26.3992 162.269 26.6568 162.66 26.962 163.01C27.1312 163.205 27.1225 163.512 26.9352 163.691C26.7419 163.877 26.462 163.847 26.2781 163.663Z" fill="#FFC04F"/>
<path d="M32.6799 165.986C32.5657 165.762 32.6655 165.509 32.8687 165.397C32.8696 165.396 32.8705 165.395 32.8612 165.399C33.895 164.621 35.0073 163.964 36.1836 163.446C36.4096 163.343 36.6844 163.494 36.768 163.724C36.8554 163.971 36.7292 164.233 36.5001 164.331C35.8938 164.596 35.2796 164.84 34.703 165.172C34.1932 165.467 33.7814 165.733 33.3386 166.093C33.1525 166.302 32.8026 166.23 32.6799 165.986Z" fill="#FFC04F"/>
<path d="M32.0146 160.311C31.6457 159.372 33.6033 159.344 34.118 159.199C34.6443 159.207 35.7365 158.657 35.8781 159.457C35.9003 159.721 35.71 159.945 35.4617 159.974C34.5575 160.09 33.6364 160.13 32.7538 160.382C32.5692 160.639 32.1517 160.6 32.0146 160.311Z" fill="#FFC04F"/>
<path d="M45.9741 164.585C45.6101 164.144 44.4816 160.638 45.4225 160.637C45.6783 160.614 45.8686 160.828 45.8701 161.083C45.9323 162.137 46.1888 163.206 46.701 164.12C46.9568 164.587 46.2615 165.033 45.9741 164.585Z" fill="#FFC04F"/>
<path d="M52.5742 165.912C51.9907 165.096 54.6905 164.42 55.1877 164.098C55.5088 163.958 55.8166 163.779 56.1121 163.587C56.5636 163.314 57.0004 164.049 56.5624 164.348C55.6555 165 54.5576 165.238 53.5852 165.755C53.2674 165.936 52.8778 166.33 52.5742 165.912Z" fill="#FFC04F"/>
<path d="M55.4786 160.567C54.3967 160.277 53.3259 160.008 52.2223 159.837C52.0029 159.882 51.7846 159.709 51.7666 159.478C51.8126 158.701 52.798 159.2 53.2591 159.206C54.0888 159.368 54.9405 159.452 55.7594 159.665C56.323 159.865 56.0452 160.748 55.4786 160.567Z" fill="#FFC04F"/>
<path d="M64.0985 164.801C63.8694 164.763 63.7233 164.503 63.7967 164.275C63.95 163.696 64.1 163.117 64.2455 162.535C64.379 162.226 64.6913 159.995 65.1999 160.725C64.9183 161.936 64.7057 163.214 64.5563 164.474C64.5254 164.695 64.3026 164.84 64.0985 164.801Z" fill="#FFC04F"/>
<path d="M70.53 166.892C70.325 166.437 70.7467 166.234 71.0882 166.104C72.0439 165.659 73.0064 165.256 73.9371 164.818C74.2426 164.711 74.5309 164.429 74.8645 164.519C75.2767 164.644 75.2908 165.288 74.8838 165.434C73.8569 165.85 72.8321 166.27 71.8211 166.725C71.4219 166.876 70.8565 167.444 70.53 166.892Z" fill="#FFC04F"/>
<path d="M70.6723 161.729C70.5193 161.678 70.4077 161.531 70.3927 161.365C70.4682 160.494 72.1934 160.589 72.8337 160.45C73.3613 160.395 73.8891 160.344 74.4152 160.293C74.665 160.27 74.8911 160.469 74.9133 160.727C74.9341 160.976 74.7453 161.233 74.4955 161.243C73.3781 161.315 72.2255 161.254 71.1364 161.554C71.039 161.705 70.8442 161.789 70.6723 161.729Z" fill="#FFC04F"/>
<path d="M83.0786 163.936C82.6304 163.856 82.7056 163.321 82.7678 163.005C82.9208 161.939 82.8228 160.857 83.1141 159.821C83.4081 159.227 84.2333 159.832 83.7824 160.316C83.6306 161.389 83.7463 162.483 83.6062 163.559C83.5765 163.812 83.3113 163.979 83.0786 163.936Z" fill="#FFC04F"/>
<path d="M92.767 164.32C92.0494 164.012 91.5955 163.25 90.8692 162.948C90.28 162.909 90.3735 162 90.9504 162.093C91.3162 162.171 91.6238 162.379 91.9316 162.586C92.3519 162.842 92.6843 163.219 93.1133 163.414C93.637 163.662 93.3099 164.512 92.767 164.32Z" fill="#FFC04F"/>
<path d="M97.3758 166.198C97.7332 165.575 98.3525 165.139 98.8729 164.665C99.1972 164.397 99.7125 163.837 100.08 164.338C100.303 164.659 100.058 165.027 99.7527 165.133C99.3033 165.419 98.8885 165.724 98.4775 166.063C98.1908 166.23 98.0624 166.661 97.7639 166.705C97.5072 166.729 97.2913 166.459 97.3758 166.198Z" fill="#FFC04F"/>
<path d="M104.249 160.099C103.308 159.891 102.339 159.981 101.395 160.01C101.013 159.898 101.006 159.292 101.378 159.17C101.377 159.169 101.377 159.168 101.377 159.167H101.378C102.006 159.119 105.2 158.572 104.848 159.769C104.762 160.043 104.483 160.166 104.232 160.095L104.249 160.099Z" fill="#FFC04F"/>
<path d="M105.662 165.57C105.73 164.626 105.859 163.649 105.876 162.707C105.868 162.534 105.981 162.379 106.154 162.361C106.748 162.391 106.385 163.379 106.448 163.784C106.434 164.221 106.422 164.626 106.433 165.033C106.437 165.386 106.574 165.946 106.094 166.004C105.861 166.025 105.649 165.819 105.662 165.57Z" fill="#FFC04F"/>
<path d="M85.1969 166.563C84.9811 165.705 86.2551 165.787 86.7234 165.646C87.386 165.542 88.1384 165.425 88.7646 165.244C88.9624 165.182 89.0631 165.153 89.2401 165.091C89.7939 164.889 90.1059 165.753 89.5555 165.97C88.6016 166.316 87.6472 166.433 86.6684 166.642C86.1922 166.683 85.4753 167.207 85.1969 166.563Z" fill="#FFC04F"/>
<path d="M94.3745 160.052C93.8983 160.032 93.4234 159.936 92.9547 159.954C92.768 159.954 92.6063 159.811 92.5892 159.612C92.5567 158.919 93.9693 159.212 94.4175 159.142C94.9887 159.172 94.9457 160.076 94.3745 160.052Z" fill="#FFC04F"/>
<path d="M60.263 162.473C59.8043 161.71 59.4709 160.89 59.1778 160.061C59.0477 159.563 59.8043 159.329 59.9612 159.817C60.2197 160.516 60.551 161.149 60.9045 161.794C61.0936 162.027 61.1583 162.388 60.8874 162.584C60.6896 162.729 60.4049 162.681 60.263 162.473Z" fill="#FFC04F"/>
<path d="M49.039 163.073C49.0537 162.748 49.3171 162.526 49.6186 162.526C49.9219 162.526 50.1597 162.827 50.145 163.128C50.1302 163.452 49.8669 163.675 49.5651 163.675C49.2621 163.675 49.024 163.374 49.039 163.073Z" fill="#FFC04F"/>
<path d="M40.3995 163.464C40.4128 163.18 40.6448 162.984 40.9094 162.984C41.1739 162.984 41.3835 163.248 41.3717 163.513C41.3582 163.797 41.1264 163.994 40.8619 163.994C40.5973 163.994 40.3875 163.728 40.3995 163.464Z" fill="#FFC04F"/>
<path d="M25.8434 158.313C25.8581 158.01 26.1034 157.803 26.3845 157.803C26.6655 157.803 26.8883 158.084 26.8751 158.365C26.86 158.668 26.6147 158.875 26.334 158.875C26.0529 158.875 25.8298 158.594 25.8434 158.313Z" fill="#FFC04F"/>
<path d="M21.1956 164.439C21.2091 164.152 21.4424 163.956 21.7084 163.956C21.976 163.956 22.1855 164.222 22.1738 164.489C22.1602 164.776 21.927 164.972 21.6609 164.972C21.3934 164.972 21.1835 164.706 21.1956 164.439Z" fill="#FFC04F"/>
<path d="M17.0968 161.121C17.107 160.894 17.2931 160.738 17.5041 160.738C17.7151 160.738 17.8817 160.95 17.8727 161.161C17.8621 161.388 17.6764 161.544 17.4653 161.544C17.2543 161.544 17.0878 161.332 17.0968 161.121Z" fill="#FFC04F"/>
<path d="M30.5019 165.081C30.5155 164.774 30.765 164.565 31.049 164.565C31.3343 164.565 31.5589 164.849 31.5454 165.133C31.5321 165.44 31.2823 165.649 30.9985 165.649C30.713 165.649 30.4884 165.365 30.5019 165.081Z" fill="#FFC04F"/>
<path d="M67.1645 164.07C67.1792 163.755 67.4366 163.539 67.7294 163.539C68.0222 163.539 68.2542 163.832 68.2407 164.125C68.226 164.441 67.9686 164.657 67.6758 164.657C67.383 164.657 67.151 164.363 67.1645 164.07Z" fill="#FFC04F"/>
<path d="M80.422 159.717C80.4367 159.403 80.691 159.189 80.9838 159.189C81.2751 159.189 81.5057 159.48 81.4921 159.772C81.4774 160.086 81.2231 160.3 80.9303 160.3C80.639 160.3 80.4084 160.009 80.422 159.717Z" fill="#FFC04F"/>
<path d="M80.3094 166.566C80.3241 166.257 80.574 166.046 80.8607 166.046C81.1493 166.046 81.3754 166.333 81.3619 166.618C81.3471 166.927 81.0973 167.138 80.8102 167.138C80.5219 167.138 80.2959 166.851 80.3094 166.566Z" fill="#FFC04F"/>
<path d="M88.1459 160.422C88.1591 160.129 88.3972 159.928 88.6692 159.928C88.9425 159.928 89.1565 160.2 89.1448 160.471C89.1313 160.765 88.8935 160.966 88.6214 160.966C88.3479 160.966 88.1338 160.694 88.1459 160.422Z" fill="#FFC04F"/>
<path d="M96.9736 163.427C96.9883 163.124 97.2336 162.916 97.5162 162.916C97.7985 162.916 98.0215 163.198 98.0083 163.479C97.9933 163.782 97.748 163.99 97.4657 163.99C97.1831 163.99 96.9601 163.709 96.9736 163.427Z" fill="#FFC04F"/>
<path d="M103.477 166.921C103.491 166.611 103.746 166.396 104.036 166.396C104.326 166.396 104.554 166.687 104.541 166.977C104.526 167.287 104.272 167.502 103.982 167.502C103.692 167.502 103.463 167.212 103.477 166.921Z" fill="#FFC04F"/>
<path d="M107.588 159.62C107.601 159.311 107.853 159.1 108.139 159.1C108.428 159.1 108.654 159.385 108.641 159.672C108.627 159.981 108.376 160.193 108.089 160.193C107.801 160.193 107.575 159.907 107.588 159.62Z" fill="#FFC04F"/>
</g>
<mask id="mask1_83_3613" style="mask-type:luminance" maskUnits="userSpaceOnUse" x="-15" y="-150" width="151" height="320">
<path d="M-14.9021 169.317H135.405V-149.176H-14.9021V169.317Z" fill="white"/>
</mask>
<g mask="url(#mask1_83_3613)">
<path d="M74.0581 25.9501C75.1494 23.7082 79.1523 22.4714 78.5517 26.2265C78.0954 28.6011 77.0044 30.7906 75.8759 32.8889C75.5311 33.3738 75.1626 34.3128 74.62 34.7359C74.3004 38.1943 74.1162 41.6931 73.569 45.0932C72.295 54.1599 71.3036 63.2882 70.8383 72.4352C70.7685 78.4444 70.1649 84.4415 70.3672 90.451C70.3997 91.9117 70.4652 93.3693 70.492 94.8296C70.495 95.1294 70.2899 95.3889 69.9938 95.4073C69.7086 95.4226 69.4515 95.1897 69.4365 94.8915C69.1347 89.2435 69.3012 83.5984 69.6178 77.9564C69.7711 75.1742 69.7458 72.3824 69.9211 69.6003C70.1174 66.7654 70.4369 63.9383 70.66 61.1049C71.2248 55.0336 71.928 48.9223 72.8572 42.913C73.2227 40.2464 73.3893 37.5258 73.6568 34.8345C73.45 34.6725 73.361 34.3837 73.2807 34.1304C72.7321 32.4846 72.2325 30.8215 71.7452 29.1557C71.2471 27.3768 70.5782 25.5642 70.721 23.682C70.7312 22.7818 71.3511 21.5218 72.3621 22.1317C73.459 23.0256 73.8456 24.5759 74.0581 25.9501Z" fill="#FF7D9F"/>
<path d="M50.3245 92.6311C50.3275 92.9368 50.1192 93.2053 49.8147 93.2225C49.5279 93.2393 49.2513 93.0002 49.2453 92.6929C49.1783 87.8462 48.7637 83.0148 48.4977 78.1774C48.3266 74.9641 48.1213 71.7557 47.775 68.558C47.0451 61.5187 46.5326 54.45 45.5036 47.4463C44.8837 42.6954 44.1274 37.9658 43.482 33.2193C42.9099 29.171 42.2365 25.1302 40.961 21.2577C40.851 21.1868 40.7485 21.0956 40.6547 21.02C39.626 20.1817 38.6168 19.3139 37.6446 18.4043C35.9826 16.7831 34.2597 15.1357 33.3381 12.94C32.3349 10.3137 35.3702 11.3912 36.5327 12.1078C37.255 12.5462 37.7784 13.2394 38.26 13.9345C38.147 12.2421 37.9242 10.0464 39.2439 8.79582C40.4361 7.89248 41.5914 9.07061 41.7757 10.3368C42.2407 13.1161 42.2735 15.9647 42.3315 18.7797C42.2855 19.4126 42.4073 20.4842 42.018 21.0322C43.7423 26.5768 44.5034 32.3734 45.2601 38.1434C46.7689 47.6486 47.8138 57.2168 48.6567 66.8085C49.3983 73.3245 49.6244 79.8867 50.0762 86.427C50.2028 88.4932 50.2887 90.5606 50.3245 92.6311Z" fill="#FF7D9F"/>
<path d="M28.4624 92.1957C28.4474 92.6975 28.8517 93.3382 28.3761 93.701C28.1636 93.8478 27.838 93.8184 27.676 93.6024C27.4382 93.2439 27.4812 92.6094 27.4025 92.2313C27.2657 91.09 27.1394 89.9475 27.0087 88.805C26.3278 84.0647 25.5651 79.3338 24.3672 74.7016C22.2355 66.0889 19.0006 57.7943 14.9619 49.9616C14.2572 48.6183 13.4278 47.3612 12.5197 46.1646C12.4157 46.1862 12.3102 46.174 12.2104 46.1462C11.2815 45.8774 10.3685 45.5439 9.46936 45.1811C8.96253 46.5909 8.53145 48.03 8.11059 49.4689C7.92481 49.96 7.89655 50.6716 7.37919 50.9174C7.13239 51.0054 6.85613 50.8755 6.71935 50.6501C5.94196 48.3232 5.8644 45.8143 5.4691 43.3978C3.87855 42.7477 2.1407 42.195 0.425403 42.2134C-0.039947 42.1919 -0.163199 41.4925 0.255856 41.2886C0.417886 41.1974 0.69896 41.1125 0.848966 41.0385C2.20323 40.4733 3.50549 39.8219 4.84172 39.218C4.6857 37.9225 4.54291 36.7354 4.35412 35.4629C4.32887 34.7698 3.58275 32.185 4.8345 32.4676C5.56289 32.9384 5.85569 33.9142 6.3535 34.6152C7.03139 35.7146 7.78502 36.7585 8.49116 37.836C9.6849 37.5119 10.7984 36.8865 12.0068 36.6411C12.9685 36.6117 12.7469 37.4732 12.4526 38.0908C11.9636 39.2983 11.3719 40.4858 10.8756 41.6792C11.387 42.6025 11.9311 43.5012 12.4869 44.3951C12.6102 44.6237 12.8005 44.911 12.9048 45.1998C13.5706 45.9995 14.1992 46.8332 14.7716 47.7025C17.1798 51.5812 18.9309 55.8506 20.694 60.0734C23.8973 67.8553 26.0855 76.0727 27.3772 84.4213C27.8456 86.9955 28.1696 89.6171 28.4624 92.1957Z" fill="#FFDFB1"/>
<path d="M118.482 24.4864C119.095 24.9326 122.922 25.6105 121.793 26.7639C120.507 27.1205 119.215 27.5189 117.959 28.002C117.755 29.7778 117.556 31.5519 117.457 33.3383C117.354 34.109 117.555 35.9462 116.395 35.7642C116.147 35.6714 116.041 35.4213 115.949 35.1881C115.261 33.3845 114.901 31.4764 114.359 29.6251C113.957 29.8736 113.553 30.1206 113.149 30.3629C112.827 31.0623 112.495 31.7602 112.224 32.4784C109.97 37.6046 107.756 42.7648 105.92 48.0702C103.17 57.0395 100.916 66.14 99.308 75.3935C98.8514 78.5388 98.4458 81.6916 98.2315 84.8646C98.1007 86.685 97.9997 88.5086 97.927 90.329C97.8689 90.956 96.9295 91.0144 96.879 90.3165C97.1523 80.5166 98.7933 70.8216 101.23 61.3736C102.358 56.7198 103.622 52.0598 105.041 47.505C106.969 41.9957 109.281 36.641 111.725 31.3605C111.754 31.294 111.784 31.2291 111.815 31.1629C111.332 31.4486 110.8 31.7434 110.359 31.9935C110.034 32.2158 109.529 32.4056 109.233 32.0353C108.71 31.2631 110.097 29.8458 110.509 29.2251C111.047 28.4963 111.561 27.7566 112.071 27.0912C112.447 26.58 112.823 26.0845 113.204 25.5921C112.817 24.3228 112.324 23.0813 112.053 21.7826C111.989 21.2393 112.581 20.9165 112.984 21.2609C113.715 21.8076 114.49 22.2832 115.286 22.7216C116.224 21.298 117.146 19.8636 118.152 18.4909C118.332 18.1065 118.921 18.1958 118.989 18.6158C118.995 18.6452 118.997 18.6729 118.997 18.7023C119.043 18.7563 119.077 18.8228 119.092 18.8968C119.096 19.4882 119.044 20.0828 118.994 20.6742C118.899 21.9603 118.704 23.2218 118.482 24.4864Z" fill="#FFDFB1"/>
<path d="M11.5104 91.4507C9.54885 93.6567 5.51221 106.47 11.5104 110.208C17.5085 113.946 27.1059 104.393 27.1059 104.393C27.1059 104.393 29.9049 117.269 36.1032 117.477C42.3013 117.685 45.1006 108.339 45.1006 108.339C45.1006 108.339 47.8999 121.014 55.6975 117.48C63.4955 113.946 64.6949 103.355 64.6949 103.355C64.6949 103.355 64.6949 108.547 67.4942 108.339C70.2932 108.131 72.6927 101.693 72.6927 101.693C72.6927 101.693 77.4911 119.351 82.6896 118.102C87.8881 116.854 90.4875 101.693 90.4875 101.693C90.4875 101.693 101.084 117.477 106.883 110.831C112.681 104.185 106.883 88.8169 101.684 87.7783C96.4857 86.7401 17.1087 85.1542 11.5104 91.4507Z" fill="#FFA9BE"/>
<path d="M88.2583 99.1346C88.2644 99.011 88.3654 98.926 88.4799 98.926C88.5941 98.926 88.6849 99.0419 88.6804 99.1562C88.6747 99.2798 88.5734 99.3647 88.4588 99.3647C88.3446 99.3647 88.2538 99.2489 88.2583 99.1346Z" fill="#F25252"/>
<path d="M16.4448 105.55C10.8471 105.232 12.8865 96.6711 15.4192 93.8274C15.6771 93.5651 16.2029 93.1168 16.5816 93.3385C17.0623 93.5058 16.8837 94.2443 16.3913 94.1747C14.7292 95.9467 13.9633 99.0161 14.0093 101.447C13.96 104.105 16.0075 104.823 18.1529 104.156C20.6104 103.363 22.6919 101.696 24.5359 99.8772C24.8614 99.4332 25.5576 99.4579 25.6998 100.05C25.7774 100.579 25.6665 101.125 25.7969 101.649C26.6371 103.828 29.1569 101.892 30.2701 100.954C30.5466 100.666 30.9404 100.318 31.3174 100.654C31.542 100.85 31.597 101.247 31.3859 101.478C30.075 102.681 28.4033 104.071 26.5428 103.759C25.4503 103.556 24.6603 102.52 24.6143 101.386C22.3513 103.47 19.5857 105.531 16.4448 105.55Z" fill="#FFEAF1"/>
<path d="M31.4144 105.248C31.4306 104.915 31.7026 104.685 32.0135 104.685C32.324 104.685 32.5693 104.997 32.5561 105.307C32.5395 105.641 32.2675 105.871 31.957 105.871C31.6461 105.871 31.4008 105.559 31.4144 105.248Z" fill="#FFEAF1"/>
<path d="M33.2575 110.598C33.2839 110.056 33.7261 109.682 34.2308 109.682C34.7356 109.682 35.1345 110.189 35.1125 110.693C35.0861 111.235 34.6439 111.609 34.1392 111.609C33.6344 111.609 33.2355 111.102 33.2575 110.598Z" fill="#FFEAF1"/>
<path d="M18.0796 97.2227C17.825 97.0253 17.7264 96.562 17.8833 96.2747C18.1779 95.8141 18.934 96.0633 18.9625 96.6035C19.0106 97.0716 18.4821 97.5046 18.0796 97.2227Z" fill="#FFEAF1"/>
<path d="M16.7889 101.805C15.7743 100.536 17.2681 99.1305 18.4864 99.8921C19.0726 100.335 18.8367 101.29 18.2604 101.624C17.8879 102.043 17.2052 102.321 16.7889 101.805Z" fill="#FFEAF1"/>
<path d="M50.0984 99.4092C49.579 99.1223 49.3935 98.4369 49.8294 97.9841C50.173 97.35 51.0934 97.5742 51.0517 98.3248C51.5242 98.9146 50.6975 99.7156 50.0984 99.4092Z" fill="#FFEAF1"/>
<path d="M56.2985 109.328C54.6298 109.189 53.314 107.749 52.9959 106.086C51.2091 107.561 47.6624 109.698 46.3494 106.569C46.0382 106.069 46.2144 102.608 47.1998 103.615C47.2013 103.613 47.2025 103.611 47.204 103.609C47.2692 103.728 47.241 103.864 47.2187 103.99C47.1322 104.417 47.1268 104.849 47.131 105.284C47.1171 107.805 49.5584 107.222 50.9397 106.211C51.7 105.725 52.4314 105.136 53.1381 104.592C53.4532 104.4 53.8656 104.643 53.9408 104.997C53.9901 105.34 53.9994 105.691 54.1028 106.025C54.4945 107.863 56.5486 108.715 58.1385 107.954C59.1624 107.449 59.9608 106.578 60.5089 105.565C60.8852 104.816 61.203 104.021 61.3494 103.187C61.2751 102.844 61.3933 102.447 61.7627 102.364C63.4146 102.289 61.7074 105.729 61.3094 106.436C60.2642 108.192 58.3745 109.672 56.2985 109.328Z" fill="#FFEAF1"/>
<path d="M83.7096 101.093C81.602 100.472 80.5105 97.2282 81.9733 95.4915C82.5772 95.0053 83.143 96.0791 82.4002 96.2674C81.4794 99.7403 84.7251 101.333 87.2277 99.1773C88.2062 98.3626 88.5675 97.0412 88.8871 95.8343C88.9376 95.612 89.0879 95.4312 89.308 95.3788C89.984 95.2451 90.0303 96.1382 90.3442 96.5513C91.1754 97.9333 92.4906 98.9774 93.9119 99.6154C96.4343 100.903 98.2121 98.2109 98.6135 95.9268C98.5109 95.6258 98.6549 95.286 98.9462 95.1736C99.423 94.9869 99.7852 95.5046 99.7669 95.9592C99.3557 98.718 97.1032 102.005 94.0796 100.91C92.272 100.304 90.6346 99.0461 89.5617 97.4156C88.8757 99.9307 86.2062 101.801 83.7096 101.093Z" fill="#FFEAF1"/>
<path d="M77.24 105.201C76.3877 104.853 76.2633 103.601 76.9361 103.005C77.4206 102.588 78.122 102.093 78.7142 102.602C80.5981 103.459 78.8477 106.522 77.24 105.201Z" fill="#FFEAF1"/>
<path d="M80.3863 110.892C79.556 110.597 79.9781 109.113 80.8411 109.419C81.7015 109.728 81.2503 111.154 80.3863 110.892Z" fill="#FFEAF1"/>
</g>
</g>
<defs>
<clipPath id="clip0_83_3613">
<rect width="122" height="195.2" fill="white"/>
</clipPath>
</defs>
</svg>
