<svg width="157" height="172" viewBox="0 0 157 172" fill="none" xmlns="http://www.w3.org/2000/svg">
<g clip-path="url(#clip0_230_20296)">
<mask id="mask0_230_20296" style="mask-type:luminance" maskUnits="userSpaceOnUse" x="-573" y="-539" width="763" height="1356">
<path d="M-572.841 816.396H189.402V-538.702H-572.841V816.396Z" fill="white"/>
</mask>
<g mask="url(#mask0_230_20296)">
<path d="M152.671 86.9839C157.378 89.3349 158.631 94.1066 154.505 97.7845C150.782 101.07 145.797 102.576 141.04 103.68C128.916 105.936 116.322 103.938 104.552 100.713C110.282 107.04 116.073 113.427 120.77 120.579C120.775 120.59 120.785 120.6 120.79 120.609C124.667 126.927 140.011 150.929 123.762 150.208C115.238 149.572 107.046 145.864 101.062 139.746C93.6959 132.21 89.2671 122.434 84.6944 113.079C87.0108 123.586 96.6037 171 79.6241 171.224C75.966 170.464 74.0872 166.75 72.4766 163.728C65.1605 148.891 68.2864 127.995 70.871 112.105C65.831 123.795 60.6372 135.486 53.7135 146.183C49.404 152.595 44.4833 160.418 36.3908 162.083C27.6575 162.749 28.3886 151.432 29.6809 145.566C31.132 137.603 35.9038 130.874 40.2627 124.248C44.935 117.383 49.9255 110.703 55.8456 104.863C44.4579 111.951 21.1015 124.62 7.85045 123.313C1.44337 122.413 -2.44335 117.19 1.73628 111.379C4.11264 107.552 8.1984 105.28 11.7224 102.646C19.8445 97.054 29.1191 93.5745 38.6726 91.3379C29.1537 88.3454 18.994 85.2787 11.6977 78.1362C7.64648 73.9361 4.05758 67.9222 5.59901 61.9075C7.44744 55.9578 14.0133 52.6724 19.9835 53.2886C27.3794 53.7558 34.0899 57.1908 40.5415 60.5609C48.6481 64.5867 56.6255 69.1545 62.6204 76.0789C58.8628 68.8418 56.6806 60.9533 54.5879 53.11C52.3414 45.2765 49.8408 37.2984 50.661 29.0478C50.9348 25.2352 51.0788 21.1198 53.1665 17.7892C56.1138 13.1918 61.194 14.4495 64.1661 18.2917C69.5787 24.2012 72.2035 31.9902 74.3159 39.5753C81.7068 -28.0484 123.275 -1.23224 93.7157 61.6344C100.277 54.7255 107.101 47.6127 115.675 43.2432C124.498 39.0734 134.201 33.2578 144.266 35.8226C148.978 36.7818 151.885 41.3595 151.01 46.0465C148.665 59.9589 126.75 74.2594 114.497 79.5379C121.655 79.7814 128.957 80.4427 135.94 81.9637C141.681 83.2214 147.477 84.1608 152.671 86.9839Z" fill="#FFA9BE"/>
</g>
<mask id="mask1_230_20296" style="mask-type:luminance" maskUnits="userSpaceOnUse" x="-573" y="-539" width="763" height="1356">
<path d="M-572.841 816.395H189.402V-538.703H-572.841V816.395Z" fill="white"/>
</mask>
<g mask="url(#mask1_230_20296)">
<path d="M76.6823 99.5841C66.4577 97.0235 64.0093 84.1282 66.975 75.2784C69.482 67.6948 76.8687 64.2655 84.3316 66.9679C91.5439 68.798 96.3828 76.0012 95.2366 83.3702C94.8181 92.882 87.1879 103.486 76.6823 99.5841ZM77.6852 95.5266C78.2555 95.4729 78.811 95.3268 79.3495 95.1377C78.0268 95.2047 76.6597 95.5859 75.3548 95.0043C76.0337 95.4609 76.8814 95.5682 77.6852 95.5266ZM80.3206 89.9114C80.2486 90.0765 80.1738 90.2403 80.099 90.404C81.4555 89.4131 82.4408 87.8632 83.052 86.3112C82.6596 86.4756 82.3003 86.7474 81.8846 86.8434C81.2981 87.8315 80.7737 88.8577 80.3206 89.9114ZM88.2684 74.0603C91.1565 78.3451 91.016 84.155 89.3356 88.8852C91.8171 84.1706 93.2646 76.5496 87.7666 73.4032C87.9416 73.6142 88.1089 73.833 88.2684 74.0603ZM74.2615 86.8201C74.5417 83.7337 75.443 80.6678 76.8842 77.9223C74.9722 80.4441 74.2573 83.6991 74.2615 86.8201ZM77.8864 86.7777C79.3869 83.9243 81.1838 80.7454 84.3711 79.5816C84.1008 78.3472 83.6279 77.0796 82.5742 76.3047C79.6417 79.0586 78.4623 82.9623 77.8864 86.7777ZM73.91 71.3374C74.7598 70.7791 75.6667 70.3062 76.6216 69.9237C75.6335 70.1968 74.7012 70.6831 73.91 71.3374Z" fill="#FF7D9F"/>
</g>
<mask id="mask2_230_20296" style="mask-type:luminance" maskUnits="userSpaceOnUse" x="-573" y="-539" width="763" height="1356">
<path d="M-572.841 816.395H189.402V-538.703H-572.841V816.395Z" fill="white"/>
</mask>
<g mask="url(#mask2_230_20296)">
<path d="M51.4452 85.2636C51.4057 84.4082 52.1058 83.5584 52.9909 83.5584C53.8759 83.5584 54.6509 84.1901 54.696 85.1048C54.7355 85.9595 54.0347 86.8093 53.1497 86.8093C52.2653 86.8093 51.4897 86.1783 51.4452 85.2636Z" fill="#FF7D9F"/>
</g>
<mask id="mask3_230_20296" style="mask-type:luminance" maskUnits="userSpaceOnUse" x="-573" y="-539" width="763" height="1356">
<path d="M-572.841 816.396H189.402V-538.702H-572.841V816.396Z" fill="white"/>
</mask>
<g mask="url(#mask3_230_20296)">
<path d="M61.2446 94.8893C61.1994 93.9598 61.9652 93.0352 62.9293 93.0352C63.8934 93.0352 64.734 93.7212 64.7834 94.7206C64.8278 95.6501 64.0628 96.574 63.0987 96.574C62.1339 96.574 61.294 95.8887 61.2446 94.8893Z" fill="#FF7D9F"/>
</g>
<mask id="mask4_230_20296" style="mask-type:luminance" maskUnits="userSpaceOnUse" x="-573" y="-539" width="763" height="1356">
<path d="M-572.841 816.396H189.402V-538.702H-572.841V816.396Z" fill="white"/>
</mask>
<g mask="url(#mask4_230_20296)">
<path d="M64.3226 106.691C64.2775 105.84 64.9783 104.995 65.8584 104.995C66.7435 104.995 67.5135 105.622 67.5537 106.532C67.5982 107.382 66.8973 108.226 66.0172 108.226C65.1329 108.226 64.3621 107.6 64.3226 106.691Z" fill="#FF7D9F"/>
</g>
<mask id="mask5_230_20296" style="mask-type:luminance" maskUnits="userSpaceOnUse" x="-573" y="-539" width="763" height="1356">
<path d="M-572.841 816.396H189.402V-538.702H-572.841V816.396Z" fill="white"/>
</mask>
<g mask="url(#mask5_230_20296)">
<path d="M77.5026 110.072C77.4631 109.252 78.1385 108.432 78.9939 108.432C79.8486 108.432 80.5939 109.038 80.6342 109.923C80.6737 110.743 79.9976 111.564 79.1429 111.564C78.2882 111.564 77.5422 110.957 77.5026 110.072Z" fill="#FF7D9F"/>
</g>
<mask id="mask6_230_20296" style="mask-type:luminance" maskUnits="userSpaceOnUse" x="-573" y="-539" width="763" height="1356">
<path d="M-572.841 816.396H189.402V-538.702H-572.841V816.396Z" fill="white"/>
</mask>
<g mask="url(#mask6_230_20296)">
<path d="M92.0598 104.631C92.0147 103.726 92.7557 102.826 93.6951 102.826C94.6345 102.826 95.4546 103.493 95.4991 104.462C95.5443 105.366 94.8032 106.266 93.8638 106.266C92.9244 106.266 92.1043 105.6 92.0598 104.631Z" fill="#FF7D9F"/>
</g>
<mask id="mask7_230_20296" style="mask-type:luminance" maskUnits="userSpaceOnUse" x="-573" y="-539" width="763" height="1356">
<path d="M-572.841 816.396H189.402V-538.702H-572.841V816.396Z" fill="white"/>
</mask>
<g mask="url(#mask7_230_20296)">
<path d="M98.649 89.1502C98.6144 88.3548 99.2652 87.5643 100.085 87.5643C100.91 87.5643 101.626 88.1508 101.671 89.0005C101.706 89.796 101.054 90.5864 100.235 90.5864C99.4099 90.5864 98.6935 89.9999 98.649 89.1502Z" fill="#FF7D9F"/>
</g>
<mask id="mask8_230_20296" style="mask-type:luminance" maskUnits="userSpaceOnUse" x="-573" y="-539" width="763" height="1356">
<path d="M-572.841 816.396H189.402V-538.702H-572.841V816.396Z" fill="white"/>
</mask>
<g mask="url(#mask8_230_20296)">
<path d="M99.2524 70.3719C99.2129 69.5567 99.8834 68.7415 100.734 68.7415C101.584 68.7415 102.319 69.3429 102.363 70.2223C102.404 71.0375 101.733 71.8533 100.883 71.8533C100.033 71.8533 99.2969 71.2513 99.2524 70.3719Z" fill="#FF7D9F"/>
</g>
<mask id="mask9_230_20296" style="mask-type:luminance" maskUnits="userSpaceOnUse" x="-573" y="-539" width="763" height="1356">
<path d="M-572.841 816.396H189.402V-538.702H-572.841V816.396Z" fill="white"/>
</mask>
<g mask="url(#mask9_230_20296)">
<path d="M80.7047 61.918C80.6652 61.0682 81.3604 60.2234 82.2405 60.2234C83.1199 60.2234 83.8906 60.8494 83.9358 61.7592C83.9753 62.6089 83.2794 63.4537 82.3993 63.4537C81.5199 63.4537 80.7492 62.8277 80.7047 61.918Z" fill="#FF7D9F"/>
</g>
<mask id="mask10_230_20296" style="mask-type:luminance" maskUnits="userSpaceOnUse" x="-573" y="-539" width="763" height="1356">
<path d="M-572.841 816.396H189.402V-538.702H-572.841V816.396Z" fill="white"/>
</mask>
<g mask="url(#mask10_230_20296)">
<path d="M68.9094 57.2625C68.8699 56.4671 69.5206 55.6766 70.3457 55.6766C71.1707 55.6766 71.8913 56.2631 71.9316 57.1128C71.9711 57.9083 71.3197 58.6987 70.4953 58.6987C69.6703 58.6987 68.9489 58.1122 68.9094 57.2625Z" fill="#FF7D9F"/>
</g>
<mask id="mask11_230_20296" style="mask-type:luminance" maskUnits="userSpaceOnUse" x="-573" y="-539" width="763" height="1356">
<path d="M-572.841 816.396H189.402V-538.702H-572.841V816.396Z" fill="white"/>
</mask>
<g mask="url(#mask11_230_20296)">
<path d="M67.2497 67.6776C67.2102 66.8476 67.8905 66.0225 68.7558 66.0225C69.6155 66.0225 70.3657 66.6337 70.4109 67.528C70.4504 68.3587 69.77 69.1837 68.9047 69.1837C68.0451 69.1837 67.2941 68.5718 67.2497 67.6776Z" fill="#FF7D9F"/>
</g>
<mask id="mask12_230_20296" style="mask-type:luminance" maskUnits="userSpaceOnUse" x="-573" y="-539" width="763" height="1356">
<path d="M-572.841 816.395H189.402V-538.703H-572.841V816.395Z" fill="white"/>
</mask>
<g mask="url(#mask12_230_20296)">
<path d="M60.5935 90.4496C60.554 89.6443 61.2146 88.839 62.0544 88.839C62.895 88.839 63.6255 89.4354 63.665 90.3C63.7046 91.1053 63.044 91.9106 62.2041 91.9106C61.3642 91.9106 60.633 91.3142 60.5935 90.4496Z" fill="#FF7D9F"/>
</g>
<mask id="mask13_230_20296" style="mask-type:luminance" maskUnits="userSpaceOnUse" x="-573" y="-539" width="763" height="1356">
<path d="M-572.841 816.396H189.402V-538.702H-572.841V816.396Z" fill="white"/>
</mask>
<g mask="url(#mask13_230_20296)">
<path d="M72.3687 102.39C72.3292 101.516 73.0449 100.646 73.9546 100.646C74.8637 100.646 75.6542 101.292 75.6993 102.232C75.7388 103.106 75.0225 103.976 74.1134 103.976C73.2037 103.976 72.4132 103.33 72.3687 102.39Z" fill="#FF7D9F"/>
</g>
<mask id="mask14_230_20296" style="mask-type:luminance" maskUnits="userSpaceOnUse" x="-573" y="-539" width="763" height="1356">
<path d="M-572.841 816.396H189.402V-538.702H-572.841V816.396Z" fill="white"/>
</mask>
<g mask="url(#mask14_230_20296)">
<path d="M91.1946 95.0019C91.155 94.1966 91.8156 93.3962 92.6506 93.3962C93.4862 93.3962 94.2167 93.9877 94.2562 94.8529C94.2965 95.6575 93.6351 96.4579 92.8002 96.4579C91.9653 96.4579 91.2341 95.8664 91.1946 95.0019Z" fill="#FF7D9F"/>
</g>
<mask id="mask15_230_20296" style="mask-type:luminance" maskUnits="userSpaceOnUse" x="-573" y="-539" width="763" height="1356">
<path d="M-572.841 816.396H189.402V-538.702H-572.841V816.396Z" fill="white"/>
</mask>
<g mask="url(#mask15_230_20296)">
<path d="M95.598 81.3657C95.5783 80.9832 95.8966 80.6 96.2939 80.6C96.6913 80.6 97.0392 80.8837 97.059 81.2959C97.0795 81.6791 96.7612 82.0616 96.3638 82.0616C95.9658 82.0616 95.6178 81.7779 95.598 81.3657Z" fill="#FF7D9F"/>
</g>
</g>
<defs>
<clipPath id="clip0_230_20296">
<rect width="157" height="171.224" fill="white"/>
</clipPath>
</defs>
</svg>
