<svg width="135" height="201" viewBox="0 0 135 201" fill="none" xmlns="http://www.w3.org/2000/svg">
<g clip-path="url(#clip0_87_3472)">
<mask id="mask0_87_3472" style="mask-type:luminance" maskUnits="userSpaceOnUse" x="-1" y="-7" width="728" height="316">
<path d="M-0.0135498 -3.77631L0.983661 308.09L726.055 305.772L725.058 -6.09476L-0.0135498 -3.77631Z" fill="white"/>
</mask>
<g mask="url(#mask0_87_3472)">
<path d="M89.7383 4.39613L-57.1914 0.610657L-56.5519 200.61L106.474 191.152L89.7383 4.39613Z" fill="#FFA9BE"/>
</g>
<mask id="mask1_87_3472" style="mask-type:luminance" maskUnits="userSpaceOnUse" x="24" y="-6" width="557" height="315">
<path d="M24.901 -3.85596L25.8982 308.01L580.327 306.238L579.33 -5.62878L24.901 -3.85596Z" fill="white"/>
</mask>
<g mask="url(#mask1_87_3472)">
<path d="M65.5918 109.113C66.7094 107.693 68.5943 107.075 70.1736 106.298C72.4978 105.357 74.8627 104.311 77.3861 104.095C78.3651 103.95 79.7481 104.436 79.5328 105.645C79.0128 107.292 77.15 108.182 75.6747 108.847C78.1442 109.554 80.1259 113.028 76.5468 113.732C74.5644 113.908 63.7179 112.332 65.5918 109.113Z" fill="#FFEAF1"/>
</g>
<mask id="mask2_87_3472" style="mask-type:luminance" maskUnits="userSpaceOnUse" x="24" y="-6" width="557" height="315">
<path d="M24.901 -3.85596L25.8982 308.01L580.327 306.238L579.33 -5.62878L24.901 -3.85596Z" fill="white"/>
</mask>
<g mask="url(#mask2_87_3472)">
<path d="M34.1599 120.443C35.2775 119.022 37.1624 118.405 38.7418 117.628C41.0659 116.687 43.4308 115.641 45.9542 115.425C46.9332 115.28 48.3163 115.766 48.101 116.975C47.581 118.622 45.7181 119.513 44.2429 120.177C46.7123 120.884 48.694 124.358 45.115 125.062C43.1326 125.238 32.286 123.662 34.1599 120.443Z" fill="#FFEAF1"/>
</g>
<mask id="mask3_87_3472" style="mask-type:luminance" maskUnits="userSpaceOnUse" x="24" y="-6" width="557" height="315">
<path d="M24.901 -3.85596L25.8982 308.01L580.327 306.238L579.33 -5.62878L24.901 -3.85596Z" fill="white"/>
</mask>
<g mask="url(#mask3_87_3472)">
<path d="M56.3142 34.0984C57.512 32.6464 59.5425 32.0647 61.1581 31.1597C62.6339 30.5717 64.1188 29.5057 65.7658 29.6454C66.884 29.7547 67.2479 31.241 66.2825 31.8361C65.5273 32.3684 64.6823 32.7161 63.8114 32.9895C65.6985 33.6127 66.8102 36.8532 64.2434 37.3257C62.5525 37.4466 55.25 36.7856 56.3142 34.0984Z" fill="#FFEAF1"/>
</g>
<mask id="mask4_87_3472" style="mask-type:luminance" maskUnits="userSpaceOnUse" x="24" y="-6" width="557" height="315">
<path d="M24.901 -3.85596L25.8982 308.01L580.327 306.238L579.33 -5.62878L24.901 -3.85596Z" fill="white"/>
</mask>
<g mask="url(#mask4_87_3472)">
<path d="M81.357 138.107C82.0519 137.422 83.1544 137.328 84.03 136.966C86.3734 136.281 88.8241 134.879 91.3175 135.5C91.9432 135.729 92.304 136.516 91.9175 137.102C91.2091 137.979 89.9411 138.149 88.9129 138.46C89.822 138.832 90.8171 139.37 91.2094 140.324C91.6681 141.379 90.667 142.373 89.5989 142.12C87.9662 141.854 86.3397 141.437 84.7352 141.048C83.3742 140.682 80.1357 140.137 81.357 138.107Z" fill="#FFEAF1"/>
</g>
<mask id="mask5_87_3472" style="mask-type:luminance" maskUnits="userSpaceOnUse" x="24" y="-6" width="557" height="315">
<path d="M24.901 -3.85596L25.8982 308.01L580.327 306.238L579.33 -5.62878L24.901 -3.85596Z" fill="white"/>
</mask>
<g mask="url(#mask5_87_3472)">
<path d="M31.5208 180.612C32.2157 179.928 33.3182 179.833 34.1938 179.471C36.5372 178.786 38.9879 177.384 41.4813 178.005C42.107 178.234 42.4679 179.021 42.0813 179.607C41.3729 180.484 40.1049 180.654 39.0767 180.965C39.9858 181.337 40.9809 181.876 41.3732 182.83C41.8319 183.885 40.8308 184.879 39.7627 184.626C38.13 184.36 36.5035 183.943 34.899 183.554C33.538 183.187 30.2995 182.642 31.5208 180.612Z" fill="#FFEAF1"/>
</g>
<mask id="mask6_87_3472" style="mask-type:luminance" maskUnits="userSpaceOnUse" x="24" y="-6" width="557" height="315">
<path d="M24.901 -3.85596L25.8982 308.01L580.327 306.238L579.33 -5.62878L24.901 -3.85596Z" fill="white"/>
</mask>
<g mask="url(#mask6_87_3472)">
<path d="M61.6979 155.309C64.0755 154.288 66.6049 153.683 69.0593 153.09C70.3502 152.773 71.5528 153.892 70.4955 155.034C69.9283 155.572 69.1085 155.73 68.3765 155.93C69.9531 156.459 73.965 158.002 72.4291 160.175C71.8518 160.712 71.0379 160.477 70.351 160.333C68.834 160.014 67.3534 159.553 65.8861 159.06C64.5064 158.445 59.672 157.504 61.6979 155.309Z" fill="#FFEAF1"/>
</g>
<mask id="mask7_87_3472" style="mask-type:luminance" maskUnits="userSpaceOnUse" x="24" y="-6" width="557" height="315">
<path d="M24.901 -3.85596L25.8982 308.01L580.327 306.238L579.33 -5.62878L24.901 -3.85596Z" fill="white"/>
</mask>
<g mask="url(#mask7_87_3472)">
<path d="M32.2643 49.1152C34.6419 48.0948 37.1713 47.4899 39.6257 46.8964C40.9166 46.5798 42.1192 47.699 41.0619 48.8404C40.4947 49.379 39.6749 49.5364 38.9429 49.7363C40.5195 50.2655 44.5314 51.8088 42.9955 53.9815C42.4182 54.5182 41.6043 54.2834 40.9174 54.1401C39.4004 53.8209 37.9198 53.3593 36.4525 52.867C35.0728 52.2514 30.2384 51.3102 32.2643 49.1152Z" fill="#FFEAF1"/>
</g>
<mask id="mask8_87_3472" style="mask-type:luminance" maskUnits="userSpaceOnUse" x="24" y="-6" width="557" height="315">
<path d="M24.901 -3.85596L25.8982 308.01L580.327 306.238L579.33 -5.62878L24.901 -3.85596Z" fill="white"/>
</mask>
<g mask="url(#mask8_87_3472)">
<path d="M53.9954 77.792C54.8374 77.3244 55.8867 77.2062 56.7817 76.8813C58.5318 76.3802 60.1577 75.4313 61.9913 75.2484C62.7928 75.1003 63.9793 75.3541 63.9375 76.3716C63.8074 77.5066 62.4305 77.7674 61.5367 78.0977C62.4449 78.3888 63.7075 78.873 63.7244 79.9882C63.6979 80.5577 63.3168 81.021 62.7601 81.1461C60.188 81.2224 57.5947 80.7124 55.1038 80.0727C53.913 79.9179 52.873 78.8008 53.9954 77.792Z" fill="#FFEAF1"/>
</g>
<mask id="mask9_87_3472" style="mask-type:luminance" maskUnits="userSpaceOnUse" x="24" y="-6" width="557" height="315">
<path d="M24.901 -3.85596L25.8982 308.01L580.327 306.238L579.33 -5.62878L24.901 -3.85596Z" fill="white"/>
</mask>
<g mask="url(#mask9_87_3472)">
<path d="M71.6517 13.3628C73.4531 12.2886 75.2961 11.51 77.2403 10.8488C78.1424 10.5803 79.1125 10.2451 80.0548 10.4537C80.6392 10.5988 80.9997 11.1926 80.885 11.78C80.5908 13.0622 79.0369 13.3311 77.9731 13.7073C79.1082 13.9543 80.7236 14.3375 80.9889 15.6616C81.0951 16.5333 80.2236 17.0772 79.4412 17.0595C77.994 16.9995 68.9015 15.9673 71.6517 13.3628Z" fill="#FFEAF1"/>
</g>
<mask id="mask10_87_3472" style="mask-type:luminance" maskUnits="userSpaceOnUse" x="24" y="-6" width="557" height="315">
<path d="M24.901 -3.85596L25.8982 308.01L580.327 306.238L579.33 -5.62878L24.901 -3.85596Z" fill="white"/>
</mask>
<g mask="url(#mask10_87_3472)">
<path d="M80.3055 68.8963C80.6962 67.9213 81.9585 67.9354 82.8166 67.6257C85.1502 67.0953 87.1976 66.0264 89.5588 65.7601C90.2577 65.6946 91.254 65.6184 91.5604 66.4338C91.7806 67.0184 91.4502 67.5349 90.9799 67.8624C90.1242 68.4456 89.098 68.6764 88.1316 68.9761C88.8936 69.2979 89.7661 69.7239 90.0898 70.5355C90.5781 71.7797 89.3628 72.6291 88.2131 72.3417C86.6476 72.0155 79.535 71.1537 80.3055 68.8963Z" fill="#FFEAF1"/>
</g>
<mask id="mask11_87_3472" style="mask-type:luminance" maskUnits="userSpaceOnUse" x="24" y="-6" width="557" height="315">
<path d="M24.901 -3.85596L25.8982 308.01L580.327 306.238L579.33 -5.62878L24.901 -3.85596Z" fill="white"/>
</mask>
<g mask="url(#mask11_87_3472)">
<path d="M33.4111 16.262C33.8018 15.2871 35.0641 15.3012 35.9222 14.9915C38.2557 14.4611 40.3032 13.3922 42.6644 13.1259C43.3633 13.0604 44.3596 12.9842 44.666 13.7995C44.8862 14.3842 44.5558 14.9007 44.0855 15.2282C43.2298 15.8114 42.2036 16.0422 41.2372 16.3418C41.9992 16.6637 42.8717 17.0897 43.1954 17.9013C43.6837 19.1455 42.4684 19.9949 41.3187 19.7075C39.7531 19.3812 32.6406 18.5195 33.4111 16.262Z" fill="#FFEAF1"/>
</g>
<mask id="mask12_87_3472" style="mask-type:luminance" maskUnits="userSpaceOnUse" x="24" y="-6" width="557" height="315">
<path d="M24.901 -3.85596L25.8982 308.01L580.327 306.238L579.33 -5.62878L24.901 -3.85596Z" fill="white"/>
</mask>
<g mask="url(#mask12_87_3472)">
<path d="M61.3927 180.254C64.2685 178.798 67.5984 177.743 70.8346 177.642C71.5323 177.651 72.2614 178.186 72.1232 178.948C72.0764 179.201 71.9035 179.499 71.6825 179.639C70.7503 180.187 69.7469 180.647 68.703 180.936C70.0439 181.405 73.2045 183.224 70.9894 184.602C69.3014 185.088 58.1372 183.256 61.3927 180.254Z" fill="#FFEAF1"/>
</g>
<mask id="mask13_87_3472" style="mask-type:luminance" maskUnits="userSpaceOnUse" x="0" y="-7" width="748" height="316">
<path d="M0.0593262 -3.77655L1.05654 308.09L747.076 305.704L746.079 -6.16199L0.0593262 -3.77655Z" fill="white"/>
</mask>
<g mask="url(#mask13_87_3472)">
<path d="M-62.9055 56.9273C-15.178 57.4192 32.8065 56.6235 80.6003 57.7745C85.7671 57.9702 90.9875 57.7719 96.1264 58.0922C97.1723 58.2991 97.3205 59.4563 96.2806 59.7717C95.8513 59.9187 95.3404 59.9041 94.8765 59.9281C81.6472 60.2453 68.4268 59.702 55.1923 59.7325C27.6402 59.5003 0.0927705 59.3975 -27.4618 59.5881C-34.346 59.5429 -41.232 59.4263 -48.1171 59.4552C-53.0262 59.3052 -58.0444 59.8038 -62.8976 59.2715C-64.4326 58.9735 -64.4949 57.2307 -62.9055 56.9273Z" fill="#FF5E88"/>
</g>
<mask id="mask14_87_3472" style="mask-type:luminance" maskUnits="userSpaceOnUse" x="24" y="-6" width="557" height="307">
<path d="M24.9014 -3.72882L25.8744 300.585L580.303 298.813L579.33 -5.50164L24.9014 -3.72882Z" fill="white"/>
</mask>
<g mask="url(#mask14_87_3472)">
<path d="M36.1878 2.8591C36.105 2.15352 36.5433 0.952036 37.4552 1.49041C37.7151 1.6809 37.8775 1.96751 37.9227 2.28239C38.0996 3.71409 38.1914 5.15705 38.3162 6.59399C38.6101 10.6574 38.5539 14.7357 38.7352 18.8051C39.4412 37.6474 40.4128 56.5074 40.1055 75.3657C40.0593 83.6714 40.3544 91.9803 40.4286 100.284C40.2694 110.632 40.2453 120.991 40.5597 131.336C40.6815 139.807 41.0464 148.264 41.1468 156.732C41.266 165.297 40.4744 173.842 40.5679 182.403C40.6496 185.472 40.8544 188.543 41.0686 191.608C41.0085 192.946 41.8845 195.351 39.8597 195.439C39.1864 195.383 38.7121 194.796 38.7562 194.149C38.6377 190.947 38.3416 187.756 38.202 184.553C37.8634 175.939 38.7809 167.3 38.7174 158.706C38.5976 143.999 37.8636 129.301 37.8928 114.591C38.0896 97.9316 37.5812 81.2783 37.7648 64.6175C37.4968 44.0276 36.407 23.4486 36.1878 2.8591Z" fill="#FF5E88"/>
</g>
<mask id="mask15_87_3472" style="mask-type:luminance" maskUnits="userSpaceOnUse" x="24" y="-6" width="557" height="315">
<path d="M24.901 -3.85596L25.8982 308.01L580.327 306.238L579.33 -5.62878L24.901 -3.85596Z" fill="white"/>
</mask>
<g mask="url(#mask15_87_3472)">
<path d="M94.5161 57.5268C94.8702 57.1705 95.4576 57.1083 95.872 57.379C97.53 54.7222 99.2025 52.1829 101.113 49.72C103.348 46.55 105.863 43.4096 109.417 41.6668C114.64 38.8144 126.296 37.83 125.84 46.4108C124.649 53.8203 114.712 56.8815 108.321 58.146C116.194 58.066 128.253 62.6991 132.958 69.179C138.042 78.2696 123.384 77.8351 118.205 75.832C114.183 74.5737 110.559 72.3893 107.04 70.1132C103.018 67.5517 99.1492 64.5845 96.0305 60.9682C95.4703 60.8833 94.9371 60.6693 94.7994 60.0599C94.7525 59.8469 94.7591 59.6416 94.818 59.4534C94.3398 58.9141 93.8883 58.1454 94.5161 57.5268ZM97.9873 57.6645C97.8795 57.819 97.7691 57.9715 97.6578 58.1232C99.7324 57.7117 101.848 57.3417 103.863 56.9275C103.817 56.9354 103.773 56.9434 103.727 56.9531C110.569 55.5803 118.357 54.6758 123.08 48.9449C124.806 47.0092 124.57 43.4336 122.137 42.1904C117.746 40.5608 112.651 41.8653 108.895 44.3237C106.013 46.2512 104.132 49.1134 102.107 51.8237C100.643 53.7068 99.2922 55.6695 97.9873 57.6645ZM102.429 60.6494C101.781 60.702 101.136 60.7991 100.487 60.8612C99.9494 60.9109 99.4099 60.9675 98.8697 61.0001C101.449 63.6219 104.167 65.7649 107.194 67.7682C110.603 69.9773 114.042 72.2695 117.897 73.6185C125.193 76.6188 139.574 75.4056 127.267 66.5966C123.082 63.8779 118.372 61.9132 113.535 60.8183C109.83 60.0751 106.146 60.3077 102.429 60.6494Z" fill="#FF5E88"/>
</g>
<mask id="mask16_87_3472" style="mask-type:luminance" maskUnits="userSpaceOnUse" x="24" y="-6" width="557" height="315">
<path d="M24.901 -3.85596L25.8982 308.01L580.327 306.238L579.33 -5.62878L24.901 -3.85596Z" fill="white"/>
</mask>
<g mask="url(#mask16_87_3472)">
<path d="M69.3793 48.3852C69.7082 47.3157 71.0749 47.5568 71.9482 47.3236C73.9226 46.9904 75.9171 46.6135 77.9288 46.7541C82.5075 47.0189 87.2301 47.8586 91.0355 50.5782C94.0884 52.6683 97.0865 55.9458 96.3614 59.9097C96.1425 60.8264 94.735 60.7985 94.5579 59.8693C94.2986 59.2545 94.5335 58.5612 94.3764 57.9236C93.989 56.1607 92.7071 54.7805 91.3975 53.6146C87.644 50.2263 82.6286 49.2158 77.7539 48.9524C75.3816 48.8341 73.0597 49.3861 70.7293 49.7329C69.9613 49.9727 69.1294 49.1729 69.3793 48.3852Z" fill="#FF5E88"/>
</g>
<mask id="mask17_87_3472" style="mask-type:luminance" maskUnits="userSpaceOnUse" x="24" y="-6" width="557" height="315">
<path d="M24.901 -3.85596L25.8982 308.01L580.327 306.238L579.33 -5.62878L24.901 -3.85596Z" fill="white"/>
</mask>
<g mask="url(#mask17_87_3472)">
<path d="M71.1995 63.5496C77.5633 63.5278 84.2125 63.8909 90.3461 61.9501C91.7849 61.8383 97.3831 57.0936 97.3243 60.1819C97.2021 60.633 96.7126 60.8841 96.2866 60.7662C94.8631 61.352 93.7051 62.436 92.3032 63.0738C89.8943 64.2487 87.2345 64.8058 84.5901 65.1392C80.0962 65.6557 75.5703 65.7224 71.0548 65.7836C69.7002 65.6101 69.827 63.5476 71.1995 63.5496Z" fill="#FF5E88"/>
</g>
<mask id="mask18_87_3472" style="mask-type:luminance" maskUnits="userSpaceOnUse" x="8" y="-45" width="557" height="315">
<path d="M8.9231 -42.4612L9.92031 269.405L564.349 267.632L563.352 -44.2341L8.9231 -42.4612Z" fill="white"/>
</mask>
<g mask="url(#mask18_87_3472)">
<path d="M18.182 81.8374C19.2996 80.4172 21.1845 79.7998 22.7639 79.0229C25.088 78.0821 27.4529 77.0356 29.9763 76.8202C30.9553 76.675 32.3384 77.1609 32.123 78.3698C31.603 80.0169 29.7402 80.9073 28.265 81.5721C30.7344 82.2787 32.7161 85.7531 29.1371 86.4565C27.1547 86.6332 16.3081 85.0571 18.182 81.8374Z" fill="#FFEAF1"/>
</g>
<mask id="mask19_87_3472" style="mask-type:luminance" maskUnits="userSpaceOnUse" x="-12" y="-48" width="556" height="315">
<path d="M-11.6125 -45.7686L-10.6153 266.098L543.814 264.325L542.816 -47.5414L-11.6125 -45.7686Z" fill="white"/>
</mask>
<g mask="url(#mask19_87_3472)">
<path d="M17.4819 35.8795C18.3238 35.4118 19.3731 35.2936 20.2682 34.9687C22.0182 34.4676 23.6441 33.5187 25.4778 33.3358C26.2792 33.1877 27.4657 33.4415 27.4239 34.459C27.2939 35.594 25.917 35.8548 25.0231 36.1851C25.9314 36.4762 27.194 36.9604 27.2108 38.0756C27.1843 38.6451 26.8032 39.1084 26.2466 39.2335C23.6745 39.3099 21.0812 38.7998 18.5902 38.1601C17.3994 38.0053 16.3595 36.8882 17.4819 35.8795Z" fill="#FFEAF1"/>
</g>
<mask id="mask20_87_3472" style="mask-type:luminance" maskUnits="userSpaceOnUse" x="-20" y="-71" width="556" height="314">
<path d="M-19.4691 -69.0857L-18.4719 242.781L535.957 241.008L534.96 -70.8585L-19.4691 -69.0857Z" fill="white"/>
</mask>
<g mask="url(#mask20_87_3472)">
<path d="M9.62528 12.5623C10.4673 12.0947 11.5166 11.9764 12.4116 11.6516C14.1616 11.1505 15.7876 10.2016 17.6212 10.0187C18.4227 9.87059 19.6092 10.1244 19.5674 11.1418C19.4373 12.2768 18.0604 12.5377 17.1666 12.868C18.0748 13.159 19.3374 13.6433 19.3543 14.7585C19.3278 15.328 18.9466 15.7913 18.39 15.9163C15.8179 15.9927 13.2246 15.4827 10.7336 14.8429C9.54285 14.6882 8.50289 13.5711 9.62528 12.5623Z" fill="#FFEAF1"/>
</g>
<mask id="mask21_87_3472" style="mask-type:luminance" maskUnits="userSpaceOnUse" x="-15" y="28" width="556" height="314">
<path d="M-14.7374 29.9152L-13.7402 341.781L540.689 340.009L539.692 28.1423L-14.7374 29.9152Z" fill="white"/>
</mask>
<g mask="url(#mask21_87_3472)">
<path d="M14.357 111.563C15.199 111.096 16.2483 110.977 17.1433 110.652C18.8933 110.151 20.5192 109.202 22.3529 109.02C23.1543 108.871 24.3408 109.125 24.299 110.143C24.169 111.278 22.7921 111.539 21.8983 111.869C22.8065 112.16 24.0691 112.644 24.0859 113.759C24.0595 114.329 23.6783 114.792 23.1217 114.917C20.5496 114.994 17.9563 114.484 15.4653 113.844C14.2745 113.689 13.2346 112.572 14.357 111.563Z" fill="#FFEAF1"/>
</g>
<mask id="mask22_87_3472" style="mask-type:luminance" maskUnits="userSpaceOnUse" x="-43" y="7" width="556" height="314">
<path d="M-42.6368 8.92328L-41.6396 320.79L512.789 319.017L511.792 7.15046L-42.6368 8.92328Z" fill="white"/>
</mask>
<g mask="url(#mask22_87_3472)">
<path d="M13.8192 150.886C14.5141 150.202 15.6166 150.107 16.4921 149.745C18.8356 149.06 21.2862 147.658 23.7797 148.279C24.4053 148.508 24.7662 149.295 24.3797 149.881C23.6712 150.758 22.4032 150.928 21.3751 151.239C22.2841 151.611 23.2792 152.15 23.6715 153.104C24.1303 154.158 23.1291 155.152 22.061 154.9C20.4284 154.633 18.8018 154.216 17.1973 153.827C15.8364 153.461 12.5978 152.916 13.8192 150.886Z" fill="#FFEAF1"/>
</g>
<mask id="mask23_87_3472" style="mask-type:luminance" maskUnits="userSpaceOnUse" x="-21" y="97" width="556" height="315">
<path d="M-20.9655 99.7344L-19.9682 411.601L534.461 409.828L533.464 97.9616L-20.9655 99.7344Z" fill="white"/>
</mask>
<g mask="url(#mask23_87_3472)">
<path d="M8.12895 181.382C8.97094 180.915 10.0202 180.797 10.9152 180.472C12.6653 179.971 14.2912 179.022 16.1249 178.839C16.9263 178.691 18.1128 178.945 18.071 179.962C17.9409 181.097 16.5641 181.358 15.6702 181.688C16.5785 181.979 17.8411 182.463 17.8579 183.579C17.8314 184.148 17.4503 184.611 16.8937 184.736C14.3216 184.813 11.7282 184.303 9.23731 183.663C8.04651 183.508 7.00655 182.391 8.12895 181.382Z" fill="#FFEAF1"/>
</g>
</g>
<defs>
<clipPath id="clip0_87_3472">
<rect width="200" height="133.782" fill="white" transform="translate(133.781) rotate(89.8168)"/>
</clipPath>
</defs>
</svg>
