<svg width="127" height="120" viewBox="0 0 127 120" fill="none" xmlns="http://www.w3.org/2000/svg">
<g clip-path="url(#clip0_230_20394)">
<mask id="mask0_230_20394" style="mask-type:luminance" maskUnits="userSpaceOnUse" x="-41" y="-176" width="234" height="340">
<path d="M-40.4993 163.769H192.421V-175.983H-40.4993V163.769Z" fill="white"/>
</mask>
<g mask="url(#mask0_230_20394)">
<path d="M62.2165 34.4949C61.7263 36.8663 61.3357 39.3689 61.3156 41.7585C61.3031 42.3934 61.3191 43.0294 61.3435 43.6639C61.356 43.972 61.4101 44.31 61.7017 44.5305C63.2886 45.176 65.1763 45.276 66.9221 45.4666C68.4922 45.609 70.048 45.867 71.5831 46.0486C75.1712 46.5041 78.7182 47.1613 82.341 47.4212C87.3518 47.7801 92.3805 47.9498 97.4049 48.1226C101.535 48.1618 105.71 47.9232 109.754 47.223C113.038 46.9146 116.34 46.6136 119.548 45.9428C120.901 45.6003 122.424 45.4032 123.592 44.7248C124.196 44.0182 124.393 42.9492 124.74 42.1881C126.358 38.0007 126.904 33.6108 126.999 29.2353C127.041 23.0426 125.839 16.8551 123.783 10.9047C122.847 8.61771 122.574 5.83971 120.353 4.10609C119.612 3.67167 118.658 3.83995 117.805 3.81837C115.313 3.88384 112.832 4.16166 110.355 4.39081C103.288 5.13296 96.1873 6.42525 89.8995 9.26394C84.2374 11.8522 79.3236 15.3745 75.1047 19.3968C72.0561 22.7022 69.0745 26.0602 66.0655 29.3905C64.5806 29.2661 64.107 30.9641 63.5165 31.8006C63.0336 32.6896 62.267 33.4898 62.2165 34.4949Z" fill="#FFC04F"/>
</g>
<mask id="mask1_230_20394" style="mask-type:luminance" maskUnits="userSpaceOnUse" x="-41" y="-176" width="234" height="340">
<path d="M-40.4993 163.769H192.421V-175.983H-40.4993V163.769Z" fill="white"/>
</mask>
<g mask="url(#mask1_230_20394)">
<path d="M83.967 45.2438C84.694 44.8744 84.6201 44.0802 84.2256 43.5451C83.4082 42.2542 81.7586 41.5285 80.2567 40.8697C81.9288 40.9909 83.6176 41.0435 85.2945 40.9639C86.1028 40.9042 86.9995 40.8071 87.6215 40.3394C88.9189 39.2294 87.0426 37.944 85.8502 37.4533C83.4576 36.3537 80.6481 36.649 78.0219 36.7127C79.4421 35.8522 80.9005 35.0391 82.2337 34.0857C82.8945 33.5939 83.8113 33.1115 83.9252 32.3264C83.4626 30.2424 80.6175 31.067 78.8904 31.405C77.6312 31.6964 76.417 32.119 75.2681 32.6311C74.8117 32.8282 74.0543 33.1089 74.4339 33.622C74.6146 33.8503 74.9884 33.9105 75.2642 33.7671C75.8407 33.4619 76.5571 33.1834 77.1554 32.9394C78.0472 32.6254 79.008 32.342 79.9142 32.1652C80.7452 32.0555 81.7049 31.6697 82.516 31.9675C82.4953 31.958 82.474 31.9475 82.4541 31.9385C82.6107 32.0388 82.7095 32.1882 82.8026 32.3301C81.2658 33.851 78.9845 34.8809 77.0834 36.0481C76.5893 36.37 76.1456 36.5595 75.7574 36.921C75.5079 37.1896 75.6807 37.6109 76.0641 37.7185C77.8977 37.9571 79.7937 37.6483 81.6488 37.7049C83.3614 37.7122 85.0031 38.0643 86.334 38.9213C86.5449 39.105 87.102 39.4104 86.8244 39.6751C85.6688 40.2178 84.2092 40.0014 82.9458 40.0341C82.9603 40.0338 82.9747 40.0338 82.989 40.034C82.9935 40.034 82.9982 40.0341 83.0259 40.0336C81.3674 39.9766 79.7128 39.8531 78.0804 39.5995C77.5809 39.567 77.0668 39.3456 76.5724 39.4491C76.029 39.5919 75.9679 40.2302 76.4735 40.4441C78.7371 41.6803 81.8783 42.225 83.235 44.2752L83.2394 44.2686C83.2534 44.3062 83.2646 44.3442 83.2728 44.383C83.2734 44.3876 83.2737 44.3923 83.2739 44.3969C80.9947 44.8586 78.8367 43.3124 76.864 42.5809C76.0866 42.2544 75.4644 43.2282 76.2433 43.5594C78.615 44.3681 81.3167 46.2199 83.967 45.2438Z" fill="#FFEBCE"/>
</g>
<mask id="mask2_230_20394" style="mask-type:luminance" maskUnits="userSpaceOnUse" x="-41" y="-176" width="234" height="340">
<path d="M-40.4993 163.769H192.421V-175.983H-40.4993V163.769Z" fill="white"/>
</mask>
<g mask="url(#mask2_230_20394)">
<path d="M71.5857 26.814C71.375 27.2 70.6799 27.6446 71.1693 28.0449C71.2299 28.4153 71.7533 28.6706 72.1767 28.5257C75.2299 28.3555 78.1968 27.7182 81.0848 26.9036C83.0383 26.4527 85.0164 26.0733 86.9326 25.5118C93.8954 23.675 100.583 21.0958 106.358 17.3735C110.493 14.5651 115.564 11.9225 117.172 7.47898C118.096 4.01847 116.292 4.67125 113.158 5.32793C109.087 5.96673 105.027 6.65809 100.997 7.4512C96.9419 8.29739 93.2068 9.91952 89.5094 11.4826C84.545 13.4582 80.3502 16.7048 77.1092 20.321C75.2277 22.4622 73.2423 24.5525 71.5857 26.814Z" fill="#EF9107"/>
</g>
<mask id="mask3_230_20394" style="mask-type:luminance" maskUnits="userSpaceOnUse" x="-41" y="-176" width="234" height="340">
<path d="M-40.4993 163.769H192.421V-175.983H-40.4993V163.769Z" fill="white"/>
</mask>
<g mask="url(#mask3_230_20394)">
<path d="M64.1861 34.564C64.4278 36.961 64.5566 39.4819 64.328 41.8642C64.2745 42.4977 64.1926 43.1302 64.1022 43.7607C64.0575 44.0668 63.9685 44.3998 63.6549 44.5989C62.0068 45.1312 60.1156 45.0984 58.3562 45.166C56.7771 45.198 55.2001 45.3462 53.6516 45.4196C50.0293 45.622 46.427 46.0285 42.7904 46.0336C37.7606 46.0405 32.7324 45.8574 27.7084 45.6778C23.5892 45.4274 19.454 44.8974 15.4978 43.9164C12.2582 43.3791 8.99993 42.8481 5.87298 41.955C4.56 41.519 3.06392 41.2161 1.97049 40.4583C1.44189 39.7119 1.3567 38.6331 1.09013 37.8506C-0.0856821 33.5649 -0.173237 29.1529 0.187358 24.7868C0.789716 18.6137 2.63064 12.5329 5.29844 6.74828C6.46865 4.53512 7.02982 1.78632 9.42286 0.214616C10.2068 -0.166365 11.1389 0.0680984 11.9912 0.10632C14.468 0.34627 16.911 0.79662 19.3545 1.19848C26.3193 2.43291 33.2592 4.21767 39.2287 7.48636C44.6009 10.4618 49.1306 14.3154 52.9155 18.6185C55.6092 22.1252 58.2304 25.6799 60.8821 29.2087C62.3745 29.1887 62.6697 30.9136 63.1712 31.7885C63.5596 32.7081 64.2404 33.5591 64.1861 34.564Z" fill="#FFC04F"/>
</g>
<mask id="mask4_230_20394" style="mask-type:luminance" maskUnits="userSpaceOnUse" x="-41" y="-176" width="234" height="340">
<path d="M-40.4993 163.769H192.421V-175.983H-40.4993V163.769Z" fill="white"/>
</mask>
<g mask="url(#mask4_230_20394)">
<path d="M72.4299 35.3249C72.5813 37.8045 72.6069 46.4723 68.5205 46.5406C67.3733 46.4585 66.546 45.5889 66.1005 44.7832C64.1627 47.0971 62.0869 46.2813 60.9928 43.9602C60.9928 43.962 60.9928 43.962 60.9909 43.9618C59.3277 45.2516 58.0636 45.7637 57.1147 45.7303C55.0167 45.6569 54.4506 42.9173 54.4741 40.0303C54.5021 37.9183 54.6171 35.791 55.1873 33.7316C55.4094 32.2636 55.9173 30.8476 56.9543 29.7409C57.6724 29.0517 58.5504 28.7548 59.4014 28.7779C60.4636 28.5226 61.5857 28.8109 62.2344 29.9614C63.4881 28.432 66.4192 28.6374 67.1389 30.4378C70.7132 26.3188 72.2733 33.1023 72.4299 35.3249Z" fill="#EF9107"/>
</g>
<mask id="mask5_230_20394" style="mask-type:luminance" maskUnits="userSpaceOnUse" x="-41" y="-176" width="234" height="340">
<path d="M-40.4993 163.769H192.421V-175.983H-40.4993V163.769Z" fill="white"/>
</mask>
<g mask="url(#mask5_230_20394)">
<path d="M41.3968 43.7505C40.7108 43.3314 40.8671 42.5452 41.3159 42.0399C42.2644 40.8109 43.9837 40.2034 45.5486 39.652C43.8701 39.6558 42.1818 39.5898 40.5195 39.393C39.7204 39.2771 38.8368 39.1175 38.266 38.608C37.0886 37.4113 39.092 36.2618 40.331 35.8566C42.8291 34.9284 45.5978 35.4193 48.2076 35.6667C46.8821 34.7101 45.5137 33.7977 44.2846 32.7544C43.6773 32.2182 42.814 31.6734 42.7823 30.8831C43.4601 28.8391 46.209 29.86 47.8944 30.3176C49.1188 30.6962 50.2847 31.2023 51.3759 31.793C51.8103 32.0214 52.5358 32.3541 52.104 32.8388C51.9004 33.0534 51.5217 33.0872 51.2618 32.9251C50.719 32.5808 50.0343 32.2529 49.4636 31.9678C48.6078 31.5927 47.6798 31.243 46.7954 31.0034C45.9789 30.8359 45.0629 30.3844 44.2236 30.624C44.2453 30.6163 44.2676 30.6072 44.2885 30.5996C44.122 30.6886 44.0081 30.8305 43.9005 30.9654C45.2734 32.5884 47.4394 33.7743 49.2119 35.0704C49.6709 35.4257 50.0929 35.6456 50.4421 36.033C50.6629 36.3181 50.4471 36.7258 50.0537 36.8061C48.202 36.9155 46.3451 36.4748 44.4908 36.4014C42.7838 36.2887 41.1113 36.5246 39.6963 37.2853C39.467 37.4534 38.8802 37.7186 39.1291 38.0019C40.224 38.6236 41.7009 38.5102 42.9561 38.6314C42.9418 38.63 42.9276 38.6289 42.9134 38.628C42.9086 38.6278 42.9041 38.6277 42.8767 38.6252C44.5348 38.6846 46.1965 38.6774 47.8491 38.539C48.3501 38.5417 48.8854 38.3569 49.3672 38.4948C49.8939 38.6753 49.8883 39.3155 49.3625 39.493C46.9785 40.5662 43.792 40.889 42.2269 42.8367L42.2232 42.8298C42.2053 42.8662 42.1902 42.9034 42.178 42.9413C42.1771 42.9459 42.1762 42.9506 42.1756 42.9552C44.3985 43.5749 46.7093 42.1855 48.7511 41.5946C49.5594 41.3239 50.078 42.3375 49.2676 42.613C46.8204 43.2527 43.9359 44.9086 41.3968 43.7505Z" fill="#FFEBCE"/>
</g>
<mask id="mask6_230_20394" style="mask-type:luminance" maskUnits="userSpaceOnUse" x="-41" y="-176" width="234" height="340">
<path d="M-40.4993 163.769H192.421V-175.983H-40.4993V163.769Z" fill="white"/>
</mask>
<g mask="url(#mask6_230_20394)">
<path d="M55.6501 26.255C55.8198 26.6542 56.4662 27.146 55.9369 27.5107C55.8382 27.8752 55.2899 28.093 54.8832 27.9191C51.8589 27.5356 48.9692 26.693 46.1763 25.679C44.2771 25.0929 42.3454 24.5762 40.4948 23.8827C33.7485 21.5652 27.3531 18.5269 21.9869 14.4138C18.159 11.3261 13.3815 8.33789 12.2415 3.79813C11.6808 0.285424 13.4104 1.06225 16.4645 1.93587C20.4543 2.85745 24.4274 3.83052 28.36 4.90303C32.3126 6.03005 35.8655 7.90789 39.3867 9.72414C44.1274 12.0403 47.9693 15.5689 50.8222 19.3989C52.4742 21.6639 54.2349 23.8858 55.6501 26.255Z" fill="#EF9107"/>
</g>
<mask id="mask7_230_20394" style="mask-type:luminance" maskUnits="userSpaceOnUse" x="-41" y="-176" width="234" height="340">
<path d="M-40.4993 163.769H192.421V-175.983H-40.4993V163.769Z" fill="white"/>
</mask>
<g mask="url(#mask7_230_20394)">
<path d="M20.311 44.2223L105.38 46.0294L108.408 119.894H15.9062L20.311 44.2223Z" fill="#83C4C2"/>
</g>
<mask id="mask8_230_20394" style="mask-type:luminance" maskUnits="userSpaceOnUse" x="15" y="44" width="94" height="76">
<path d="M15.9062 119.894H108.408L105.38 46.0295L20.3112 44.2223L15.9062 119.894Z" fill="white"/>
</mask>
<g mask="url(#mask8_230_20394)">
<path d="M15.4141 65.2386C15.0639 64.4188 16.0639 63.4636 16.6525 62.8521C18.8022 60.9282 22.819 59.9849 25.8692 60.7697C30.9835 62.3552 31.1455 63.889 36.5883 61.2099C41.8946 58.7007 47.2722 56.4386 53.2123 59.1442C56.4221 60.4931 60.3891 61.9112 63.7675 60.1601C66.6704 58.7653 69.6936 57.3708 73.1031 57.0988C78.2963 56.3319 82.5189 59.3227 87.1436 60.6517C88.5276 61.0172 90.0403 61.0866 91.4013 60.6173C96.2239 58.5795 99.1673 57.1591 104.884 58.1263C107.151 58.5351 109.503 59.0014 111.802 58.4652C113.058 58.2077 114.286 57.8584 115.517 57.5286C115.922 57.4194 116.372 57.616 116.501 57.9469C116.835 58.9614 114.686 58.9784 113.93 59.3034C110.453 60.4099 107.426 59.9426 103.933 59.29C100.697 58.8051 97.3736 59.3569 94.582 60.7463C92.9884 61.4536 91.3427 62.234 89.4774 62.2411C83.7521 62.1805 79.3712 57.5631 73.4609 58.3559C69.3345 58.5585 66.1383 60.8654 62.4291 62.0326C58.0884 63.0681 54.1005 60.6761 50.22 59.5103C47.902 58.915 45.3765 59.2029 43.1416 59.9038C41.1186 60.5862 39.2246 61.4909 37.3006 62.3384C35.4474 63.1518 33.4842 64.1322 31.2995 63.9338C28.812 63.6597 26.8885 62.0604 24.3958 61.7624C21.4405 61.5872 17.9872 62.5587 16.6443 64.8547C16.7614 65.4075 15.781 65.7431 15.4141 65.2386Z" fill="#ABDDDD"/>
<path d="M28.4022 85.9938C23.2501 84.0038 20.1253 82.7327 15.0634 85.96C14.8156 86.1163 14.5617 86.2842 14.2324 86.2656C13.7206 86.2387 13.5078 85.6627 13.9089 85.4044C17.1299 82.8745 21.7251 81.938 25.7967 83.666C28.0103 84.4738 30.2075 85.4467 32.6877 85.4585C35.9522 85.5433 38.7225 83.9052 41.5098 82.7357C45.5041 80.8544 49.2899 80.9655 53.4221 82.4602C55.3737 83.0636 57.2414 83.998 59.3232 84.0739C61.4838 84.0698 63.4185 83.1295 65.4039 82.5678C72.6376 80.1775 76.1372 84.5306 82.2917 83.3763C84.0102 83.0201 85.6132 82.3963 87.2577 81.8692C91.3978 80.2736 95.8729 81.7243 99.8669 82.9221C101.191 83.2324 102.606 83.277 103.942 83.042C107.524 82.1532 110.998 80.7041 114.802 80.6103C115.509 80.5914 116.48 80.1409 116.815 80.8883C117.123 82.1171 114.6 81.8182 113.7 81.9865C113.09 82.0423 112.487 82.1231 111.889 82.2371C107.705 83.0307 103.585 85.4189 99.1864 84.096C96.1115 83.2461 92.8303 81.9855 89.5591 82.6087C85.3838 83.6706 81.4314 85.797 76.9173 84.4975C72.75 83.46 69.805 82.4036 65.5476 83.8973C63.7649 84.4479 62.035 85.1761 60.1192 85.3355C55.4298 85.5661 51.5439 82.1985 46.7876 82.6092C39.9084 83.5411 36.4224 88.6865 28.4022 85.9938Z" fill="#ABDDDD"/>
<path d="M30.4154 109.29C27.6702 108.912 25.553 107.321 23.241 106.175C19.0502 103.91 14.7524 103.494 11.1827 106.816C10.708 107.512 9.43491 106.77 10.215 106.167C14.7709 101.905 20.0276 102.819 25.1838 105.748C27.9471 107.346 30.6954 108.751 34.1958 107.907C38.4881 106.873 42.6511 105.28 47.2113 105.266C49.5576 105.184 51.9437 105.326 54.1828 105.938C55.9491 106.39 57.7726 107.111 59.4921 107.584C61.9994 108.41 64.3916 107.069 66.4613 106.032C69.1872 104.702 71.9759 103.188 75.195 102.877C78.1002 102.537 80.7715 103.979 83.4108 104.647C85.0835 105.058 86.6667 105.217 88.3328 105.086C90.7896 104.906 93.0514 104.007 95.4664 103.669C99.9935 103.196 104.352 105.104 108.81 105.163C110.265 105.196 111.752 105.003 113.028 104.402C113.598 104.135 114.148 103.846 114.667 103.518C115.003 103.301 115.49 103.323 115.771 103.599C116.493 104.499 114.747 104.961 114.068 105.397C110.26 107.32 105.67 106.175 101.631 105.454C99.7633 105.151 98.0225 104.751 96.1859 104.889C90.4674 105.858 87.5715 107.47 81.5114 105.466C79.8133 104.933 78.1572 104.184 76.3061 104.123C72.7321 104.139 69.6951 105.992 66.7234 107.409C63.448 109.162 60.9498 109.727 57.2916 108.279C51.7697 106.045 45.4304 106.049 39.7385 107.742C36.731 108.546 33.653 109.785 30.4154 109.29Z" fill="#ABDDDD"/>
</g>
<mask id="mask9_230_20394" style="mask-type:luminance" maskUnits="userSpaceOnUse" x="-41" y="-177" width="234" height="341">
<path d="M-40.6843 163.468H192.236V-176.283H-40.6843V163.468Z" fill="white"/>
</mask>
<g mask="url(#mask9_230_20394)">
<path d="M51.5899 44.5904C51.5899 44.5904 73.3425 44.4276 73.9974 44.9811C74.6524 45.5346 79.6302 118.953 79.2373 119.593C78.8441 120.234 48.4534 120.028 47.2746 119.593C46.0955 119.159 50.6653 45.2582 51.5899 44.5904Z" fill="#FFC04F"/>
</g>
</g>
<defs>
<clipPath id="clip0_230_20394">
<rect width="127" height="120" fill="white"/>
</clipPath>
</defs>
</svg>
