<svg width="167" height="209" viewBox="0 0 167 209" fill="none" xmlns="http://www.w3.org/2000/svg">
<g clip-path="url(#clip0_229_21132)">
<mask id="mask0_229_21132" style="mask-type:luminance" maskUnits="userSpaceOnUse" x="-1" y="0" width="169" height="209">
<path d="M-0.628006 0H167.414V208.242H-0.628006V0Z" fill="white"/>
</mask>
<g mask="url(#mask0_229_21132)">
<mask id="mask1_229_21132" style="mask-type:luminance" maskUnits="userSpaceOnUse" x="-27" y="-75" width="211" height="375">
<path d="M-26.9236 299.462H183.518V-74.657H-26.9236V299.462Z" fill="white"/>
</mask>
<g mask="url(#mask1_229_21132)">
<path d="M117.127 131.281L125.471 210.313H130.338L132.192 129.195L117.127 131.281Z" fill="#E8E8E8"/>
</g>
<mask id="mask2_229_21132" style="mask-type:luminance" maskUnits="userSpaceOnUse" x="-27" y="-75" width="211" height="375">
<path d="M-26.9236 299.462H183.518V-74.657H-26.9236V299.462Z" fill="white"/>
</mask>
<g mask="url(#mask2_229_21132)">
<path d="M85.7816 138.277L69.558 222.871H63.7642C63.7642 222.871 50.4612 138.239 55.258 131.652C60.0554 125.066 85.7816 138.277 85.7816 138.277Z" fill="#E8E8E8"/>
</g>
<mask id="mask3_229_21132" style="mask-type:luminance" maskUnits="userSpaceOnUse" x="-22" y="-18" width="211" height="375">
<path d="M-21.7207 356.757H188.721V-17.362H-21.7207V356.757Z" fill="white"/>
</mask>
<g mask="url(#mask3_229_21132)">
<path d="M139.959 19.4169C140.099 20.4185 140.798 21.9409 139.699 22.6012C138.865 22.8094 137.965 22.7033 137.113 22.8481C135.999 22.9475 134.895 23.2577 133.78 23.2744C133.046 23.188 133.154 22.4333 133.213 21.8892C133.317 20.558 133.467 19.2308 133.579 17.901C133.867 12.9618 134.296 8.03145 134.646 3.09598C134.739 2.32455 134.396 -1.15708 135.694 -0.589661C136.157 -0.239531 136.073 0.486918 136.257 0.997406C136.491 1.94595 136.701 2.8945 136.915 3.84811C137.502 7.35567 137.954 10.8915 138.81 14.3497C139.187 16.0401 139.587 17.724 139.959 19.4169Z" fill="#FFC04F"/>
<path d="M46.6948 110.839C47.9277 111.001 47.5861 116.257 47.5721 117.318C47.3216 123.562 45.9294 129.683 44.6939 135.788C43.0828 142.04 41.9075 149.837 37.122 154.498C35.8284 155.843 33.3708 157.177 31.8716 155.425C31.9039 160.085 31.1802 165.161 27.9522 168.747C26.4201 170.527 23.9948 172.128 21.5714 171.351C18.5553 170.308 17.0662 166.779 17.0757 163.774C15.5354 167.226 8.97556 174.89 6.64262 168.141C5.87215 165.086 6.44591 161.612 8.14437 158.958C5.58687 160.256 0.0334923 161.215 -3.41481e-05 156.98C0.366859 154.092 2.0666 151.332 4.18699 149.379C-1.61941 149.301 -0.0733949 144.567 2.21653 141.218C3.06291 139.949 4.15597 138.872 5.34269 137.921C5.9449 137.381 6.70209 136.955 7.1335 136.255C5.11495 134.431 2.70485 132.555 2.09885 129.761C1.53775 126.749 2.84972 123.756 4.41977 121.249C7.05761 117.245 10.5134 113.648 14.8731 111.544C18.3548 109.793 22.3406 108.686 26.2512 109.28C24.8868 106.063 25.4617 101.657 28.7581 99.8681C30.9683 98.6099 33.7517 98.9275 36.0808 99.6878C41.6418 101.441 44.9242 105.396 46.6948 110.839Z" fill="#ABDDDD"/>
<path d="M19.4625 149.479C17.4149 149.043 17.4572 147.343 18.0348 145.701C18.5358 144.008 19.2791 142.387 20.2633 140.918C18.6452 141.913 16.8727 143.271 14.8776 143.069C13.9888 142.981 13.4024 142.144 13.5024 141.279C13.675 139.576 14.5721 138.017 15.5095 136.619C16.9082 134.534 18.8729 132.917 21.0483 131.692C17.9196 132.343 11.2839 132.625 14.066 127.598C15.0085 125.735 16.502 124.188 18.1651 122.946C20.3285 121.3 22.9372 120.451 25.558 119.855C23.3554 119.002 20.6385 118.72 19.0463 116.814C16.8797 113.655 23.2314 111.66 25.4618 111.258C28.4665 110.566 31.5535 111.16 34.4754 111.955C33.1951 110.012 31.4397 107.744 32.1305 105.284C32.529 103.634 34.631 102.934 35.9645 103.96C37.0639 104.679 37.5883 105.983 38.4613 106.897C38.4594 106.896 38.4562 106.895 38.4562 106.895L38.4543 106.894C38.6643 107.01 38.7725 107.267 38.6498 107.498C38.5043 107.769 38.1039 107.814 37.9128 107.565C37.2239 106.836 36.7843 105.913 36.0809 105.194C33.8346 102.92 32.1203 105.614 33.1894 107.93C33.715 109.18 34.483 110.378 35.2706 111.466C35.5255 111.776 35.7956 112.073 36.0663 112.361C36.2049 112.49 36.313 112.631 36.3079 112.83C36.3212 113.132 36.0252 113.389 35.7266 113.31C31.8572 112.111 27.9694 111.302 24.0158 112.586C22.4634 113.043 20.9459 113.717 19.794 114.86C18.9432 115.957 20.4392 116.984 21.3457 117.383C22.7475 118.009 24.2346 118.407 25.6889 118.891C26.2437 119.103 27.7049 119.316 27.1634 120.181C26.9167 120.529 26.4866 120.635 26.09 120.718C25.2695 120.923 24.4478 121.129 23.633 121.357C21.321 121.988 19.0785 123.228 17.3573 124.864C16.3863 125.706 13.2531 129.449 14.7517 130.494C17.084 131.907 21.476 130.603 24.0474 130.114C24.3466 129.97 24.7679 129.885 24.9368 130.255C25.1291 130.674 24.711 130.957 24.3415 131.019C23.5325 131.357 22.7848 131.819 22.0099 132.227C19.5359 133.595 17.2782 135.408 15.8404 137.852C13.1336 142.419 14.5044 143.372 18.8653 140.698C20.04 139.955 21.1812 139.137 22.3021 138.32C22.917 137.981 24.1043 136.244 24.8261 136.786C24.9874 136.934 25.0197 137.169 24.9229 137.362C24.5313 137.966 23.8171 138.303 23.2788 138.772C21.8631 140.181 20.6378 141.862 19.8167 143.657C19.4518 144.61 18.0227 147.571 18.9533 148.238C21.6841 149.684 24.2618 146.743 25.5833 144.625C26.4676 143.199 27.2236 141.7 28.0269 140.228C28.3312 139.672 29.1725 140.128 28.8803 140.683C26.8282 144.272 24.5199 150.218 19.4625 149.479Z" fill="#83C4C2"/>
<path d="M122.096 56.2717C122.096 56.2717 122.211 77.1308 112.941 87.3286C103.67 97.5263 88.8364 102.625 75.8579 105.174C62.8787 107.724 46.8872 106.797 40.8613 113.055C34.8354 119.312 37.1531 147.819 48.0461 155.699C58.939 163.58 106.451 161.03 123.138 142.257C139.825 123.484 144.461 111.664 144.924 76.4356C145.388 41.2071 144.924 30.0823 144.924 30.0823L122.096 56.2717Z" fill="white"/>
<path d="M138.898 23.8246C129.814 23.7601 117.344 25.9105 105.524 38.194C93.7039 50.4779 94.167 60.0582 102.743 64.3066C111.318 68.5556 138.203 57.6627 143.997 50.2457C149.791 42.8294 149.391 23.899 138.898 23.8246Z" fill="white"/>
<path d="M166.975 61.0805C167.099 62.9143 166.822 65.4933 164.97 66.3853C166.464 68.2672 166.604 70.3901 166.222 72.6813C165.776 75.5734 163.855 78.1094 161.376 79.5865C163.085 81.0484 164.835 82.8847 165.15 85.2018C165.596 90.3738 162.409 94.8708 157.87 97.0797C158.653 98.3215 159.639 99.4949 159.985 100.954C160.353 102.692 160.226 104.581 159.554 106.232C158.256 109.333 155.254 111.792 151.81 110.359C151.137 110.124 150.55 109.607 149.877 109.403C148.172 111.137 146.457 113.647 143.748 113.544C138.944 112.936 140.773 105.762 141.187 102.502C141.669 99.562 141.975 96.5977 142.426 93.6537C143.566 85.3195 143.345 76.9138 143.902 68.5423C144.079 64.2389 144.392 59.9343 144.306 55.6252C144.175 50.8644 143.431 46.2175 142.978 41.4924C142.907 40.7068 142.755 39.9274 142.68 39.1456C142.297 37.6168 141.65 36.3011 141.356 34.7748C141.184 33.9479 141.093 33.1129 141.059 32.2729C137.386 35.3255 132.385 36.2894 127.707 36.3374C125.377 36.3489 123.038 35.8553 120.935 34.8473C119.817 34.2916 118.789 33.3328 118.525 32.0715C118.349 30.7106 119.638 29.7233 120.623 29.0163C117.364 28.7733 111.741 27.2445 113.461 22.888C114.106 21.0129 115.59 19.5009 117.333 18.5975C120.795 17.0246 125.241 16.7107 128.6 18.6983C127.988 16.3037 128.706 12.9383 131.626 12.689C133.772 12.4576 136.011 12.8479 137.922 13.8663C139.435 14.687 140.862 15.7298 141.908 17.1125C143.018 17.9436 143.985 19.0059 144.644 20.2181C144.68 20.1935 144.717 20.1702 144.754 20.1484C146.54 19.0137 148.887 18.6452 150.893 19.3795C152.473 20.107 153.995 21.2236 154.936 22.7097C155.908 24.484 156.118 26.6668 155.677 28.6299C155.362 29.9546 154.675 31.1358 154.13 32.3698C159.513 32.1967 161.527 34.4969 163.208 39.3033C164.069 41.8556 164.743 44.5526 164.738 47.26C164.686 49.4095 164.008 51.5084 163.023 53.4036C165.232 55.3835 166.682 58.1194 166.975 61.0805Z" fill="#ABDDDD"/>
<path d="M116.579 41.8201C115.584 41.5068 115.203 40.3737 115.215 39.4281C115.255 38.9877 115.136 38.3735 115.52 38.0701C115.919 37.8597 116.18 38.3334 116.147 38.6824C116.052 42.1581 118.212 41.1849 118.828 38.5713C118.949 38.165 119.571 38.1364 119.74 38.5194C119.888 38.9694 119.546 39.4347 119.419 39.8597C118.994 40.9895 117.921 42.2865 116.579 41.8201Z" fill="#474747"/>
<path d="M127.434 41.7731C126.634 41.6626 126.034 40.9841 125.892 40.208C125.781 39.7784 125.753 38.4779 126.494 38.9933C126.749 39.3799 126.657 39.9089 126.911 40.3076C127.44 41.2871 128.661 40.739 129.022 39.9027C129.337 39.4775 129.286 38.4399 130.04 38.6404C130.698 38.9335 130.154 39.7195 129.994 40.1823C129.543 41.1437 128.564 42.0272 127.434 41.7731Z" fill="#474747"/>
<path d="M123.828 54.0848C123.355 53.9026 123.522 53.4301 123.661 53.0727C123.812 52.5825 123.772 52.0644 123.63 51.5767C123.121 51.2224 123.618 50.5373 124.14 50.8271C124.913 51.1914 124.99 54.3745 123.828 54.0848Z" fill="#474747"/>
<path d="M106.297 54.9856C106.214 54.7642 106.286 54.5365 106.343 54.3183C106.418 53.8653 106.466 53.396 106.697 52.9905C106.912 52.5085 107.614 52.4224 107.797 52.974C107.878 53.6205 107.726 54.582 107.184 55.0122C106.99 55.3367 106.424 55.4038 106.297 54.9856Z" fill="#474747"/>
<path d="M101.051 54.384C100.597 54.4156 100.472 53.9001 100.429 53.5414C100.306 52.9822 100.414 52.0138 101.187 52.1232C102.027 52.2946 102.097 54.5314 101.051 54.384Z" fill="#474747"/>
<path d="M122.458 77.1232C121.851 76.824 122.436 76.0649 122.494 75.5905C122.685 74.9295 122.846 74.2583 123.043 73.5991C123.218 73.095 123.997 73.374 123.814 73.8737C123.439 74.8384 123.284 75.8714 123.005 76.8645C122.94 77.0872 122.668 77.1979 122.458 77.1232Z" fill="#E8E8E8"/>
<path d="M124.829 77.7919C124.45 77.7128 124.59 77.2441 124.665 77.0087C124.856 76.2882 125.107 75.5943 125.334 74.8877C125.484 74.376 126.201 74.834 125.79 75.1863C125.51 75.9479 125.377 76.7424 125.225 77.5357C125.186 77.7141 125.004 77.8311 124.829 77.7919Z" fill="#E8E8E8"/>
<path d="M122.383 80.696C121.785 80.405 122.413 79.718 122.513 79.286C122.652 78.9185 122.808 78.5516 122.892 78.1663C122.911 77.9626 123.09 77.8045 123.296 77.8203C124.024 77.981 123.374 78.9045 123.281 79.3454C123.038 79.7484 123.037 80.8668 122.383 80.696Z" fill="#E8E8E8"/>
<path d="M122.946 84.0531C122.683 83.9652 122.602 83.6445 122.738 83.4174C123.1 82.7019 123.362 81.884 123.885 81.2723C124.193 81.0686 124.581 81.4874 124.357 81.779L124.359 81.7784C124.007 82.4343 123.741 83.1169 123.478 83.8013C123.397 84.0151 123.157 84.1315 122.946 84.0531Z" fill="#E8E8E8"/>
<path d="M118.4 84.9773C117.798 84.697 118.376 84.0816 118.602 83.733C118.953 83.2124 119.278 82.6728 119.648 82.1655C119.739 82.0466 119.895 81.9972 120.032 82.0681C120.175 82.1408 120.243 82.3293 120.164 82.4716C119.963 82.8164 119.762 83.1618 119.571 83.5129C119.356 83.9108 119.125 84.3004 118.932 84.7091C118.855 84.9273 118.617 85.0582 118.4 84.9773Z" fill="#E8E8E8"/>
<path d="M119.724 86.9743C119.528 86.9041 119.431 86.6663 119.528 86.4803C119.916 85.768 120.275 84.9988 120.695 84.3118C120.93 83.9405 121.448 84.3384 121.169 84.6617C120.819 85.2892 120.529 85.9496 120.251 86.5815C120.181 86.8156 119.998 87.0781 119.724 86.9743Z" fill="#E8E8E8"/>
<path d="M58.7372 116.235C57.8314 115.957 57.0425 115.188 56.9059 114.235C56.7174 113.669 56.6497 112.783 57.176 112.391C58.0236 110.084 61.141 109.62 62.3321 111.873C63.3322 114.043 61.1011 116.898 58.7372 116.235Z" fill="#E8E8E8"/>
<path d="M54.5666 121.887C53.0117 121.761 53.1237 119.106 54.4711 118.704C55.1492 118.472 55.8748 118.934 56.0816 119.592C56.4251 120.566 55.6293 121.873 54.5666 121.887Z" fill="#E8E8E8"/>
<path d="M62.2923 122.558C61.0144 122.419 61.3662 120.308 62.5225 120.235C64.2248 120.152 63.6915 122.579 62.2923 122.558Z" fill="#E8E8E8"/>
<path d="M157.792 19.3225C157.554 20.4806 157.197 21.6218 156.75 22.7202C155.254 26.2438 152.472 29.0623 149.458 31.3486C148.903 31.7421 148.333 32.1194 147.768 32.4964C147.463 32.7447 147.04 32.8936 146.702 32.6157C146.517 32.447 146.361 32.255 146.222 32.0498C145.832 31.4709 145.578 30.7893 145.164 30.2303C144.621 29.4429 143.692 28.8739 143.255 28.0203C143.192 27.8979 143.139 27.7689 143.099 27.6333C143.06 27.1237 143.421 26.6904 143.689 26.28C143.834 25.9163 144.085 25.5489 144.284 25.2247C146.11 22.2504 148.803 20.8675 151.926 19.5938C153.461 18.9453 155.013 18.3963 156.654 18.0985C157.693 17.8008 158.053 18.3236 157.792 19.3225Z" fill="white"/>
<path d="M151.761 25.5655C151.579 26.4291 151.311 27.2793 150.974 28.0965C150.073 30.1939 148.128 30.9548 146.222 32.0499C145.832 31.4709 145.578 30.7894 145.164 30.2303C144.621 29.4429 143.692 28.874 143.255 28.0203C144.419 27.0343 145.812 26.3861 147.341 25.7707C148.499 25.2844 149.667 24.8773 150.904 24.6558C151.688 24.434 151.959 24.8245 151.761 25.5655Z" fill="#FF7D9F"/>
<path d="M125.342 32.5761C121.827 31.6712 125.087 28.033 126.793 26.9475C124.908 26.777 122.865 26.1679 121.642 24.6387C120.242 23.0183 121.073 20.4265 123.34 20.361C124.624 20.339 125.967 20.8133 126.855 21.7529C127.112 22.1418 126.579 22.6029 126.234 22.2917C125.641 21.7698 124.913 21.4351 124.133 21.3139C122.001 20.866 121.14 22.9111 122.634 24.3507C124.199 25.8557 126.497 26.0549 128.564 26.0925C129.146 26.0734 129.241 26.9354 128.666 27.0424C128.433 27.0903 128.221 27.2051 128.012 27.3141C126.888 27.9541 125.861 28.8086 125.193 29.9225C125.021 30.2999 124.479 30.8982 124.829 31.2699C126.61 32.4946 128.836 30.911 130.621 30.3779C131.012 30.2277 131.4 30.7066 131.192 31.0628C130.974 31.388 130.467 31.4231 130.149 31.5934C128.624 32.156 127.003 32.9786 125.342 32.5761Z" fill="#83C4C2"/>
<path d="M147.404 102.4C146.086 102.368 145.816 100.855 145.943 99.7979C146 99.2621 146.153 96.6242 147.123 97.3606C147.25 97.5073 147.239 97.7414 147.107 97.8742C146.869 98.5391 146.811 99.2532 146.778 99.9541C146.788 100.424 146.742 100.974 147.06 101.357C147.753 101.815 148.614 101.093 149.136 100.643C150.392 99.4398 150.91 97.7211 151.265 96.067C151.173 95.7045 151.435 95.2421 151.849 95.342C152.292 95.4363 152.158 95.8936 152.257 96.2042C152.646 97.0879 153.284 97.9229 154.176 98.3373C154.478 98.4827 154.68 98.4499 154.804 98.1127C155.252 96.673 154.872 95.132 154.577 93.6992C154.243 92.3847 153.744 91.1227 153.174 89.8924C152.929 89.5824 152.654 89.2699 152.583 88.8714C152.49 88.2433 153.383 88.1642 153.599 88.6823C154.225 90.4636 158.728 93.6695 158.85 90.072C158.601 88.5172 157.705 87.1609 157.033 85.7629C156.556 84.8343 156.063 83.9164 155.536 83.0157C155.15 82.3976 154.766 81.7366 154.252 81.2229C153.804 80.8016 154.438 80.1008 154.899 80.5239C156.238 81.9156 157.02 83.7324 157.94 85.4074C158.647 86.8769 159.58 88.3097 159.805 89.9512C159.921 90.8419 159.534 91.7933 158.788 92.305C157.54 93.1248 155.992 92.3639 154.918 91.5883C155.585 93.5341 156.644 97.1455 155.397 98.9603C154.186 100.131 152.558 98.4992 151.876 97.4611C151.299 99.5992 149.879 102.263 147.404 102.4Z" fill="#83C4C2"/>
<path d="M131.778 50.0737C129.838 52.5085 131.365 58.7906 135.997 54.391C140.628 49.9914 135.997 44.7805 131.778 50.0737Z" fill="#FF7D9F"/>
<path d="M106.902 135.317L115.246 214.349H120.113L121.967 133.231L106.902 135.317Z" fill="white"/>
<path d="M73.2408 141.982L57.0172 226.576H51.2228C51.2228 226.576 37.9198 141.945 42.7172 135.358C47.5147 128.771 73.2408 141.982 73.2408 141.982Z" fill="white"/>
<path d="M68.3422 170.171L67.3636 169.984L69.3986 159.371L69.8332 159.395C69.8781 159.393 74.499 159.612 89.2121 157.554L89.35 158.541C76.8484 160.29 71.6518 160.408 70.2152 160.399L68.3422 170.171Z" fill="#474747"/>
<path d="M119.278 63.5716L119.054 62.6006C119.18 62.5715 131.701 59.6407 137.611 54.8155L138.241 55.5878C132.149 60.5599 119.801 63.4507 119.278 63.5716Z" fill="#474747"/>
</g>
</g>
</g>
<defs>
<clipPath id="clip0_229_21132">
<rect width="167" height="208.242" fill="white" transform="matrix(-1 0 0 1 167 0)"/>
</clipPath>
</defs>
</svg>
