<svg width="328" height="44" viewBox="0 0 328 44" fill="none" xmlns="http://www.w3.org/2000/svg">
<g clip-path="url(#clip0_187_27204)">
<mask id="mask0_187_27204" style="mask-type:luminance" maskUnits="userSpaceOnUse" x="-90" y="-72" width="313" height="257">
<path d="M-89.0431 46.6206L-22.7414 184.835L222.973 66.965L156.671 -71.2491L-89.0431 46.6206Z" fill="white"/>
</mask>
<g mask="url(#mask0_187_27204)">
<path d="M19.6947 23.1284C19.6218 23.218 19.5151 23.287 19.3967 23.2528C18.3132 23.9067 17.0637 24.2812 15.8488 24.6169C13.8184 25.2112 11.7121 25.5172 9.59684 25.3431C8.82589 25.3226 8.07535 25.1567 7.32219 25.0073C6.79956 24.9191 6.27732 24.811 5.7873 24.6037C4.96604 24.1935 4.03287 23.6817 3.68009 22.7851C3.26155 21.5464 4.2132 20.4877 5.1437 19.8018C6.58918 18.7989 8.50845 18.3505 10.2295 18.7852C8.92883 17.4251 7.83159 15.9756 8.06887 13.988C8.15187 12.1444 9.50268 10.5375 11.1365 9.78449C12.469 9.2621 13.9734 9.49204 15.2969 9.93601C17.4862 10.7478 18.7576 12.9349 19.6914 14.953C20.3642 16.4391 20.635 18.1012 20.5618 19.7208C20.4939 20.8844 20.5208 22.2108 19.6947 23.1284Z" fill="#EA81C2"/>
</g>
<mask id="mask1_187_27204" style="mask-type:luminance" maskUnits="userSpaceOnUse" x="-90" y="-72" width="313" height="257">
<path d="M-89.0432 46.6204L-22.7415 184.834L222.973 66.9648L156.671 -71.2494L-89.0432 46.6204Z" fill="white"/>
</mask>
<g mask="url(#mask1_187_27204)">
<path d="M11.6957 25.782C11.2339 23.7589 11.3855 23.8084 12.7223 22.3595C13.1293 21.9011 12.6763 21.4254 12.4267 21.0226C11.7795 20.0806 12.8212 19.2421 13.5962 18.8376C13.8418 18.6592 14.3743 18.539 14.432 18.2188C14.4333 18.2251 14.4344 18.2315 14.4353 18.2378C14.4356 18.2429 14.4356 18.2479 14.4381 18.256C14.3044 17.8822 14.0381 17.5568 13.9524 17.1592C13.7236 16.4443 13.9709 15.572 14.6821 15.2405C15.249 14.9209 15.9304 15.1012 16.5278 14.913C16.6615 14.8668 16.6791 14.7142 16.6915 14.5925C16.6898 13.7819 16.831 13.1454 17.6674 12.8363C18.3277 12.5378 19.3783 12.3081 19.9514 12.865C20.1935 13.1528 19.6833 13.4418 19.5611 13.0862C19.0759 12.8983 18.4812 13.017 18.028 13.2244C16.6496 13.6698 17.7859 14.8825 16.7703 15.4273C16.15 15.7204 15.3497 15.4251 14.7871 15.8653C14.3357 16.2097 14.4299 16.8633 14.6393 17.3207C14.8665 17.7557 15.2639 18.2953 14.8366 18.7424C14.2721 19.2914 13.3995 19.4682 12.917 20.1243C12.4913 20.8051 13.9891 21.3798 13.3301 22.5163C12.7155 23.5474 11.7175 23.6378 12.1682 25.0752C12.2015 25.2664 12.2309 25.4593 12.2795 25.6474C12.3674 26.0237 11.7877 26.1646 11.6957 25.782Z" fill="#FFA9BE"/>
</g>
<mask id="mask2_187_27204" style="mask-type:luminance" maskUnits="userSpaceOnUse" x="-90" y="-72" width="313" height="257">
<path d="M-89.043 46.6206L-22.7413 184.835L222.973 66.965L156.671 -71.2491L-89.043 46.6206Z" fill="white"/>
</mask>
<g mask="url(#mask2_187_27204)">
<path d="M11.8236 13.2339C11.6763 12.9529 11.7282 12.6275 11.7492 12.3235C11.9442 11.3141 13.4565 11.0131 14.0054 11.8902C14.3571 12.4759 14.1383 13.328 13.5802 13.7078C13.0023 14.0722 12.1244 13.8637 11.8236 13.2339Z" fill="#FFA9BE"/>
</g>
<mask id="mask3_187_27204" style="mask-type:luminance" maskUnits="userSpaceOnUse" x="-90" y="-72" width="313" height="257">
<path d="M-89.0431 46.6204L-22.7414 184.834L222.973 66.9648L156.671 -71.2494L-89.0431 46.6204Z" fill="white"/>
</mask>
<g mask="url(#mask3_187_27204)">
<path d="M10.8817 16.1835C10.8392 15.9804 10.9336 15.663 11.192 15.7043C11.4523 15.733 11.7337 16.0132 11.5768 16.2872C11.4223 16.5449 10.9613 16.4685 10.8817 16.1835Z" fill="#FFA9BE"/>
</g>
<mask id="mask4_187_27204" style="mask-type:luminance" maskUnits="userSpaceOnUse" x="-90" y="-72" width="313" height="257">
<path d="M-89.0432 46.6204L-22.7415 184.834L222.973 66.9648L156.671 -71.2494L-89.0432 46.6204Z" fill="white"/>
</mask>
<g mask="url(#mask4_187_27204)">
<path d="M7.50056 22.3802C6.99458 21.1744 8.92585 20.1128 9.84301 20.8662C10.3774 21.3438 10.2356 22.2461 9.71393 22.6781C9.08666 23.2502 7.92521 23.1483 7.50056 22.3802ZM8.7675 21.3123C9.03588 21.3496 9.32827 21.2815 9.56911 21.4416C9.53383 21.3513 9.43832 21.2562 9.35068 21.2307C9.16228 21.1635 8.95523 21.1917 8.76771 21.249C8.77048 21.2699 8.77045 21.2912 8.7675 21.3123Z" fill="#FFA9BE"/>
</g>
<mask id="mask5_187_27204" style="mask-type:luminance" maskUnits="userSpaceOnUse" x="-90" y="-72" width="313" height="257">
<path d="M-89.0432 46.6204L-22.7415 184.834L222.973 66.9648L156.671 -71.2494L-89.0432 46.6204Z" fill="white"/>
</mask>
<g mask="url(#mask5_187_27204)">
<path d="M19.6976 23.1312C19.6097 23.2063 19.5431 23.3144 19.5802 23.432C18.9516 24.5304 18.6064 25.7883 18.2992 27.0107C17.7523 29.0546 17.4956 31.1673 17.719 33.2779C17.7574 34.0482 17.9408 34.7946 18.1077 35.5443C18.2082 36.0646 18.3284 36.5842 18.547 37.0692C18.9763 37.8807 19.5097 38.8016 20.4143 39.1335C21.6623 39.523 22.6985 38.547 23.3627 37.6006C24.3315 36.1321 24.7351 34.2029 24.2603 32.4924C25.6503 33.7612 27.125 34.8243 29.1067 34.5407C30.9478 34.4148 32.5227 33.0267 33.2374 31.3759C33.7286 30.0315 33.4636 28.5329 32.9889 27.2202C32.1263 25.0503 29.9101 23.8303 27.8708 22.9438C26.3694 22.3058 24.7015 22.074 23.084 22.1849C21.9224 22.2798 20.5957 22.284 19.6976 23.1312Z" fill="#EA81C2"/>
</g>
<mask id="mask6_187_27204" style="mask-type:luminance" maskUnits="userSpaceOnUse" x="-90" y="-72" width="313" height="257">
<path d="M-89.0431 46.6206L-22.7414 184.835L222.973 66.965L156.671 -71.2491L-89.0431 46.6206Z" fill="white"/>
</mask>
<g mask="url(#mask6_187_27204)">
<path d="M17.2312 31.1901C19.2644 31.6046 19.2114 31.4542 20.6288 30.0838C21.0776 29.6664 21.5638 30.1082 21.9722 30.3482C22.929 30.9734 23.7429 29.9125 24.1294 29.1281C24.302 28.8785 24.4098 28.3433 24.7285 28.2781C24.7222 28.277 24.7158 28.2761 24.7094 28.2753C24.7043 28.2752 24.6994 28.2752 24.6913 28.273C25.0679 28.3978 25.3993 28.6565 25.7989 28.7329C26.5191 28.945 27.3853 28.6773 27.7002 27.9588C28.0064 27.3843 27.8104 26.7074 27.9845 26.1058C28.0276 25.9712 28.1798 25.9501 28.3012 25.9347C29.1115 25.9174 29.7445 25.7615 30.034 24.9182C30.317 24.2511 30.5223 23.1954 29.9521 22.6355C29.6587 22.4001 29.3817 22.9168 29.7401 23.0308C29.9392 23.5114 29.8344 24.1088 29.6377 24.5668C29.2245 25.9551 27.9856 24.8473 27.4647 25.8754C27.1861 26.5024 27.5001 27.2957 27.0731 27.8682C26.7393 28.3276 26.0839 28.2486 25.6214 28.05C25.1814 27.8329 24.6326 27.4483 24.1956 27.8859C23.66 28.4629 23.5035 29.3396 22.8589 29.8371C22.1882 30.2786 21.5786 28.7946 20.4579 29.4799C19.4414 30.1185 19.3743 31.1184 17.9268 30.7012C17.7349 30.6723 17.5413 30.6475 17.3522 30.6034C16.9738 30.5242 16.8465 31.1071 17.2312 31.1901Z" fill="#FFA9BE"/>
</g>
<mask id="mask7_187_27204" style="mask-type:luminance" maskUnits="userSpaceOnUse" x="-90" y="-72" width="313" height="257">
<path d="M-89.0431 46.6204L-22.7414 184.834L222.973 66.9648L156.671 -71.2494L-89.0431 46.6204Z" fill="white"/>
</mask>
<g mask="url(#mask7_187_27204)">
<path d="M29.773 30.7696C30.0574 30.9102 30.3815 30.8507 30.685 30.8228C31.6896 30.6042 31.9551 29.0854 31.0655 28.557C30.4717 28.2191 29.6249 28.4577 29.2584 29.0245C28.9073 29.6107 29.1363 30.4835 29.773 30.7696Z" fill="#FFA9BE"/>
</g>
<mask id="mask8_187_27204" style="mask-type:luminance" maskUnits="userSpaceOnUse" x="-90" y="-72" width="313" height="257">
<path d="M-89.0431 46.6204L-22.7414 184.834L222.973 66.9648L156.671 -71.2494L-89.0431 46.6204Z" fill="white"/>
</mask>
<g mask="url(#mask8_187_27204)">
<path d="M26.8461 31.7799C27.05 31.8176 27.3653 31.7158 27.318 31.4586C27.2833 31.199 26.9965 30.9241 26.7262 31.0874C26.4722 31.2478 26.5593 31.707 26.8461 31.7799Z" fill="#FFA9BE"/>
</g>
<mask id="mask9_187_27204" style="mask-type:luminance" maskUnits="userSpaceOnUse" x="-90" y="-72" width="313" height="257">
<path d="M-89.043 46.6206L-22.7413 184.835L222.973 66.965L156.671 -71.2491L-89.043 46.6206Z" fill="white"/>
</mask>
<g mask="url(#mask9_187_27204)">
<path d="M20.3807 33.0988C20.8005 32.5672 21.6991 32.4044 22.189 32.9275C22.9637 33.8268 21.9474 35.7823 20.7301 35.3046C19.9522 34.898 19.8233 33.7393 20.3807 33.0988ZM21.8314 34.0113C21.8843 33.8226 21.9077 33.615 21.836 33.4282C21.8086 33.3411 21.7113 33.248 21.6202 33.2149C21.7861 33.4517 21.7247 33.7458 21.7684 34.0131C21.7892 34.0097 21.8105 34.0091 21.8314 34.0113Z" fill="#FFA9BE"/>
</g>
<mask id="mask10_187_27204" style="mask-type:luminance" maskUnits="userSpaceOnUse" x="-90" y="-72" width="313" height="257">
<path d="M-89.0431 46.6204L-22.7414 184.834L222.973 66.9648L156.671 -71.2494L-89.0431 46.6204Z" fill="white"/>
</mask>
<g mask="url(#mask10_187_27204)">
<path d="M29.172 18.633C29.2967 17.6055 28.0624 17.4443 27.6721 18.283C26.2879 18.5561 24.9187 18.9787 23.6965 19.6797C23.6036 19.5162 23.4914 19.3831 23.3655 19.2778C23.6624 18.9113 23.9672 18.5409 24.2476 18.1671C25.093 16.9696 25.8889 15.6638 26.181 14.2104C27.0231 13.9306 26.9305 12.5829 25.9456 12.7496C25.2944 12.8906 24.7424 13.8602 25.5584 14.191C25.1454 16.0298 23.9701 17.5479 22.8248 19.0027C21.6394 18.6995 20.0693 19.8665 20.8203 21.1774C20.7464 21.2209 20.6787 21.2609 20.6234 21.2887C18.6665 22.7357 16.7436 24.273 15.1091 26.0857C14.4675 26.857 13.8658 27.6908 13.5431 28.6574C13.4601 28.9759 13.2623 29.341 13.4152 29.6641C14.3838 31.039 16.1991 28.1724 16.8711 27.4999C17.7044 26.3806 18.6264 25.3081 19.4958 24.2119C19.9928 23.5936 20.49 22.973 20.9896 22.357C21.1591 22.144 21.3341 21.9357 21.5084 21.7271C22.0724 21.9226 22.7646 21.7714 23.2275 21.3799C23.6996 21.1072 23.9434 20.6365 23.8648 20.1428C25.0269 19.5137 26.2951 19.1578 27.5959 18.8911C27.7065 19.8302 29.1142 19.3835 29.172 18.633Z" fill="#AFAFAF"/>
</g>
</g>
<g clip-path="url(#clip1_187_27204)">
<mask id="mask11_187_27204" style="mask-type:luminance" maskUnits="userSpaceOnUse" x="149" y="-68" width="177" height="185">
<path d="M149.6 56.5994L219.68 116.168L325.58 -8.41827L255.5 -67.9872L149.6 56.5994Z" fill="white"/>
</mask>
<g mask="url(#mask11_187_27204)">
<path d="M203.464 17.1786C203.446 17.2455 203.404 17.3094 203.331 17.3196C202.896 17.9424 202.303 18.4527 201.719 18.9333C200.751 19.7547 199.672 20.4366 198.47 20.8575C198.042 21.0345 197.59 21.1268 197.141 21.2288C196.833 21.308 196.52 21.3762 196.201 21.3822C195.651 21.3579 195.015 21.3052 194.602 20.8999C194.071 20.3231 194.334 19.5106 194.676 18.9075C195.224 18.0049 196.166 17.2906 197.216 17.1087C196.171 16.6808 195.215 16.1542 194.86 15.0069C194.456 13.9761 194.804 12.7657 195.515 11.9541C196.118 11.3425 196.999 11.1013 197.833 11.0215C199.231 10.932 200.462 11.8204 201.466 12.6986C202.198 13.3488 202.752 14.1937 203.107 15.0992C203.354 15.7536 203.692 16.474 203.464 17.1786Z" fill="#EA81C2"/>
</g>
<mask id="mask12_187_27204" style="mask-type:luminance" maskUnits="userSpaceOnUse" x="149" y="-68" width="177" height="185">
<path d="M149.6 56.5991L219.68 116.168L325.58 -8.41852L255.5 -67.9875L149.6 56.5991Z" fill="white"/>
</mask>
<g mask="url(#mask12_187_27204)">
<path d="M199.727 20.5858C198.98 19.5897 199.075 19.5798 199.454 18.4593C199.566 18.1087 199.201 17.9586 198.966 17.7988C198.381 17.4405 198.748 16.7266 199.074 16.3157C199.165 16.1579 199.427 15.962 199.381 15.7725C199.383 15.7756 199.385 15.7789 199.387 15.7821C199.389 15.7848 199.39 15.7876 199.393 15.7914C199.229 15.6191 199.003 15.5058 198.859 15.3088C198.559 14.9728 198.482 14.4344 198.791 14.079C199.023 13.7655 199.441 13.6979 199.722 13.449C199.784 13.391 199.757 13.3031 199.734 13.2333C199.535 12.7895 199.457 12.4062 199.84 12.0326C200.129 11.7078 200.649 11.3254 201.099 11.4907C201.302 11.5894 201.093 11.8723 200.939 11.7072C200.627 11.7227 200.33 11.933 200.132 12.1572C199.486 12.7378 200.404 13.1251 199.981 13.6717C199.712 13.9837 199.202 14.0172 199.001 14.3959C198.837 14.6948 199.049 15.03 199.275 15.2297C199.506 15.4126 199.855 15.6113 199.73 15.9607C199.555 16.3994 199.12 16.7093 199.016 17.1867C198.948 17.6638 199.91 17.6132 199.826 18.3969C199.741 19.1121 199.216 19.4053 199.814 20.0831C199.879 20.1797 199.942 20.2783 200.014 20.3695C200.154 20.5543 199.871 20.7731 199.727 20.5858Z" fill="#FFA9BE"/>
</g>
<mask id="mask13_187_27204" style="mask-type:luminance" maskUnits="userSpaceOnUse" x="149" y="-68" width="177" height="185">
<path d="M149.6 56.5991L219.68 116.168L325.58 -8.41852L255.5 -67.9875L149.6 56.5991Z" fill="white"/>
</mask>
<g mask="url(#mask13_187_27204)">
<path d="M196.734 13.6768C196.585 13.5587 196.534 13.3677 196.471 13.196C196.331 12.5951 197.087 12.061 197.602 12.4077C197.938 12.6429 198.026 13.1633 197.813 13.5078C197.585 13.8486 197.053 13.9486 196.734 13.6768Z" fill="#FFA9BE"/>
</g>
<mask id="mask14_187_27204" style="mask-type:luminance" maskUnits="userSpaceOnUse" x="149" y="-68" width="177" height="185">
<path d="M149.6 56.5991L219.68 116.168L325.58 -8.41852L255.5 -67.9875L149.6 56.5991Z" fill="white"/>
</mask>
<g mask="url(#mask14_187_27204)">
<path d="M196.938 15.5237C196.865 15.4228 196.839 15.2257 196.991 15.1853C197.141 15.1375 197.363 15.2224 197.344 15.4109C197.322 15.5898 197.051 15.6605 196.938 15.5237Z" fill="#FFA9BE"/>
</g>
<mask id="mask15_187_27204" style="mask-type:luminance" maskUnits="userSpaceOnUse" x="149" y="-68" width="177" height="185">
<path d="M149.6 56.5991L219.68 116.168L325.58 -8.41852L255.5 -67.9875L149.6 56.5991Z" fill="white"/>
</mask>
<g mask="url(#mask15_187_27204)">
<path d="M196.597 19.7451C196.026 19.2077 196.825 18.1544 197.512 18.3435C197.921 18.4748 198.064 19.0039 197.883 19.3681C197.679 19.8348 197.018 20.0624 196.597 19.7451ZM197.031 18.8505C197.187 18.8054 197.331 18.6967 197.502 18.7257C197.461 18.6848 197.385 18.656 197.331 18.6634C197.211 18.6726 197.105 18.7386 197.016 18.8158C197.022 18.8265 197.028 18.8382 197.031 18.8505Z" fill="#FFA9BE"/>
</g>
<mask id="mask16_187_27204" style="mask-type:luminance" maskUnits="userSpaceOnUse" x="149" y="-68" width="177" height="185">
<path d="M149.6 56.5991L219.68 116.168L325.58 -8.41852L255.5 -67.9875L149.6 56.5991Z" fill="white"/>
</mask>
<g mask="url(#mask16_187_27204)">
<path d="M203.466 17.1794C203.436 17.242 203.426 17.3175 203.475 17.3729C203.399 18.1284 203.516 18.9021 203.646 19.6471C203.846 20.9009 204.221 22.1215 204.858 23.2238C205.068 23.6366 205.35 24.0009 205.625 24.3711C205.807 24.6317 206 24.8872 206.238 25.0996C206.671 25.4396 207.188 25.8141 207.765 25.7752C208.544 25.684 208.874 24.8962 209.007 24.2153C209.179 23.1739 208.93 22.018 208.252 21.1964C209.324 21.5525 210.391 21.7752 211.408 21.136C212.387 20.6175 212.911 19.4723 212.9 18.393C212.841 17.5362 212.33 16.7795 211.749 16.1759C210.746 15.1972 209.234 15.0696 207.9 15.0815C206.921 15.0983 205.95 15.3784 205.091 15.8341C204.477 16.1697 203.751 16.4958 203.466 17.1794Z" fill="#EA81C2"/>
</g>
<mask id="mask17_187_27204" style="mask-type:luminance" maskUnits="userSpaceOnUse" x="149" y="-68" width="177" height="185">
<path d="M149.6 56.5994L219.68 116.168L325.58 -8.41827L255.5 -67.9872L149.6 56.5994Z" fill="white"/>
</mask>
<g mask="url(#mask17_187_27204)">
<path d="M204.081 22.1984C205.297 21.9293 205.231 21.8598 205.674 20.7627C205.818 20.4243 206.192 20.5478 206.474 20.5796C207.151 20.6887 207.339 19.9086 207.359 19.3843C207.393 19.2053 207.321 18.8857 207.48 18.7721C207.476 18.7731 207.472 18.7742 207.469 18.7753C207.466 18.7765 207.463 18.7777 207.458 18.7784C207.695 18.7549 207.94 18.8158 208.177 18.7602C208.624 18.7006 209.033 18.3424 209.031 17.8717C209.058 17.4821 208.785 17.1589 208.734 16.7867C208.725 16.7024 208.803 16.6537 208.866 16.6156C209.306 16.4083 209.615 16.1684 209.567 15.6354C209.56 15.2008 209.414 14.572 208.965 14.4043C208.747 14.3469 208.721 14.6977 208.946 14.6727C209.172 14.8876 209.26 15.2405 209.264 15.5396C209.377 16.4014 208.427 16.0966 208.393 16.7873C208.393 17.1989 208.759 17.5571 208.665 17.9752C208.594 18.3084 208.215 18.4252 207.913 18.4291C207.619 18.4176 207.225 18.3408 207.092 18.6873C206.939 19.1343 207.067 19.653 206.836 20.083C206.576 20.4888 205.879 19.8242 205.432 20.4734C205.031 21.0715 205.238 21.6359 204.343 21.7607C204.231 21.7917 204.119 21.8253 204.004 21.8473C203.778 21.8963 203.85 22.2469 204.081 22.1984Z" fill="#FFA9BE"/>
</g>
<mask id="mask18_187_27204" style="mask-type:luminance" maskUnits="userSpaceOnUse" x="149" y="-68" width="177" height="185">
<path d="M149.6 56.5991L219.68 116.168L325.58 -8.41852L255.5 -67.9875L149.6 56.5991Z" fill="white"/>
</mask>
<g mask="url(#mask18_187_27204)">
<path d="M210.853 18.9064C211.043 18.914 211.206 18.8023 211.366 18.7129C211.863 18.3479 211.638 17.4506 211.021 17.3782C210.613 17.3379 210.207 17.6754 210.145 18.0756C210.095 18.4825 210.434 18.905 210.853 18.9064Z" fill="#FFA9BE"/>
</g>
<mask id="mask19_187_27204" style="mask-type:luminance" maskUnits="userSpaceOnUse" x="149" y="-68" width="177" height="185">
<path d="M149.6 56.5991L219.68 116.168L325.58 -8.41852L255.5 -67.9875L149.6 56.5991Z" fill="white"/>
</mask>
<g mask="url(#mask19_187_27204)">
<path d="M209.495 20.1748C209.616 20.1457 209.764 20.0129 209.675 19.8835C209.593 19.7496 209.369 19.669 209.26 19.8245C209.16 19.9744 209.32 20.2048 209.495 20.1748Z" fill="#FFA9BE"/>
</g>
<mask id="mask20_187_27204" style="mask-type:luminance" maskUnits="userSpaceOnUse" x="149" y="-68" width="177" height="185">
<path d="M149.6 56.5991L219.68 116.168L325.58 -8.41852L255.5 -67.9875L149.6 56.5991Z" fill="white"/>
</mask>
<g mask="url(#mask20_187_27204)">
<path d="M206.274 22.4757C206.374 22.0818 206.827 21.7732 207.223 21.9403C207.867 22.2441 207.787 23.564 207.004 23.5994C206.478 23.5664 206.124 22.9628 206.274 22.4757ZM207.291 22.6217C207.274 22.5053 207.237 22.3858 207.152 22.3009C207.115 22.2599 207.039 22.2326 206.981 22.2367C207.13 22.326 207.168 22.5022 207.257 22.638C207.268 22.6311 207.279 22.6255 207.291 22.6217Z" fill="#FFA9BE"/>
</g>
<mask id="mask21_187_27204" style="mask-type:luminance" maskUnits="userSpaceOnUse" x="149" y="-68" width="177" height="185">
<path d="M149.6 56.5991L219.68 116.168L325.58 -8.41852L255.5 -67.9875L149.6 56.5991Z" fill="white"/>
</mask>
<g mask="url(#mask21_187_27204)">
<path d="M207.561 12.4012C207.378 11.8076 206.662 12.0205 206.653 12.5755C205.961 13.0631 205.314 13.6289 204.815 14.3115C204.724 14.2446 204.63 14.199 204.536 14.172C204.609 13.8987 204.685 13.6213 204.748 13.3479C204.919 12.4852 205.036 11.5752 204.842 10.7073C205.235 10.3484 204.855 9.63235 204.356 9.96414C204.034 10.2004 203.968 10.8665 204.496 10.8487C204.718 11.9573 204.445 13.0763 204.172 14.1532C203.448 14.2764 202.873 15.2994 203.604 15.8345C203.574 15.8764 203.547 15.9149 203.523 15.9436C202.804 17.2144 202.126 18.5264 201.672 19.9189C201.509 20.4983 201.383 21.1022 201.442 21.7107C201.474 21.9056 201.455 22.154 201.617 22.2937C202.484 22.8108 202.779 20.7965 202.983 20.2639C203.167 19.447 203.41 18.6341 203.619 17.821C203.741 17.3608 203.862 16.8993 203.985 16.4397C204.026 16.2816 204.071 16.1247 204.116 15.9678C204.472 15.9373 204.815 15.6854 204.973 15.3579C205.165 15.0931 205.184 14.7756 205.02 14.5242C205.504 13.8957 206.112 13.3911 206.76 12.9274C207.05 13.4151 207.712 12.8266 207.561 12.4012Z" fill="#AFAFAF"/>
</g>
</g>
<g clip-path="url(#clip2_187_27204)">
<mask id="mask22_187_27204" style="mask-type:luminance" maskUnits="userSpaceOnUse" x="239" y="-72" width="177" height="185">
<path d="M239.459 52.8813L309.539 112.45L415.44 -12.1363L345.36 -71.7053L239.459 52.8813Z" fill="white"/>
</mask>
<g mask="url(#mask22_187_27204)">
<path d="M293.323 13.4606C293.305 13.5275 293.263 13.5914 293.19 13.6015C292.756 14.2244 292.163 14.7347 291.579 15.2153C290.611 16.0367 289.531 16.7186 288.329 17.1395C287.902 17.3165 287.45 17.4088 287 17.5108C286.692 17.59 286.38 17.6582 286.061 17.6642C285.51 17.6399 284.874 17.5872 284.462 17.1819C283.93 16.6051 284.193 15.7926 284.536 15.1894C285.083 14.2869 286.026 13.5726 287.075 13.3907C286.03 12.9628 285.075 12.4362 284.72 11.2889C284.315 10.2581 284.663 9.04766 285.375 8.23608C285.978 7.62449 286.858 7.38325 287.692 7.30351C289.09 7.21403 290.321 8.10237 291.326 8.98054C292.057 9.63077 292.611 10.4757 292.966 11.3812C293.213 12.0356 293.552 12.756 293.323 13.4606Z" fill="#EA81C2"/>
</g>
<mask id="mask23_187_27204" style="mask-type:luminance" maskUnits="userSpaceOnUse" x="239" y="-72" width="177" height="185">
<path d="M239.459 52.8811L309.539 112.45L415.44 -12.1365L345.36 -71.7055L239.459 52.8811Z" fill="white"/>
</mask>
<g mask="url(#mask23_187_27204)">
<path d="M289.587 16.8678C288.84 15.8717 288.935 15.8618 289.314 14.7413C289.425 14.3907 289.061 14.2406 288.826 14.0807C288.241 13.7224 288.607 13.0086 288.933 12.5977C289.024 12.4399 289.287 12.244 289.24 12.0545C289.242 12.0576 289.245 12.0609 289.247 12.0641C289.248 12.0668 289.249 12.0695 289.253 12.0734C289.088 11.9011 288.863 11.7878 288.719 11.5908C288.419 11.2548 288.341 10.7163 288.65 10.361C288.883 10.0475 289.3 9.97992 289.582 9.73096C289.644 9.67301 289.616 9.58504 289.593 9.5153C289.395 9.07147 289.316 8.68816 289.699 8.31455C289.989 7.98975 290.508 7.60734 290.958 7.77271C291.161 7.87135 290.952 8.15426 290.798 7.98922C290.487 8.00471 290.19 8.21493 289.992 8.43923C289.345 9.01983 290.264 9.4071 289.84 9.95367C289.572 10.2657 289.061 10.2992 288.86 10.6778C288.697 10.9768 288.908 11.312 289.135 11.5116C289.365 11.6946 289.715 11.8933 289.59 12.2427C289.414 12.6814 288.979 12.9913 288.875 13.4687C288.808 13.9458 289.769 13.8951 289.685 14.6789C289.6 15.3941 289.075 15.6872 289.673 16.365C289.738 16.4617 289.801 16.5602 289.874 16.6515C290.014 16.8363 289.731 17.0551 289.587 16.8678Z" fill="#FFA9BE"/>
</g>
<mask id="mask24_187_27204" style="mask-type:luminance" maskUnits="userSpaceOnUse" x="239" y="-72" width="177" height="185">
<path d="M239.46 52.8811L309.54 112.45L415.44 -12.1365L345.36 -71.7055L239.46 52.8811Z" fill="white"/>
</mask>
<g mask="url(#mask24_187_27204)">
<path d="M286.594 9.95881C286.444 9.84072 286.393 9.64971 286.331 9.47795C286.191 8.87712 286.946 8.34299 287.461 8.68972C287.797 8.92489 287.885 9.44531 287.672 9.78976C287.444 10.1305 286.912 10.2305 286.594 9.95881Z" fill="#FFA9BE"/>
</g>
<mask id="mask25_187_27204" style="mask-type:luminance" maskUnits="userSpaceOnUse" x="239" y="-72" width="177" height="185">
<path d="M239.459 52.8811L309.539 112.45L415.44 -12.1365L345.36 -71.7055L239.459 52.8811Z" fill="white"/>
</mask>
<g mask="url(#mask25_187_27204)">
<path d="M286.797 11.8057C286.725 11.7048 286.699 11.5077 286.85 11.4673C287 11.4195 287.223 11.5044 287.204 11.6929C287.182 11.8718 286.911 11.9425 286.797 11.8057Z" fill="#FFA9BE"/>
</g>
<mask id="mask26_187_27204" style="mask-type:luminance" maskUnits="userSpaceOnUse" x="239" y="-72" width="177" height="185">
<path d="M239.459 52.8811L309.539 112.45L415.44 -12.1365L345.36 -71.7055L239.459 52.8811Z" fill="white"/>
</mask>
<g mask="url(#mask26_187_27204)">
<path d="M286.457 16.0271C285.885 15.4897 286.685 14.4364 287.371 14.6255C287.781 14.7568 287.923 15.2859 287.743 15.65C287.539 16.1168 286.877 16.3444 286.457 16.0271ZM286.891 15.1325C287.047 15.0874 287.19 14.9787 287.361 15.0077C287.32 14.9668 287.245 14.938 287.19 14.9454C287.071 14.9546 286.964 15.0205 286.875 15.0978C286.882 15.1085 286.887 15.1202 286.891 15.1325Z" fill="#FFA9BE"/>
</g>
<mask id="mask27_187_27204" style="mask-type:luminance" maskUnits="userSpaceOnUse" x="239" y="-72" width="177" height="185">
<path d="M239.459 52.8811L309.539 112.45L415.44 -12.1365L345.36 -71.7055L239.459 52.8811Z" fill="white"/>
</mask>
<g mask="url(#mask27_187_27204)">
<path d="M293.325 13.4614C293.295 13.524 293.285 13.5995 293.334 13.6549C293.258 14.4104 293.376 15.1841 293.506 15.9291C293.705 17.1828 294.08 18.4035 294.718 19.5058C294.927 19.9186 295.21 20.2829 295.484 20.6531C295.666 20.9137 295.859 21.1692 296.097 21.3816C296.531 21.7216 297.048 22.0961 297.625 22.0572C298.404 21.966 298.733 21.1782 298.866 20.4973C299.039 19.4559 298.789 18.3 298.111 17.4784C299.183 17.8345 300.251 18.0572 301.268 17.418C302.246 16.8995 302.77 15.7543 302.759 14.675C302.7 13.8182 302.189 13.0615 301.608 12.4579C300.606 11.4792 299.093 11.3515 297.759 11.3635C296.781 11.3803 295.81 11.6604 294.95 12.1161C294.337 12.4517 293.611 12.7778 293.325 13.4614Z" fill="#EA81C2"/>
</g>
<mask id="mask28_187_27204" style="mask-type:luminance" maskUnits="userSpaceOnUse" x="239" y="-72" width="177" height="185">
<path d="M239.459 52.8813L309.539 112.45L415.44 -12.1363L345.36 -71.7053L239.459 52.8813Z" fill="white"/>
</mask>
<g mask="url(#mask28_187_27204)">
<path d="M293.941 18.4804C295.156 18.2113 295.091 18.1418 295.533 17.0447C295.677 16.7063 296.051 16.8298 296.334 16.8616C297.011 16.9707 297.198 16.1905 297.218 15.6663C297.252 15.4873 297.18 15.1676 297.339 15.0541C297.335 15.0551 297.332 15.0562 297.328 15.0573C297.325 15.0585 297.323 15.0596 297.318 15.0604C297.554 15.0369 297.799 15.0978 298.037 15.0421C298.483 14.9826 298.893 14.6244 298.89 14.1537C298.918 13.7641 298.645 13.4409 298.594 13.0687C298.584 12.9844 298.663 12.9357 298.725 12.8976C299.165 12.6903 299.474 12.4503 299.427 11.9174C299.419 11.4827 299.274 10.854 298.825 10.6863C298.606 10.6289 298.581 10.9797 298.805 10.9547C299.032 11.1695 299.12 11.5225 299.124 11.8216C299.236 12.6834 298.287 12.3786 298.252 13.0693C298.253 13.4809 298.618 13.8391 298.524 14.2571C298.453 14.5904 298.075 14.7071 297.773 14.7111C297.479 14.6996 297.084 14.6228 296.951 14.9693C296.799 15.4163 296.927 15.935 296.695 16.365C296.435 16.7708 295.739 16.1062 295.292 16.7554C294.891 17.3535 295.098 17.9179 294.203 18.0426C294.09 18.0737 293.978 18.1073 293.864 18.1293C293.637 18.1783 293.71 18.5289 293.941 18.4804Z" fill="#FFA9BE"/>
</g>
<mask id="mask29_187_27204" style="mask-type:luminance" maskUnits="userSpaceOnUse" x="239" y="-72" width="177" height="185">
<path d="M239.459 52.8811L309.539 112.45L415.44 -12.1365L345.36 -71.7055L239.459 52.8811Z" fill="white"/>
</mask>
<g mask="url(#mask29_187_27204)">
<path d="M300.712 15.1883C300.902 15.196 301.066 15.0843 301.225 14.9949C301.722 14.6299 301.497 13.7326 300.881 13.6602C300.473 13.6199 300.067 13.9573 300.004 14.3575C299.955 14.7645 300.293 15.187 300.712 15.1883Z" fill="#FFA9BE"/>
</g>
<mask id="mask30_187_27204" style="mask-type:luminance" maskUnits="userSpaceOnUse" x="239" y="-72" width="177" height="185">
<path d="M239.459 52.8811L309.539 112.45L415.44 -12.1365L345.36 -71.7055L239.459 52.8811Z" fill="white"/>
</mask>
<g mask="url(#mask30_187_27204)">
<path d="M299.355 16.4567C299.476 16.4277 299.624 16.2949 299.535 16.1655C299.453 16.0316 299.228 15.951 299.12 16.1065C299.02 16.2564 299.18 16.4868 299.355 16.4567Z" fill="#FFA9BE"/>
</g>
<mask id="mask31_187_27204" style="mask-type:luminance" maskUnits="userSpaceOnUse" x="239" y="-72" width="177" height="185">
<path d="M239.46 52.8811L309.54 112.45L415.44 -12.1365L345.36 -71.7055L239.46 52.8811Z" fill="white"/>
</mask>
<g mask="url(#mask31_187_27204)">
<path d="M296.133 18.7577C296.233 18.3638 296.686 18.0552 297.082 18.2223C297.726 18.5261 297.647 19.846 296.863 19.8813C296.337 19.8484 295.984 19.2448 296.133 18.7577ZM297.151 18.9036C297.134 18.7873 297.096 18.6678 297.011 18.5829C296.975 18.5419 296.899 18.5146 296.841 18.5187C296.989 18.608 297.028 18.7842 297.117 18.92C297.127 18.913 297.139 18.9075 297.151 18.9036Z" fill="#FFA9BE"/>
</g>
<mask id="mask32_187_27204" style="mask-type:luminance" maskUnits="userSpaceOnUse" x="239" y="-72" width="177" height="185">
<path d="M239.459 52.8811L309.539 112.45L415.44 -12.1365L345.36 -71.7055L239.459 52.8811Z" fill="white"/>
</mask>
<g mask="url(#mask32_187_27204)">
<path d="M297.42 8.68316C297.238 8.08956 296.522 8.3025 296.513 8.85745C295.821 9.34506 295.173 9.9109 294.675 10.5935C294.584 10.5266 294.49 10.481 294.395 10.454C294.468 10.1807 294.545 9.90324 294.607 9.62992C294.778 8.7672 294.896 7.85721 294.701 6.98928C295.094 6.63036 294.715 5.91433 294.216 6.24613C293.893 6.48234 293.827 7.14853 294.355 7.13067C294.578 8.23929 294.304 9.35828 294.032 10.4352C293.308 10.5584 292.732 11.5814 293.464 12.1165C293.434 12.1584 293.406 12.1968 293.383 12.2256C292.664 13.4964 291.985 14.8084 291.532 16.2009C291.368 16.7803 291.242 17.3842 291.301 17.9927C291.333 18.1875 291.314 18.436 291.477 18.5757C292.343 19.0928 292.638 17.0785 292.843 16.5459C293.026 15.729 293.27 14.9161 293.479 14.103C293.6 13.6428 293.721 13.1813 293.844 12.7217C293.885 12.5636 293.93 12.4067 293.975 12.2498C294.332 12.2193 294.674 11.9674 294.833 11.6399C295.025 11.3751 295.043 11.0576 294.88 10.8062C295.363 10.1777 295.971 9.6731 296.619 9.20937C296.909 9.69706 297.572 9.1086 297.42 8.68316Z" fill="#AFAFAF"/>
</g>
</g>
<g clip-path="url(#clip3_187_27204)">
<mask id="mask33_187_27204" style="mask-type:luminance" maskUnits="userSpaceOnUse" x="-30" y="-79" width="245" height="245">
<path d="M-29.1146 -78.0822H214.79V165.822H-29.1146V-78.0822Z" fill="white"/>
</mask>
<g mask="url(#mask33_187_27204)">
<path d="M126.676 8.50866C126.75 8.36037 126.913 8.21451 126.879 8.03744C126.793 7.7667 126.119 7.78719 125.862 7.71646C124.56 7.44768 123.23 7.38573 121.906 7.30329C121.731 7.2389 121.81 6.70084 121.8 6.53645C121.839 5.75156 121.917 4.96912 121.934 4.18326C121.948 3.74374 121.958 3.30423 121.932 2.8652C121.915 2.64325 121.905 2.39934 121.784 2.20666C121.479 1.85007 120.848 2.3452 120.517 2.48666C119.025 3.28081 117.612 4.21643 116.153 5.06619C115.832 3.83399 115.045 2.81886 114.35 1.77397C114.067 1.32616 113.785 0.876891 113.458 0.459327C113.075 -0.0255551 112.686 -0.184093 112.19 0.266642C111.305 1.16421 110.647 2.24861 109.912 3.27008C109.718 3.17301 109.526 3.07154 109.34 2.95886C108.401 2.43885 107.394 2.04666 106.47 1.49933C106.108 1.28567 105.486 0.783232 105.062 1.02909C104.841 1.37202 104.727 1.78812 104.547 2.1569C104.451 2.373 103.91 3.71301 103.706 4.5618C102.779 4.37985 101.819 4.44716 100.879 4.42521C100.605 4.42277 100.315 4.41643 100.022 4.43107C99.8611 4.43253 99.6899 4.47009 99.5967 4.61399C99.1567 5.19546 99.8748 7.09938 100.067 7.8067C100.348 8.67256 100.6 9.54769 100.902 10.4067C99.6606 10.7336 98.5665 11.4258 97.4065 11.9506C96.9148 12.1716 96.423 12.4048 95.9865 12.7243C95.7372 13.0053 96.0728 13.3736 96.2591 13.5985C97.0206 14.3541 97.7733 15.1194 98.5611 15.8482C98.8962 16.1663 99.2031 16.4843 99.4948 16.859C99.5543 16.9278 99.507 17.0224 99.4918 17.1004C99.1855 17.98 98.8489 18.8366 98.4772 19.6922C98.0723 20.5917 97.5796 21.4478 97.1894 22.3537C97.1065 22.5444 97.0274 22.7361 96.9601 22.9327C96.9304 23.0146 96.8962 23.1039 96.9255 23.1912C97.0826 23.5254 97.8596 23.3893 98.1728 23.3678C98.8201 23.2922 99.4728 23.2927 100.122 23.2395C100.666 23.2112 101.215 23.1537 101.758 23.2376C101.953 23.2981 101.978 23.56 102.037 23.7312C102.131 24.141 102.238 24.5473 102.325 24.959C102.488 25.8049 102.555 26.6644 102.696 27.5176C102.75 27.763 102.726 28.081 102.904 28.2742C103.094 28.3796 103.288 28.1805 103.429 28.0688C103.642 27.8839 103.86 27.7039 104.085 27.5342C104.918 26.9269 105.79 26.3156 106.67 25.7698C106.939 26.4386 107.543 26.8922 107.996 27.4313C108.428 27.9035 108.896 28.341 109.341 28.7996C109.551 29.0044 109.755 29.222 110.002 29.383C110.314 29.621 110.501 29.2771 110.723 29.0957C111.426 28.4537 112.129 27.8113 112.822 27.1586C113.485 27.7635 114.321 28.1254 115.08 28.5893C115.467 28.8157 115.896 29.1088 116.352 29.1981C116.854 29.1688 117.059 28.1186 117.222 27.7225C117.506 26.8152 117.957 25.9712 118.246 25.0664C119.612 24.9629 120.937 24.5786 122.27 24.2844C122.714 24.1654 123.185 24.1122 123.61 23.9415C123.893 23.7332 123.39 23.3878 123.258 23.2166C123.035 22.9805 122.816 22.7395 122.597 22.4995C122.21 22.081 121.96 21.5463 121.597 21.1034C122.171 20.5414 122.875 20.1346 123.519 19.6614C124.04 19.2863 124.528 18.8678 125.031 18.4697C125.341 18.2112 125.686 17.9848 125.97 17.6975C126.077 17.5429 125.9 17.4248 125.785 17.3463C125.607 17.219 125.465 17.0946 125.315 16.9258C124.673 16.1941 124.058 15.438 123.501 14.6399C123.311 14.3643 123.056 14.1453 122.87 13.8677C122.754 13.4594 123.698 12.3736 123.955 11.9906C124.832 10.8067 125.848 9.72721 126.676 8.50866Z" fill="#EF9107"/>
<path d="M104.968 7.97217C102.932 9.76194 100.366 14.5859 102.262 19.3025C104.16 24.0196 111.235 25.8138 114.208 24.4294C117.182 23.0455 121.437 14.9961 120.104 10.638C118.771 6.28045 109.109 4.33214 104.968 7.97217Z" fill="#FFC04F"/>
<path d="M111.103 19.6393C110.491 19.6124 110.105 18.8875 110.224 18.3305C110.272 18.1563 110.536 18.2188 110.5 18.3973C110.496 18.4778 110.479 18.5778 110.496 18.6549C110.544 18.8441 110.612 19.0393 110.754 19.1768C110.954 19.3841 111.328 19.428 111.509 19.1734C111.712 18.9139 111.751 18.5602 111.77 18.248C111.77 18.2085 111.779 18.1719 111.807 18.1417C111.888 18.0461 112.059 18.1051 112.061 18.2314C112.056 18.8163 111.836 19.6866 111.103 19.6393Z" fill="#474747"/>
<path d="M109.591 18.0173C109.354 17.8719 109.4 17.4836 109.53 17.2748C109.6 17.1124 109.835 17.0392 109.936 17.2124C110.124 17.3773 109.904 18.2192 109.591 18.0173Z" fill="#474747"/>
<path d="M112.522 18.236C112.476 18.1945 112.46 18.1267 112.458 18.0672C112.404 17.8965 112.364 17.7057 112.444 17.5331C112.539 17.2692 112.878 17.2282 112.949 17.5292C113.004 17.7614 112.87 18.4423 112.522 18.236Z" fill="#474747"/>
<path d="M118.539 16.2773C118.461 16.2607 118.409 16.1812 118.427 16.1036C118.48 15.8617 118.53 15.6202 118.569 15.3758C118.597 15.1695 118.612 14.9622 118.625 14.7544C118.641 14.6485 118.6 14.4885 118.726 14.4392C118.804 14.4134 118.898 14.4749 118.894 14.5592C118.91 14.8339 118.887 15.1114 118.857 15.3851C118.821 15.6471 118.769 15.9071 118.713 16.1656C118.695 16.2436 118.616 16.2949 118.539 16.2773Z" fill="#FFE2A8"/>
<path d="M117.939 18.4104C117.727 18.3074 117.939 18.0567 117.977 17.9021C118.027 17.784 118.078 17.666 118.115 17.543C118.125 17.4708 118.185 17.4089 118.261 17.4157C118.506 17.466 118.308 17.7845 118.269 17.9323C118.182 18.0762 118.17 18.4767 117.939 18.4104Z" fill="#FFE2A8"/>
<path d="M107.937 11.7367C107.781 11.7128 107.657 11.5737 107.696 11.4133C107.73 11.1996 107.816 10.944 108.048 10.8806C108.327 10.7435 108.798 10.8976 108.741 11.2615C108.638 11.5728 108.256 11.7845 107.937 11.7367Z" fill="#FFE2A8"/>
<path d="M103.072 16.7999C103.042 16.5643 103.068 16.3238 103.092 16.0887C103.127 15.8609 103.136 15.6136 103.236 15.4038C103.281 15.2755 103.484 15.3194 103.471 15.4565C103.455 15.5399 103.433 15.6082 103.422 15.6907C103.378 16.0458 103.325 16.4058 103.357 16.7643C103.37 16.939 103.105 16.9736 103.072 16.7999Z" fill="#FFE2A8"/>
<path d="M103.678 19.5439C103.627 19.4439 103.558 19.3537 103.512 19.2522C103.472 19.1297 103.438 19.0054 103.402 18.8819C103.324 18.6288 103.248 18.3614 103.295 18.0951C103.303 17.9478 103.526 17.9468 103.534 18.0951C103.514 18.2312 103.542 18.3673 103.569 18.501C103.655 18.8151 103.743 19.1332 103.929 19.4015C104.007 19.5595 103.776 19.6927 103.678 19.5439Z" fill="#FFE2A8"/>
<path d="M106.659 8.37793C107.619 8.10671 108.629 8.95306 107.835 9.86087C107.478 10.2623 106.929 10.4399 106.402 10.414C105.97 10.3692 105.521 10.1297 105.6 9.62965C105.644 9.03794 106.081 8.51793 106.659 8.37793Z" fill="#FFE2A8"/>
<path d="M105.012 12.1722C105.584 12.0853 105.92 12.6697 105.843 13.179C105.801 13.8044 105.212 14.5892 104.544 14.579C103.967 14.5146 103.79 13.8117 103.911 13.3253C103.981 12.7678 104.453 12.2585 105.012 12.1722Z" fill="#FFE2A8"/>
<path d="M111.757 25.0815C110.052 25.0815 108.07 24.5879 106.193 23.6449C103.177 22.1308 102.119 19.4873 102.076 19.3756L102.449 19.2303C102.459 19.2556 103.5 21.8444 106.373 23.2869C109.194 24.704 112.238 25.0806 114.127 24.2464L114.289 24.6123C113.575 24.9279 112.709 25.0815 111.757 25.0815Z" fill="#474747"/>
</g>
</g>
<g clip-path="url(#clip4_187_27204)">
<mask id="mask34_187_27204" style="mask-type:luminance" maskUnits="userSpaceOnUse" x="-140" y="-43" width="328" height="191">
<path d="M-139.393 -42.7587H187.62V147.094H-139.393V-42.7587Z" fill="white"/>
</mask>
<g mask="url(#mask34_187_27204)">
<path d="M115.447 22.9115C115.447 22.9115 111.01 22.0219 108.962 24.0867C106.913 26.1515 109.501 30.8447 117.584 32.9725C125.668 35.1 144.099 34.0361 151.32 30.97C158.542 27.9039 159.189 23.0228 156.171 21.6463C153.153 20.2695 149.381 21.0832 149.381 21.0832C149.381 21.0832 149.97 16.6073 144.207 15.639C140.111 14.9506 137.093 17.7039 137.093 17.7039C137.093 17.7039 135.369 13.5207 129.98 13.6365C123.971 13.7656 123.082 18.8305 123.082 18.8305C123.082 18.8305 114.477 16.2785 115.447 22.9115Z" fill="#FF7D9F"/>
</g>
<mask id="mask35_187_27204" style="mask-type:luminance" maskUnits="userSpaceOnUse" x="-142" y="-42" width="328" height="191">
<path d="M-141.328 -41.8288H185.685V148.023H-141.328V-41.8288Z" fill="white"/>
</mask>
<g mask="url(#mask35_187_27204)">
<path d="M129.06 30.5974C128.555 30.4949 128.139 30.2455 128.002 29.944C127.904 29.704 127.559 28.7969 128.325 28.8766C128.527 28.9237 128.553 29.0467 128.469 29.1504C128.425 29.3813 128.498 29.6117 128.587 29.8361C128.685 30.0811 129.076 30.2599 129.493 30.296C130.437 30.3134 130.984 29.6243 130.884 29.1474C130.865 28.9146 131.471 28.8933 131.498 29.1265C131.669 29.8847 130.514 30.9039 129.06 30.5974Z" fill="#474747"/>
</g>
<mask id="mask36_187_27204" style="mask-type:luminance" maskUnits="userSpaceOnUse" x="-142" y="-42" width="328" height="191">
<path d="M-141.328 -41.8288H185.685V148.023H-141.328V-41.8288Z" fill="white"/>
</mask>
<g mask="url(#mask36_187_27204)">
<path d="M124.017 28.1063C123.133 27.8883 123.236 26.4189 124.448 26.5332C125.616 26.6611 125.237 28.2734 124.017 28.1063Z" fill="#474747"/>
</g>
<mask id="mask37_187_27204" style="mask-type:luminance" maskUnits="userSpaceOnUse" x="-142" y="-42" width="328" height="191">
<path d="M-141.328 -41.8288H185.685V148.023H-141.328V-41.8288Z" fill="white"/>
</mask>
<g mask="url(#mask37_187_27204)">
<path d="M122.757 27.0115C122.528 26.9944 122.341 26.8774 122.229 26.7692C122.139 26.5357 122.63 26.4666 122.809 26.6678C123.164 26.7275 123.146 27.0115 122.757 27.0115Z" fill="#474747"/>
</g>
<mask id="mask38_187_27204" style="mask-type:luminance" maskUnits="userSpaceOnUse" x="-142" y="-42" width="328" height="191">
<path d="M-141.328 -41.8288H185.685V148.023H-141.328V-41.8288Z" fill="white"/>
</mask>
<g mask="url(#mask38_187_27204)">
<path d="M122.557 27.4093C122.393 27.3918 122.187 27.4047 122.062 27.3303C121.863 27.2031 122.151 27.0015 122.402 27.0911C122.605 27.0763 122.869 27.1176 122.85 27.2634C122.839 27.3519 122.704 27.4131 122.557 27.4093Z" fill="#474747"/>
</g>
<mask id="mask39_187_27204" style="mask-type:luminance" maskUnits="userSpaceOnUse" x="-142" y="-42" width="328" height="191">
<path d="M-141.328 -41.8288H185.685V148.023H-141.328V-41.8288Z" fill="white"/>
</mask>
<g mask="url(#mask39_187_27204)">
<path d="M135.337 28.1063C136.222 27.8883 136.118 26.4189 134.907 26.5332C133.739 26.6611 134.118 28.2734 135.337 28.1063Z" fill="#474747"/>
</g>
<mask id="mask40_187_27204" style="mask-type:luminance" maskUnits="userSpaceOnUse" x="-142" y="-42" width="328" height="191">
<path d="M-141.328 -41.8288H185.685V148.023H-141.328V-41.8288Z" fill="white"/>
</mask>
<g mask="url(#mask40_187_27204)">
<path d="M136.598 27.0115C136.826 26.9944 137.013 26.8774 137.125 26.7692C137.216 26.5357 136.725 26.4666 136.546 26.6678C136.191 26.7275 136.209 27.0115 136.598 27.0115Z" fill="#474747"/>
</g>
<mask id="mask41_187_27204" style="mask-type:luminance" maskUnits="userSpaceOnUse" x="-142" y="-42" width="328" height="191">
<path d="M-141.328 -41.8288H185.685V148.023H-141.328V-41.8288Z" fill="white"/>
</mask>
<g mask="url(#mask41_187_27204)">
<path d="M136.798 27.4093C136.962 27.3918 137.167 27.4047 137.293 27.3303C137.492 27.2031 137.204 27.0015 136.953 27.0911C136.749 27.0763 136.486 27.1176 136.505 27.2634C136.516 27.3519 136.651 27.4131 136.798 27.4093Z" fill="#474747"/>
</g>
<mask id="mask42_187_27204" style="mask-type:luminance" maskUnits="userSpaceOnUse" x="-142" y="-42" width="328" height="191">
<path d="M-141.328 -41.8288H185.685V148.023H-141.328V-41.8288Z" fill="white"/>
</mask>
<g mask="url(#mask42_187_27204)">
<path d="M117.835 22.8251C116.518 22.4678 117.418 20.9372 118.843 21.255C119.386 21.4422 119.728 21.7919 119.688 22.1606C119.67 22.3098 119.668 22.4852 119.469 22.595C119.052 22.8399 118.399 22.988 117.835 22.8251Z" fill="white"/>
</g>
<mask id="mask43_187_27204" style="mask-type:luminance" maskUnits="userSpaceOnUse" x="-142" y="-42" width="328" height="191">
<path d="M-141.328 -41.8288H185.685V148.023H-141.328V-41.8288Z" fill="white"/>
</mask>
<g mask="url(#mask43_187_27204)">
<path d="M118.153 25.4298C117.792 25.423 117.603 25.1584 117.716 24.9791C117.831 24.8261 118.133 24.7095 118.425 24.7437C119.083 24.831 118.786 25.5058 118.153 25.4298Z" fill="white"/>
</g>
<mask id="mask44_187_27204" style="mask-type:luminance" maskUnits="userSpaceOnUse" x="-142" y="-42" width="328" height="191">
<path d="M-141.328 -41.8288H185.685V148.023H-141.328V-41.8288Z" fill="white"/>
</mask>
<g mask="url(#mask44_187_27204)">
<path d="M120.61 24.5932C119.487 24.3809 119.92 23.3379 121.001 23.2927C121.767 23.2722 122.147 23.8288 121.873 24.193C121.688 24.4816 121.12 24.6418 120.61 24.5932Z" fill="white"/>
</g>
<mask id="mask45_187_27204" style="mask-type:luminance" maskUnits="userSpaceOnUse" x="-142" y="-42" width="328" height="191">
<path d="M-141.328 -41.8288H185.685V148.023H-141.328V-41.8288Z" fill="white"/>
</mask>
<g mask="url(#mask45_187_27204)">
<path d="M149.213 28.6789C148.847 28.6649 148.582 28.4477 148.648 28.2423C148.577 27.9396 149.11 27.6556 149.62 27.694C150.648 27.7961 150.087 28.7328 149.213 28.6789Z" fill="white"/>
</g>
<mask id="mask46_187_27204" style="mask-type:luminance" maskUnits="userSpaceOnUse" x="-142" y="-42" width="328" height="191">
<path d="M-141.328 -41.8288H185.685V148.023H-141.328V-41.8288Z" fill="white"/>
</mask>
<g mask="url(#mask46_187_27204)">
<path d="M148.654 30.9462C148.357 30.8611 148.111 30.6937 148.004 30.513C147.859 30.1082 148.579 29.6077 149.314 29.7627C150.54 30.0239 149.948 31.2276 148.654 30.9462Z" fill="white"/>
</g>
<mask id="mask47_187_27204" style="mask-type:luminance" maskUnits="userSpaceOnUse" x="-142" y="-42" width="328" height="191">
<path d="M-141.328 -41.8288H185.685V148.023H-141.328V-41.8288Z" fill="white"/>
</mask>
<g mask="url(#mask47_187_27204)">
<path d="M135.068 19.0298L134.853 18.7013C134.843 18.6865 133.866 17.203 132.683 16.1095C131.562 15.0736 129 14.8591 128.974 14.8568L129.063 14.4809C129.18 14.49 131.954 14.7232 133.236 15.9075C134.136 16.7386 134.899 17.757 135.253 18.259C136.141 17.6473 138.55 16.2078 141.545 16.2902L141.513 16.6692C138.164 16.583 135.45 18.7234 135.424 18.745L135.068 19.0298Z" fill="#474747"/>
</g>
</g>
<g clip-path="url(#clip5_187_27204)">
<mask id="mask48_187_27204" style="mask-type:luminance" maskUnits="userSpaceOnUse" x="-185" y="-43" width="328" height="191">
<path d="M-184.013 -42.7587H143V147.094H-184.013V-42.7587Z" fill="white"/>
</mask>
<g mask="url(#mask48_187_27204)">
<path d="M70.8271 22.9115C70.8271 22.9115 66.3896 22.0219 64.3418 24.0867C62.2934 26.1515 64.8807 30.8447 72.9645 32.9725C81.0482 35.1 99.4794 34.0361 106.7 30.97C113.922 27.9039 114.569 23.0228 111.551 21.6463C108.533 20.2695 104.761 21.0832 104.761 21.0832C104.761 21.0832 105.35 16.6073 99.5873 15.639C95.4911 14.9506 92.4734 17.7039 92.4734 17.7039C92.4734 17.7039 90.7488 13.5207 85.3596 13.6365C79.351 13.7656 78.4616 18.8305 78.4616 18.8305C78.4616 18.8305 69.8572 16.2785 70.8271 22.9115Z" fill="#FF7D9F"/>
</g>
<mask id="mask49_187_27204" style="mask-type:luminance" maskUnits="userSpaceOnUse" x="-186" y="-42" width="328" height="191">
<path d="M-185.948 -41.8288H141.065V148.023H-185.948V-41.8288Z" fill="white"/>
</mask>
<g mask="url(#mask49_187_27204)">
<path d="M84.4401 30.5974C83.9352 30.4949 83.5185 30.2455 83.3819 29.944C83.2838 29.704 82.9391 28.7969 83.7049 28.8766C83.907 28.9237 83.9325 29.0467 83.8495 29.1504C83.805 29.3813 83.8783 29.6117 83.9672 29.8361C84.0653 30.0811 84.4564 30.2599 84.873 30.296C85.8168 30.3134 86.3636 29.6243 86.2641 29.1474C86.2452 28.9146 86.8515 28.8933 86.8783 29.1265C87.049 29.8847 85.894 30.9039 84.4401 30.5974Z" fill="#474747"/>
</g>
<mask id="mask50_187_27204" style="mask-type:luminance" maskUnits="userSpaceOnUse" x="-186" y="-42" width="328" height="191">
<path d="M-185.948 -41.8288H141.065V148.023H-185.948V-41.8288Z" fill="white"/>
</mask>
<g mask="url(#mask50_187_27204)">
<path d="M79.3974 28.1063C78.5132 27.8883 78.6165 26.4189 79.8278 26.5332C80.9958 26.6611 80.6165 28.2734 79.3974 28.1063Z" fill="#474747"/>
</g>
<mask id="mask51_187_27204" style="mask-type:luminance" maskUnits="userSpaceOnUse" x="-186" y="-42" width="328" height="191">
<path d="M-185.948 -41.8288H141.065V148.023H-185.948V-41.8288Z" fill="white"/>
</mask>
<g mask="url(#mask51_187_27204)">
<path d="M78.1366 27.0115C77.9083 26.9944 77.7213 26.8774 77.6094 26.7692C77.5185 26.5357 78.0097 26.4666 78.1889 26.6678C78.544 26.7275 78.5257 27.0115 78.1366 27.0115Z" fill="#474747"/>
</g>
<mask id="mask52_187_27204" style="mask-type:luminance" maskUnits="userSpaceOnUse" x="-186" y="-42" width="328" height="191">
<path d="M-185.948 -41.8288H141.065V148.023H-185.948V-41.8288Z" fill="white"/>
</mask>
<g mask="url(#mask52_187_27204)">
<path d="M77.937 27.4093C77.7729 27.3918 77.5675 27.4047 77.4419 27.3303C77.2431 27.2031 77.5309 27.0015 77.782 27.0911C77.9854 27.0763 78.249 27.1176 78.23 27.2634C78.2189 27.3519 78.0842 27.4131 77.937 27.4093Z" fill="#474747"/>
</g>
<mask id="mask53_187_27204" style="mask-type:luminance" maskUnits="userSpaceOnUse" x="-186" y="-42" width="328" height="191">
<path d="M-185.948 -41.8288H141.065V148.023H-185.948V-41.8288Z" fill="white"/>
</mask>
<g mask="url(#mask53_187_27204)">
<path d="M90.7174 28.1063C91.6016 27.8883 91.4983 26.4189 90.287 26.5332C89.1189 26.6611 89.4983 28.2734 90.7174 28.1063Z" fill="#474747"/>
</g>
<mask id="mask54_187_27204" style="mask-type:luminance" maskUnits="userSpaceOnUse" x="-186" y="-42" width="328" height="191">
<path d="M-185.948 -41.8288H141.065V148.023H-185.948V-41.8288Z" fill="white"/>
</mask>
<g mask="url(#mask54_187_27204)">
<path d="M91.9782 27.0115C92.2065 26.9944 92.3935 26.8774 92.5053 26.7692C92.5963 26.5357 92.1051 26.4666 91.9259 26.6678C91.5707 26.7275 91.5891 27.0115 91.9782 27.0115Z" fill="#474747"/>
</g>
<mask id="mask55_187_27204" style="mask-type:luminance" maskUnits="userSpaceOnUse" x="-186" y="-42" width="328" height="191">
<path d="M-185.948 -41.8288H141.065V148.023H-185.948V-41.8288Z" fill="white"/>
</mask>
<g mask="url(#mask55_187_27204)">
<path d="M92.1777 27.4093C92.3419 27.3918 92.5472 27.4047 92.6728 27.3303C92.8716 27.2031 92.5838 27.0015 92.3327 27.0911C92.1293 27.0763 91.8657 27.1176 91.8847 27.2634C91.8965 27.3519 92.0305 27.4131 92.1777 27.4093Z" fill="#474747"/>
</g>
<mask id="mask56_187_27204" style="mask-type:luminance" maskUnits="userSpaceOnUse" x="-186" y="-42" width="328" height="191">
<path d="M-185.948 -41.8288H141.065V148.023H-185.948V-41.8288Z" fill="white"/>
</mask>
<g mask="url(#mask56_187_27204)">
<path d="M73.2154 22.8251C71.8982 22.4678 72.7982 20.9372 74.2226 21.255C74.7661 21.4422 75.1082 21.7919 75.0683 22.1606C75.05 22.3098 75.048 22.4852 74.8485 22.595C74.4319 22.8399 73.7786 22.988 73.2154 22.8251Z" fill="white"/>
</g>
<mask id="mask57_187_27204" style="mask-type:luminance" maskUnits="userSpaceOnUse" x="-186" y="-42" width="328" height="191">
<path d="M-185.948 -41.8288H141.065V148.023H-185.948V-41.8288Z" fill="white"/>
</mask>
<g mask="url(#mask57_187_27204)">
<path d="M73.5332 25.4298C73.1722 25.423 72.9825 25.1584 73.0957 24.9791C73.2108 24.8261 73.5129 24.7095 73.8046 24.7437C74.4626 24.831 74.1657 25.5058 73.5332 25.4298Z" fill="white"/>
</g>
<mask id="mask58_187_27204" style="mask-type:luminance" maskUnits="userSpaceOnUse" x="-186" y="-42" width="328" height="191">
<path d="M-185.948 -41.8288H141.065V148.023H-185.948V-41.8288Z" fill="white"/>
</mask>
<g mask="url(#mask58_187_27204)">
<path d="M75.9898 24.5932C74.8675 24.3809 75.3005 23.3379 76.3809 23.2927C77.1468 23.2722 77.5268 23.8288 77.2534 24.193C77.0676 24.4816 76.4999 24.6418 75.9898 24.5932Z" fill="white"/>
</g>
<mask id="mask59_187_27204" style="mask-type:luminance" maskUnits="userSpaceOnUse" x="-186" y="-42" width="328" height="191">
<path d="M-185.948 -41.8288H141.065V148.023H-185.948V-41.8288Z" fill="white"/>
</mask>
<g mask="url(#mask59_187_27204)">
<path d="M104.593 28.6789C104.227 28.6649 103.962 28.4477 104.028 28.2423C103.957 27.9396 104.49 27.6556 105 27.694C106.028 27.7961 105.467 28.7328 104.593 28.6789Z" fill="white"/>
</g>
<mask id="mask60_187_27204" style="mask-type:luminance" maskUnits="userSpaceOnUse" x="-186" y="-42" width="328" height="191">
<path d="M-185.948 -41.8288H141.065V148.023H-185.948V-41.8288Z" fill="white"/>
</mask>
<g mask="url(#mask60_187_27204)">
<path d="M104.034 30.9462C103.737 30.8611 103.491 30.6937 103.384 30.513C103.239 30.1082 103.959 29.6077 104.694 29.7627C105.92 30.0239 105.328 31.2276 104.034 30.9462Z" fill="white"/>
</g>
<mask id="mask61_187_27204" style="mask-type:luminance" maskUnits="userSpaceOnUse" x="-186" y="-42" width="328" height="191">
<path d="M-185.948 -41.8288H141.065V148.023H-185.948V-41.8288Z" fill="white"/>
</mask>
<g mask="url(#mask61_187_27204)">
<path d="M90.4484 19.0298L90.2326 18.7013C90.2228 18.6865 89.2463 17.203 88.0625 16.1095C86.9415 15.0736 84.3803 14.8591 84.3542 14.8568L84.4431 14.4809C84.5602 14.49 87.3339 14.7232 88.6165 15.9075C89.5158 16.7386 90.279 17.757 90.6335 18.259C91.521 17.6473 93.9304 16.2078 96.9252 16.2902L96.8925 16.6692C93.5439 16.583 90.8297 18.7234 90.8035 18.745L90.4484 19.0298Z" fill="#474747"/>
</g>
</g>
<g clip-path="url(#clip6_187_27204)">
<mask id="mask62_187_27204" style="mask-type:luminance" maskUnits="userSpaceOnUse" x="29" y="-45" width="331" height="196">
<path d="M29.3695 -38.9646L356.34 -44.2518L359.41 145.576L32.439 150.863L29.3695 -38.9646Z" fill="white"/>
</mask>
<g mask="url(#mask62_187_27204)">
<path d="M285.238 22.5768C285.238 22.5768 280.787 21.759 278.773 23.8567C276.758 25.9544 279.421 30.6051 287.538 32.602C295.655 34.5985 314.067 33.2367 321.237 30.0542C328.408 26.8718 328.976 21.9809 325.936 20.6534C322.896 19.3256 319.138 20.2002 319.138 20.2002C319.138 20.2002 319.655 15.7153 313.877 14.8403C309.77 14.2182 306.797 17.0199 306.797 17.0199C306.797 17.0199 305.005 12.8651 299.619 13.068C293.613 13.2943 292.806 18.3729 292.806 18.3729C292.806 18.3729 284.161 15.9603 285.238 22.5768Z" fill="#FF7D9F"/>
</g>
<mask id="mask63_187_27204" style="mask-type:luminance" maskUnits="userSpaceOnUse" x="27" y="-44" width="331" height="196">
<path d="M27.4501 -38.0037L354.421 -43.2908L357.49 146.537L30.5196 151.824L27.4501 -38.0037Z" fill="white"/>
</mask>
<g mask="url(#mask63_187_27204)">
<path d="M298.974 30.0416C298.467 29.9472 298.047 29.7045 297.905 29.4053C297.803 29.167 297.444 28.2655 298.211 28.3329C298.414 28.3767 298.441 28.4993 298.36 28.6043C298.319 28.8358 298.396 29.0651 298.489 29.288C298.591 29.5313 298.985 29.7038 299.402 29.7331C300.346 29.7353 300.881 29.0374 300.774 28.5622C300.751 28.3298 301.357 28.2987 301.388 28.5314C301.571 29.2868 300.432 30.3245 298.974 30.0416Z" fill="#474747"/>
</g>
<mask id="mask64_187_27204" style="mask-type:luminance" maskUnits="userSpaceOnUse" x="27" y="-44" width="331" height="196">
<path d="M27.4501 -38.0037L354.421 -43.2908L357.49 146.537L30.5196 151.824L27.4501 -38.0037Z" fill="white"/>
</mask>
<g mask="url(#mask64_187_27204)">
<path d="M293.891 27.632C293.004 27.4284 293.083 25.9574 294.296 26.0521C295.466 26.1612 295.113 27.7793 293.891 27.632Z" fill="#474747"/>
</g>
<mask id="mask65_187_27204" style="mask-type:luminance" maskUnits="userSpaceOnUse" x="27" y="-44" width="331" height="196">
<path d="M27.4501 -38.0037L354.421 -43.2908L357.49 146.537L30.5196 151.824L27.4501 -38.0037Z" fill="white"/>
</mask>
<g mask="url(#mask65_187_27204)">
<path d="M292.613 26.5577C292.384 26.5443 292.196 26.4304 292.082 26.324C291.987 26.092 292.477 26.015 292.66 26.2133C293.016 26.2671 293.002 26.5514 292.613 26.5577Z" fill="#474747"/>
</g>
<mask id="mask66_187_27204" style="mask-type:luminance" maskUnits="userSpaceOnUse" x="27" y="-44" width="331" height="196">
<path d="M27.4501 -38.0037L354.421 -43.2908L357.49 146.537L30.5196 151.824L27.4501 -38.0037Z" fill="white"/>
</mask>
<g mask="url(#mask66_187_27204)">
<path d="M292.42 26.9588C292.255 26.944 292.05 26.9602 291.924 26.8878C291.723 26.7638 292.007 26.5576 292.26 26.6431C292.463 26.625 292.727 26.6622 292.71 26.8082C292.701 26.8969 292.567 26.9602 292.42 26.9588Z" fill="#474747"/>
</g>
<mask id="mask67_187_27204" style="mask-type:luminance" maskUnits="userSpaceOnUse" x="27" y="-44" width="331" height="196">
<path d="M27.4501 -38.0037L354.421 -43.2908L357.49 146.537L30.5196 151.824L27.4501 -38.0037Z" fill="white"/>
</mask>
<g mask="url(#mask67_187_27204)">
<path d="M305.21 27.449C306.09 27.2168 305.963 25.7492 304.754 25.8831C303.588 26.0299 303.994 27.6358 305.21 27.449Z" fill="#474747"/>
</g>
<mask id="mask68_187_27204" style="mask-type:luminance" maskUnits="userSpaceOnUse" x="27" y="-44" width="331" height="196">
<path d="M27.4501 -38.0037L354.421 -43.2908L357.49 146.537L30.5196 151.824L27.4501 -38.0037Z" fill="white"/>
</mask>
<g mask="url(#mask68_187_27204)">
<path d="M306.453 26.3339C306.681 26.3131 306.866 26.1932 306.976 26.0832C307.063 25.8482 306.571 25.7871 306.395 25.9912C306.041 26.0565 306.064 26.3402 306.453 26.3339Z" fill="#474747"/>
</g>
<mask id="mask69_187_27204" style="mask-type:luminance" maskUnits="userSpaceOnUse" x="27" y="-44" width="331" height="196">
<path d="M27.4501 -38.0037L354.421 -43.2908L357.49 146.537L30.5196 151.824L27.4501 -38.0037Z" fill="white"/>
</mask>
<g mask="url(#mask69_187_27204)">
<path d="M306.659 26.7285C306.823 26.7084 307.028 26.7179 307.152 26.6415C307.349 26.5111 307.058 26.3142 306.809 26.4078C306.605 26.3963 306.342 26.4419 306.363 26.5874C306.377 26.6757 306.512 26.7347 306.659 26.7285Z" fill="#474747"/>
</g>
<mask id="mask70_187_27204" style="mask-type:luminance" maskUnits="userSpaceOnUse" x="27" y="-44" width="331" height="196">
<path d="M27.4501 -38.0037L354.421 -43.2908L357.49 146.537L30.5196 151.824L27.4501 -38.0037Z" fill="white"/>
</mask>
<g mask="url(#mask70_187_27204)">
<path d="M287.625 22.4517C286.302 22.1157 287.177 20.5708 288.606 20.8655C289.153 21.0439 289.501 21.388 289.467 21.7573C289.451 21.9068 289.452 22.0823 289.254 22.1952C288.841 22.4468 288.19 22.6054 287.625 22.4517Z" fill="white"/>
</g>
<mask id="mask71_187_27204" style="mask-type:luminance" maskUnits="userSpaceOnUse" x="27" y="-44" width="331" height="196">
<path d="M27.4501 -38.0037L354.421 -43.2908L357.49 146.537L30.5196 151.824L27.4501 -38.0037Z" fill="white"/>
</mask>
<g mask="url(#mask71_187_27204)">
<path d="M287.985 25.0509C287.624 25.0499 287.43 24.7884 287.54 24.6073C287.653 24.4525 287.953 24.331 288.245 24.3605C288.904 24.4372 288.618 25.1166 287.985 25.0509Z" fill="white"/>
</g>
<mask id="mask72_187_27204" style="mask-type:luminance" maskUnits="userSpaceOnUse" x="27" y="-44" width="331" height="196">
<path d="M27.4501 -38.0037L354.421 -43.2908L357.49 146.537L30.5196 151.824L27.4501 -38.0037Z" fill="white"/>
</mask>
<g mask="url(#mask72_187_27204)">
<path d="M290.427 24.1746C289.302 23.9805 289.718 22.9306 290.797 22.8679C291.563 22.8351 291.952 23.3855 291.684 23.754C291.503 24.0455 290.938 24.2149 290.427 24.1746Z" fill="white"/>
</g>
<mask id="mask73_187_27204" style="mask-type:luminance" maskUnits="userSpaceOnUse" x="27" y="-44" width="331" height="196">
<path d="M27.4501 -38.0037L354.421 -43.2908L357.49 146.537L30.5196 151.824L27.4501 -38.0037Z" fill="white"/>
</mask>
<g mask="url(#mask73_187_27204)">
<path d="M319.093 27.7973C318.727 27.7892 318.458 27.5763 318.521 27.3698C318.445 27.0684 318.973 26.7758 319.484 26.8059C320.513 26.8914 319.968 27.8371 319.093 27.7973Z" fill="white"/>
</g>
<mask id="mask74_187_27204" style="mask-type:luminance" maskUnits="userSpaceOnUse" x="27" y="-44" width="331" height="196">
<path d="M27.4501 -38.0037L354.421 -43.2908L357.49 146.537L30.5196 151.824L27.4501 -38.0037Z" fill="white"/>
</mask>
<g mask="url(#mask74_187_27204)">
<path d="M318.57 30.0733C318.272 29.9931 318.023 29.8296 317.913 29.6507C317.762 29.2483 318.474 28.7363 319.212 28.8793C320.441 29.1207 319.869 30.3337 318.57 30.0733Z" fill="white"/>
</g>
<mask id="mask75_187_27204" style="mask-type:luminance" maskUnits="userSpaceOnUse" x="27" y="-44" width="331" height="196">
<path d="M27.4501 -38.0037L354.421 -43.2908L357.49 146.537L30.5196 151.824L27.4501 -38.0037Z" fill="white"/>
</mask>
<g mask="url(#mask75_187_27204)">
<path d="M304.794 18.378L304.573 18.0531C304.563 18.0385 303.563 16.5709 302.361 15.4967C301.224 14.4791 298.659 14.306 298.633 14.3042L298.716 13.9269C298.833 13.9341 301.61 14.1223 302.912 15.2857C303.825 16.1023 304.604 17.1082 304.967 17.6043C305.844 16.9784 308.23 15.5001 311.226 15.5341L311.199 15.9135C307.85 15.8815 305.17 18.0655 305.145 18.0875L304.794 18.378Z" fill="#474747"/>
</g>
</g>
<defs>
<clipPath id="clip0_187_27204">
<rect width="30.9861" height="24.943" fill="white" transform="translate(22.4893 4.33789) rotate(64.3728)"/>
</clipPath>
<clipPath id="clip1_187_27204">
<rect width="18.5917" height="14.9658" fill="white" transform="translate(200.408 6.19727) rotate(40.365)"/>
</clipPath>
<clipPath id="clip2_187_27204">
<rect width="18.5917" height="14.9658" fill="white" transform="translate(290.268 2.47925) rotate(40.365)"/>
</clipPath>
<clipPath id="clip3_187_27204">
<rect width="30.9861" height="29.4641" fill="white" transform="translate(95.8977)"/>
</clipPath>
<clipPath id="clip4_187_27204">
<rect width="49.5778" height="20.4508" fill="white" transform="translate(108.292 13.634)"/>
</clipPath>
<clipPath id="clip5_187_27204">
<rect width="49.5778" height="20.4508" fill="white" transform="translate(63.672 13.634)"/>
</clipPath>
<clipPath id="clip6_187_27204">
<rect width="49.5778" height="20.4508" fill="white" transform="translate(277.934 13.4163) rotate(-0.9264)"/>
</clipPath>
</defs>
</svg>
